  0
SECTION
  2
HEADER
  9
$ACADVER
  1
AC1009
  9
$EXTMIN
 10
0.0
 20
0.0
 30
0.0
  9
$EXTMAX
 10
1000.0
 20
1000.0
 30
0.0
  9
$FILLMODE
 70
 0
  9
$SPLFRAME
 70
 1
  0
ENDSEC
  0
SECTION
  2
TABLES
  0
TABLE
  2
LAYER
 70
1
  0
LAYER
  2
0
 70
     0
 62
     7
  6
CONTINUOUS
  0
ENDTAB
  0
ENDSEC
  0
SECTION
  2
ENTITIES
  0
LINE
  8
0
 62
     0
 10
0.0950846
 20
84.5714
 30
0.0
 11
84.2959
 21
84.5714
 31
0.0
  0
LINE
  8
0
 62
     0
 10
84.2959
 20
84.5714
 30
0.0
 11
84.2959
 21
0.370692
 31
0.0
  0
LINE
  8
0
 62
     0
 10
84.2959
 20
0.370692
 30
0.0
 11
0.0950846
 21
0.370692
 31
0.0
  0
LINE
  8
0
 62
     0
 10
0.0950846
 20
0.370692
 30
0.0
 11
0.0950846
 21
84.5714
 31
0.0
  0
LINE
  8
0
 62
     0
 10
63.7702
 20
20.8966
 30
0.0
 11
63.7702
 21
19.8975
 31
0.0
  0
LINE
  8
0
 62
     0
 10
63.7702
 20
19.8975
 30
0.0
 11
62.9694
 21
19.8975
 31
0.0
  0
LINE
  8
0
 62
     0
 10
62.9694
 20
19.8975
 30
0.0
 11
62.9694
 21
16.7983
 31
0.0
  0
LINE
  8
0
 62
     0
 10
62.9694
 20
16.7983
 30
0.0
 11
63.7702
 21
16.7983
 31
0.0
  0
LINE
  8
0
 62
     0
 10
63.7702
 20
16.7983
 30
0.0
 11
63.7702
 21
10.9968
 31
0.0
  0
LINE
  8
0
 62
     0
 10
63.7702
 20
10.9968
 30
0.0
 11
62.9694
 21
10.9968
 31
0.0
  0
LINE
  8
0
 62
     0
 10
62.9694
 20
10.9968
 30
0.0
 11
62.9694
 21
7.89753
 31
0.0
  0
LINE
  8
0
 62
     0
 10
62.9694
 20
7.89753
 30
0.0
 11
63.7702
 21
7.89753
 31
0.0
  0
LINE
  8
0
 62
     0
 10
63.7702
 20
7.89753
 30
0.0
 11
63.7702
 21
6.89709
 31
0.0
  0
LINE
  8
0
 62
     0
 10
63.7702
 20
6.89709
 30
0.0
 11
77.7695
 21
6.89709
 31
0.0
  0
LINE
  8
0
 62
     0
 10
77.7695
 20
6.89709
 30
0.0
 11
77.7695
 21
7.89753
 31
0.0
  0
LINE
  8
0
 62
     0
 10
77.7695
 20
7.89753
 30
0.0
 11
78.5689
 21
7.89753
 31
0.0
  0
LINE
  8
0
 62
     0
 10
78.5689
 20
7.89753
 30
0.0
 11
78.5689
 21
10.9968
 31
0.0
  0
LINE
  8
0
 62
     0
 10
78.5689
 20
10.9968
 30
0.0
 11
77.7695
 21
10.9968
 31
0.0
  0
LINE
  8
0
 62
     0
 10
77.7695
 20
10.9968
 30
0.0
 11
77.7695
 21
16.7983
 31
0.0
  0
LINE
  8
0
 62
     0
 10
77.7695
 20
16.7983
 30
0.0
 11
78.5689
 21
16.7983
 31
0.0
  0
LINE
  8
0
 62
     0
 10
78.5689
 20
16.7983
 30
0.0
 11
78.5689
 21
19.8975
 31
0.0
  0
LINE
  8
0
 62
     0
 10
78.5689
 20
19.8975
 30
0.0
 11
77.7695
 21
19.8975
 31
0.0
  0
LINE
  8
0
 62
     0
 10
77.7695
 20
19.8975
 30
0.0
 11
77.7695
 21
20.8966
 31
0.0
  0
LINE
  8
0
 62
     0
 10
77.7695
 20
20.8966
 30
0.0
 11
63.7702
 21
20.8966
 31
0.0
  0
LINE
  8
0
 62
     0
 10
44.7202
 20
20.8966
 30
0.0
 11
44.7202
 21
19.8975
 31
0.0
  0
LINE
  8
0
 62
     0
 10
44.7202
 20
19.8975
 30
0.0
 11
43.9194
 21
19.8975
 31
0.0
  0
LINE
  8
0
 62
     0
 10
43.9194
 20
19.8975
 30
0.0
 11
43.9194
 21
16.7983
 31
0.0
  0
LINE
  8
0
 62
     0
 10
43.9194
 20
16.7983
 30
0.0
 11
44.7202
 21
16.7983
 31
0.0
  0
LINE
  8
0
 62
     0
 10
44.7202
 20
16.7983
 30
0.0
 11
44.7202
 21
10.9968
 31
0.0
  0
LINE
  8
0
 62
     0
 10
44.7202
 20
10.9968
 30
0.0
 11
43.9194
 21
10.9968
 31
0.0
  0
LINE
  8
0
 62
     0
 10
43.9194
 20
10.9968
 30
0.0
 11
43.9194
 21
7.89753
 31
0.0
  0
LINE
  8
0
 62
     0
 10
43.9194
 20
7.89753
 30
0.0
 11
44.7202
 21
7.89753
 31
0.0
  0
LINE
  8
0
 62
     0
 10
44.7202
 20
7.89753
 30
0.0
 11
44.7202
 21
6.89709
 31
0.0
  0
LINE
  8
0
 62
     0
 10
44.7202
 20
6.89709
 30
0.0
 11
58.7195
 21
6.89709
 31
0.0
  0
LINE
  8
0
 62
     0
 10
58.7195
 20
6.89709
 30
0.0
 11
58.7195
 21
7.89753
 31
0.0
  0
LINE
  8
0
 62
     0
 10
58.7195
 20
7.89753
 30
0.0
 11
59.5189
 21
7.89753
 31
0.0
  0
LINE
  8
0
 62
     0
 10
59.5189
 20
7.89753
 30
0.0
 11
59.5189
 21
10.9968
 31
0.0
  0
LINE
  8
0
 62
     0
 10
59.5189
 20
10.9968
 30
0.0
 11
58.7195
 21
10.9968
 31
0.0
  0
LINE
  8
0
 62
     0
 10
58.7195
 20
10.9968
 30
0.0
 11
58.7195
 21
16.7983
 31
0.0
  0
LINE
  8
0
 62
     0
 10
58.7195
 20
16.7983
 30
0.0
 11
59.5189
 21
16.7983
 31
0.0
  0
LINE
  8
0
 62
     0
 10
59.5189
 20
16.7983
 30
0.0
 11
59.5189
 21
19.8975
 31
0.0
  0
LINE
  8
0
 62
     0
 10
59.5189
 20
19.8975
 30
0.0
 11
58.7195
 21
19.8975
 31
0.0
  0
LINE
  8
0
 62
     0
 10
58.7195
 20
19.8975
 30
0.0
 11
58.7195
 21
20.8966
 31
0.0
  0
LINE
  8
0
 62
     0
 10
58.7195
 20
20.8966
 30
0.0
 11
44.7202
 21
20.8966
 31
0.0
  0
LINE
  8
0
 62
     0
 10
25.6701
 20
20.8966
 30
0.0
 11
25.6701
 21
19.8975
 31
0.0
  0
LINE
  8
0
 62
     0
 10
25.6701
 20
19.8975
 30
0.0
 11
24.8695
 21
19.8975
 31
0.0
  0
LINE
  8
0
 62
     0
 10
24.8695
 20
19.8975
 30
0.0
 11
24.8695
 21
16.7983
 31
0.0
  0
LINE
  8
0
 62
     0
 10
24.8695
 20
16.7983
 30
0.0
 11
25.6701
 21
16.7983
 31
0.0
  0
LINE
  8
0
 62
     0
 10
25.6701
 20
16.7983
 30
0.0
 11
25.6701
 21
10.9968
 31
0.0
  0
LINE
  8
0
 62
     0
 10
25.6701
 20
10.9968
 30
0.0
 11
24.8695
 21
10.9968
 31
0.0
  0
LINE
  8
0
 62
     0
 10
24.8695
 20
10.9968
 30
0.0
 11
24.8695
 21
7.89753
 31
0.0
  0
LINE
  8
0
 62
     0
 10
24.8695
 20
7.89753
 30
0.0
 11
25.6701
 21
7.89753
 31
0.0
  0
LINE
  8
0
 62
     0
 10
25.6701
 20
7.89753
 30
0.0
 11
25.6701
 21
6.89709
 31
0.0
  0
LINE
  8
0
 62
     0
 10
25.6701
 20
6.89709
 30
0.0
 11
39.6695
 21
6.89709
 31
0.0
  0
LINE
  8
0
 62
     0
 10
39.6695
 20
6.89709
 30
0.0
 11
39.6695
 21
7.89753
 31
0.0
  0
LINE
  8
0
 62
     0
 10
39.6695
 20
7.89753
 30
0.0
 11
40.4689
 21
7.89753
 31
0.0
  0
LINE
  8
0
 62
     0
 10
40.4689
 20
7.89753
 30
0.0
 11
40.4689
 21
10.9968
 31
0.0
  0
LINE
  8
0
 62
     0
 10
40.4689
 20
10.9968
 30
0.0
 11
39.6695
 21
10.9968
 31
0.0
  0
LINE
  8
0
 62
     0
 10
39.6695
 20
10.9968
 30
0.0
 11
39.6695
 21
16.7983
 31
0.0
  0
LINE
  8
0
 62
     0
 10
39.6695
 20
16.7983
 30
0.0
 11
40.4689
 21
16.7983
 31
0.0
  0
LINE
  8
0
 62
     0
 10
40.4689
 20
16.7983
 30
0.0
 11
40.4689
 21
19.8975
 31
0.0
  0
LINE
  8
0
 62
     0
 10
40.4689
 20
19.8975
 30
0.0
 11
39.6695
 21
19.8975
 31
0.0
  0
LINE
  8
0
 62
     0
 10
39.6695
 20
19.8975
 30
0.0
 11
39.6695
 21
20.8966
 31
0.0
  0
LINE
  8
0
 62
     0
 10
39.6695
 20
20.8966
 30
0.0
 11
25.6701
 21
20.8966
 31
0.0
  0
LINE
  8
0
 62
     0
 10
6.61871
 20
20.8966
 30
0.0
 11
6.61871
 21
19.8975
 31
0.0
  0
LINE
  8
0
 62
     0
 10
6.61871
 20
19.8975
 30
0.0
 11
5.81808
 21
19.8975
 31
0.0
  0
LINE
  8
0
 62
     0
 10
5.81808
 20
19.8975
 30
0.0
 11
5.81808
 21
16.7983
 31
0.0
  0
LINE
  8
0
 62
     0
 10
5.81808
 20
16.7983
 30
0.0
 11
6.61871
 21
16.7983
 31
0.0
  0
LINE
  8
0
 62
     0
 10
6.61871
 20
16.7983
 30
0.0
 11
6.61871
 21
10.9968
 31
0.0
  0
LINE
  8
0
 62
     0
 10
6.61871
 20
10.9968
 30
0.0
 11
5.81808
 21
10.9968
 31
0.0
  0
LINE
  8
0
 62
     0
 10
5.81808
 20
10.9968
 30
0.0
 11
5.81808
 21
7.89753
 31
0.0
  0
LINE
  8
0
 62
     0
 10
5.81808
 20
7.89753
 30
0.0
 11
6.61871
 21
7.89753
 31
0.0
  0
LINE
  8
0
 62
     0
 10
6.61871
 20
7.89753
 30
0.0
 11
6.61871
 21
6.89709
 31
0.0
  0
LINE
  8
0
 62
     0
 10
6.61871
 20
6.89709
 30
0.0
 11
20.6196
 21
6.89709
 31
0.0
  0
LINE
  8
0
 62
     0
 10
20.6196
 20
6.89709
 30
0.0
 11
20.6196
 21
7.89753
 31
0.0
  0
LINE
  8
0
 62
     0
 10
20.6196
 20
7.89753
 30
0.0
 11
21.4188
 21
7.89753
 31
0.0
  0
LINE
  8
0
 62
     0
 10
21.4188
 20
7.89753
 30
0.0
 11
21.4188
 21
10.9968
 31
0.0
  0
LINE
  8
0
 62
     0
 10
21.4188
 20
10.9968
 30
0.0
 11
20.6196
 21
10.9968
 31
0.0
  0
LINE
  8
0
 62
     0
 10
20.6196
 20
10.9968
 30
0.0
 11
20.6196
 21
16.7983
 31
0.0
  0
LINE
  8
0
 62
     0
 10
20.6196
 20
16.7983
 30
0.0
 11
21.4188
 21
16.7983
 31
0.0
  0
LINE
  8
0
 62
     0
 10
21.4188
 20
16.7983
 30
0.0
 11
21.4188
 21
19.8975
 31
0.0
  0
LINE
  8
0
 62
     0
 10
21.4188
 20
19.8975
 30
0.0
 11
20.6196
 21
19.8975
 31
0.0
  0
LINE
  8
0
 62
     0
 10
20.6196
 20
19.8975
 30
0.0
 11
20.6196
 21
20.8966
 31
0.0
  0
LINE
  8
0
 62
     0
 10
20.6196
 20
20.8966
 30
0.0
 11
6.61871
 21
20.8966
 31
0.0
  0
LINE
  8
0
 62
     0
 10
63.7702
 20
39.9464
 30
0.0
 11
63.7702
 21
38.9474
 31
0.0
  0
LINE
  8
0
 62
     0
 10
63.7702
 20
38.9474
 30
0.0
 11
62.9694
 21
38.9474
 31
0.0
  0
LINE
  8
0
 62
     0
 10
62.9694
 20
38.9474
 30
0.0
 11
62.9694
 21
35.8468
 31
0.0
  0
LINE
  8
0
 62
     0
 10
62.9694
 20
35.8468
 30
0.0
 11
63.7702
 21
35.8468
 31
0.0
  0
LINE
  8
0
 62
     0
 10
63.7702
 20
35.8468
 30
0.0
 11
63.7702
 21
30.0468
 31
0.0
  0
LINE
  8
0
 62
     0
 10
63.7702
 20
30.0468
 30
0.0
 11
62.9694
 21
30.0468
 31
0.0
  0
LINE
  8
0
 62
     0
 10
62.9694
 20
30.0468
 30
0.0
 11
62.9694
 21
26.9475
 31
0.0
  0
LINE
  8
0
 62
     0
 10
62.9694
 20
26.9475
 30
0.0
 11
63.7702
 21
26.9475
 31
0.0
  0
LINE
  8
0
 62
     0
 10
63.7702
 20
26.9475
 30
0.0
 11
63.7702
 21
25.9471
 31
0.0
  0
LINE
  8
0
 62
     0
 10
63.7702
 20
25.9471
 30
0.0
 11
77.7695
 21
25.9471
 31
0.0
  0
LINE
  8
0
 62
     0
 10
77.7695
 20
25.9471
 30
0.0
 11
77.7695
 21
26.9475
 31
0.0
  0
LINE
  8
0
 62
     0
 10
77.7695
 20
26.9475
 30
0.0
 11
78.5689
 21
26.9475
 31
0.0
  0
LINE
  8
0
 62
     0
 10
78.5689
 20
26.9475
 30
0.0
 11
78.5689
 21
30.0468
 31
0.0
  0
LINE
  8
0
 62
     0
 10
78.5689
 20
30.0468
 30
0.0
 11
77.7695
 21
30.0468
 31
0.0
  0
LINE
  8
0
 62
     0
 10
77.7695
 20
30.0468
 30
0.0
 11
77.7695
 21
35.8468
 31
0.0
  0
LINE
  8
0
 62
     0
 10
77.7695
 20
35.8468
 30
0.0
 11
78.5689
 21
35.8468
 31
0.0
  0
LINE
  8
0
 62
     0
 10
78.5689
 20
35.8468
 30
0.0
 11
78.5689
 21
38.9474
 31
0.0
  0
LINE
  8
0
 62
     0
 10
78.5689
 20
38.9474
 30
0.0
 11
77.7695
 21
38.9474
 31
0.0
  0
LINE
  8
0
 62
     0
 10
77.7695
 20
38.9474
 30
0.0
 11
77.7695
 21
39.9464
 31
0.0
  0
LINE
  8
0
 62
     0
 10
77.7695
 20
39.9464
 30
0.0
 11
63.7702
 21
39.9464
 31
0.0
  0
LINE
  8
0
 62
     0
 10
44.7202
 20
39.9464
 30
0.0
 11
44.7202
 21
38.9474
 31
0.0
  0
LINE
  8
0
 62
     0
 10
44.7202
 20
38.9474
 30
0.0
 11
43.9194
 21
38.9474
 31
0.0
  0
LINE
  8
0
 62
     0
 10
43.9194
 20
38.9474
 30
0.0
 11
43.9194
 21
35.8468
 31
0.0
  0
LINE
  8
0
 62
     0
 10
43.9194
 20
35.8468
 30
0.0
 11
44.7202
 21
35.8468
 31
0.0
  0
LINE
  8
0
 62
     0
 10
44.7202
 20
35.8468
 30
0.0
 11
44.7202
 21
30.0468
 31
0.0
  0
LINE
  8
0
 62
     0
 10
44.7202
 20
30.0468
 30
0.0
 11
43.9194
 21
30.0468
 31
0.0
  0
LINE
  8
0
 62
     0
 10
43.9194
 20
30.0468
 30
0.0
 11
43.9194
 21
26.9475
 31
0.0
  0
LINE
  8
0
 62
     0
 10
43.9194
 20
26.9475
 30
0.0
 11
44.7202
 21
26.9475
 31
0.0
  0
LINE
  8
0
 62
     0
 10
44.7202
 20
26.9475
 30
0.0
 11
44.7202
 21
25.9471
 31
0.0
  0
LINE
  8
0
 62
     0
 10
44.7202
 20
25.9471
 30
0.0
 11
58.7195
 21
25.9471
 31
0.0
  0
LINE
  8
0
 62
     0
 10
58.7195
 20
25.9471
 30
0.0
 11
58.7195
 21
26.9475
 31
0.0
  0
LINE
  8
0
 62
     0
 10
58.7195
 20
26.9475
 30
0.0
 11
59.5189
 21
26.9475
 31
0.0
  0
LINE
  8
0
 62
     0
 10
59.5189
 20
26.9475
 30
0.0
 11
59.5189
 21
30.0468
 31
0.0
  0
LINE
  8
0
 62
     0
 10
59.5189
 20
30.0468
 30
0.0
 11
58.7195
 21
30.0468
 31
0.0
  0
LINE
  8
0
 62
     0
 10
58.7195
 20
30.0468
 30
0.0
 11
58.7195
 21
35.8468
 31
0.0
  0
LINE
  8
0
 62
     0
 10
58.7195
 20
35.8468
 30
0.0
 11
59.5189
 21
35.8468
 31
0.0
  0
LINE
  8
0
 62
     0
 10
59.5189
 20
35.8468
 30
0.0
 11
59.5189
 21
38.9474
 31
0.0
  0
LINE
  8
0
 62
     0
 10
59.5189
 20
38.9474
 30
0.0
 11
58.7195
 21
38.9474
 31
0.0
  0
LINE
  8
0
 62
     0
 10
58.7195
 20
38.9474
 30
0.0
 11
58.7195
 21
39.9464
 31
0.0
  0
LINE
  8
0
 62
     0
 10
58.7195
 20
39.9464
 30
0.0
 11
44.7202
 21
39.9464
 31
0.0
  0
LINE
  8
0
 62
     0
 10
25.6701
 20
39.9464
 30
0.0
 11
25.6701
 21
38.9474
 31
0.0
  0
LINE
  8
0
 62
     0
 10
25.6701
 20
38.9474
 30
0.0
 11
24.8695
 21
38.9474
 31
0.0
  0
LINE
  8
0
 62
     0
 10
24.8695
 20
38.9474
 30
0.0
 11
24.8695
 21
35.8468
 31
0.0
  0
LINE
  8
0
 62
     0
 10
24.8695
 20
35.8468
 30
0.0
 11
25.6701
 21
35.8468
 31
0.0
  0
LINE
  8
0
 62
     0
 10
25.6701
 20
35.8468
 30
0.0
 11
25.6701
 21
30.0468
 31
0.0
  0
LINE
  8
0
 62
     0
 10
25.6701
 20
30.0468
 30
0.0
 11
24.8695
 21
30.0468
 31
0.0
  0
LINE
  8
0
 62
     0
 10
24.8695
 20
30.0468
 30
0.0
 11
24.8695
 21
26.9475
 31
0.0
  0
LINE
  8
0
 62
     0
 10
24.8695
 20
26.9475
 30
0.0
 11
25.6701
 21
26.9475
 31
0.0
  0
LINE
  8
0
 62
     0
 10
25.6701
 20
26.9475
 30
0.0
 11
25.6701
 21
25.9471
 31
0.0
  0
LINE
  8
0
 62
     0
 10
25.6701
 20
25.9471
 30
0.0
 11
39.6695
 21
25.9471
 31
0.0
  0
LINE
  8
0
 62
     0
 10
39.6695
 20
25.9471
 30
0.0
 11
39.6695
 21
26.9475
 31
0.0
  0
LINE
  8
0
 62
     0
 10
39.6695
 20
26.9475
 30
0.0
 11
40.4689
 21
26.9475
 31
0.0
  0
LINE
  8
0
 62
     0
 10
40.4689
 20
26.9475
 30
0.0
 11
40.4689
 21
30.0468
 31
0.0
  0
LINE
  8
0
 62
     0
 10
40.4689
 20
30.0468
 30
0.0
 11
39.6695
 21
30.0468
 31
0.0
  0
LINE
  8
0
 62
     0
 10
39.6695
 20
30.0468
 30
0.0
 11
39.6695
 21
35.8468
 31
0.0
  0
LINE
  8
0
 62
     0
 10
39.6695
 20
35.8468
 30
0.0
 11
40.4689
 21
35.8468
 31
0.0
  0
LINE
  8
0
 62
     0
 10
40.4689
 20
35.8468
 30
0.0
 11
40.4689
 21
38.9474
 31
0.0
  0
LINE
  8
0
 62
     0
 10
40.4689
 20
38.9474
 30
0.0
 11
39.6695
 21
38.9474
 31
0.0
  0
LINE
  8
0
 62
     0
 10
39.6695
 20
38.9474
 30
0.0
 11
39.6695
 21
39.9464
 31
0.0
  0
LINE
  8
0
 62
     0
 10
39.6695
 20
39.9464
 30
0.0
 11
25.6701
 21
39.9464
 31
0.0
  0
LINE
  8
0
 62
     0
 10
6.61871
 20
39.9464
 30
0.0
 11
6.61871
 21
38.9474
 31
0.0
  0
LINE
  8
0
 62
     0
 10
6.61871
 20
38.9474
 30
0.0
 11
5.81808
 21
38.9474
 31
0.0
  0
LINE
  8
0
 62
     0
 10
5.81808
 20
38.9474
 30
0.0
 11
5.81808
 21
35.8468
 31
0.0
  0
LINE
  8
0
 62
     0
 10
5.81808
 20
35.8468
 30
0.0
 11
6.61871
 21
35.8468
 31
0.0
  0
LINE
  8
0
 62
     0
 10
6.61871
 20
35.8468
 30
0.0
 11
6.61871
 21
30.0468
 31
0.0
  0
LINE
  8
0
 62
     0
 10
6.61871
 20
30.0468
 30
0.0
 11
5.81808
 21
30.0468
 31
0.0
  0
LINE
  8
0
 62
     0
 10
5.81808
 20
30.0468
 30
0.0
 11
5.81808
 21
26.9475
 31
0.0
  0
LINE
  8
0
 62
     0
 10
5.81808
 20
26.9475
 30
0.0
 11
6.61871
 21
26.9475
 31
0.0
  0
LINE
  8
0
 62
     0
 10
6.61871
 20
26.9475
 30
0.0
 11
6.61871
 21
25.9471
 31
0.0
  0
LINE
  8
0
 62
     0
 10
6.61871
 20
25.9471
 30
0.0
 11
20.6196
 21
25.9471
 31
0.0
  0
LINE
  8
0
 62
     0
 10
20.6196
 20
25.9471
 30
0.0
 11
20.6196
 21
26.9475
 31
0.0
  0
LINE
  8
0
 62
     0
 10
20.6196
 20
26.9475
 30
0.0
 11
21.4188
 21
26.9475
 31
0.0
  0
LINE
  8
0
 62
     0
 10
21.4188
 20
26.9475
 30
0.0
 11
21.4188
 21
30.0468
 31
0.0
  0
LINE
  8
0
 62
     0
 10
21.4188
 20
30.0468
 30
0.0
 11
20.6196
 21
30.0468
 31
0.0
  0
LINE
  8
0
 62
     0
 10
20.6196
 20
30.0468
 30
0.0
 11
20.6196
 21
35.8468
 31
0.0
  0
LINE
  8
0
 62
     0
 10
20.6196
 20
35.8468
 30
0.0
 11
21.4188
 21
35.8468
 31
0.0
  0
LINE
  8
0
 62
     0
 10
21.4188
 20
35.8468
 30
0.0
 11
21.4188
 21
38.9474
 31
0.0
  0
LINE
  8
0
 62
     0
 10
21.4188
 20
38.9474
 30
0.0
 11
20.6196
 21
38.9474
 31
0.0
  0
LINE
  8
0
 62
     0
 10
20.6196
 20
38.9474
 30
0.0
 11
20.6196
 21
39.9464
 31
0.0
  0
LINE
  8
0
 62
     0
 10
20.6196
 20
39.9464
 30
0.0
 11
6.61871
 21
39.9464
 31
0.0
  0
LINE
  8
0
 62
     0
 10
63.7702
 20
58.9964
 30
0.0
 11
63.7702
 21
57.9974
 31
0.0
  0
LINE
  8
0
 62
     0
 10
63.7702
 20
57.9974
 30
0.0
 11
62.9694
 21
57.9974
 31
0.0
  0
LINE
  8
0
 62
     0
 10
62.9694
 20
57.9974
 30
0.0
 11
62.9694
 21
54.8968
 31
0.0
  0
LINE
  8
0
 62
     0
 10
62.9694
 20
54.8968
 30
0.0
 11
63.7702
 21
54.8968
 31
0.0
  0
LINE
  8
0
 62
     0
 10
63.7702
 20
54.8968
 30
0.0
 11
63.7702
 21
49.0968
 31
0.0
  0
LINE
  8
0
 62
     0
 10
63.7702
 20
49.0968
 30
0.0
 11
62.9694
 21
49.0968
 31
0.0
  0
LINE
  8
0
 62
     0
 10
62.9694
 20
49.0968
 30
0.0
 11
62.9694
 21
45.9976
 31
0.0
  0
LINE
  8
0
 62
     0
 10
62.9694
 20
45.9976
 30
0.0
 11
63.7702
 21
45.9976
 31
0.0
  0
LINE
  8
0
 62
     0
 10
63.7702
 20
45.9976
 30
0.0
 11
63.7702
 21
44.9972
 31
0.0
  0
LINE
  8
0
 62
     0
 10
63.7702
 20
44.9972
 30
0.0
 11
77.7695
 21
44.9972
 31
0.0
  0
LINE
  8
0
 62
     0
 10
77.7695
 20
44.9972
 30
0.0
 11
77.7695
 21
45.9976
 31
0.0
  0
LINE
  8
0
 62
     0
 10
77.7695
 20
45.9976
 30
0.0
 11
78.5689
 21
45.9976
 31
0.0
  0
LINE
  8
0
 62
     0
 10
78.5689
 20
45.9976
 30
0.0
 11
78.5689
 21
49.0968
 31
0.0
  0
LINE
  8
0
 62
     0
 10
78.5689
 20
49.0968
 30
0.0
 11
77.7695
 21
49.0968
 31
0.0
  0
LINE
  8
0
 62
     0
 10
77.7695
 20
49.0968
 30
0.0
 11
77.7695
 21
54.8968
 31
0.0
  0
LINE
  8
0
 62
     0
 10
77.7695
 20
54.8968
 30
0.0
 11
78.5689
 21
54.8968
 31
0.0
  0
LINE
  8
0
 62
     0
 10
78.5689
 20
54.8968
 30
0.0
 11
78.5689
 21
57.9974
 31
0.0
  0
LINE
  8
0
 62
     0
 10
78.5689
 20
57.9974
 30
0.0
 11
77.7695
 21
57.9974
 31
0.0
  0
LINE
  8
0
 62
     0
 10
77.7695
 20
57.9974
 30
0.0
 11
77.7695
 21
58.9964
 31
0.0
  0
LINE
  8
0
 62
     0
 10
77.7695
 20
58.9964
 30
0.0
 11
63.7702
 21
58.9964
 31
0.0
  0
LINE
  8
0
 62
     0
 10
44.7202
 20
58.9964
 30
0.0
 11
44.7202
 21
57.9974
 31
0.0
  0
LINE
  8
0
 62
     0
 10
44.7202
 20
57.9974
 30
0.0
 11
43.9194
 21
57.9974
 31
0.0
  0
LINE
  8
0
 62
     0
 10
43.9194
 20
57.9974
 30
0.0
 11
43.9194
 21
54.8968
 31
0.0
  0
LINE
  8
0
 62
     0
 10
43.9194
 20
54.8968
 30
0.0
 11
44.7202
 21
54.8968
 31
0.0
  0
LINE
  8
0
 62
     0
 10
44.7202
 20
54.8968
 30
0.0
 11
44.7202
 21
49.0968
 31
0.0
  0
LINE
  8
0
 62
     0
 10
44.7202
 20
49.0968
 30
0.0
 11
43.9194
 21
49.0968
 31
0.0
  0
LINE
  8
0
 62
     0
 10
43.9194
 20
49.0968
 30
0.0
 11
43.9194
 21
45.9976
 31
0.0
  0
LINE
  8
0
 62
     0
 10
43.9194
 20
45.9976
 30
0.0
 11
44.7202
 21
45.9976
 31
0.0
  0
LINE
  8
0
 62
     0
 10
44.7202
 20
45.9976
 30
0.0
 11
44.7202
 21
44.9972
 31
0.0
  0
LINE
  8
0
 62
     0
 10
44.7202
 20
44.9972
 30
0.0
 11
58.7195
 21
44.9972
 31
0.0
  0
LINE
  8
0
 62
     0
 10
58.7195
 20
44.9972
 30
0.0
 11
58.7195
 21
45.9976
 31
0.0
  0
LINE
  8
0
 62
     0
 10
58.7195
 20
45.9976
 30
0.0
 11
59.5189
 21
45.9976
 31
0.0
  0
LINE
  8
0
 62
     0
 10
59.5189
 20
45.9976
 30
0.0
 11
59.5189
 21
49.0968
 31
0.0
  0
LINE
  8
0
 62
     0
 10
59.5189
 20
49.0968
 30
0.0
 11
58.7195
 21
49.0968
 31
0.0
  0
LINE
  8
0
 62
     0
 10
58.7195
 20
49.0968
 30
0.0
 11
58.7195
 21
54.8968
 31
0.0
  0
LINE
  8
0
 62
     0
 10
58.7195
 20
54.8968
 30
0.0
 11
59.5189
 21
54.8968
 31
0.0
  0
LINE
  8
0
 62
     0
 10
59.5189
 20
54.8968
 30
0.0
 11
59.5189
 21
57.9974
 31
0.0
  0
LINE
  8
0
 62
     0
 10
59.5189
 20
57.9974
 30
0.0
 11
58.7195
 21
57.9974
 31
0.0
  0
LINE
  8
0
 62
     0
 10
58.7195
 20
57.9974
 30
0.0
 11
58.7195
 21
58.9964
 31
0.0
  0
LINE
  8
0
 62
     0
 10
58.7195
 20
58.9964
 30
0.0
 11
44.7202
 21
58.9964
 31
0.0
  0
LINE
  8
0
 62
     0
 10
25.6701
 20
58.9964
 30
0.0
 11
25.6701
 21
57.9974
 31
0.0
  0
LINE
  8
0
 62
     0
 10
25.6701
 20
57.9974
 30
0.0
 11
24.8695
 21
57.9974
 31
0.0
  0
LINE
  8
0
 62
     0
 10
24.8695
 20
57.9974
 30
0.0
 11
24.8695
 21
54.8968
 31
0.0
  0
LINE
  8
0
 62
     0
 10
24.8695
 20
54.8968
 30
0.0
 11
25.6701
 21
54.8968
 31
0.0
  0
LINE
  8
0
 62
     0
 10
25.6701
 20
54.8968
 30
0.0
 11
25.6701
 21
49.0968
 31
0.0
  0
LINE
  8
0
 62
     0
 10
25.6701
 20
49.0968
 30
0.0
 11
24.8695
 21
49.0968
 31
0.0
  0
LINE
  8
0
 62
     0
 10
24.8695
 20
49.0968
 30
0.0
 11
24.8695
 21
45.9976
 31
0.0
  0
LINE
  8
0
 62
     0
 10
24.8695
 20
45.9976
 30
0.0
 11
25.6701
 21
45.9976
 31
0.0
  0
LINE
  8
0
 62
     0
 10
25.6701
 20
45.9976
 30
0.0
 11
25.6701
 21
44.9972
 31
0.0
  0
LINE
  8
0
 62
     0
 10
25.6701
 20
44.9972
 30
0.0
 11
39.6695
 21
44.9972
 31
0.0
  0
LINE
  8
0
 62
     0
 10
39.6695
 20
44.9972
 30
0.0
 11
39.6695
 21
45.9976
 31
0.0
  0
LINE
  8
0
 62
     0
 10
39.6695
 20
45.9976
 30
0.0
 11
40.4689
 21
45.9976
 31
0.0
  0
LINE
  8
0
 62
     0
 10
40.4689
 20
45.9976
 30
0.0
 11
40.4689
 21
49.0968
 31
0.0
  0
LINE
  8
0
 62
     0
 10
40.4689
 20
49.0968
 30
0.0
 11
39.6695
 21
49.0968
 31
0.0
  0
LINE
  8
0
 62
     0
 10
39.6695
 20
49.0968
 30
0.0
 11
39.6695
 21
54.8968
 31
0.0
  0
LINE
  8
0
 62
     0
 10
39.6695
 20
54.8968
 30
0.0
 11
40.4689
 21
54.8968
 31
0.0
  0
LINE
  8
0
 62
     0
 10
40.4689
 20
54.8968
 30
0.0
 11
40.4689
 21
57.9974
 31
0.0
  0
LINE
  8
0
 62
     0
 10
40.4689
 20
57.9974
 30
0.0
 11
39.6695
 21
57.9974
 31
0.0
  0
LINE
  8
0
 62
     0
 10
39.6695
 20
57.9974
 30
0.0
 11
39.6695
 21
58.9964
 31
0.0
  0
LINE
  8
0
 62
     0
 10
39.6695
 20
58.9964
 30
0.0
 11
25.6701
 21
58.9964
 31
0.0
  0
LINE
  8
0
 62
     0
 10
6.61871
 20
58.9964
 30
0.0
 11
6.61871
 21
57.9974
 31
0.0
  0
LINE
  8
0
 62
     0
 10
6.61871
 20
57.9974
 30
0.0
 11
5.81808
 21
57.9974
 31
0.0
  0
LINE
  8
0
 62
     0
 10
5.81808
 20
57.9974
 30
0.0
 11
5.81808
 21
54.8968
 31
0.0
  0
LINE
  8
0
 62
     0
 10
5.81808
 20
54.8968
 30
0.0
 11
6.61871
 21
54.8968
 31
0.0
  0
LINE
  8
0
 62
     0
 10
6.61871
 20
54.8968
 30
0.0
 11
6.61871
 21
49.0968
 31
0.0
  0
LINE
  8
0
 62
     0
 10
6.61871
 20
49.0968
 30
0.0
 11
5.81808
 21
49.0968
 31
0.0
  0
LINE
  8
0
 62
     0
 10
5.81808
 20
49.0968
 30
0.0
 11
5.81808
 21
45.9976
 31
0.0
  0
LINE
  8
0
 62
     0
 10
5.81808
 20
45.9976
 30
0.0
 11
6.61871
 21
45.9976
 31
0.0
  0
LINE
  8
0
 62
     0
 10
6.61871
 20
45.9976
 30
0.0
 11
6.61871
 21
44.9972
 31
0.0
  0
LINE
  8
0
 62
     0
 10
6.61871
 20
44.9972
 30
0.0
 11
20.6196
 21
44.9972
 31
0.0
  0
LINE
  8
0
 62
     0
 10
20.6196
 20
44.9972
 30
0.0
 11
20.6196
 21
45.9976
 31
0.0
  0
LINE
  8
0
 62
     0
 10
20.6196
 20
45.9976
 30
0.0
 11
21.4188
 21
45.9976
 31
0.0
  0
LINE
  8
0
 62
     0
 10
21.4188
 20
45.9976
 30
0.0
 11
21.4188
 21
49.0968
 31
0.0
  0
LINE
  8
0
 62
     0
 10
21.4188
 20
49.0968
 30
0.0
 11
20.6196
 21
49.0968
 31
0.0
  0
LINE
  8
0
 62
     0
 10
20.6196
 20
49.0968
 30
0.0
 11
20.6196
 21
54.8968
 31
0.0
  0
LINE
  8
0
 62
     0
 10
20.6196
 20
54.8968
 30
0.0
 11
21.4188
 21
54.8968
 31
0.0
  0
LINE
  8
0
 62
     0
 10
21.4188
 20
54.8968
 30
0.0
 11
21.4188
 21
57.9974
 31
0.0
  0
LINE
  8
0
 62
     0
 10
21.4188
 20
57.9974
 30
0.0
 11
20.6196
 21
57.9974
 31
0.0
  0
LINE
  8
0
 62
     0
 10
20.6196
 20
57.9974
 30
0.0
 11
20.6196
 21
58.9964
 31
0.0
  0
LINE
  8
0
 62
     0
 10
20.6196
 20
58.9964
 30
0.0
 11
6.61871
 21
58.9964
 31
0.0
  0
LINE
  8
0
 62
     0
 10
63.7702
 20
78.0479
 30
0.0
 11
63.7702
 21
77.0474
 31
0.0
  0
LINE
  8
0
 62
     0
 10
63.7702
 20
77.0474
 30
0.0
 11
62.9694
 21
77.0474
 31
0.0
  0
LINE
  8
0
 62
     0
 10
62.9694
 20
77.0474
 30
0.0
 11
62.9694
 21
73.9482
 31
0.0
  0
LINE
  8
0
 62
     0
 10
62.9694
 20
73.9482
 30
0.0
 11
63.7702
 21
73.9482
 31
0.0
  0
LINE
  8
0
 62
     0
 10
63.7702
 20
73.9482
 30
0.0
 11
63.7702
 21
68.1482
 31
0.0
  0
LINE
  8
0
 62
     0
 10
63.7702
 20
68.1482
 30
0.0
 11
62.9694
 21
68.1482
 31
0.0
  0
LINE
  8
0
 62
     0
 10
62.9694
 20
68.1482
 30
0.0
 11
62.9694
 21
65.0476
 31
0.0
  0
LINE
  8
0
 62
     0
 10
62.9694
 20
65.0476
 30
0.0
 11
63.7702
 21
65.0476
 31
0.0
  0
LINE
  8
0
 62
     0
 10
63.7702
 20
65.0476
 30
0.0
 11
63.7702
 21
64.0472
 31
0.0
  0
LINE
  8
0
 62
     0
 10
63.7702
 20
64.0472
 30
0.0
 11
77.7695
 21
64.0472
 31
0.0
  0
LINE
  8
0
 62
     0
 10
77.7695
 20
64.0472
 30
0.0
 11
77.7695
 21
65.0476
 31
0.0
  0
LINE
  8
0
 62
     0
 10
77.7695
 20
65.0476
 30
0.0
 11
78.5689
 21
65.0476
 31
0.0
  0
LINE
  8
0
 62
     0
 10
78.5689
 20
65.0476
 30
0.0
 11
78.5689
 21
68.1482
 31
0.0
  0
LINE
  8
0
 62
     0
 10
78.5689
 20
68.1482
 30
0.0
 11
77.7695
 21
68.1482
 31
0.0
  0
LINE
  8
0
 62
     0
 10
77.7695
 20
68.1482
 30
0.0
 11
77.7695
 21
73.9482
 31
0.0
  0
LINE
  8
0
 62
     0
 10
77.7695
 20
73.9482
 30
0.0
 11
78.5689
 21
73.9482
 31
0.0
  0
LINE
  8
0
 62
     0
 10
78.5689
 20
73.9482
 30
0.0
 11
78.5689
 21
77.0474
 31
0.0
  0
LINE
  8
0
 62
     0
 10
78.5689
 20
77.0474
 30
0.0
 11
77.7695
 21
77.0474
 31
0.0
  0
LINE
  8
0
 62
     0
 10
77.7695
 20
77.0474
 30
0.0
 11
77.7695
 21
78.0479
 31
0.0
  0
LINE
  8
0
 62
     0
 10
77.7695
 20
78.0479
 30
0.0
 11
63.7702
 21
78.0479
 31
0.0
  0
LINE
  8
0
 62
     0
 10
44.7202
 20
78.0479
 30
0.0
 11
44.7202
 21
77.0474
 31
0.0
  0
LINE
  8
0
 62
     0
 10
44.7202
 20
77.0474
 30
0.0
 11
43.9194
 21
77.0474
 31
0.0
  0
LINE
  8
0
 62
     0
 10
43.9194
 20
77.0474
 30
0.0
 11
43.9194
 21
73.9482
 31
0.0
  0
LINE
  8
0
 62
     0
 10
43.9194
 20
73.9482
 30
0.0
 11
44.7202
 21
73.9482
 31
0.0
  0
LINE
  8
0
 62
     0
 10
44.7202
 20
73.9482
 30
0.0
 11
44.7202
 21
68.1482
 31
0.0
  0
LINE
  8
0
 62
     0
 10
44.7202
 20
68.1482
 30
0.0
 11
43.9194
 21
68.1482
 31
0.0
  0
LINE
  8
0
 62
     0
 10
43.9194
 20
68.1482
 30
0.0
 11
43.9194
 21
65.0476
 31
0.0
  0
LINE
  8
0
 62
     0
 10
43.9194
 20
65.0476
 30
0.0
 11
44.7202
 21
65.0476
 31
0.0
  0
LINE
  8
0
 62
     0
 10
44.7202
 20
65.0476
 30
0.0
 11
44.7202
 21
64.0472
 31
0.0
  0
LINE
  8
0
 62
     0
 10
44.7202
 20
64.0472
 30
0.0
 11
58.7195
 21
64.0472
 31
0.0
  0
LINE
  8
0
 62
     0
 10
58.7195
 20
64.0472
 30
0.0
 11
58.7195
 21
65.0476
 31
0.0
  0
LINE
  8
0
 62
     0
 10
58.7195
 20
65.0476
 30
0.0
 11
59.5189
 21
65.0476
 31
0.0
  0
LINE
  8
0
 62
     0
 10
59.5189
 20
65.0476
 30
0.0
 11
59.5189
 21
68.1482
 31
0.0
  0
LINE
  8
0
 62
     0
 10
59.5189
 20
68.1482
 30
0.0
 11
58.7195
 21
68.1482
 31
0.0
  0
LINE
  8
0
 62
     0
 10
58.7195
 20
68.1482
 30
0.0
 11
58.7195
 21
73.9482
 31
0.0
  0
LINE
  8
0
 62
     0
 10
58.7195
 20
73.9482
 30
0.0
 11
59.5189
 21
73.9482
 31
0.0
  0
LINE
  8
0
 62
     0
 10
59.5189
 20
73.9482
 30
0.0
 11
59.5189
 21
77.0474
 31
0.0
  0
LINE
  8
0
 62
     0
 10
59.5189
 20
77.0474
 30
0.0
 11
58.7195
 21
77.0474
 31
0.0
  0
LINE
  8
0
 62
     0
 10
58.7195
 20
77.0474
 30
0.0
 11
58.7195
 21
78.0479
 31
0.0
  0
LINE
  8
0
 62
     0
 10
58.7195
 20
78.0479
 30
0.0
 11
44.7202
 21
78.0479
 31
0.0
  0
LINE
  8
0
 62
     0
 10
25.6701
 20
78.0479
 30
0.0
 11
25.6701
 21
77.0474
 31
0.0
  0
LINE
  8
0
 62
     0
 10
25.6701
 20
77.0474
 30
0.0
 11
24.8695
 21
77.0474
 31
0.0
  0
LINE
  8
0
 62
     0
 10
24.8695
 20
77.0474
 30
0.0
 11
24.8695
 21
73.9482
 31
0.0
  0
LINE
  8
0
 62
     0
 10
24.8695
 20
73.9482
 30
0.0
 11
25.6701
 21
73.9482
 31
0.0
  0
LINE
  8
0
 62
     0
 10
25.6701
 20
73.9482
 30
0.0
 11
25.6701
 21
68.1482
 31
0.0
  0
LINE
  8
0
 62
     0
 10
25.6701
 20
68.1482
 30
0.0
 11
24.8695
 21
68.1482
 31
0.0
  0
LINE
  8
0
 62
     0
 10
24.8695
 20
68.1482
 30
0.0
 11
24.8695
 21
65.0476
 31
0.0
  0
LINE
  8
0
 62
     0
 10
24.8695
 20
65.0476
 30
0.0
 11
25.6701
 21
65.0476
 31
0.0
  0
LINE
  8
0
 62
     0
 10
25.6701
 20
65.0476
 30
0.0
 11
25.6701
 21
64.0472
 31
0.0
  0
LINE
  8
0
 62
     0
 10
25.6701
 20
64.0472
 30
0.0
 11
39.6695
 21
64.0472
 31
0.0
  0
LINE
  8
0
 62
     0
 10
39.6695
 20
64.0472
 30
0.0
 11
39.6695
 21
65.0476
 31
0.0
  0
LINE
  8
0
 62
     0
 10
39.6695
 20
65.0476
 30
0.0
 11
40.4689
 21
65.0476
 31
0.0
  0
LINE
  8
0
 62
     0
 10
40.4689
 20
65.0476
 30
0.0
 11
40.4689
 21
68.1482
 31
0.0
  0
LINE
  8
0
 62
     0
 10
40.4689
 20
68.1482
 30
0.0
 11
39.6695
 21
68.1482
 31
0.0
  0
LINE
  8
0
 62
     0
 10
39.6695
 20
68.1482
 30
0.0
 11
39.6695
 21
73.9482
 31
0.0
  0
LINE
  8
0
 62
     0
 10
39.6695
 20
73.9482
 30
0.0
 11
40.4689
 21
73.9482
 31
0.0
  0
LINE
  8
0
 62
     0
 10
40.4689
 20
73.9482
 30
0.0
 11
40.4689
 21
77.0474
 31
0.0
  0
LINE
  8
0
 62
     0
 10
40.4689
 20
77.0474
 30
0.0
 11
39.6695
 21
77.0474
 31
0.0
  0
LINE
  8
0
 62
     0
 10
39.6695
 20
77.0474
 30
0.0
 11
39.6695
 21
78.0479
 31
0.0
  0
LINE
  8
0
 62
     0
 10
39.6695
 20
78.0479
 30
0.0
 11
25.6701
 21
78.0479
 31
0.0
  0
LINE
  8
0
 62
     0
 10
6.61871
 20
78.0479
 30
0.0
 11
6.61871
 21
77.0474
 31
0.0
  0
LINE
  8
0
 62
     0
 10
6.61871
 20
77.0474
 30
0.0
 11
5.81808
 21
77.0474
 31
0.0
  0
LINE
  8
0
 62
     0
 10
5.81808
 20
77.0474
 30
0.0
 11
5.81808
 21
73.9482
 31
0.0
  0
LINE
  8
0
 62
     0
 10
5.81808
 20
73.9482
 30
0.0
 11
6.61871
 21
73.9482
 31
0.0
  0
LINE
  8
0
 62
     0
 10
6.61871
 20
73.9482
 30
0.0
 11
6.61871
 21
68.1482
 31
0.0
  0
LINE
  8
0
 62
     0
 10
6.61871
 20
68.1482
 30
0.0
 11
5.81808
 21
68.1482
 31
0.0
  0
LINE
  8
0
 62
     0
 10
5.81808
 20
68.1482
 30
0.0
 11
5.81808
 21
65.0476
 31
0.0
  0
LINE
  8
0
 62
     0
 10
5.81808
 20
65.0476
 30
0.0
 11
6.61871
 21
65.0476
 31
0.0
  0
LINE
  8
0
 62
     0
 10
6.61871
 20
65.0476
 30
0.0
 11
6.61871
 21
64.0472
 31
0.0
  0
LINE
  8
0
 62
     0
 10
6.61871
 20
64.0472
 30
0.0
 11
20.6196
 21
64.0472
 31
0.0
  0
LINE
  8
0
 62
     0
 10
20.6196
 20
64.0472
 30
0.0
 11
20.6196
 21
65.0476
 31
0.0
  0
LINE
  8
0
 62
     0
 10
20.6196
 20
65.0476
 30
0.0
 11
21.4188
 21
65.0476
 31
0.0
  0
LINE
  8
0
 62
     0
 10
21.4188
 20
65.0476
 30
0.0
 11
21.4188
 21
68.1482
 31
0.0
  0
LINE
  8
0
 62
     0
 10
21.4188
 20
68.1482
 30
0.0
 11
20.6196
 21
68.1482
 31
0.0
  0
LINE
  8
0
 62
     0
 10
20.6196
 20
68.1482
 30
0.0
 11
20.6196
 21
73.9482
 31
0.0
  0
LINE
  8
0
 62
     0
 10
20.6196
 20
73.9482
 30
0.0
 11
21.4188
 21
73.9482
 31
0.0
  0
LINE
  8
0
 62
     0
 10
21.4188
 20
73.9482
 30
0.0
 11
21.4188
 21
77.0474
 31
0.0
  0
LINE
  8
0
 62
     0
 10
21.4188
 20
77.0474
 30
0.0
 11
20.6196
 21
77.0474
 31
0.0
  0
LINE
  8
0
 62
     0
 10
20.6196
 20
77.0474
 30
0.0
 11
20.6196
 21
78.0479
 31
0.0
  0
LINE
  8
0
 62
     0
 10
20.6196
 20
78.0479
 30
0.0
 11
6.61871
 21
78.0479
 31
0.0
  0
ENDSEC
  0
EOF
