M48
; DRILL file {KiCad (5.1.6)-1} date 05/27/20 10:40:57
; FORMAT={-:-/ absolute / inch / decimal}
; #@! TF.CreationDate,2020-05-27T10:40:57-05:00
; #@! TF.GenerationSoftware,Kicad,Pcbnew,(5.1.6)-1
; #@! TF.FileFunction,NonPlated,1,2,NPTH
FMAT,2
INCH
T1C0.0689
T2C0.1570
%
G90
G05
T1
X3.2375Y-1.625
X2.8875Y-3.875
X2.4875Y-3.125
X2.8875Y-3.125
X2.4875Y-1.625
X2.8875Y-1.625
X3.9875Y-2.375
X4.3875Y-2.375
X3.9875Y-1.625
X4.3875Y-1.625
X2.4875Y-2.375
X2.8875Y-2.375
X3.2375Y-2.375
X3.6375Y-2.375
X1.7375Y-1.625
X2.1375Y-1.625
X1.7375Y-2.375
X2.1375Y-2.375
X3.2375Y-3.875
X3.6375Y-3.875
X3.9875Y-3.125
X4.3875Y-3.125
X1.7375Y-3.875
X2.1375Y-3.875
X1.7375Y-3.125
X2.1375Y-3.125
X3.6375Y-1.625
X2.4875Y-3.875
X3.2375Y-3.125
X3.6375Y-3.125
X3.9875Y-3.875
X4.3875Y-3.875
T2
X4.1875Y-1.625
X2.6875Y-2.375
X3.4375Y-2.375
X1.9375Y-1.625
X1.9375Y-2.375
X3.4375Y-3.875
X4.1875Y-3.125
X1.9375Y-3.875
X1.9375Y-3.125
X3.4375Y-1.625
X2.6875Y-3.875
X3.4375Y-3.125
X4.1875Y-3.875
X2.6875Y-3.125
X2.6875Y-1.625
X4.1875Y-2.375
T0
M30
