M48
; DRILL file {KiCad (5.1.6)-1} date 05/27/20 10:40:57
; FORMAT={-:-/ absolute / inch / decimal}
; #@! TF.CreationDate,2020-05-27T10:40:57-05:00
; #@! TF.GenerationSoftware,Kicad,Pcbnew,(5.1.6)-1
; #@! TF.FileFunction,Plated,1,2,PTH
FMAT,2
INCH
T1C0.0157
T2C0.0315
T3C0.0433
T4C0.0579
%
G90
G05
T1
X1.7875Y-2.5625
X2.5375Y-2.5875
X3.735Y-2.55
X3.835Y-2.585
T2
X2.3125Y-2.95
X2.3125Y-3.25
X3.0625Y-1.45
X3.0625Y-1.75
X2.3125Y-3.7
X2.3125Y-4.0
X3.0625Y-2.95
X3.0625Y-3.25
X3.0625Y-2.2
X3.0625Y-2.5
X3.8125Y-1.45
X3.8125Y-1.75
X4.5312Y-2.95
X4.5312Y-3.25
X4.5312Y-1.45
X4.5312Y-1.75
X3.0625Y-3.7
X3.0625Y-4.0
X2.3125Y-1.45
X2.3125Y-1.75
X2.3125Y-2.2
X2.3125Y-2.5
X4.5312Y-2.2
X4.5312Y-2.5
X3.8125Y-2.2
X3.8125Y-2.5
X3.8125Y-3.7
X3.8125Y-4.0
X4.5312Y-3.7
X4.5312Y-4.0
X3.8125Y-2.95
X3.8125Y-3.25
T3
X2.9375Y-2.075
X2.9375Y-2.675
X3.0375Y-2.075
X3.0375Y-2.675
X3.1375Y-2.075
X3.1375Y-2.675
X3.2375Y-2.075
X3.2375Y-2.675
X3.3375Y-2.075
X3.3375Y-2.675
X3.4375Y-2.075
X3.4375Y-2.675
X3.5375Y-2.075
X3.5375Y-2.675
X3.6375Y-2.075
X3.6375Y-2.675
X3.7375Y-2.075
X3.7375Y-2.675
X3.8375Y-2.075
X3.8375Y-2.675
X3.9375Y-2.075
X3.9375Y-2.675
X4.0375Y-2.075
X4.0375Y-2.675
T4
X1.7875Y-3.775
X2.0375Y-3.675
X1.7875Y-3.025
X2.0375Y-2.925
X3.2875Y-1.525
X3.5375Y-1.425
X2.5375Y-3.775
X2.7875Y-3.675
X3.2875Y-3.025
X3.5375Y-2.925
X4.0375Y-3.775
X4.2875Y-3.675
X2.5375Y-3.025
X2.7875Y-2.925
X2.5375Y-1.525
X2.7875Y-1.425
X4.0375Y-2.275
X4.2875Y-2.175
X4.0375Y-1.525
X4.2875Y-1.425
X2.5375Y-2.275
X2.7875Y-2.175
X3.2875Y-2.275
X3.5375Y-2.175
X1.7875Y-1.525
X2.0375Y-1.425
X1.7875Y-2.275
X2.0375Y-2.175
X3.2875Y-3.775
X3.5375Y-3.675
X4.0375Y-3.025
X4.2875Y-2.925
T0
M30
