%TF.GenerationSoftware,KiCad,Pcbnew,(5.1.6)-1*%
%TF.CreationDate,2020-05-27T10:41:01-05:00*%
%TF.ProjectId,cerkit16,6365726b-6974-4313-962e-6b696361645f,rev?*%
%TF.SameCoordinates,Original*%
%TF.FileFunction,Soldermask,Bot*%
%TF.FilePolarity,Negative*%
%FSLAX46Y46*%
G04 Gerber Fmt 4.6, Leading zero omitted, Abs format (unit mm)*
G04 Created by KiCad (PCBNEW (5.1.6)-1) date 2020-05-27 10:41:01*
%MOMM*%
%LPD*%
G01*
G04 APERTURE LIST*
%ADD10C,2.350000*%
%ADD11C,4.087800*%
%ADD12C,1.850000*%
%ADD13R,1.600000X1.600000*%
%ADD14C,1.700000*%
%ADD15R,1.700000X1.700000*%
%ADD16O,1.700000X1.700000*%
G04 APERTURE END LIST*
D10*
%TO.C,MX8*%
X108902500Y-55245000D03*
D11*
X106362500Y-60325000D03*
D10*
X102552500Y-57785000D03*
D12*
X101282500Y-60325000D03*
X111442500Y-60325000D03*
%TD*%
D10*
%TO.C,MX11*%
X89852500Y-74295000D03*
D11*
X87312500Y-79375000D03*
D10*
X83502500Y-76835000D03*
D12*
X82232500Y-79375000D03*
X92392500Y-79375000D03*
%TD*%
D13*
%TO.C,RST2*%
X79375000Y-70643750D03*
%TD*%
%TO.C,RST1*%
X75406250Y-70643750D03*
%TD*%
D14*
%TO.C,U1*%
X74612500Y-67945000D03*
X77152500Y-67945000D03*
X79692500Y-67945000D03*
X82232500Y-67945000D03*
X84772500Y-67945000D03*
X87312500Y-67945000D03*
X89852500Y-67945000D03*
X92392500Y-67945000D03*
X94932500Y-67945000D03*
X97472500Y-67945000D03*
X100012500Y-67945000D03*
X102552500Y-67945000D03*
X102552500Y-52705000D03*
X100012500Y-52705000D03*
X97472500Y-52705000D03*
X94932500Y-52705000D03*
X92392500Y-52705000D03*
X89852500Y-52705000D03*
X87312500Y-52705000D03*
X84772500Y-52705000D03*
X82232500Y-52705000D03*
X79692500Y-52705000D03*
X77152500Y-52705000D03*
D15*
X74612500Y-52705000D03*
%TD*%
D10*
%TO.C,MX16*%
X108902500Y-93345000D03*
D11*
X106362500Y-98425000D03*
D10*
X102552500Y-95885000D03*
D12*
X101282500Y-98425000D03*
X111442500Y-98425000D03*
%TD*%
D10*
%TO.C,MX15*%
X89852500Y-93345000D03*
D11*
X87312500Y-98425000D03*
D10*
X83502500Y-95885000D03*
D12*
X82232500Y-98425000D03*
X92392500Y-98425000D03*
%TD*%
D10*
%TO.C,MX14*%
X70802500Y-93345000D03*
D11*
X68262500Y-98425000D03*
D10*
X64452500Y-95885000D03*
D12*
X63182500Y-98425000D03*
X73342500Y-98425000D03*
%TD*%
D10*
%TO.C,MX13*%
X51752500Y-93345000D03*
D11*
X49212500Y-98425000D03*
D10*
X45402500Y-95885000D03*
D12*
X44132500Y-98425000D03*
X54292500Y-98425000D03*
%TD*%
D10*
%TO.C,MX12*%
X108902500Y-74295000D03*
D11*
X106362500Y-79375000D03*
D10*
X102552500Y-76835000D03*
D12*
X101282500Y-79375000D03*
X111442500Y-79375000D03*
%TD*%
D10*
%TO.C,MX10*%
X70802500Y-74295000D03*
D11*
X68262500Y-79375000D03*
D10*
X64452500Y-76835000D03*
D12*
X63182500Y-79375000D03*
X73342500Y-79375000D03*
%TD*%
D10*
%TO.C,MX9*%
X51752500Y-74295000D03*
D11*
X49212500Y-79375000D03*
D10*
X45402500Y-76835000D03*
D12*
X44132500Y-79375000D03*
X54292500Y-79375000D03*
%TD*%
D10*
%TO.C,MX7*%
X89852500Y-55245000D03*
D11*
X87312500Y-60325000D03*
D10*
X83502500Y-57785000D03*
D12*
X82232500Y-60325000D03*
X92392500Y-60325000D03*
%TD*%
D10*
%TO.C,MX6*%
X70802500Y-55245000D03*
D11*
X68262500Y-60325000D03*
D10*
X64452500Y-57785000D03*
D12*
X63182500Y-60325000D03*
X73342500Y-60325000D03*
%TD*%
D10*
%TO.C,MX5*%
X51752500Y-55245000D03*
D11*
X49212500Y-60325000D03*
D10*
X45402500Y-57785000D03*
D12*
X44132500Y-60325000D03*
X54292500Y-60325000D03*
%TD*%
D10*
%TO.C,MX4*%
X108902500Y-36195000D03*
D11*
X106362500Y-41275000D03*
D10*
X102552500Y-38735000D03*
D12*
X101282500Y-41275000D03*
X111442500Y-41275000D03*
%TD*%
D10*
%TO.C,MX3*%
X89852500Y-36195000D03*
D11*
X87312500Y-41275000D03*
D10*
X83502500Y-38735000D03*
D12*
X82232500Y-41275000D03*
X92392500Y-41275000D03*
%TD*%
D10*
%TO.C,MX2*%
X70802500Y-36195000D03*
D11*
X68262500Y-41275000D03*
D10*
X64452500Y-38735000D03*
D12*
X63182500Y-41275000D03*
X73342500Y-41275000D03*
%TD*%
D10*
%TO.C,MX1*%
X51752500Y-36195000D03*
D11*
X49212500Y-41275000D03*
D10*
X45402500Y-38735000D03*
D12*
X44132500Y-41275000D03*
X54292500Y-41275000D03*
%TD*%
D16*
%TO.C,D16*%
X115093750Y-93980000D03*
D15*
X115093750Y-101600000D03*
%TD*%
D16*
%TO.C,D15*%
X96837500Y-93980000D03*
D15*
X96837500Y-101600000D03*
%TD*%
D16*
%TO.C,D14*%
X77787500Y-93980000D03*
D15*
X77787500Y-101600000D03*
%TD*%
D16*
%TO.C,D13*%
X58737500Y-93980000D03*
D15*
X58737500Y-101600000D03*
%TD*%
D16*
%TO.C,D12*%
X115093750Y-74930000D03*
D15*
X115093750Y-82550000D03*
%TD*%
D16*
%TO.C,D11*%
X96837500Y-74930000D03*
D15*
X96837500Y-82550000D03*
%TD*%
D16*
%TO.C,D10*%
X77787500Y-74930000D03*
D15*
X77787500Y-82550000D03*
%TD*%
D16*
%TO.C,D9*%
X58737500Y-74930000D03*
D15*
X58737500Y-82550000D03*
%TD*%
D16*
%TO.C,D8*%
X115093750Y-55880000D03*
D15*
X115093750Y-63500000D03*
%TD*%
D16*
%TO.C,D7*%
X96837500Y-55880000D03*
D15*
X96837500Y-63500000D03*
%TD*%
D16*
%TO.C,D6*%
X77787500Y-55880000D03*
D15*
X77787500Y-63500000D03*
%TD*%
D16*
%TO.C,D5*%
X58737500Y-55880000D03*
D15*
X58737500Y-63500000D03*
%TD*%
D16*
%TO.C,D4*%
X115093750Y-36830000D03*
D15*
X115093750Y-44450000D03*
%TD*%
D16*
%TO.C,D3*%
X96837500Y-36830000D03*
D15*
X96837500Y-44450000D03*
%TD*%
D16*
%TO.C,D2*%
X77787500Y-36830000D03*
D15*
X77787500Y-44450000D03*
%TD*%
D16*
%TO.C,D1*%
X58737500Y-36830000D03*
D15*
X58737500Y-44450000D03*
%TD*%
M02*
