%TF.GenerationSoftware,KiCad,Pcbnew,(5.1.6)-1*%
%TF.CreationDate,2020-06-06T20:34:11-05:00*%
%TF.ProjectId,cerkit16,6365726b-6974-4313-962e-6b696361645f,rev?*%
%TF.SameCoordinates,Original*%
%TF.FileFunction,Legend,Bot*%
%TF.FilePolarity,Positive*%
%FSLAX46Y46*%
G04 Gerber Fmt 4.6, Leading zero omitted, Abs format (unit mm)*
G04 Created by KiCad (PCBNEW (5.1.6)-1) date 2020-06-06 20:34:11*
%MOMM*%
%LPD*%
G01*
G04 APERTURE LIST*
%ADD10C,0.150000*%
%ADD11C,0.120000*%
%ADD12C,2.350000*%
%ADD13C,4.087800*%
%ADD14C,1.850000*%
%ADD15R,1.600000X1.600000*%
%ADD16C,1.700000*%
%ADD17R,1.700000X1.700000*%
%ADD18O,1.700000X1.700000*%
G04 APERTURE END LIST*
D10*
X53053571Y-109350892D02*
X53196428Y-109422321D01*
X53482142Y-109422321D01*
X53625000Y-109350892D01*
X53696428Y-109279464D01*
X53767857Y-109136607D01*
X53767857Y-108708035D01*
X53696428Y-108565178D01*
X53625000Y-108493750D01*
X53482142Y-108422321D01*
X53196428Y-108422321D01*
X53053571Y-108493750D01*
X51839285Y-109350892D02*
X51982142Y-109422321D01*
X52267857Y-109422321D01*
X52410714Y-109350892D01*
X52482142Y-109208035D01*
X52482142Y-108636607D01*
X52410714Y-108493750D01*
X52267857Y-108422321D01*
X51982142Y-108422321D01*
X51839285Y-108493750D01*
X51767857Y-108636607D01*
X51767857Y-108779464D01*
X52482142Y-108922321D01*
X51125000Y-109422321D02*
X51125000Y-108422321D01*
X51125000Y-108708035D02*
X51053571Y-108565178D01*
X50982142Y-108493750D01*
X50839285Y-108422321D01*
X50696428Y-108422321D01*
X50196428Y-109422321D02*
X50196428Y-107922321D01*
X50053571Y-108850892D02*
X49625000Y-109422321D01*
X49625000Y-108422321D02*
X50196428Y-108993750D01*
X48982142Y-109422321D02*
X48982142Y-108422321D01*
X48982142Y-107922321D02*
X49053571Y-107993750D01*
X48982142Y-108065178D01*
X48910714Y-107993750D01*
X48982142Y-107922321D01*
X48982142Y-108065178D01*
X48482142Y-108422321D02*
X47910714Y-108422321D01*
X48267857Y-107922321D02*
X48267857Y-109208035D01*
X48196428Y-109350892D01*
X48053571Y-109422321D01*
X47910714Y-109422321D01*
X46625000Y-109422321D02*
X47482142Y-109422321D01*
X47053571Y-109422321D02*
X47053571Y-107922321D01*
X47196428Y-108136607D01*
X47339285Y-108279464D01*
X47482142Y-108350892D01*
X45339285Y-107922321D02*
X45625000Y-107922321D01*
X45767857Y-107993750D01*
X45839285Y-108065178D01*
X45982142Y-108279464D01*
X46053571Y-108565178D01*
X46053571Y-109136607D01*
X45982142Y-109279464D01*
X45910714Y-109350892D01*
X45767857Y-109422321D01*
X45482142Y-109422321D01*
X45339285Y-109350892D01*
X45267857Y-109279464D01*
X45196428Y-109136607D01*
X45196428Y-108779464D01*
X45267857Y-108636607D01*
X45339285Y-108565178D01*
X45482142Y-108493750D01*
X45767857Y-108493750D01*
X45910714Y-108565178D01*
X45982142Y-108636607D01*
X46053571Y-108779464D01*
X43553571Y-108422321D02*
X43196428Y-109422321D01*
X42839285Y-108422321D01*
X41482142Y-109422321D02*
X42339285Y-109422321D01*
X41910714Y-109422321D02*
X41910714Y-107922321D01*
X42053571Y-108136607D01*
X42196428Y-108279464D01*
X42339285Y-108350892D01*
X115425000Y-108422321D02*
X115425000Y-109636607D01*
X115496428Y-109779464D01*
X115567857Y-109850892D01*
X115710714Y-109922321D01*
X115925000Y-109922321D01*
X116067857Y-109850892D01*
X115425000Y-109350892D02*
X115567857Y-109422321D01*
X115853571Y-109422321D01*
X115996428Y-109350892D01*
X116067857Y-109279464D01*
X116139285Y-109136607D01*
X116139285Y-108708035D01*
X116067857Y-108565178D01*
X115996428Y-108493750D01*
X115853571Y-108422321D01*
X115567857Y-108422321D01*
X115425000Y-108493750D01*
X114710714Y-109422321D02*
X114710714Y-108422321D01*
X114710714Y-107922321D02*
X114782142Y-107993750D01*
X114710714Y-108065178D01*
X114639285Y-107993750D01*
X114710714Y-107922321D01*
X114710714Y-108065178D01*
X114210714Y-108422321D02*
X113639285Y-108422321D01*
X113996428Y-107922321D02*
X113996428Y-109208035D01*
X113925000Y-109350892D01*
X113782142Y-109422321D01*
X113639285Y-109422321D01*
X113139285Y-109422321D02*
X113139285Y-107922321D01*
X112496428Y-109422321D02*
X112496428Y-108636607D01*
X112567857Y-108493750D01*
X112710714Y-108422321D01*
X112925000Y-108422321D01*
X113067857Y-108493750D01*
X113139285Y-108565178D01*
X111139285Y-108422321D02*
X111139285Y-109422321D01*
X111782142Y-108422321D02*
X111782142Y-109208035D01*
X111710714Y-109350892D01*
X111567857Y-109422321D01*
X111353571Y-109422321D01*
X111210714Y-109350892D01*
X111139285Y-109279464D01*
X110425000Y-109422321D02*
X110425000Y-107922321D01*
X110425000Y-108493750D02*
X110282142Y-108422321D01*
X109996428Y-108422321D01*
X109853571Y-108493750D01*
X109782142Y-108565178D01*
X109710714Y-108708035D01*
X109710714Y-109136607D01*
X109782142Y-109279464D01*
X109853571Y-109350892D01*
X109996428Y-109422321D01*
X110282142Y-109422321D01*
X110425000Y-109350892D01*
X109067857Y-109279464D02*
X108996428Y-109350892D01*
X109067857Y-109422321D01*
X109139285Y-109350892D01*
X109067857Y-109279464D01*
X109067857Y-109422321D01*
X107710714Y-109350892D02*
X107853571Y-109422321D01*
X108139285Y-109422321D01*
X108282142Y-109350892D01*
X108353571Y-109279464D01*
X108425000Y-109136607D01*
X108425000Y-108708035D01*
X108353571Y-108565178D01*
X108282142Y-108493750D01*
X108139285Y-108422321D01*
X107853571Y-108422321D01*
X107710714Y-108493750D01*
X106853571Y-109422321D02*
X106996428Y-109350892D01*
X107067857Y-109279464D01*
X107139285Y-109136607D01*
X107139285Y-108708035D01*
X107067857Y-108565178D01*
X106996428Y-108493750D01*
X106853571Y-108422321D01*
X106639285Y-108422321D01*
X106496428Y-108493750D01*
X106425000Y-108565178D01*
X106353571Y-108708035D01*
X106353571Y-109136607D01*
X106425000Y-109279464D01*
X106496428Y-109350892D01*
X106639285Y-109422321D01*
X106853571Y-109422321D01*
X105710714Y-109422321D02*
X105710714Y-108422321D01*
X105710714Y-108565178D02*
X105639285Y-108493750D01*
X105496428Y-108422321D01*
X105282142Y-108422321D01*
X105139285Y-108493750D01*
X105067857Y-108636607D01*
X105067857Y-109422321D01*
X105067857Y-108636607D02*
X104996428Y-108493750D01*
X104853571Y-108422321D01*
X104639285Y-108422321D01*
X104496428Y-108493750D01*
X104425000Y-108636607D01*
X104425000Y-109422321D01*
X102639285Y-107850892D02*
X103925000Y-109779464D01*
X101496428Y-109350892D02*
X101639285Y-109422321D01*
X101925000Y-109422321D01*
X102067857Y-109350892D01*
X102139285Y-109279464D01*
X102210714Y-109136607D01*
X102210714Y-108708035D01*
X102139285Y-108565178D01*
X102067857Y-108493750D01*
X101925000Y-108422321D01*
X101639285Y-108422321D01*
X101496428Y-108493750D01*
X100282142Y-109350892D02*
X100425000Y-109422321D01*
X100710714Y-109422321D01*
X100853571Y-109350892D01*
X100925000Y-109208035D01*
X100925000Y-108636607D01*
X100853571Y-108493750D01*
X100710714Y-108422321D01*
X100425000Y-108422321D01*
X100282142Y-108493750D01*
X100210714Y-108636607D01*
X100210714Y-108779464D01*
X100925000Y-108922321D01*
X99567857Y-109422321D02*
X99567857Y-108422321D01*
X99567857Y-108708035D02*
X99496428Y-108565178D01*
X99425000Y-108493750D01*
X99282142Y-108422321D01*
X99139285Y-108422321D01*
X98639285Y-109422321D02*
X98639285Y-107922321D01*
X98496428Y-108850892D02*
X98067857Y-109422321D01*
X98067857Y-108422321D02*
X98639285Y-108993750D01*
X97425000Y-109422321D02*
X97425000Y-108422321D01*
X97425000Y-107922321D02*
X97496428Y-107993750D01*
X97425000Y-108065178D01*
X97353571Y-107993750D01*
X97425000Y-107922321D01*
X97425000Y-108065178D01*
X96925000Y-108422321D02*
X96353571Y-108422321D01*
X96710714Y-107922321D02*
X96710714Y-109208035D01*
X96639285Y-109350892D01*
X96496428Y-109422321D01*
X96353571Y-109422321D01*
X94782142Y-107850892D02*
X96067857Y-109779464D01*
X94282142Y-109422321D02*
X94282142Y-107922321D01*
X94139285Y-108850892D02*
X93710714Y-109422321D01*
X93710714Y-108422321D02*
X94282142Y-108993750D01*
X93067857Y-109422321D02*
X93067857Y-107922321D01*
X93067857Y-108493750D02*
X92925000Y-108422321D01*
X92639285Y-108422321D01*
X92496428Y-108493750D01*
X92425000Y-108565178D01*
X92353571Y-108708035D01*
X92353571Y-109136607D01*
X92425000Y-109279464D01*
X92496428Y-109350892D01*
X92639285Y-109422321D01*
X92925000Y-109422321D01*
X93067857Y-109350892D01*
X91067857Y-109422321D02*
X91067857Y-107922321D01*
X91067857Y-109350892D02*
X91210714Y-109422321D01*
X91496428Y-109422321D01*
X91639285Y-109350892D01*
X91710714Y-109279464D01*
X91782142Y-109136607D01*
X91782142Y-108708035D01*
X91710714Y-108565178D01*
X91639285Y-108493750D01*
X91496428Y-108422321D01*
X91210714Y-108422321D01*
X91067857Y-108493750D01*
X90710714Y-109565178D02*
X89567857Y-109565178D01*
X88567857Y-109350892D02*
X88710714Y-109422321D01*
X88996428Y-109422321D01*
X89139285Y-109350892D01*
X89210714Y-109279464D01*
X89282142Y-109136607D01*
X89282142Y-108708035D01*
X89210714Y-108565178D01*
X89139285Y-108493750D01*
X88996428Y-108422321D01*
X88710714Y-108422321D01*
X88567857Y-108493750D01*
X87353571Y-109350892D02*
X87496428Y-109422321D01*
X87782142Y-109422321D01*
X87925000Y-109350892D01*
X87996428Y-109208035D01*
X87996428Y-108636607D01*
X87925000Y-108493750D01*
X87782142Y-108422321D01*
X87496428Y-108422321D01*
X87353571Y-108493750D01*
X87282142Y-108636607D01*
X87282142Y-108779464D01*
X87996428Y-108922321D01*
X86639285Y-109422321D02*
X86639285Y-108422321D01*
X86639285Y-108708035D02*
X86567857Y-108565178D01*
X86496428Y-108493750D01*
X86353571Y-108422321D01*
X86210714Y-108422321D01*
X85710714Y-109422321D02*
X85710714Y-107922321D01*
X85567857Y-108850892D02*
X85139285Y-109422321D01*
X85139285Y-108422321D02*
X85710714Y-108993750D01*
X84496428Y-109422321D02*
X84496428Y-108422321D01*
X84496428Y-107922321D02*
X84567857Y-107993750D01*
X84496428Y-108065178D01*
X84425000Y-107993750D01*
X84496428Y-107922321D01*
X84496428Y-108065178D01*
X83996428Y-108422321D02*
X83425000Y-108422321D01*
X83782142Y-107922321D02*
X83782142Y-109208035D01*
X83710714Y-109350892D01*
X83567857Y-109422321D01*
X83425000Y-109422321D01*
X82139285Y-109422321D02*
X82996428Y-109422321D01*
X82567857Y-109422321D02*
X82567857Y-107922321D01*
X82710714Y-108136607D01*
X82853571Y-108279464D01*
X82996428Y-108350892D01*
X80853571Y-107922321D02*
X81139285Y-107922321D01*
X81282142Y-107993750D01*
X81353571Y-108065178D01*
X81496428Y-108279464D01*
X81567857Y-108565178D01*
X81567857Y-109136607D01*
X81496428Y-109279464D01*
X81425000Y-109350892D01*
X81282142Y-109422321D01*
X80996428Y-109422321D01*
X80853571Y-109350892D01*
X80782142Y-109279464D01*
X80710714Y-109136607D01*
X80710714Y-108779464D01*
X80782142Y-108636607D01*
X80853571Y-108565178D01*
X80996428Y-108493750D01*
X81282142Y-108493750D01*
X81425000Y-108565178D01*
X81496428Y-108636607D01*
X81567857Y-108779464D01*
D11*
%TO.C,RST2*%
X69693750Y-15718750D02*
X69693750Y-17618750D01*
X71593750Y-15718750D02*
X69693750Y-15718750D01*
X71593750Y-17618750D02*
X71593750Y-15718750D01*
X69693750Y-17618750D02*
X71593750Y-17618750D01*
%TO.C,RST1*%
X65725000Y-15718750D02*
X65725000Y-17618750D01*
X67625000Y-15718750D02*
X65725000Y-15718750D01*
X67625000Y-17618750D02*
X67625000Y-15718750D01*
X65725000Y-17618750D02*
X67625000Y-17618750D01*
D10*
%TO.C,U1*%
X94615000Y-10953750D02*
X94615000Y-28733750D01*
X94615000Y-28733750D02*
X64135000Y-28733750D01*
X64135000Y-28733750D02*
X64135000Y-23653750D01*
X64135000Y-23653750D02*
X61595000Y-23653750D01*
X61595000Y-23653750D02*
X61595000Y-16033750D01*
X61595000Y-16033750D02*
X64135000Y-16033750D01*
X64135000Y-16033750D02*
X64135000Y-10953750D01*
X64135000Y-10953750D02*
X94615000Y-10953750D01*
%TO.C,RST2*%
X71667559Y-18769130D02*
X72000892Y-18292940D01*
X72238988Y-18769130D02*
X72238988Y-17769130D01*
X71858035Y-17769130D01*
X71762797Y-17816750D01*
X71715178Y-17864369D01*
X71667559Y-17959607D01*
X71667559Y-18102464D01*
X71715178Y-18197702D01*
X71762797Y-18245321D01*
X71858035Y-18292940D01*
X72238988Y-18292940D01*
X71286607Y-18721511D02*
X71143750Y-18769130D01*
X70905654Y-18769130D01*
X70810416Y-18721511D01*
X70762797Y-18673892D01*
X70715178Y-18578654D01*
X70715178Y-18483416D01*
X70762797Y-18388178D01*
X70810416Y-18340559D01*
X70905654Y-18292940D01*
X71096130Y-18245321D01*
X71191369Y-18197702D01*
X71238988Y-18150083D01*
X71286607Y-18054845D01*
X71286607Y-17959607D01*
X71238988Y-17864369D01*
X71191369Y-17816750D01*
X71096130Y-17769130D01*
X70858035Y-17769130D01*
X70715178Y-17816750D01*
X70429464Y-17769130D02*
X69858035Y-17769130D01*
X70143750Y-18769130D02*
X70143750Y-17769130D01*
X69572321Y-17864369D02*
X69524702Y-17816750D01*
X69429464Y-17769130D01*
X69191369Y-17769130D01*
X69096130Y-17816750D01*
X69048511Y-17864369D01*
X69000892Y-17959607D01*
X69000892Y-18054845D01*
X69048511Y-18197702D01*
X69619940Y-18769130D01*
X69000892Y-18769130D01*
%TO.C,RST1*%
X67698809Y-18769130D02*
X68032142Y-18292940D01*
X68270238Y-18769130D02*
X68270238Y-17769130D01*
X67889285Y-17769130D01*
X67794047Y-17816750D01*
X67746428Y-17864369D01*
X67698809Y-17959607D01*
X67698809Y-18102464D01*
X67746428Y-18197702D01*
X67794047Y-18245321D01*
X67889285Y-18292940D01*
X68270238Y-18292940D01*
X67317857Y-18721511D02*
X67175000Y-18769130D01*
X66936904Y-18769130D01*
X66841666Y-18721511D01*
X66794047Y-18673892D01*
X66746428Y-18578654D01*
X66746428Y-18483416D01*
X66794047Y-18388178D01*
X66841666Y-18340559D01*
X66936904Y-18292940D01*
X67127380Y-18245321D01*
X67222619Y-18197702D01*
X67270238Y-18150083D01*
X67317857Y-18054845D01*
X67317857Y-17959607D01*
X67270238Y-17864369D01*
X67222619Y-17816750D01*
X67127380Y-17769130D01*
X66889285Y-17769130D01*
X66746428Y-17816750D01*
X66460714Y-17769130D02*
X65889285Y-17769130D01*
X66175000Y-18769130D02*
X66175000Y-17769130D01*
X65032142Y-18769130D02*
X65603571Y-18769130D01*
X65317857Y-18769130D02*
X65317857Y-17769130D01*
X65413095Y-17911988D01*
X65508333Y-18007226D01*
X65603571Y-18054845D01*
%TD*%
%LPC*%
D12*
%TO.C,MX11*%
X89852500Y-74295000D03*
D13*
X87312500Y-79375000D03*
D12*
X83502500Y-76835000D03*
D14*
X82232500Y-79375000D03*
X92392500Y-79375000D03*
%TD*%
D15*
%TO.C,RST2*%
X70643750Y-16668750D03*
%TD*%
%TO.C,RST1*%
X66675000Y-16668750D03*
%TD*%
D16*
%TO.C,U1*%
X65405000Y-12223750D03*
X67945000Y-12223750D03*
X70485000Y-12223750D03*
X73025000Y-12223750D03*
X75565000Y-12223750D03*
X78105000Y-12223750D03*
X80645000Y-12223750D03*
X83185000Y-12223750D03*
X85725000Y-12223750D03*
X88265000Y-12223750D03*
X90805000Y-12223750D03*
X93345000Y-12223750D03*
X93345000Y-27463750D03*
X90805000Y-27463750D03*
X88265000Y-27463750D03*
X85725000Y-27463750D03*
X83185000Y-27463750D03*
X80645000Y-27463750D03*
X78105000Y-27463750D03*
X75565000Y-27463750D03*
X73025000Y-27463750D03*
X70485000Y-27463750D03*
X67945000Y-27463750D03*
D17*
X65405000Y-27463750D03*
%TD*%
D12*
%TO.C,MX16*%
X108902500Y-93345000D03*
D13*
X106362500Y-98425000D03*
D12*
X102552500Y-95885000D03*
D14*
X101282500Y-98425000D03*
X111442500Y-98425000D03*
%TD*%
D12*
%TO.C,MX15*%
X89852500Y-93345000D03*
D13*
X87312500Y-98425000D03*
D12*
X83502500Y-95885000D03*
D14*
X82232500Y-98425000D03*
X92392500Y-98425000D03*
%TD*%
D12*
%TO.C,MX14*%
X70802500Y-93345000D03*
D13*
X68262500Y-98425000D03*
D12*
X64452500Y-95885000D03*
D14*
X63182500Y-98425000D03*
X73342500Y-98425000D03*
%TD*%
D12*
%TO.C,MX13*%
X51752500Y-93345000D03*
D13*
X49212500Y-98425000D03*
D12*
X45402500Y-95885000D03*
D14*
X44132500Y-98425000D03*
X54292500Y-98425000D03*
%TD*%
D12*
%TO.C,MX12*%
X108902500Y-74295000D03*
D13*
X106362500Y-79375000D03*
D12*
X102552500Y-76835000D03*
D14*
X101282500Y-79375000D03*
X111442500Y-79375000D03*
%TD*%
D12*
%TO.C,MX10*%
X70802500Y-74295000D03*
D13*
X68262500Y-79375000D03*
D12*
X64452500Y-76835000D03*
D14*
X63182500Y-79375000D03*
X73342500Y-79375000D03*
%TD*%
D12*
%TO.C,MX9*%
X51752500Y-74295000D03*
D13*
X49212500Y-79375000D03*
D12*
X45402500Y-76835000D03*
D14*
X44132500Y-79375000D03*
X54292500Y-79375000D03*
%TD*%
D12*
%TO.C,MX8*%
X108902500Y-55245000D03*
D13*
X106362500Y-60325000D03*
D12*
X102552500Y-57785000D03*
D14*
X101282500Y-60325000D03*
X111442500Y-60325000D03*
%TD*%
D12*
%TO.C,MX7*%
X89852500Y-55245000D03*
D13*
X87312500Y-60325000D03*
D12*
X83502500Y-57785000D03*
D14*
X82232500Y-60325000D03*
X92392500Y-60325000D03*
%TD*%
D12*
%TO.C,MX6*%
X70802500Y-55245000D03*
D13*
X68262500Y-60325000D03*
D12*
X64452500Y-57785000D03*
D14*
X63182500Y-60325000D03*
X73342500Y-60325000D03*
%TD*%
D12*
%TO.C,MX5*%
X51752500Y-55245000D03*
D13*
X49212500Y-60325000D03*
D12*
X45402500Y-57785000D03*
D14*
X44132500Y-60325000D03*
X54292500Y-60325000D03*
%TD*%
D12*
%TO.C,MX4*%
X108902500Y-36195000D03*
D13*
X106362500Y-41275000D03*
D12*
X102552500Y-38735000D03*
D14*
X101282500Y-41275000D03*
X111442500Y-41275000D03*
%TD*%
D12*
%TO.C,MX3*%
X89852500Y-36195000D03*
D13*
X87312500Y-41275000D03*
D12*
X83502500Y-38735000D03*
D14*
X82232500Y-41275000D03*
X92392500Y-41275000D03*
%TD*%
D12*
%TO.C,MX2*%
X70802500Y-36195000D03*
D13*
X68262500Y-41275000D03*
D12*
X64452500Y-38735000D03*
D14*
X63182500Y-41275000D03*
X73342500Y-41275000D03*
%TD*%
D12*
%TO.C,MX1*%
X51752500Y-36195000D03*
D13*
X49212500Y-41275000D03*
D12*
X45402500Y-38735000D03*
D14*
X44132500Y-41275000D03*
X54292500Y-41275000D03*
%TD*%
D18*
%TO.C,D16*%
X115887500Y-93980000D03*
D17*
X115887500Y-101600000D03*
%TD*%
D18*
%TO.C,D15*%
X96837500Y-93980000D03*
D17*
X96837500Y-101600000D03*
%TD*%
D18*
%TO.C,D14*%
X77787500Y-93980000D03*
D17*
X77787500Y-101600000D03*
%TD*%
D18*
%TO.C,D13*%
X58737500Y-93980000D03*
D17*
X58737500Y-101600000D03*
%TD*%
D18*
%TO.C,D12*%
X115887500Y-74930000D03*
D17*
X115887500Y-82550000D03*
%TD*%
D18*
%TO.C,D11*%
X96837500Y-74930000D03*
D17*
X96837500Y-82550000D03*
%TD*%
D18*
%TO.C,D10*%
X77787500Y-74930000D03*
D17*
X77787500Y-82550000D03*
%TD*%
D18*
%TO.C,D9*%
X58737500Y-74930000D03*
D17*
X58737500Y-82550000D03*
%TD*%
D18*
%TO.C,D8*%
X115887500Y-55880000D03*
D17*
X115887500Y-63500000D03*
%TD*%
D18*
%TO.C,D7*%
X96837500Y-55880000D03*
D17*
X96837500Y-63500000D03*
%TD*%
D18*
%TO.C,D6*%
X77787500Y-55880000D03*
D17*
X77787500Y-63500000D03*
%TD*%
D18*
%TO.C,D5*%
X58737500Y-55880000D03*
D17*
X58737500Y-63500000D03*
%TD*%
D18*
%TO.C,D4*%
X115887500Y-36830000D03*
D17*
X115887500Y-44450000D03*
%TD*%
D18*
%TO.C,D3*%
X96837500Y-36830000D03*
D17*
X96837500Y-44450000D03*
%TD*%
D18*
%TO.C,D2*%
X77787500Y-36830000D03*
D17*
X77787500Y-44450000D03*
%TD*%
D18*
%TO.C,D1*%
X58737500Y-36830000D03*
D17*
X58737500Y-44450000D03*
%TD*%
M02*
