%TF.GenerationSoftware,KiCad,Pcbnew,(5.1.6)-1*%
%TF.CreationDate,2020-05-27T10:41:01-05:00*%
%TF.ProjectId,cerkit16,6365726b-6974-4313-962e-6b696361645f,rev?*%
%TF.SameCoordinates,Original*%
%TF.FileFunction,Copper,L2,Bot*%
%TF.FilePolarity,Positive*%
%FSLAX46Y46*%
G04 Gerber Fmt 4.6, Leading zero omitted, Abs format (unit mm)*
G04 Created by KiCad (PCBNEW (5.1.6)-1) date 2020-05-27 10:41:01*
%MOMM*%
%LPD*%
G01*
G04 APERTURE LIST*
%TA.AperFunction,ComponentPad*%
%ADD10C,2.250000*%
%TD*%
%TA.AperFunction,SMDPad,CuDef*%
%ADD11R,1.500000X1.500000*%
%TD*%
%TA.AperFunction,ComponentPad*%
%ADD12C,1.600000*%
%TD*%
%TA.AperFunction,ComponentPad*%
%ADD13R,1.600000X1.600000*%
%TD*%
%TA.AperFunction,ComponentPad*%
%ADD14O,1.600000X1.600000*%
%TD*%
%TA.AperFunction,ViaPad*%
%ADD15C,0.800000*%
%TD*%
%TA.AperFunction,Conductor*%
%ADD16C,0.250000*%
%TD*%
%TA.AperFunction,Conductor*%
%ADD17C,0.254000*%
%TD*%
G04 APERTURE END LIST*
D10*
%TO.P,MX8,2*%
%TO.N,Net-(D8-Pad2)*%
X108902500Y-55245000D03*
%TO.P,MX8,1*%
%TO.N,COL3*%
X102552500Y-57785000D03*
%TD*%
%TO.P,MX11,2*%
%TO.N,Net-(D11-Pad2)*%
X89852500Y-74295000D03*
%TO.P,MX11,1*%
%TO.N,COL2*%
X83502500Y-76835000D03*
%TD*%
D11*
%TO.P,RST2,1*%
%TO.N,RST*%
X79375000Y-70643750D03*
%TD*%
%TO.P,RST1,1*%
%TO.N,GND*%
X75406250Y-70643750D03*
%TD*%
D12*
%TO.P,U1,24*%
%TO.N,RAW*%
X74612500Y-67945000D03*
%TO.P,U1,23*%
%TO.N,GND*%
X77152500Y-67945000D03*
%TO.P,U1,22*%
%TO.N,RST*%
X79692500Y-67945000D03*
%TO.P,U1,21*%
%TO.N,VCC*%
X82232500Y-67945000D03*
%TO.P,U1,20*%
%TO.N,Net-(U1-Pad20)*%
X84772500Y-67945000D03*
%TO.P,U1,19*%
%TO.N,Net-(U1-Pad19)*%
X87312500Y-67945000D03*
%TO.P,U1,18*%
%TO.N,Net-(U1-Pad18)*%
X89852500Y-67945000D03*
%TO.P,U1,17*%
%TO.N,Net-(U1-Pad17)*%
X92392500Y-67945000D03*
%TO.P,U1,16*%
%TO.N,COL0*%
X94932500Y-67945000D03*
%TO.P,U1,15*%
%TO.N,COL1*%
X97472500Y-67945000D03*
%TO.P,U1,14*%
%TO.N,COL2*%
X100012500Y-67945000D03*
%TO.P,U1,13*%
%TO.N,COL3*%
X102552500Y-67945000D03*
%TO.P,U1,12*%
%TO.N,ROW3*%
X102552500Y-52705000D03*
%TO.P,U1,11*%
%TO.N,ROW2*%
X100012500Y-52705000D03*
%TO.P,U1,10*%
%TO.N,ROW1*%
X97472500Y-52705000D03*
%TO.P,U1,9*%
%TO.N,ROW0*%
X94932500Y-52705000D03*
%TO.P,U1,8*%
%TO.N,Net-(U1-Pad8)*%
X92392500Y-52705000D03*
%TO.P,U1,7*%
%TO.N,Net-(U1-Pad7)*%
X89852500Y-52705000D03*
%TO.P,U1,6*%
%TO.N,Net-(U1-Pad6)*%
X87312500Y-52705000D03*
%TO.P,U1,5*%
%TO.N,Net-(U1-Pad5)*%
X84772500Y-52705000D03*
%TO.P,U1,4*%
%TO.N,GND*%
X82232500Y-52705000D03*
%TO.P,U1,3*%
X79692500Y-52705000D03*
%TO.P,U1,2*%
%TO.N,Net-(U1-Pad2)*%
X77152500Y-52705000D03*
D13*
%TO.P,U1,1*%
%TO.N,Net-(U1-Pad1)*%
X74612500Y-52705000D03*
%TD*%
D10*
%TO.P,MX16,2*%
%TO.N,Net-(D16-Pad2)*%
X108902500Y-93345000D03*
%TO.P,MX16,1*%
%TO.N,COL3*%
X102552500Y-95885000D03*
%TD*%
%TO.P,MX15,2*%
%TO.N,Net-(D15-Pad2)*%
X89852500Y-93345000D03*
%TO.P,MX15,1*%
%TO.N,COL2*%
X83502500Y-95885000D03*
%TD*%
%TO.P,MX14,2*%
%TO.N,Net-(D14-Pad2)*%
X70802500Y-93345000D03*
%TO.P,MX14,1*%
%TO.N,COL1*%
X64452500Y-95885000D03*
%TD*%
%TO.P,MX13,2*%
%TO.N,Net-(D13-Pad2)*%
X51752500Y-93345000D03*
%TO.P,MX13,1*%
%TO.N,COL0*%
X45402500Y-95885000D03*
%TD*%
%TO.P,MX12,2*%
%TO.N,Net-(D12-Pad2)*%
X108902500Y-74295000D03*
%TO.P,MX12,1*%
%TO.N,COL3*%
X102552500Y-76835000D03*
%TD*%
%TO.P,MX10,2*%
%TO.N,Net-(D10-Pad2)*%
X70802500Y-74295000D03*
%TO.P,MX10,1*%
%TO.N,COL1*%
X64452500Y-76835000D03*
%TD*%
%TO.P,MX9,2*%
%TO.N,Net-(D9-Pad2)*%
X51752500Y-74295000D03*
%TO.P,MX9,1*%
%TO.N,COL0*%
X45402500Y-76835000D03*
%TD*%
%TO.P,MX7,2*%
%TO.N,Net-(D7-Pad2)*%
X89852500Y-55245000D03*
%TO.P,MX7,1*%
%TO.N,COL2*%
X83502500Y-57785000D03*
%TD*%
%TO.P,MX6,2*%
%TO.N,Net-(D6-Pad2)*%
X70802500Y-55245000D03*
%TO.P,MX6,1*%
%TO.N,COL1*%
X64452500Y-57785000D03*
%TD*%
%TO.P,MX5,2*%
%TO.N,Net-(D5-Pad2)*%
X51752500Y-55245000D03*
%TO.P,MX5,1*%
%TO.N,COL0*%
X45402500Y-57785000D03*
%TD*%
%TO.P,MX4,2*%
%TO.N,Net-(D4-Pad2)*%
X108902500Y-36195000D03*
%TO.P,MX4,1*%
%TO.N,COL3*%
X102552500Y-38735000D03*
%TD*%
%TO.P,MX3,2*%
%TO.N,Net-(D3-Pad2)*%
X89852500Y-36195000D03*
%TO.P,MX3,1*%
%TO.N,COL2*%
X83502500Y-38735000D03*
%TD*%
%TO.P,MX2,2*%
%TO.N,Net-(D2-Pad2)*%
X70802500Y-36195000D03*
%TO.P,MX2,1*%
%TO.N,COL1*%
X64452500Y-38735000D03*
%TD*%
%TO.P,MX1,2*%
%TO.N,Net-(D1-Pad2)*%
X51752500Y-36195000D03*
%TO.P,MX1,1*%
%TO.N,COL0*%
X45402500Y-38735000D03*
%TD*%
D14*
%TO.P,D16,2*%
%TO.N,Net-(D16-Pad2)*%
X115093750Y-93980000D03*
D13*
%TO.P,D16,1*%
%TO.N,ROW3*%
X115093750Y-101600000D03*
%TD*%
D14*
%TO.P,D15,2*%
%TO.N,Net-(D15-Pad2)*%
X96837500Y-93980000D03*
D13*
%TO.P,D15,1*%
%TO.N,ROW3*%
X96837500Y-101600000D03*
%TD*%
D14*
%TO.P,D14,2*%
%TO.N,Net-(D14-Pad2)*%
X77787500Y-93980000D03*
D13*
%TO.P,D14,1*%
%TO.N,ROW3*%
X77787500Y-101600000D03*
%TD*%
D14*
%TO.P,D13,2*%
%TO.N,Net-(D13-Pad2)*%
X58737500Y-93980000D03*
D13*
%TO.P,D13,1*%
%TO.N,ROW3*%
X58737500Y-101600000D03*
%TD*%
D14*
%TO.P,D12,2*%
%TO.N,Net-(D12-Pad2)*%
X115093750Y-74930000D03*
D13*
%TO.P,D12,1*%
%TO.N,ROW2*%
X115093750Y-82550000D03*
%TD*%
D14*
%TO.P,D11,2*%
%TO.N,Net-(D11-Pad2)*%
X96837500Y-74930000D03*
D13*
%TO.P,D11,1*%
%TO.N,ROW2*%
X96837500Y-82550000D03*
%TD*%
D14*
%TO.P,D10,2*%
%TO.N,Net-(D10-Pad2)*%
X77787500Y-74930000D03*
D13*
%TO.P,D10,1*%
%TO.N,ROW2*%
X77787500Y-82550000D03*
%TD*%
D14*
%TO.P,D9,2*%
%TO.N,Net-(D9-Pad2)*%
X58737500Y-74930000D03*
D13*
%TO.P,D9,1*%
%TO.N,ROW2*%
X58737500Y-82550000D03*
%TD*%
D14*
%TO.P,D8,2*%
%TO.N,Net-(D8-Pad2)*%
X115093750Y-55880000D03*
D13*
%TO.P,D8,1*%
%TO.N,ROW1*%
X115093750Y-63500000D03*
%TD*%
D14*
%TO.P,D7,2*%
%TO.N,Net-(D7-Pad2)*%
X96837500Y-55880000D03*
D13*
%TO.P,D7,1*%
%TO.N,ROW1*%
X96837500Y-63500000D03*
%TD*%
D14*
%TO.P,D6,2*%
%TO.N,Net-(D6-Pad2)*%
X77787500Y-55880000D03*
D13*
%TO.P,D6,1*%
%TO.N,ROW1*%
X77787500Y-63500000D03*
%TD*%
D14*
%TO.P,D5,2*%
%TO.N,Net-(D5-Pad2)*%
X58737500Y-55880000D03*
D13*
%TO.P,D5,1*%
%TO.N,ROW1*%
X58737500Y-63500000D03*
%TD*%
D14*
%TO.P,D4,2*%
%TO.N,Net-(D4-Pad2)*%
X115093750Y-36830000D03*
D13*
%TO.P,D4,1*%
%TO.N,ROW0*%
X115093750Y-44450000D03*
%TD*%
D14*
%TO.P,D3,2*%
%TO.N,Net-(D3-Pad2)*%
X96837500Y-36830000D03*
D13*
%TO.P,D3,1*%
%TO.N,ROW0*%
X96837500Y-44450000D03*
%TD*%
D14*
%TO.P,D2,2*%
%TO.N,Net-(D2-Pad2)*%
X77787500Y-36830000D03*
D13*
%TO.P,D2,1*%
%TO.N,ROW0*%
X77787500Y-44450000D03*
%TD*%
D14*
%TO.P,D1,2*%
%TO.N,Net-(D1-Pad2)*%
X58737500Y-36830000D03*
D13*
%TO.P,D1,1*%
%TO.N,ROW0*%
X58737500Y-44450000D03*
%TD*%
D15*
%TO.N,COL0*%
X94869000Y-64770000D03*
X45402500Y-65087500D03*
%TO.N,COL1*%
X97409000Y-65659000D03*
X64452500Y-65722500D03*
%TD*%
D16*
%TO.N,ROW0*%
X94932500Y-46355000D02*
X96837500Y-44450000D01*
X94932500Y-52228750D02*
X94932500Y-46355000D01*
%TO.N,ROW2*%
X98597501Y-53643749D02*
X100012500Y-52228750D01*
X98597501Y-80789999D02*
X98597501Y-53643749D01*
X96837500Y-82550000D02*
X98597501Y-80789999D01*
%TO.N,ROW3*%
X99047511Y-78193987D02*
X99047511Y-99389989D01*
X101137501Y-76103997D02*
X99047511Y-78193987D01*
X101137501Y-66928749D02*
X101137501Y-76103997D01*
X100082499Y-65873747D02*
X101137501Y-66928749D01*
X99047511Y-99389989D02*
X96837500Y-101600000D01*
X100082499Y-54698751D02*
X100082499Y-65873747D01*
X102552500Y-52228750D02*
X100082499Y-54698751D01*
%TO.N,COL0*%
X45402500Y-38735000D02*
X45402500Y-57785000D01*
X45402500Y-57785000D02*
X45402500Y-65087500D01*
X45402500Y-76835000D02*
X45402500Y-95885000D01*
X45402500Y-68770500D02*
X45402500Y-76835000D01*
X45402500Y-65087500D02*
X45402500Y-68770500D01*
X94869000Y-67881500D02*
X94932500Y-67945000D01*
X94869000Y-64770000D02*
X94869000Y-67881500D01*
%TO.N,COL1*%
X64452500Y-95885000D02*
X64452500Y-76835000D01*
X64452500Y-59818998D02*
X64452500Y-57785000D01*
X64452500Y-76835000D02*
X64452500Y-70040500D01*
X64452500Y-57785000D02*
X64452500Y-38735000D01*
X64452500Y-70040500D02*
X64452500Y-65722500D01*
X64452500Y-65722500D02*
X64452500Y-59818998D01*
X97409000Y-67881500D02*
X97472500Y-67945000D01*
X97409000Y-65659000D02*
X97409000Y-67881500D01*
%TO.N,COL2*%
X83502500Y-52623752D02*
X83502500Y-57785000D01*
X83502500Y-38735000D02*
X83502500Y-52623752D01*
X83502500Y-57785000D02*
X83502500Y-76835000D01*
X83502500Y-76835000D02*
X83502500Y-95885000D01*
%TO.N,COL3*%
X102552500Y-95885000D02*
X102552500Y-76835000D01*
X102552500Y-76835000D02*
X102552500Y-67468750D01*
X102552500Y-67468750D02*
X102552500Y-57785000D01*
X103677501Y-39860001D02*
X102552500Y-38735000D01*
X103677501Y-56659999D02*
X103677501Y-39860001D01*
X102552500Y-57785000D02*
X103677501Y-56659999D01*
%TO.N,RST*%
X79692500Y-70326250D02*
X79375000Y-70643750D01*
X79692500Y-67468750D02*
X79692500Y-70326250D01*
%TD*%
D17*
%TO.N,GND*%
G36*
X114787884Y-30873502D02*
G01*
X115257188Y-31015194D01*
X115690025Y-31245337D01*
X116069927Y-31555178D01*
X116382403Y-31932897D01*
X116615569Y-32364127D01*
X116760532Y-32832428D01*
X116815018Y-33350825D01*
X116912671Y-106330662D01*
X116859851Y-106869361D01*
X116712649Y-107356919D01*
X116473549Y-107806602D01*
X116151658Y-108201279D01*
X115759245Y-108525911D01*
X115311241Y-108768147D01*
X114824721Y-108918750D01*
X114318223Y-108971985D01*
X113788026Y-108923733D01*
X113673253Y-108898461D01*
X113635633Y-108887049D01*
X113538669Y-108877499D01*
X41307288Y-108877501D01*
X40787117Y-108826498D01*
X40317814Y-108684807D01*
X39884972Y-108454661D01*
X39505073Y-108144823D01*
X39192594Y-107767100D01*
X38959431Y-107335873D01*
X38814468Y-106867573D01*
X38760000Y-106349347D01*
X38760000Y-41126278D01*
X42622500Y-41126278D01*
X42622500Y-41423722D01*
X42680529Y-41715451D01*
X42794356Y-41990253D01*
X42959607Y-42237569D01*
X43169931Y-42447893D01*
X43417247Y-42613144D01*
X43692049Y-42726971D01*
X43983778Y-42785000D01*
X44281222Y-42785000D01*
X44572951Y-42726971D01*
X44642500Y-42698163D01*
X44642501Y-56194791D01*
X44568827Y-56225308D01*
X44280565Y-56417919D01*
X44035419Y-56663065D01*
X43842808Y-56951327D01*
X43710136Y-57271627D01*
X43642500Y-57611655D01*
X43642500Y-57958345D01*
X43710136Y-58298373D01*
X43842808Y-58618673D01*
X43975138Y-58816719D01*
X43692049Y-58873029D01*
X43417247Y-58986856D01*
X43169931Y-59152107D01*
X42959607Y-59362431D01*
X42794356Y-59609747D01*
X42680529Y-59884549D01*
X42622500Y-60176278D01*
X42622500Y-60473722D01*
X42680529Y-60765451D01*
X42794356Y-61040253D01*
X42959607Y-61287569D01*
X43169931Y-61497893D01*
X43417247Y-61663144D01*
X43692049Y-61776971D01*
X43983778Y-61835000D01*
X44281222Y-61835000D01*
X44572951Y-61776971D01*
X44642501Y-61748163D01*
X44642501Y-64383788D01*
X44598563Y-64427726D01*
X44485295Y-64597244D01*
X44407274Y-64785602D01*
X44367500Y-64985561D01*
X44367500Y-65189439D01*
X44407274Y-65389398D01*
X44485295Y-65577756D01*
X44598563Y-65747274D01*
X44642500Y-65791211D01*
X44642501Y-68733158D01*
X44642500Y-68733168D01*
X44642501Y-75244791D01*
X44568827Y-75275308D01*
X44280565Y-75467919D01*
X44035419Y-75713065D01*
X43842808Y-76001327D01*
X43710136Y-76321627D01*
X43642500Y-76661655D01*
X43642500Y-77008345D01*
X43710136Y-77348373D01*
X43842808Y-77668673D01*
X43975138Y-77866719D01*
X43692049Y-77923029D01*
X43417247Y-78036856D01*
X43169931Y-78202107D01*
X42959607Y-78412431D01*
X42794356Y-78659747D01*
X42680529Y-78934549D01*
X42622500Y-79226278D01*
X42622500Y-79523722D01*
X42680529Y-79815451D01*
X42794356Y-80090253D01*
X42959607Y-80337569D01*
X43169931Y-80547893D01*
X43417247Y-80713144D01*
X43692049Y-80826971D01*
X43983778Y-80885000D01*
X44281222Y-80885000D01*
X44572951Y-80826971D01*
X44642500Y-80798163D01*
X44642501Y-94294791D01*
X44568827Y-94325308D01*
X44280565Y-94517919D01*
X44035419Y-94763065D01*
X43842808Y-95051327D01*
X43710136Y-95371627D01*
X43642500Y-95711655D01*
X43642500Y-96058345D01*
X43710136Y-96398373D01*
X43842808Y-96718673D01*
X43975138Y-96916719D01*
X43692049Y-96973029D01*
X43417247Y-97086856D01*
X43169931Y-97252107D01*
X42959607Y-97462431D01*
X42794356Y-97709747D01*
X42680529Y-97984549D01*
X42622500Y-98276278D01*
X42622500Y-98573722D01*
X42680529Y-98865451D01*
X42794356Y-99140253D01*
X42959607Y-99387569D01*
X43169931Y-99597893D01*
X43417247Y-99763144D01*
X43692049Y-99876971D01*
X43983778Y-99935000D01*
X44281222Y-99935000D01*
X44572951Y-99876971D01*
X44847753Y-99763144D01*
X45095069Y-99597893D01*
X45305393Y-99387569D01*
X45470644Y-99140253D01*
X45584471Y-98865451D01*
X45642500Y-98573722D01*
X45642500Y-98276278D01*
X45620580Y-98166076D01*
X46583600Y-98166076D01*
X46583600Y-98683924D01*
X46684627Y-99191822D01*
X46882799Y-99670251D01*
X47170500Y-100100826D01*
X47536674Y-100467000D01*
X47967249Y-100754701D01*
X48445678Y-100952873D01*
X48953576Y-101053900D01*
X49471424Y-101053900D01*
X49979322Y-100952873D01*
X50348389Y-100800000D01*
X57299428Y-100800000D01*
X57299428Y-102400000D01*
X57311688Y-102524482D01*
X57347998Y-102644180D01*
X57406963Y-102754494D01*
X57486315Y-102851185D01*
X57583006Y-102930537D01*
X57693320Y-102989502D01*
X57813018Y-103025812D01*
X57937500Y-103038072D01*
X59537500Y-103038072D01*
X59661982Y-103025812D01*
X59781680Y-102989502D01*
X59891994Y-102930537D01*
X59988685Y-102851185D01*
X60068037Y-102754494D01*
X60127002Y-102644180D01*
X60163312Y-102524482D01*
X60175572Y-102400000D01*
X60175572Y-100800000D01*
X60163312Y-100675518D01*
X60127002Y-100555820D01*
X60068037Y-100445506D01*
X59988685Y-100348815D01*
X59891994Y-100269463D01*
X59781680Y-100210498D01*
X59661982Y-100174188D01*
X59537500Y-100161928D01*
X57937500Y-100161928D01*
X57813018Y-100174188D01*
X57693320Y-100210498D01*
X57583006Y-100269463D01*
X57486315Y-100348815D01*
X57406963Y-100445506D01*
X57347998Y-100555820D01*
X57311688Y-100675518D01*
X57299428Y-100800000D01*
X50348389Y-100800000D01*
X50457751Y-100754701D01*
X50888326Y-100467000D01*
X51254500Y-100100826D01*
X51542201Y-99670251D01*
X51740373Y-99191822D01*
X51841400Y-98683924D01*
X51841400Y-98276278D01*
X52782500Y-98276278D01*
X52782500Y-98573722D01*
X52840529Y-98865451D01*
X52954356Y-99140253D01*
X53119607Y-99387569D01*
X53329931Y-99597893D01*
X53577247Y-99763144D01*
X53852049Y-99876971D01*
X54143778Y-99935000D01*
X54441222Y-99935000D01*
X54732951Y-99876971D01*
X55007753Y-99763144D01*
X55255069Y-99597893D01*
X55465393Y-99387569D01*
X55630644Y-99140253D01*
X55744471Y-98865451D01*
X55802500Y-98573722D01*
X55802500Y-98276278D01*
X55744471Y-97984549D01*
X55630644Y-97709747D01*
X55465393Y-97462431D01*
X55255069Y-97252107D01*
X55007753Y-97086856D01*
X54732951Y-96973029D01*
X54441222Y-96915000D01*
X54143778Y-96915000D01*
X53852049Y-96973029D01*
X53577247Y-97086856D01*
X53329931Y-97252107D01*
X53119607Y-97462431D01*
X52954356Y-97709747D01*
X52840529Y-97984549D01*
X52782500Y-98276278D01*
X51841400Y-98276278D01*
X51841400Y-98166076D01*
X51740373Y-97658178D01*
X51542201Y-97179749D01*
X51254500Y-96749174D01*
X50888326Y-96383000D01*
X50457751Y-96095299D01*
X49979322Y-95897127D01*
X49471424Y-95796100D01*
X48953576Y-95796100D01*
X48445678Y-95897127D01*
X47967249Y-96095299D01*
X47536674Y-96383000D01*
X47170500Y-96749174D01*
X46882799Y-97179749D01*
X46684627Y-97658178D01*
X46583600Y-98166076D01*
X45620580Y-98166076D01*
X45584471Y-97984549D01*
X45470644Y-97709747D01*
X45427382Y-97645000D01*
X45575845Y-97645000D01*
X45915873Y-97577364D01*
X46236173Y-97444692D01*
X46524435Y-97252081D01*
X46769581Y-97006935D01*
X46962192Y-96718673D01*
X47094864Y-96398373D01*
X47162500Y-96058345D01*
X47162500Y-95711655D01*
X47094864Y-95371627D01*
X46962192Y-95051327D01*
X46769581Y-94763065D01*
X46524435Y-94517919D01*
X46236173Y-94325308D01*
X46162500Y-94294792D01*
X46162500Y-93171655D01*
X49992500Y-93171655D01*
X49992500Y-93518345D01*
X50060136Y-93858373D01*
X50192808Y-94178673D01*
X50385419Y-94466935D01*
X50630565Y-94712081D01*
X50918827Y-94904692D01*
X51239127Y-95037364D01*
X51579155Y-95105000D01*
X51925845Y-95105000D01*
X52265873Y-95037364D01*
X52586173Y-94904692D01*
X52874435Y-94712081D01*
X53119581Y-94466935D01*
X53312192Y-94178673D01*
X53444864Y-93858373D01*
X53448784Y-93838665D01*
X57302500Y-93838665D01*
X57302500Y-94121335D01*
X57357647Y-94398574D01*
X57465820Y-94659727D01*
X57622863Y-94894759D01*
X57822741Y-95094637D01*
X58057773Y-95251680D01*
X58318926Y-95359853D01*
X58596165Y-95415000D01*
X58878835Y-95415000D01*
X59156074Y-95359853D01*
X59417227Y-95251680D01*
X59652259Y-95094637D01*
X59852137Y-94894759D01*
X60009180Y-94659727D01*
X60117353Y-94398574D01*
X60172500Y-94121335D01*
X60172500Y-93838665D01*
X60117353Y-93561426D01*
X60009180Y-93300273D01*
X59852137Y-93065241D01*
X59652259Y-92865363D01*
X59417227Y-92708320D01*
X59156074Y-92600147D01*
X58878835Y-92545000D01*
X58596165Y-92545000D01*
X58318926Y-92600147D01*
X58057773Y-92708320D01*
X57822741Y-92865363D01*
X57622863Y-93065241D01*
X57465820Y-93300273D01*
X57357647Y-93561426D01*
X57302500Y-93838665D01*
X53448784Y-93838665D01*
X53512500Y-93518345D01*
X53512500Y-93171655D01*
X53444864Y-92831627D01*
X53312192Y-92511327D01*
X53119581Y-92223065D01*
X52874435Y-91977919D01*
X52586173Y-91785308D01*
X52265873Y-91652636D01*
X51925845Y-91585000D01*
X51579155Y-91585000D01*
X51239127Y-91652636D01*
X50918827Y-91785308D01*
X50630565Y-91977919D01*
X50385419Y-92223065D01*
X50192808Y-92511327D01*
X50060136Y-92831627D01*
X49992500Y-93171655D01*
X46162500Y-93171655D01*
X46162500Y-79116076D01*
X46583600Y-79116076D01*
X46583600Y-79633924D01*
X46684627Y-80141822D01*
X46882799Y-80620251D01*
X47170500Y-81050826D01*
X47536674Y-81417000D01*
X47967249Y-81704701D01*
X48445678Y-81902873D01*
X48953576Y-82003900D01*
X49471424Y-82003900D01*
X49979322Y-81902873D01*
X50348389Y-81750000D01*
X57299428Y-81750000D01*
X57299428Y-83350000D01*
X57311688Y-83474482D01*
X57347998Y-83594180D01*
X57406963Y-83704494D01*
X57486315Y-83801185D01*
X57583006Y-83880537D01*
X57693320Y-83939502D01*
X57813018Y-83975812D01*
X57937500Y-83988072D01*
X59537500Y-83988072D01*
X59661982Y-83975812D01*
X59781680Y-83939502D01*
X59891994Y-83880537D01*
X59988685Y-83801185D01*
X60068037Y-83704494D01*
X60127002Y-83594180D01*
X60163312Y-83474482D01*
X60175572Y-83350000D01*
X60175572Y-81750000D01*
X60163312Y-81625518D01*
X60127002Y-81505820D01*
X60068037Y-81395506D01*
X59988685Y-81298815D01*
X59891994Y-81219463D01*
X59781680Y-81160498D01*
X59661982Y-81124188D01*
X59537500Y-81111928D01*
X57937500Y-81111928D01*
X57813018Y-81124188D01*
X57693320Y-81160498D01*
X57583006Y-81219463D01*
X57486315Y-81298815D01*
X57406963Y-81395506D01*
X57347998Y-81505820D01*
X57311688Y-81625518D01*
X57299428Y-81750000D01*
X50348389Y-81750000D01*
X50457751Y-81704701D01*
X50888326Y-81417000D01*
X51254500Y-81050826D01*
X51542201Y-80620251D01*
X51740373Y-80141822D01*
X51841400Y-79633924D01*
X51841400Y-79226278D01*
X52782500Y-79226278D01*
X52782500Y-79523722D01*
X52840529Y-79815451D01*
X52954356Y-80090253D01*
X53119607Y-80337569D01*
X53329931Y-80547893D01*
X53577247Y-80713144D01*
X53852049Y-80826971D01*
X54143778Y-80885000D01*
X54441222Y-80885000D01*
X54732951Y-80826971D01*
X55007753Y-80713144D01*
X55255069Y-80547893D01*
X55465393Y-80337569D01*
X55630644Y-80090253D01*
X55744471Y-79815451D01*
X55802500Y-79523722D01*
X55802500Y-79226278D01*
X55744471Y-78934549D01*
X55630644Y-78659747D01*
X55465393Y-78412431D01*
X55255069Y-78202107D01*
X55007753Y-78036856D01*
X54732951Y-77923029D01*
X54441222Y-77865000D01*
X54143778Y-77865000D01*
X53852049Y-77923029D01*
X53577247Y-78036856D01*
X53329931Y-78202107D01*
X53119607Y-78412431D01*
X52954356Y-78659747D01*
X52840529Y-78934549D01*
X52782500Y-79226278D01*
X51841400Y-79226278D01*
X51841400Y-79116076D01*
X51740373Y-78608178D01*
X51542201Y-78129749D01*
X51254500Y-77699174D01*
X50888326Y-77333000D01*
X50457751Y-77045299D01*
X49979322Y-76847127D01*
X49471424Y-76746100D01*
X48953576Y-76746100D01*
X48445678Y-76847127D01*
X47967249Y-77045299D01*
X47536674Y-77333000D01*
X47170500Y-77699174D01*
X46882799Y-78129749D01*
X46684627Y-78608178D01*
X46583600Y-79116076D01*
X46162500Y-79116076D01*
X46162500Y-78425208D01*
X46236173Y-78394692D01*
X46524435Y-78202081D01*
X46769581Y-77956935D01*
X46962192Y-77668673D01*
X47094864Y-77348373D01*
X47162500Y-77008345D01*
X47162500Y-76661655D01*
X47094864Y-76321627D01*
X46962192Y-76001327D01*
X46769581Y-75713065D01*
X46524435Y-75467919D01*
X46236173Y-75275308D01*
X46162500Y-75244792D01*
X46162500Y-74121655D01*
X49992500Y-74121655D01*
X49992500Y-74468345D01*
X50060136Y-74808373D01*
X50192808Y-75128673D01*
X50385419Y-75416935D01*
X50630565Y-75662081D01*
X50918827Y-75854692D01*
X51239127Y-75987364D01*
X51579155Y-76055000D01*
X51925845Y-76055000D01*
X52265873Y-75987364D01*
X52586173Y-75854692D01*
X52874435Y-75662081D01*
X53119581Y-75416935D01*
X53312192Y-75128673D01*
X53444864Y-74808373D01*
X53448784Y-74788665D01*
X57302500Y-74788665D01*
X57302500Y-75071335D01*
X57357647Y-75348574D01*
X57465820Y-75609727D01*
X57622863Y-75844759D01*
X57822741Y-76044637D01*
X58057773Y-76201680D01*
X58318926Y-76309853D01*
X58596165Y-76365000D01*
X58878835Y-76365000D01*
X59156074Y-76309853D01*
X59417227Y-76201680D01*
X59652259Y-76044637D01*
X59852137Y-75844759D01*
X60009180Y-75609727D01*
X60117353Y-75348574D01*
X60172500Y-75071335D01*
X60172500Y-74788665D01*
X60117353Y-74511426D01*
X60009180Y-74250273D01*
X59852137Y-74015241D01*
X59652259Y-73815363D01*
X59417227Y-73658320D01*
X59156074Y-73550147D01*
X58878835Y-73495000D01*
X58596165Y-73495000D01*
X58318926Y-73550147D01*
X58057773Y-73658320D01*
X57822741Y-73815363D01*
X57622863Y-74015241D01*
X57465820Y-74250273D01*
X57357647Y-74511426D01*
X57302500Y-74788665D01*
X53448784Y-74788665D01*
X53512500Y-74468345D01*
X53512500Y-74121655D01*
X53444864Y-73781627D01*
X53312192Y-73461327D01*
X53119581Y-73173065D01*
X52874435Y-72927919D01*
X52586173Y-72735308D01*
X52265873Y-72602636D01*
X51925845Y-72535000D01*
X51579155Y-72535000D01*
X51239127Y-72602636D01*
X50918827Y-72735308D01*
X50630565Y-72927919D01*
X50385419Y-73173065D01*
X50192808Y-73461327D01*
X50060136Y-73781627D01*
X49992500Y-74121655D01*
X46162500Y-74121655D01*
X46162500Y-65791211D01*
X46206437Y-65747274D01*
X46319705Y-65577756D01*
X46397726Y-65389398D01*
X46437500Y-65189439D01*
X46437500Y-64985561D01*
X46397726Y-64785602D01*
X46319705Y-64597244D01*
X46206437Y-64427726D01*
X46162500Y-64383789D01*
X46162500Y-60066076D01*
X46583600Y-60066076D01*
X46583600Y-60583924D01*
X46684627Y-61091822D01*
X46882799Y-61570251D01*
X47170500Y-62000826D01*
X47536674Y-62367000D01*
X47967249Y-62654701D01*
X48445678Y-62852873D01*
X48953576Y-62953900D01*
X49471424Y-62953900D01*
X49979322Y-62852873D01*
X50348389Y-62700000D01*
X57299428Y-62700000D01*
X57299428Y-64300000D01*
X57311688Y-64424482D01*
X57347998Y-64544180D01*
X57406963Y-64654494D01*
X57486315Y-64751185D01*
X57583006Y-64830537D01*
X57693320Y-64889502D01*
X57813018Y-64925812D01*
X57937500Y-64938072D01*
X59537500Y-64938072D01*
X59661982Y-64925812D01*
X59781680Y-64889502D01*
X59891994Y-64830537D01*
X59988685Y-64751185D01*
X60068037Y-64654494D01*
X60127002Y-64544180D01*
X60163312Y-64424482D01*
X60175572Y-64300000D01*
X60175572Y-62700000D01*
X60163312Y-62575518D01*
X60127002Y-62455820D01*
X60068037Y-62345506D01*
X59988685Y-62248815D01*
X59891994Y-62169463D01*
X59781680Y-62110498D01*
X59661982Y-62074188D01*
X59537500Y-62061928D01*
X57937500Y-62061928D01*
X57813018Y-62074188D01*
X57693320Y-62110498D01*
X57583006Y-62169463D01*
X57486315Y-62248815D01*
X57406963Y-62345506D01*
X57347998Y-62455820D01*
X57311688Y-62575518D01*
X57299428Y-62700000D01*
X50348389Y-62700000D01*
X50457751Y-62654701D01*
X50888326Y-62367000D01*
X51254500Y-62000826D01*
X51542201Y-61570251D01*
X51740373Y-61091822D01*
X51841400Y-60583924D01*
X51841400Y-60176278D01*
X52782500Y-60176278D01*
X52782500Y-60473722D01*
X52840529Y-60765451D01*
X52954356Y-61040253D01*
X53119607Y-61287569D01*
X53329931Y-61497893D01*
X53577247Y-61663144D01*
X53852049Y-61776971D01*
X54143778Y-61835000D01*
X54441222Y-61835000D01*
X54732951Y-61776971D01*
X55007753Y-61663144D01*
X55255069Y-61497893D01*
X55465393Y-61287569D01*
X55630644Y-61040253D01*
X55744471Y-60765451D01*
X55802500Y-60473722D01*
X55802500Y-60176278D01*
X55744471Y-59884549D01*
X55630644Y-59609747D01*
X55465393Y-59362431D01*
X55255069Y-59152107D01*
X55007753Y-58986856D01*
X54732951Y-58873029D01*
X54441222Y-58815000D01*
X54143778Y-58815000D01*
X53852049Y-58873029D01*
X53577247Y-58986856D01*
X53329931Y-59152107D01*
X53119607Y-59362431D01*
X52954356Y-59609747D01*
X52840529Y-59884549D01*
X52782500Y-60176278D01*
X51841400Y-60176278D01*
X51841400Y-60066076D01*
X51740373Y-59558178D01*
X51542201Y-59079749D01*
X51254500Y-58649174D01*
X50888326Y-58283000D01*
X50457751Y-57995299D01*
X49979322Y-57797127D01*
X49471424Y-57696100D01*
X48953576Y-57696100D01*
X48445678Y-57797127D01*
X47967249Y-57995299D01*
X47536674Y-58283000D01*
X47170500Y-58649174D01*
X46882799Y-59079749D01*
X46684627Y-59558178D01*
X46583600Y-60066076D01*
X46162500Y-60066076D01*
X46162500Y-59375208D01*
X46236173Y-59344692D01*
X46524435Y-59152081D01*
X46769581Y-58906935D01*
X46962192Y-58618673D01*
X47094864Y-58298373D01*
X47162500Y-57958345D01*
X47162500Y-57611655D01*
X47094864Y-57271627D01*
X46962192Y-56951327D01*
X46769581Y-56663065D01*
X46524435Y-56417919D01*
X46236173Y-56225308D01*
X46162500Y-56194792D01*
X46162500Y-55071655D01*
X49992500Y-55071655D01*
X49992500Y-55418345D01*
X50060136Y-55758373D01*
X50192808Y-56078673D01*
X50385419Y-56366935D01*
X50630565Y-56612081D01*
X50918827Y-56804692D01*
X51239127Y-56937364D01*
X51579155Y-57005000D01*
X51925845Y-57005000D01*
X52265873Y-56937364D01*
X52586173Y-56804692D01*
X52874435Y-56612081D01*
X53119581Y-56366935D01*
X53312192Y-56078673D01*
X53444864Y-55758373D01*
X53448784Y-55738665D01*
X57302500Y-55738665D01*
X57302500Y-56021335D01*
X57357647Y-56298574D01*
X57465820Y-56559727D01*
X57622863Y-56794759D01*
X57822741Y-56994637D01*
X58057773Y-57151680D01*
X58318926Y-57259853D01*
X58596165Y-57315000D01*
X58878835Y-57315000D01*
X59156074Y-57259853D01*
X59417227Y-57151680D01*
X59652259Y-56994637D01*
X59852137Y-56794759D01*
X60009180Y-56559727D01*
X60117353Y-56298574D01*
X60172500Y-56021335D01*
X60172500Y-55738665D01*
X60117353Y-55461426D01*
X60009180Y-55200273D01*
X59852137Y-54965241D01*
X59652259Y-54765363D01*
X59417227Y-54608320D01*
X59156074Y-54500147D01*
X58878835Y-54445000D01*
X58596165Y-54445000D01*
X58318926Y-54500147D01*
X58057773Y-54608320D01*
X57822741Y-54765363D01*
X57622863Y-54965241D01*
X57465820Y-55200273D01*
X57357647Y-55461426D01*
X57302500Y-55738665D01*
X53448784Y-55738665D01*
X53512500Y-55418345D01*
X53512500Y-55071655D01*
X53444864Y-54731627D01*
X53312192Y-54411327D01*
X53119581Y-54123065D01*
X52874435Y-53877919D01*
X52586173Y-53685308D01*
X52265873Y-53552636D01*
X51925845Y-53485000D01*
X51579155Y-53485000D01*
X51239127Y-53552636D01*
X50918827Y-53685308D01*
X50630565Y-53877919D01*
X50385419Y-54123065D01*
X50192808Y-54411327D01*
X50060136Y-54731627D01*
X49992500Y-55071655D01*
X46162500Y-55071655D01*
X46162500Y-41016076D01*
X46583600Y-41016076D01*
X46583600Y-41533924D01*
X46684627Y-42041822D01*
X46882799Y-42520251D01*
X47170500Y-42950826D01*
X47536674Y-43317000D01*
X47967249Y-43604701D01*
X48445678Y-43802873D01*
X48953576Y-43903900D01*
X49471424Y-43903900D01*
X49979322Y-43802873D01*
X50348389Y-43650000D01*
X57299428Y-43650000D01*
X57299428Y-45250000D01*
X57311688Y-45374482D01*
X57347998Y-45494180D01*
X57406963Y-45604494D01*
X57486315Y-45701185D01*
X57583006Y-45780537D01*
X57693320Y-45839502D01*
X57813018Y-45875812D01*
X57937500Y-45888072D01*
X59537500Y-45888072D01*
X59661982Y-45875812D01*
X59781680Y-45839502D01*
X59891994Y-45780537D01*
X59988685Y-45701185D01*
X60068037Y-45604494D01*
X60127002Y-45494180D01*
X60163312Y-45374482D01*
X60175572Y-45250000D01*
X60175572Y-43650000D01*
X60163312Y-43525518D01*
X60127002Y-43405820D01*
X60068037Y-43295506D01*
X59988685Y-43198815D01*
X59891994Y-43119463D01*
X59781680Y-43060498D01*
X59661982Y-43024188D01*
X59537500Y-43011928D01*
X57937500Y-43011928D01*
X57813018Y-43024188D01*
X57693320Y-43060498D01*
X57583006Y-43119463D01*
X57486315Y-43198815D01*
X57406963Y-43295506D01*
X57347998Y-43405820D01*
X57311688Y-43525518D01*
X57299428Y-43650000D01*
X50348389Y-43650000D01*
X50457751Y-43604701D01*
X50888326Y-43317000D01*
X51254500Y-42950826D01*
X51542201Y-42520251D01*
X51740373Y-42041822D01*
X51841400Y-41533924D01*
X51841400Y-41126278D01*
X52782500Y-41126278D01*
X52782500Y-41423722D01*
X52840529Y-41715451D01*
X52954356Y-41990253D01*
X53119607Y-42237569D01*
X53329931Y-42447893D01*
X53577247Y-42613144D01*
X53852049Y-42726971D01*
X54143778Y-42785000D01*
X54441222Y-42785000D01*
X54732951Y-42726971D01*
X55007753Y-42613144D01*
X55255069Y-42447893D01*
X55465393Y-42237569D01*
X55630644Y-41990253D01*
X55744471Y-41715451D01*
X55802500Y-41423722D01*
X55802500Y-41126278D01*
X61672500Y-41126278D01*
X61672500Y-41423722D01*
X61730529Y-41715451D01*
X61844356Y-41990253D01*
X62009607Y-42237569D01*
X62219931Y-42447893D01*
X62467247Y-42613144D01*
X62742049Y-42726971D01*
X63033778Y-42785000D01*
X63331222Y-42785000D01*
X63622951Y-42726971D01*
X63692501Y-42698162D01*
X63692500Y-56194792D01*
X63618827Y-56225308D01*
X63330565Y-56417919D01*
X63085419Y-56663065D01*
X62892808Y-56951327D01*
X62760136Y-57271627D01*
X62692500Y-57611655D01*
X62692500Y-57958345D01*
X62760136Y-58298373D01*
X62892808Y-58618673D01*
X63025138Y-58816719D01*
X62742049Y-58873029D01*
X62467247Y-58986856D01*
X62219931Y-59152107D01*
X62009607Y-59362431D01*
X61844356Y-59609747D01*
X61730529Y-59884549D01*
X61672500Y-60176278D01*
X61672500Y-60473722D01*
X61730529Y-60765451D01*
X61844356Y-61040253D01*
X62009607Y-61287569D01*
X62219931Y-61497893D01*
X62467247Y-61663144D01*
X62742049Y-61776971D01*
X63033778Y-61835000D01*
X63331222Y-61835000D01*
X63622951Y-61776971D01*
X63692501Y-61748163D01*
X63692500Y-65018789D01*
X63648563Y-65062726D01*
X63535295Y-65232244D01*
X63457274Y-65420602D01*
X63417500Y-65620561D01*
X63417500Y-65824439D01*
X63457274Y-66024398D01*
X63535295Y-66212756D01*
X63648563Y-66382274D01*
X63692501Y-66426212D01*
X63692500Y-70077832D01*
X63692501Y-70077842D01*
X63692500Y-75244792D01*
X63618827Y-75275308D01*
X63330565Y-75467919D01*
X63085419Y-75713065D01*
X62892808Y-76001327D01*
X62760136Y-76321627D01*
X62692500Y-76661655D01*
X62692500Y-77008345D01*
X62760136Y-77348373D01*
X62892808Y-77668673D01*
X63025138Y-77866719D01*
X62742049Y-77923029D01*
X62467247Y-78036856D01*
X62219931Y-78202107D01*
X62009607Y-78412431D01*
X61844356Y-78659747D01*
X61730529Y-78934549D01*
X61672500Y-79226278D01*
X61672500Y-79523722D01*
X61730529Y-79815451D01*
X61844356Y-80090253D01*
X62009607Y-80337569D01*
X62219931Y-80547893D01*
X62467247Y-80713144D01*
X62742049Y-80826971D01*
X63033778Y-80885000D01*
X63331222Y-80885000D01*
X63622951Y-80826971D01*
X63692501Y-80798162D01*
X63692500Y-94294792D01*
X63618827Y-94325308D01*
X63330565Y-94517919D01*
X63085419Y-94763065D01*
X62892808Y-95051327D01*
X62760136Y-95371627D01*
X62692500Y-95711655D01*
X62692500Y-96058345D01*
X62760136Y-96398373D01*
X62892808Y-96718673D01*
X63025138Y-96916719D01*
X62742049Y-96973029D01*
X62467247Y-97086856D01*
X62219931Y-97252107D01*
X62009607Y-97462431D01*
X61844356Y-97709747D01*
X61730529Y-97984549D01*
X61672500Y-98276278D01*
X61672500Y-98573722D01*
X61730529Y-98865451D01*
X61844356Y-99140253D01*
X62009607Y-99387569D01*
X62219931Y-99597893D01*
X62467247Y-99763144D01*
X62742049Y-99876971D01*
X63033778Y-99935000D01*
X63331222Y-99935000D01*
X63622951Y-99876971D01*
X63897753Y-99763144D01*
X64145069Y-99597893D01*
X64355393Y-99387569D01*
X64520644Y-99140253D01*
X64634471Y-98865451D01*
X64692500Y-98573722D01*
X64692500Y-98276278D01*
X64670580Y-98166076D01*
X65633600Y-98166076D01*
X65633600Y-98683924D01*
X65734627Y-99191822D01*
X65932799Y-99670251D01*
X66220500Y-100100826D01*
X66586674Y-100467000D01*
X67017249Y-100754701D01*
X67495678Y-100952873D01*
X68003576Y-101053900D01*
X68521424Y-101053900D01*
X69029322Y-100952873D01*
X69398389Y-100800000D01*
X76349428Y-100800000D01*
X76349428Y-102400000D01*
X76361688Y-102524482D01*
X76397998Y-102644180D01*
X76456963Y-102754494D01*
X76536315Y-102851185D01*
X76633006Y-102930537D01*
X76743320Y-102989502D01*
X76863018Y-103025812D01*
X76987500Y-103038072D01*
X78587500Y-103038072D01*
X78711982Y-103025812D01*
X78831680Y-102989502D01*
X78941994Y-102930537D01*
X79038685Y-102851185D01*
X79118037Y-102754494D01*
X79177002Y-102644180D01*
X79213312Y-102524482D01*
X79225572Y-102400000D01*
X79225572Y-100800000D01*
X79213312Y-100675518D01*
X79177002Y-100555820D01*
X79118037Y-100445506D01*
X79038685Y-100348815D01*
X78941994Y-100269463D01*
X78831680Y-100210498D01*
X78711982Y-100174188D01*
X78587500Y-100161928D01*
X76987500Y-100161928D01*
X76863018Y-100174188D01*
X76743320Y-100210498D01*
X76633006Y-100269463D01*
X76536315Y-100348815D01*
X76456963Y-100445506D01*
X76397998Y-100555820D01*
X76361688Y-100675518D01*
X76349428Y-100800000D01*
X69398389Y-100800000D01*
X69507751Y-100754701D01*
X69938326Y-100467000D01*
X70304500Y-100100826D01*
X70592201Y-99670251D01*
X70790373Y-99191822D01*
X70891400Y-98683924D01*
X70891400Y-98276278D01*
X71832500Y-98276278D01*
X71832500Y-98573722D01*
X71890529Y-98865451D01*
X72004356Y-99140253D01*
X72169607Y-99387569D01*
X72379931Y-99597893D01*
X72627247Y-99763144D01*
X72902049Y-99876971D01*
X73193778Y-99935000D01*
X73491222Y-99935000D01*
X73782951Y-99876971D01*
X74057753Y-99763144D01*
X74305069Y-99597893D01*
X74515393Y-99387569D01*
X74680644Y-99140253D01*
X74794471Y-98865451D01*
X74852500Y-98573722D01*
X74852500Y-98276278D01*
X74794471Y-97984549D01*
X74680644Y-97709747D01*
X74515393Y-97462431D01*
X74305069Y-97252107D01*
X74057753Y-97086856D01*
X73782951Y-96973029D01*
X73491222Y-96915000D01*
X73193778Y-96915000D01*
X72902049Y-96973029D01*
X72627247Y-97086856D01*
X72379931Y-97252107D01*
X72169607Y-97462431D01*
X72004356Y-97709747D01*
X71890529Y-97984549D01*
X71832500Y-98276278D01*
X70891400Y-98276278D01*
X70891400Y-98166076D01*
X70790373Y-97658178D01*
X70592201Y-97179749D01*
X70304500Y-96749174D01*
X69938326Y-96383000D01*
X69507751Y-96095299D01*
X69029322Y-95897127D01*
X68521424Y-95796100D01*
X68003576Y-95796100D01*
X67495678Y-95897127D01*
X67017249Y-96095299D01*
X66586674Y-96383000D01*
X66220500Y-96749174D01*
X65932799Y-97179749D01*
X65734627Y-97658178D01*
X65633600Y-98166076D01*
X64670580Y-98166076D01*
X64634471Y-97984549D01*
X64520644Y-97709747D01*
X64477382Y-97645000D01*
X64625845Y-97645000D01*
X64965873Y-97577364D01*
X65286173Y-97444692D01*
X65574435Y-97252081D01*
X65819581Y-97006935D01*
X66012192Y-96718673D01*
X66144864Y-96398373D01*
X66212500Y-96058345D01*
X66212500Y-95711655D01*
X66144864Y-95371627D01*
X66012192Y-95051327D01*
X65819581Y-94763065D01*
X65574435Y-94517919D01*
X65286173Y-94325308D01*
X65212500Y-94294792D01*
X65212500Y-93171655D01*
X69042500Y-93171655D01*
X69042500Y-93518345D01*
X69110136Y-93858373D01*
X69242808Y-94178673D01*
X69435419Y-94466935D01*
X69680565Y-94712081D01*
X69968827Y-94904692D01*
X70289127Y-95037364D01*
X70629155Y-95105000D01*
X70975845Y-95105000D01*
X71315873Y-95037364D01*
X71636173Y-94904692D01*
X71924435Y-94712081D01*
X72169581Y-94466935D01*
X72362192Y-94178673D01*
X72494864Y-93858373D01*
X72498784Y-93838665D01*
X76352500Y-93838665D01*
X76352500Y-94121335D01*
X76407647Y-94398574D01*
X76515820Y-94659727D01*
X76672863Y-94894759D01*
X76872741Y-95094637D01*
X77107773Y-95251680D01*
X77368926Y-95359853D01*
X77646165Y-95415000D01*
X77928835Y-95415000D01*
X78206074Y-95359853D01*
X78467227Y-95251680D01*
X78702259Y-95094637D01*
X78902137Y-94894759D01*
X79059180Y-94659727D01*
X79167353Y-94398574D01*
X79222500Y-94121335D01*
X79222500Y-93838665D01*
X79167353Y-93561426D01*
X79059180Y-93300273D01*
X78902137Y-93065241D01*
X78702259Y-92865363D01*
X78467227Y-92708320D01*
X78206074Y-92600147D01*
X77928835Y-92545000D01*
X77646165Y-92545000D01*
X77368926Y-92600147D01*
X77107773Y-92708320D01*
X76872741Y-92865363D01*
X76672863Y-93065241D01*
X76515820Y-93300273D01*
X76407647Y-93561426D01*
X76352500Y-93838665D01*
X72498784Y-93838665D01*
X72562500Y-93518345D01*
X72562500Y-93171655D01*
X72494864Y-92831627D01*
X72362192Y-92511327D01*
X72169581Y-92223065D01*
X71924435Y-91977919D01*
X71636173Y-91785308D01*
X71315873Y-91652636D01*
X70975845Y-91585000D01*
X70629155Y-91585000D01*
X70289127Y-91652636D01*
X69968827Y-91785308D01*
X69680565Y-91977919D01*
X69435419Y-92223065D01*
X69242808Y-92511327D01*
X69110136Y-92831627D01*
X69042500Y-93171655D01*
X65212500Y-93171655D01*
X65212500Y-79116076D01*
X65633600Y-79116076D01*
X65633600Y-79633924D01*
X65734627Y-80141822D01*
X65932799Y-80620251D01*
X66220500Y-81050826D01*
X66586674Y-81417000D01*
X67017249Y-81704701D01*
X67495678Y-81902873D01*
X68003576Y-82003900D01*
X68521424Y-82003900D01*
X69029322Y-81902873D01*
X69398389Y-81750000D01*
X76349428Y-81750000D01*
X76349428Y-83350000D01*
X76361688Y-83474482D01*
X76397998Y-83594180D01*
X76456963Y-83704494D01*
X76536315Y-83801185D01*
X76633006Y-83880537D01*
X76743320Y-83939502D01*
X76863018Y-83975812D01*
X76987500Y-83988072D01*
X78587500Y-83988072D01*
X78711982Y-83975812D01*
X78831680Y-83939502D01*
X78941994Y-83880537D01*
X79038685Y-83801185D01*
X79118037Y-83704494D01*
X79177002Y-83594180D01*
X79213312Y-83474482D01*
X79225572Y-83350000D01*
X79225572Y-81750000D01*
X79213312Y-81625518D01*
X79177002Y-81505820D01*
X79118037Y-81395506D01*
X79038685Y-81298815D01*
X78941994Y-81219463D01*
X78831680Y-81160498D01*
X78711982Y-81124188D01*
X78587500Y-81111928D01*
X76987500Y-81111928D01*
X76863018Y-81124188D01*
X76743320Y-81160498D01*
X76633006Y-81219463D01*
X76536315Y-81298815D01*
X76456963Y-81395506D01*
X76397998Y-81505820D01*
X76361688Y-81625518D01*
X76349428Y-81750000D01*
X69398389Y-81750000D01*
X69507751Y-81704701D01*
X69938326Y-81417000D01*
X70304500Y-81050826D01*
X70592201Y-80620251D01*
X70790373Y-80141822D01*
X70891400Y-79633924D01*
X70891400Y-79226278D01*
X71832500Y-79226278D01*
X71832500Y-79523722D01*
X71890529Y-79815451D01*
X72004356Y-80090253D01*
X72169607Y-80337569D01*
X72379931Y-80547893D01*
X72627247Y-80713144D01*
X72902049Y-80826971D01*
X73193778Y-80885000D01*
X73491222Y-80885000D01*
X73782951Y-80826971D01*
X74057753Y-80713144D01*
X74305069Y-80547893D01*
X74515393Y-80337569D01*
X74680644Y-80090253D01*
X74794471Y-79815451D01*
X74852500Y-79523722D01*
X74852500Y-79226278D01*
X74794471Y-78934549D01*
X74680644Y-78659747D01*
X74515393Y-78412431D01*
X74305069Y-78202107D01*
X74057753Y-78036856D01*
X73782951Y-77923029D01*
X73491222Y-77865000D01*
X73193778Y-77865000D01*
X72902049Y-77923029D01*
X72627247Y-78036856D01*
X72379931Y-78202107D01*
X72169607Y-78412431D01*
X72004356Y-78659747D01*
X71890529Y-78934549D01*
X71832500Y-79226278D01*
X70891400Y-79226278D01*
X70891400Y-79116076D01*
X70790373Y-78608178D01*
X70592201Y-78129749D01*
X70304500Y-77699174D01*
X69938326Y-77333000D01*
X69507751Y-77045299D01*
X69029322Y-76847127D01*
X68521424Y-76746100D01*
X68003576Y-76746100D01*
X67495678Y-76847127D01*
X67017249Y-77045299D01*
X66586674Y-77333000D01*
X66220500Y-77699174D01*
X65932799Y-78129749D01*
X65734627Y-78608178D01*
X65633600Y-79116076D01*
X65212500Y-79116076D01*
X65212500Y-78425208D01*
X65286173Y-78394692D01*
X65574435Y-78202081D01*
X65819581Y-77956935D01*
X66012192Y-77668673D01*
X66144864Y-77348373D01*
X66212500Y-77008345D01*
X66212500Y-76661655D01*
X66144864Y-76321627D01*
X66012192Y-76001327D01*
X65819581Y-75713065D01*
X65574435Y-75467919D01*
X65286173Y-75275308D01*
X65212500Y-75244792D01*
X65212500Y-74121655D01*
X69042500Y-74121655D01*
X69042500Y-74468345D01*
X69110136Y-74808373D01*
X69242808Y-75128673D01*
X69435419Y-75416935D01*
X69680565Y-75662081D01*
X69968827Y-75854692D01*
X70289127Y-75987364D01*
X70629155Y-76055000D01*
X70975845Y-76055000D01*
X71315873Y-75987364D01*
X71636173Y-75854692D01*
X71924435Y-75662081D01*
X72169581Y-75416935D01*
X72362192Y-75128673D01*
X72494864Y-74808373D01*
X72498784Y-74788665D01*
X76352500Y-74788665D01*
X76352500Y-75071335D01*
X76407647Y-75348574D01*
X76515820Y-75609727D01*
X76672863Y-75844759D01*
X76872741Y-76044637D01*
X77107773Y-76201680D01*
X77368926Y-76309853D01*
X77646165Y-76365000D01*
X77928835Y-76365000D01*
X78206074Y-76309853D01*
X78467227Y-76201680D01*
X78702259Y-76044637D01*
X78902137Y-75844759D01*
X79059180Y-75609727D01*
X79167353Y-75348574D01*
X79222500Y-75071335D01*
X79222500Y-74788665D01*
X79167353Y-74511426D01*
X79059180Y-74250273D01*
X78902137Y-74015241D01*
X78702259Y-73815363D01*
X78467227Y-73658320D01*
X78206074Y-73550147D01*
X77928835Y-73495000D01*
X77646165Y-73495000D01*
X77368926Y-73550147D01*
X77107773Y-73658320D01*
X76872741Y-73815363D01*
X76672863Y-74015241D01*
X76515820Y-74250273D01*
X76407647Y-74511426D01*
X76352500Y-74788665D01*
X72498784Y-74788665D01*
X72562500Y-74468345D01*
X72562500Y-74121655D01*
X72494864Y-73781627D01*
X72362192Y-73461327D01*
X72169581Y-73173065D01*
X71924435Y-72927919D01*
X71636173Y-72735308D01*
X71315873Y-72602636D01*
X70975845Y-72535000D01*
X70629155Y-72535000D01*
X70289127Y-72602636D01*
X69968827Y-72735308D01*
X69680565Y-72927919D01*
X69435419Y-73173065D01*
X69242808Y-73461327D01*
X69110136Y-73781627D01*
X69042500Y-74121655D01*
X65212500Y-74121655D01*
X65212500Y-71393750D01*
X74018178Y-71393750D01*
X74030438Y-71518232D01*
X74066748Y-71637930D01*
X74125713Y-71748244D01*
X74205065Y-71844935D01*
X74301756Y-71924287D01*
X74412070Y-71983252D01*
X74531768Y-72019562D01*
X74656250Y-72031822D01*
X75120500Y-72028750D01*
X75279250Y-71870000D01*
X75279250Y-70770750D01*
X75533250Y-70770750D01*
X75533250Y-71870000D01*
X75692000Y-72028750D01*
X76156250Y-72031822D01*
X76280732Y-72019562D01*
X76400430Y-71983252D01*
X76510744Y-71924287D01*
X76607435Y-71844935D01*
X76686787Y-71748244D01*
X76745752Y-71637930D01*
X76782062Y-71518232D01*
X76794322Y-71393750D01*
X76791250Y-70929500D01*
X76632500Y-70770750D01*
X75533250Y-70770750D01*
X75279250Y-70770750D01*
X74180000Y-70770750D01*
X74021250Y-70929500D01*
X74018178Y-71393750D01*
X65212500Y-71393750D01*
X65212500Y-67803665D01*
X73177500Y-67803665D01*
X73177500Y-68086335D01*
X73232647Y-68363574D01*
X73340820Y-68624727D01*
X73497863Y-68859759D01*
X73697741Y-69059637D01*
X73932773Y-69216680D01*
X74193926Y-69324853D01*
X74324813Y-69350888D01*
X74301756Y-69363213D01*
X74205065Y-69442565D01*
X74125713Y-69539256D01*
X74066748Y-69649570D01*
X74030438Y-69769268D01*
X74018178Y-69893750D01*
X74021250Y-70358000D01*
X74180000Y-70516750D01*
X75279250Y-70516750D01*
X75279250Y-69417500D01*
X75533250Y-69417500D01*
X75533250Y-70516750D01*
X76632500Y-70516750D01*
X76791250Y-70358000D01*
X76794322Y-69893750D01*
X76782062Y-69769268D01*
X76745752Y-69649570D01*
X76686787Y-69539256D01*
X76607435Y-69442565D01*
X76510744Y-69363213D01*
X76400430Y-69304248D01*
X76280732Y-69267938D01*
X76156250Y-69255678D01*
X75692000Y-69258750D01*
X75533250Y-69417500D01*
X75279250Y-69417500D01*
X75141050Y-69279300D01*
X75292227Y-69216680D01*
X75527259Y-69059637D01*
X75649194Y-68937702D01*
X76339403Y-68937702D01*
X76410986Y-69181671D01*
X76666496Y-69302571D01*
X76940684Y-69371300D01*
X77223012Y-69385217D01*
X77502630Y-69343787D01*
X77768792Y-69248603D01*
X77894014Y-69181671D01*
X77965597Y-68937702D01*
X77152500Y-68124605D01*
X76339403Y-68937702D01*
X75649194Y-68937702D01*
X75727137Y-68859759D01*
X75883415Y-68625872D01*
X75915829Y-68686514D01*
X76159798Y-68758097D01*
X76972895Y-67945000D01*
X77332105Y-67945000D01*
X78145202Y-68758097D01*
X78389171Y-68686514D01*
X78419694Y-68622008D01*
X78420820Y-68624727D01*
X78577863Y-68859759D01*
X78777741Y-69059637D01*
X78932501Y-69163044D01*
X78932501Y-69255678D01*
X78625000Y-69255678D01*
X78500518Y-69267938D01*
X78380820Y-69304248D01*
X78270506Y-69363213D01*
X78173815Y-69442565D01*
X78094463Y-69539256D01*
X78035498Y-69649570D01*
X77999188Y-69769268D01*
X77986928Y-69893750D01*
X77986928Y-71393750D01*
X77999188Y-71518232D01*
X78035498Y-71637930D01*
X78094463Y-71748244D01*
X78173815Y-71844935D01*
X78270506Y-71924287D01*
X78380820Y-71983252D01*
X78500518Y-72019562D01*
X78625000Y-72031822D01*
X80125000Y-72031822D01*
X80249482Y-72019562D01*
X80369180Y-71983252D01*
X80479494Y-71924287D01*
X80576185Y-71844935D01*
X80655537Y-71748244D01*
X80714502Y-71637930D01*
X80750812Y-71518232D01*
X80763072Y-71393750D01*
X80763072Y-69893750D01*
X80750812Y-69769268D01*
X80714502Y-69649570D01*
X80655537Y-69539256D01*
X80576185Y-69442565D01*
X80479494Y-69363213D01*
X80452500Y-69348784D01*
X80452500Y-69163043D01*
X80607259Y-69059637D01*
X80807137Y-68859759D01*
X80962500Y-68627241D01*
X81117863Y-68859759D01*
X81317741Y-69059637D01*
X81552773Y-69216680D01*
X81813926Y-69324853D01*
X82091165Y-69380000D01*
X82373835Y-69380000D01*
X82651074Y-69324853D01*
X82742501Y-69286983D01*
X82742501Y-75244791D01*
X82668827Y-75275308D01*
X82380565Y-75467919D01*
X82135419Y-75713065D01*
X81942808Y-76001327D01*
X81810136Y-76321627D01*
X81742500Y-76661655D01*
X81742500Y-77008345D01*
X81810136Y-77348373D01*
X81942808Y-77668673D01*
X82075138Y-77866719D01*
X81792049Y-77923029D01*
X81517247Y-78036856D01*
X81269931Y-78202107D01*
X81059607Y-78412431D01*
X80894356Y-78659747D01*
X80780529Y-78934549D01*
X80722500Y-79226278D01*
X80722500Y-79523722D01*
X80780529Y-79815451D01*
X80894356Y-80090253D01*
X81059607Y-80337569D01*
X81269931Y-80547893D01*
X81517247Y-80713144D01*
X81792049Y-80826971D01*
X82083778Y-80885000D01*
X82381222Y-80885000D01*
X82672951Y-80826971D01*
X82742500Y-80798163D01*
X82742501Y-94294791D01*
X82668827Y-94325308D01*
X82380565Y-94517919D01*
X82135419Y-94763065D01*
X81942808Y-95051327D01*
X81810136Y-95371627D01*
X81742500Y-95711655D01*
X81742500Y-96058345D01*
X81810136Y-96398373D01*
X81942808Y-96718673D01*
X82075138Y-96916719D01*
X81792049Y-96973029D01*
X81517247Y-97086856D01*
X81269931Y-97252107D01*
X81059607Y-97462431D01*
X80894356Y-97709747D01*
X80780529Y-97984549D01*
X80722500Y-98276278D01*
X80722500Y-98573722D01*
X80780529Y-98865451D01*
X80894356Y-99140253D01*
X81059607Y-99387569D01*
X81269931Y-99597893D01*
X81517247Y-99763144D01*
X81792049Y-99876971D01*
X82083778Y-99935000D01*
X82381222Y-99935000D01*
X82672951Y-99876971D01*
X82947753Y-99763144D01*
X83195069Y-99597893D01*
X83405393Y-99387569D01*
X83570644Y-99140253D01*
X83684471Y-98865451D01*
X83742500Y-98573722D01*
X83742500Y-98276278D01*
X83720580Y-98166076D01*
X84683600Y-98166076D01*
X84683600Y-98683924D01*
X84784627Y-99191822D01*
X84982799Y-99670251D01*
X85270500Y-100100826D01*
X85636674Y-100467000D01*
X86067249Y-100754701D01*
X86545678Y-100952873D01*
X87053576Y-101053900D01*
X87571424Y-101053900D01*
X88079322Y-100952873D01*
X88557751Y-100754701D01*
X88988326Y-100467000D01*
X89354500Y-100100826D01*
X89642201Y-99670251D01*
X89840373Y-99191822D01*
X89941400Y-98683924D01*
X89941400Y-98276278D01*
X90882500Y-98276278D01*
X90882500Y-98573722D01*
X90940529Y-98865451D01*
X91054356Y-99140253D01*
X91219607Y-99387569D01*
X91429931Y-99597893D01*
X91677247Y-99763144D01*
X91952049Y-99876971D01*
X92243778Y-99935000D01*
X92541222Y-99935000D01*
X92832951Y-99876971D01*
X93107753Y-99763144D01*
X93355069Y-99597893D01*
X93565393Y-99387569D01*
X93730644Y-99140253D01*
X93844471Y-98865451D01*
X93902500Y-98573722D01*
X93902500Y-98276278D01*
X93844471Y-97984549D01*
X93730644Y-97709747D01*
X93565393Y-97462431D01*
X93355069Y-97252107D01*
X93107753Y-97086856D01*
X92832951Y-96973029D01*
X92541222Y-96915000D01*
X92243778Y-96915000D01*
X91952049Y-96973029D01*
X91677247Y-97086856D01*
X91429931Y-97252107D01*
X91219607Y-97462431D01*
X91054356Y-97709747D01*
X90940529Y-97984549D01*
X90882500Y-98276278D01*
X89941400Y-98276278D01*
X89941400Y-98166076D01*
X89840373Y-97658178D01*
X89642201Y-97179749D01*
X89354500Y-96749174D01*
X88988326Y-96383000D01*
X88557751Y-96095299D01*
X88079322Y-95897127D01*
X87571424Y-95796100D01*
X87053576Y-95796100D01*
X86545678Y-95897127D01*
X86067249Y-96095299D01*
X85636674Y-96383000D01*
X85270500Y-96749174D01*
X84982799Y-97179749D01*
X84784627Y-97658178D01*
X84683600Y-98166076D01*
X83720580Y-98166076D01*
X83684471Y-97984549D01*
X83570644Y-97709747D01*
X83527382Y-97645000D01*
X83675845Y-97645000D01*
X84015873Y-97577364D01*
X84336173Y-97444692D01*
X84624435Y-97252081D01*
X84869581Y-97006935D01*
X85062192Y-96718673D01*
X85194864Y-96398373D01*
X85262500Y-96058345D01*
X85262500Y-95711655D01*
X85194864Y-95371627D01*
X85062192Y-95051327D01*
X84869581Y-94763065D01*
X84624435Y-94517919D01*
X84336173Y-94325308D01*
X84262500Y-94294792D01*
X84262500Y-93171655D01*
X88092500Y-93171655D01*
X88092500Y-93518345D01*
X88160136Y-93858373D01*
X88292808Y-94178673D01*
X88485419Y-94466935D01*
X88730565Y-94712081D01*
X89018827Y-94904692D01*
X89339127Y-95037364D01*
X89679155Y-95105000D01*
X90025845Y-95105000D01*
X90365873Y-95037364D01*
X90686173Y-94904692D01*
X90974435Y-94712081D01*
X91219581Y-94466935D01*
X91412192Y-94178673D01*
X91544864Y-93858373D01*
X91548784Y-93838665D01*
X95402500Y-93838665D01*
X95402500Y-94121335D01*
X95457647Y-94398574D01*
X95565820Y-94659727D01*
X95722863Y-94894759D01*
X95922741Y-95094637D01*
X96157773Y-95251680D01*
X96418926Y-95359853D01*
X96696165Y-95415000D01*
X96978835Y-95415000D01*
X97256074Y-95359853D01*
X97517227Y-95251680D01*
X97752259Y-95094637D01*
X97952137Y-94894759D01*
X98109180Y-94659727D01*
X98217353Y-94398574D01*
X98272500Y-94121335D01*
X98272500Y-93838665D01*
X98217353Y-93561426D01*
X98109180Y-93300273D01*
X97952137Y-93065241D01*
X97752259Y-92865363D01*
X97517227Y-92708320D01*
X97256074Y-92600147D01*
X96978835Y-92545000D01*
X96696165Y-92545000D01*
X96418926Y-92600147D01*
X96157773Y-92708320D01*
X95922741Y-92865363D01*
X95722863Y-93065241D01*
X95565820Y-93300273D01*
X95457647Y-93561426D01*
X95402500Y-93838665D01*
X91548784Y-93838665D01*
X91612500Y-93518345D01*
X91612500Y-93171655D01*
X91544864Y-92831627D01*
X91412192Y-92511327D01*
X91219581Y-92223065D01*
X90974435Y-91977919D01*
X90686173Y-91785308D01*
X90365873Y-91652636D01*
X90025845Y-91585000D01*
X89679155Y-91585000D01*
X89339127Y-91652636D01*
X89018827Y-91785308D01*
X88730565Y-91977919D01*
X88485419Y-92223065D01*
X88292808Y-92511327D01*
X88160136Y-92831627D01*
X88092500Y-93171655D01*
X84262500Y-93171655D01*
X84262500Y-79116076D01*
X84683600Y-79116076D01*
X84683600Y-79633924D01*
X84784627Y-80141822D01*
X84982799Y-80620251D01*
X85270500Y-81050826D01*
X85636674Y-81417000D01*
X86067249Y-81704701D01*
X86545678Y-81902873D01*
X87053576Y-82003900D01*
X87571424Y-82003900D01*
X88079322Y-81902873D01*
X88557751Y-81704701D01*
X88988326Y-81417000D01*
X89354500Y-81050826D01*
X89642201Y-80620251D01*
X89840373Y-80141822D01*
X89941400Y-79633924D01*
X89941400Y-79226278D01*
X90882500Y-79226278D01*
X90882500Y-79523722D01*
X90940529Y-79815451D01*
X91054356Y-80090253D01*
X91219607Y-80337569D01*
X91429931Y-80547893D01*
X91677247Y-80713144D01*
X91952049Y-80826971D01*
X92243778Y-80885000D01*
X92541222Y-80885000D01*
X92832951Y-80826971D01*
X93107753Y-80713144D01*
X93355069Y-80547893D01*
X93565393Y-80337569D01*
X93730644Y-80090253D01*
X93844471Y-79815451D01*
X93902500Y-79523722D01*
X93902500Y-79226278D01*
X93844471Y-78934549D01*
X93730644Y-78659747D01*
X93565393Y-78412431D01*
X93355069Y-78202107D01*
X93107753Y-78036856D01*
X92832951Y-77923029D01*
X92541222Y-77865000D01*
X92243778Y-77865000D01*
X91952049Y-77923029D01*
X91677247Y-78036856D01*
X91429931Y-78202107D01*
X91219607Y-78412431D01*
X91054356Y-78659747D01*
X90940529Y-78934549D01*
X90882500Y-79226278D01*
X89941400Y-79226278D01*
X89941400Y-79116076D01*
X89840373Y-78608178D01*
X89642201Y-78129749D01*
X89354500Y-77699174D01*
X88988326Y-77333000D01*
X88557751Y-77045299D01*
X88079322Y-76847127D01*
X87571424Y-76746100D01*
X87053576Y-76746100D01*
X86545678Y-76847127D01*
X86067249Y-77045299D01*
X85636674Y-77333000D01*
X85270500Y-77699174D01*
X84982799Y-78129749D01*
X84784627Y-78608178D01*
X84683600Y-79116076D01*
X84262500Y-79116076D01*
X84262500Y-78425208D01*
X84336173Y-78394692D01*
X84624435Y-78202081D01*
X84869581Y-77956935D01*
X85062192Y-77668673D01*
X85194864Y-77348373D01*
X85262500Y-77008345D01*
X85262500Y-76661655D01*
X85194864Y-76321627D01*
X85062192Y-76001327D01*
X84869581Y-75713065D01*
X84624435Y-75467919D01*
X84336173Y-75275308D01*
X84262500Y-75244792D01*
X84262500Y-74121655D01*
X88092500Y-74121655D01*
X88092500Y-74468345D01*
X88160136Y-74808373D01*
X88292808Y-75128673D01*
X88485419Y-75416935D01*
X88730565Y-75662081D01*
X89018827Y-75854692D01*
X89339127Y-75987364D01*
X89679155Y-76055000D01*
X90025845Y-76055000D01*
X90365873Y-75987364D01*
X90686173Y-75854692D01*
X90974435Y-75662081D01*
X91219581Y-75416935D01*
X91412192Y-75128673D01*
X91544864Y-74808373D01*
X91612500Y-74468345D01*
X91612500Y-74121655D01*
X91544864Y-73781627D01*
X91412192Y-73461327D01*
X91219581Y-73173065D01*
X90974435Y-72927919D01*
X90686173Y-72735308D01*
X90365873Y-72602636D01*
X90025845Y-72535000D01*
X89679155Y-72535000D01*
X89339127Y-72602636D01*
X89018827Y-72735308D01*
X88730565Y-72927919D01*
X88485419Y-73173065D01*
X88292808Y-73461327D01*
X88160136Y-73781627D01*
X88092500Y-74121655D01*
X84262500Y-74121655D01*
X84262500Y-69286983D01*
X84353926Y-69324853D01*
X84631165Y-69380000D01*
X84913835Y-69380000D01*
X85191074Y-69324853D01*
X85452227Y-69216680D01*
X85687259Y-69059637D01*
X85887137Y-68859759D01*
X86042500Y-68627241D01*
X86197863Y-68859759D01*
X86397741Y-69059637D01*
X86632773Y-69216680D01*
X86893926Y-69324853D01*
X87171165Y-69380000D01*
X87453835Y-69380000D01*
X87731074Y-69324853D01*
X87992227Y-69216680D01*
X88227259Y-69059637D01*
X88427137Y-68859759D01*
X88582500Y-68627241D01*
X88737863Y-68859759D01*
X88937741Y-69059637D01*
X89172773Y-69216680D01*
X89433926Y-69324853D01*
X89711165Y-69380000D01*
X89993835Y-69380000D01*
X90271074Y-69324853D01*
X90532227Y-69216680D01*
X90767259Y-69059637D01*
X90967137Y-68859759D01*
X91122500Y-68627241D01*
X91277863Y-68859759D01*
X91477741Y-69059637D01*
X91712773Y-69216680D01*
X91973926Y-69324853D01*
X92251165Y-69380000D01*
X92533835Y-69380000D01*
X92811074Y-69324853D01*
X93072227Y-69216680D01*
X93307259Y-69059637D01*
X93507137Y-68859759D01*
X93662500Y-68627241D01*
X93817863Y-68859759D01*
X94017741Y-69059637D01*
X94252773Y-69216680D01*
X94513926Y-69324853D01*
X94791165Y-69380000D01*
X95073835Y-69380000D01*
X95351074Y-69324853D01*
X95612227Y-69216680D01*
X95847259Y-69059637D01*
X96047137Y-68859759D01*
X96202500Y-68627241D01*
X96357863Y-68859759D01*
X96557741Y-69059637D01*
X96792773Y-69216680D01*
X97053926Y-69324853D01*
X97331165Y-69380000D01*
X97613835Y-69380000D01*
X97837501Y-69335509D01*
X97837501Y-73900605D01*
X97752259Y-73815363D01*
X97517227Y-73658320D01*
X97256074Y-73550147D01*
X96978835Y-73495000D01*
X96696165Y-73495000D01*
X96418926Y-73550147D01*
X96157773Y-73658320D01*
X95922741Y-73815363D01*
X95722863Y-74015241D01*
X95565820Y-74250273D01*
X95457647Y-74511426D01*
X95402500Y-74788665D01*
X95402500Y-75071335D01*
X95457647Y-75348574D01*
X95565820Y-75609727D01*
X95722863Y-75844759D01*
X95922741Y-76044637D01*
X96157773Y-76201680D01*
X96418926Y-76309853D01*
X96696165Y-76365000D01*
X96978835Y-76365000D01*
X97256074Y-76309853D01*
X97517227Y-76201680D01*
X97752259Y-76044637D01*
X97837501Y-75959395D01*
X97837501Y-80475197D01*
X97200770Y-81111928D01*
X96037500Y-81111928D01*
X95913018Y-81124188D01*
X95793320Y-81160498D01*
X95683006Y-81219463D01*
X95586315Y-81298815D01*
X95506963Y-81395506D01*
X95447998Y-81505820D01*
X95411688Y-81625518D01*
X95399428Y-81750000D01*
X95399428Y-83350000D01*
X95411688Y-83474482D01*
X95447998Y-83594180D01*
X95506963Y-83704494D01*
X95586315Y-83801185D01*
X95683006Y-83880537D01*
X95793320Y-83939502D01*
X95913018Y-83975812D01*
X96037500Y-83988072D01*
X97637500Y-83988072D01*
X97761982Y-83975812D01*
X97881680Y-83939502D01*
X97991994Y-83880537D01*
X98088685Y-83801185D01*
X98168037Y-83704494D01*
X98227002Y-83594180D01*
X98263312Y-83474482D01*
X98275572Y-83350000D01*
X98275572Y-82186730D01*
X98287511Y-82174790D01*
X98287512Y-99075186D01*
X97200771Y-100161928D01*
X96037500Y-100161928D01*
X95913018Y-100174188D01*
X95793320Y-100210498D01*
X95683006Y-100269463D01*
X95586315Y-100348815D01*
X95506963Y-100445506D01*
X95447998Y-100555820D01*
X95411688Y-100675518D01*
X95399428Y-100800000D01*
X95399428Y-102400000D01*
X95411688Y-102524482D01*
X95447998Y-102644180D01*
X95506963Y-102754494D01*
X95586315Y-102851185D01*
X95683006Y-102930537D01*
X95793320Y-102989502D01*
X95913018Y-103025812D01*
X96037500Y-103038072D01*
X97637500Y-103038072D01*
X97761982Y-103025812D01*
X97881680Y-102989502D01*
X97991994Y-102930537D01*
X98088685Y-102851185D01*
X98168037Y-102754494D01*
X98227002Y-102644180D01*
X98263312Y-102524482D01*
X98275572Y-102400000D01*
X98275572Y-101236729D01*
X99558514Y-99953788D01*
X99587512Y-99929990D01*
X99682485Y-99814265D01*
X99753057Y-99682236D01*
X99796514Y-99538975D01*
X99807511Y-99427322D01*
X99811188Y-99389989D01*
X99807511Y-99352656D01*
X99807511Y-98749733D01*
X99830529Y-98865451D01*
X99944356Y-99140253D01*
X100109607Y-99387569D01*
X100319931Y-99597893D01*
X100567247Y-99763144D01*
X100842049Y-99876971D01*
X101133778Y-99935000D01*
X101431222Y-99935000D01*
X101722951Y-99876971D01*
X101997753Y-99763144D01*
X102245069Y-99597893D01*
X102455393Y-99387569D01*
X102620644Y-99140253D01*
X102734471Y-98865451D01*
X102792500Y-98573722D01*
X102792500Y-98276278D01*
X102770580Y-98166076D01*
X103733600Y-98166076D01*
X103733600Y-98683924D01*
X103834627Y-99191822D01*
X104032799Y-99670251D01*
X104320500Y-100100826D01*
X104686674Y-100467000D01*
X105117249Y-100754701D01*
X105595678Y-100952873D01*
X106103576Y-101053900D01*
X106621424Y-101053900D01*
X107129322Y-100952873D01*
X107498389Y-100800000D01*
X113655678Y-100800000D01*
X113655678Y-102400000D01*
X113667938Y-102524482D01*
X113704248Y-102644180D01*
X113763213Y-102754494D01*
X113842565Y-102851185D01*
X113939256Y-102930537D01*
X114049570Y-102989502D01*
X114169268Y-103025812D01*
X114293750Y-103038072D01*
X115893750Y-103038072D01*
X116018232Y-103025812D01*
X116137930Y-102989502D01*
X116248244Y-102930537D01*
X116344935Y-102851185D01*
X116424287Y-102754494D01*
X116483252Y-102644180D01*
X116519562Y-102524482D01*
X116531822Y-102400000D01*
X116531822Y-100800000D01*
X116519562Y-100675518D01*
X116483252Y-100555820D01*
X116424287Y-100445506D01*
X116344935Y-100348815D01*
X116248244Y-100269463D01*
X116137930Y-100210498D01*
X116018232Y-100174188D01*
X115893750Y-100161928D01*
X114293750Y-100161928D01*
X114169268Y-100174188D01*
X114049570Y-100210498D01*
X113939256Y-100269463D01*
X113842565Y-100348815D01*
X113763213Y-100445506D01*
X113704248Y-100555820D01*
X113667938Y-100675518D01*
X113655678Y-100800000D01*
X107498389Y-100800000D01*
X107607751Y-100754701D01*
X108038326Y-100467000D01*
X108404500Y-100100826D01*
X108692201Y-99670251D01*
X108890373Y-99191822D01*
X108991400Y-98683924D01*
X108991400Y-98276278D01*
X109932500Y-98276278D01*
X109932500Y-98573722D01*
X109990529Y-98865451D01*
X110104356Y-99140253D01*
X110269607Y-99387569D01*
X110479931Y-99597893D01*
X110727247Y-99763144D01*
X111002049Y-99876971D01*
X111293778Y-99935000D01*
X111591222Y-99935000D01*
X111882951Y-99876971D01*
X112157753Y-99763144D01*
X112405069Y-99597893D01*
X112615393Y-99387569D01*
X112780644Y-99140253D01*
X112894471Y-98865451D01*
X112952500Y-98573722D01*
X112952500Y-98276278D01*
X112894471Y-97984549D01*
X112780644Y-97709747D01*
X112615393Y-97462431D01*
X112405069Y-97252107D01*
X112157753Y-97086856D01*
X111882951Y-96973029D01*
X111591222Y-96915000D01*
X111293778Y-96915000D01*
X111002049Y-96973029D01*
X110727247Y-97086856D01*
X110479931Y-97252107D01*
X110269607Y-97462431D01*
X110104356Y-97709747D01*
X109990529Y-97984549D01*
X109932500Y-98276278D01*
X108991400Y-98276278D01*
X108991400Y-98166076D01*
X108890373Y-97658178D01*
X108692201Y-97179749D01*
X108404500Y-96749174D01*
X108038326Y-96383000D01*
X107607751Y-96095299D01*
X107129322Y-95897127D01*
X106621424Y-95796100D01*
X106103576Y-95796100D01*
X105595678Y-95897127D01*
X105117249Y-96095299D01*
X104686674Y-96383000D01*
X104320500Y-96749174D01*
X104032799Y-97179749D01*
X103834627Y-97658178D01*
X103733600Y-98166076D01*
X102770580Y-98166076D01*
X102734471Y-97984549D01*
X102620644Y-97709747D01*
X102577382Y-97645000D01*
X102725845Y-97645000D01*
X103065873Y-97577364D01*
X103386173Y-97444692D01*
X103674435Y-97252081D01*
X103919581Y-97006935D01*
X104112192Y-96718673D01*
X104244864Y-96398373D01*
X104312500Y-96058345D01*
X104312500Y-95711655D01*
X104244864Y-95371627D01*
X104112192Y-95051327D01*
X103919581Y-94763065D01*
X103674435Y-94517919D01*
X103386173Y-94325308D01*
X103312500Y-94294792D01*
X103312500Y-93171655D01*
X107142500Y-93171655D01*
X107142500Y-93518345D01*
X107210136Y-93858373D01*
X107342808Y-94178673D01*
X107535419Y-94466935D01*
X107780565Y-94712081D01*
X108068827Y-94904692D01*
X108389127Y-95037364D01*
X108729155Y-95105000D01*
X109075845Y-95105000D01*
X109415873Y-95037364D01*
X109736173Y-94904692D01*
X110024435Y-94712081D01*
X110269581Y-94466935D01*
X110462192Y-94178673D01*
X110594864Y-93858373D01*
X110598784Y-93838665D01*
X113658750Y-93838665D01*
X113658750Y-94121335D01*
X113713897Y-94398574D01*
X113822070Y-94659727D01*
X113979113Y-94894759D01*
X114178991Y-95094637D01*
X114414023Y-95251680D01*
X114675176Y-95359853D01*
X114952415Y-95415000D01*
X115235085Y-95415000D01*
X115512324Y-95359853D01*
X115773477Y-95251680D01*
X116008509Y-95094637D01*
X116208387Y-94894759D01*
X116365430Y-94659727D01*
X116473603Y-94398574D01*
X116528750Y-94121335D01*
X116528750Y-93838665D01*
X116473603Y-93561426D01*
X116365430Y-93300273D01*
X116208387Y-93065241D01*
X116008509Y-92865363D01*
X115773477Y-92708320D01*
X115512324Y-92600147D01*
X115235085Y-92545000D01*
X114952415Y-92545000D01*
X114675176Y-92600147D01*
X114414023Y-92708320D01*
X114178991Y-92865363D01*
X113979113Y-93065241D01*
X113822070Y-93300273D01*
X113713897Y-93561426D01*
X113658750Y-93838665D01*
X110598784Y-93838665D01*
X110662500Y-93518345D01*
X110662500Y-93171655D01*
X110594864Y-92831627D01*
X110462192Y-92511327D01*
X110269581Y-92223065D01*
X110024435Y-91977919D01*
X109736173Y-91785308D01*
X109415873Y-91652636D01*
X109075845Y-91585000D01*
X108729155Y-91585000D01*
X108389127Y-91652636D01*
X108068827Y-91785308D01*
X107780565Y-91977919D01*
X107535419Y-92223065D01*
X107342808Y-92511327D01*
X107210136Y-92831627D01*
X107142500Y-93171655D01*
X103312500Y-93171655D01*
X103312500Y-79116076D01*
X103733600Y-79116076D01*
X103733600Y-79633924D01*
X103834627Y-80141822D01*
X104032799Y-80620251D01*
X104320500Y-81050826D01*
X104686674Y-81417000D01*
X105117249Y-81704701D01*
X105595678Y-81902873D01*
X106103576Y-82003900D01*
X106621424Y-82003900D01*
X107129322Y-81902873D01*
X107498389Y-81750000D01*
X113655678Y-81750000D01*
X113655678Y-83350000D01*
X113667938Y-83474482D01*
X113704248Y-83594180D01*
X113763213Y-83704494D01*
X113842565Y-83801185D01*
X113939256Y-83880537D01*
X114049570Y-83939502D01*
X114169268Y-83975812D01*
X114293750Y-83988072D01*
X115893750Y-83988072D01*
X116018232Y-83975812D01*
X116137930Y-83939502D01*
X116248244Y-83880537D01*
X116344935Y-83801185D01*
X116424287Y-83704494D01*
X116483252Y-83594180D01*
X116519562Y-83474482D01*
X116531822Y-83350000D01*
X116531822Y-81750000D01*
X116519562Y-81625518D01*
X116483252Y-81505820D01*
X116424287Y-81395506D01*
X116344935Y-81298815D01*
X116248244Y-81219463D01*
X116137930Y-81160498D01*
X116018232Y-81124188D01*
X115893750Y-81111928D01*
X114293750Y-81111928D01*
X114169268Y-81124188D01*
X114049570Y-81160498D01*
X113939256Y-81219463D01*
X113842565Y-81298815D01*
X113763213Y-81395506D01*
X113704248Y-81505820D01*
X113667938Y-81625518D01*
X113655678Y-81750000D01*
X107498389Y-81750000D01*
X107607751Y-81704701D01*
X108038326Y-81417000D01*
X108404500Y-81050826D01*
X108692201Y-80620251D01*
X108890373Y-80141822D01*
X108991400Y-79633924D01*
X108991400Y-79226278D01*
X109932500Y-79226278D01*
X109932500Y-79523722D01*
X109990529Y-79815451D01*
X110104356Y-80090253D01*
X110269607Y-80337569D01*
X110479931Y-80547893D01*
X110727247Y-80713144D01*
X111002049Y-80826971D01*
X111293778Y-80885000D01*
X111591222Y-80885000D01*
X111882951Y-80826971D01*
X112157753Y-80713144D01*
X112405069Y-80547893D01*
X112615393Y-80337569D01*
X112780644Y-80090253D01*
X112894471Y-79815451D01*
X112952500Y-79523722D01*
X112952500Y-79226278D01*
X112894471Y-78934549D01*
X112780644Y-78659747D01*
X112615393Y-78412431D01*
X112405069Y-78202107D01*
X112157753Y-78036856D01*
X111882951Y-77923029D01*
X111591222Y-77865000D01*
X111293778Y-77865000D01*
X111002049Y-77923029D01*
X110727247Y-78036856D01*
X110479931Y-78202107D01*
X110269607Y-78412431D01*
X110104356Y-78659747D01*
X109990529Y-78934549D01*
X109932500Y-79226278D01*
X108991400Y-79226278D01*
X108991400Y-79116076D01*
X108890373Y-78608178D01*
X108692201Y-78129749D01*
X108404500Y-77699174D01*
X108038326Y-77333000D01*
X107607751Y-77045299D01*
X107129322Y-76847127D01*
X106621424Y-76746100D01*
X106103576Y-76746100D01*
X105595678Y-76847127D01*
X105117249Y-77045299D01*
X104686674Y-77333000D01*
X104320500Y-77699174D01*
X104032799Y-78129749D01*
X103834627Y-78608178D01*
X103733600Y-79116076D01*
X103312500Y-79116076D01*
X103312500Y-78425208D01*
X103386173Y-78394692D01*
X103674435Y-78202081D01*
X103919581Y-77956935D01*
X104112192Y-77668673D01*
X104244864Y-77348373D01*
X104312500Y-77008345D01*
X104312500Y-76661655D01*
X104244864Y-76321627D01*
X104112192Y-76001327D01*
X103919581Y-75713065D01*
X103674435Y-75467919D01*
X103386173Y-75275308D01*
X103312500Y-75244792D01*
X103312500Y-74121655D01*
X107142500Y-74121655D01*
X107142500Y-74468345D01*
X107210136Y-74808373D01*
X107342808Y-75128673D01*
X107535419Y-75416935D01*
X107780565Y-75662081D01*
X108068827Y-75854692D01*
X108389127Y-75987364D01*
X108729155Y-76055000D01*
X109075845Y-76055000D01*
X109415873Y-75987364D01*
X109736173Y-75854692D01*
X110024435Y-75662081D01*
X110269581Y-75416935D01*
X110462192Y-75128673D01*
X110594864Y-74808373D01*
X110598784Y-74788665D01*
X113658750Y-74788665D01*
X113658750Y-75071335D01*
X113713897Y-75348574D01*
X113822070Y-75609727D01*
X113979113Y-75844759D01*
X114178991Y-76044637D01*
X114414023Y-76201680D01*
X114675176Y-76309853D01*
X114952415Y-76365000D01*
X115235085Y-76365000D01*
X115512324Y-76309853D01*
X115773477Y-76201680D01*
X116008509Y-76044637D01*
X116208387Y-75844759D01*
X116365430Y-75609727D01*
X116473603Y-75348574D01*
X116528750Y-75071335D01*
X116528750Y-74788665D01*
X116473603Y-74511426D01*
X116365430Y-74250273D01*
X116208387Y-74015241D01*
X116008509Y-73815363D01*
X115773477Y-73658320D01*
X115512324Y-73550147D01*
X115235085Y-73495000D01*
X114952415Y-73495000D01*
X114675176Y-73550147D01*
X114414023Y-73658320D01*
X114178991Y-73815363D01*
X113979113Y-74015241D01*
X113822070Y-74250273D01*
X113713897Y-74511426D01*
X113658750Y-74788665D01*
X110598784Y-74788665D01*
X110662500Y-74468345D01*
X110662500Y-74121655D01*
X110594864Y-73781627D01*
X110462192Y-73461327D01*
X110269581Y-73173065D01*
X110024435Y-72927919D01*
X109736173Y-72735308D01*
X109415873Y-72602636D01*
X109075845Y-72535000D01*
X108729155Y-72535000D01*
X108389127Y-72602636D01*
X108068827Y-72735308D01*
X107780565Y-72927919D01*
X107535419Y-73173065D01*
X107342808Y-73461327D01*
X107210136Y-73781627D01*
X107142500Y-74121655D01*
X103312500Y-74121655D01*
X103312500Y-69163043D01*
X103467259Y-69059637D01*
X103667137Y-68859759D01*
X103824180Y-68624727D01*
X103932353Y-68363574D01*
X103987500Y-68086335D01*
X103987500Y-67803665D01*
X103932353Y-67526426D01*
X103824180Y-67265273D01*
X103667137Y-67030241D01*
X103467259Y-66830363D01*
X103312500Y-66726957D01*
X103312500Y-60066076D01*
X103733600Y-60066076D01*
X103733600Y-60583924D01*
X103834627Y-61091822D01*
X104032799Y-61570251D01*
X104320500Y-62000826D01*
X104686674Y-62367000D01*
X105117249Y-62654701D01*
X105595678Y-62852873D01*
X106103576Y-62953900D01*
X106621424Y-62953900D01*
X107129322Y-62852873D01*
X107498389Y-62700000D01*
X113655678Y-62700000D01*
X113655678Y-64300000D01*
X113667938Y-64424482D01*
X113704248Y-64544180D01*
X113763213Y-64654494D01*
X113842565Y-64751185D01*
X113939256Y-64830537D01*
X114049570Y-64889502D01*
X114169268Y-64925812D01*
X114293750Y-64938072D01*
X115893750Y-64938072D01*
X116018232Y-64925812D01*
X116137930Y-64889502D01*
X116248244Y-64830537D01*
X116344935Y-64751185D01*
X116424287Y-64654494D01*
X116483252Y-64544180D01*
X116519562Y-64424482D01*
X116531822Y-64300000D01*
X116531822Y-62700000D01*
X116519562Y-62575518D01*
X116483252Y-62455820D01*
X116424287Y-62345506D01*
X116344935Y-62248815D01*
X116248244Y-62169463D01*
X116137930Y-62110498D01*
X116018232Y-62074188D01*
X115893750Y-62061928D01*
X114293750Y-62061928D01*
X114169268Y-62074188D01*
X114049570Y-62110498D01*
X113939256Y-62169463D01*
X113842565Y-62248815D01*
X113763213Y-62345506D01*
X113704248Y-62455820D01*
X113667938Y-62575518D01*
X113655678Y-62700000D01*
X107498389Y-62700000D01*
X107607751Y-62654701D01*
X108038326Y-62367000D01*
X108404500Y-62000826D01*
X108692201Y-61570251D01*
X108890373Y-61091822D01*
X108991400Y-60583924D01*
X108991400Y-60176278D01*
X109932500Y-60176278D01*
X109932500Y-60473722D01*
X109990529Y-60765451D01*
X110104356Y-61040253D01*
X110269607Y-61287569D01*
X110479931Y-61497893D01*
X110727247Y-61663144D01*
X111002049Y-61776971D01*
X111293778Y-61835000D01*
X111591222Y-61835000D01*
X111882951Y-61776971D01*
X112157753Y-61663144D01*
X112405069Y-61497893D01*
X112615393Y-61287569D01*
X112780644Y-61040253D01*
X112894471Y-60765451D01*
X112952500Y-60473722D01*
X112952500Y-60176278D01*
X112894471Y-59884549D01*
X112780644Y-59609747D01*
X112615393Y-59362431D01*
X112405069Y-59152107D01*
X112157753Y-58986856D01*
X111882951Y-58873029D01*
X111591222Y-58815000D01*
X111293778Y-58815000D01*
X111002049Y-58873029D01*
X110727247Y-58986856D01*
X110479931Y-59152107D01*
X110269607Y-59362431D01*
X110104356Y-59609747D01*
X109990529Y-59884549D01*
X109932500Y-60176278D01*
X108991400Y-60176278D01*
X108991400Y-60066076D01*
X108890373Y-59558178D01*
X108692201Y-59079749D01*
X108404500Y-58649174D01*
X108038326Y-58283000D01*
X107607751Y-57995299D01*
X107129322Y-57797127D01*
X106621424Y-57696100D01*
X106103576Y-57696100D01*
X105595678Y-57797127D01*
X105117249Y-57995299D01*
X104686674Y-58283000D01*
X104320500Y-58649174D01*
X104032799Y-59079749D01*
X103834627Y-59558178D01*
X103733600Y-60066076D01*
X103312500Y-60066076D01*
X103312500Y-59375208D01*
X103386173Y-59344692D01*
X103674435Y-59152081D01*
X103919581Y-58906935D01*
X104112192Y-58618673D01*
X104244864Y-58298373D01*
X104312500Y-57958345D01*
X104312500Y-57611655D01*
X104244864Y-57271627D01*
X104215780Y-57201413D01*
X104217502Y-57200000D01*
X104312475Y-57084275D01*
X104383047Y-56952246D01*
X104426504Y-56808985D01*
X104437501Y-56697332D01*
X104437501Y-56697324D01*
X104441177Y-56659999D01*
X104437501Y-56622674D01*
X104437501Y-55071655D01*
X107142500Y-55071655D01*
X107142500Y-55418345D01*
X107210136Y-55758373D01*
X107342808Y-56078673D01*
X107535419Y-56366935D01*
X107780565Y-56612081D01*
X108068827Y-56804692D01*
X108389127Y-56937364D01*
X108729155Y-57005000D01*
X109075845Y-57005000D01*
X109415873Y-56937364D01*
X109736173Y-56804692D01*
X110024435Y-56612081D01*
X110269581Y-56366935D01*
X110462192Y-56078673D01*
X110594864Y-55758373D01*
X110598784Y-55738665D01*
X113658750Y-55738665D01*
X113658750Y-56021335D01*
X113713897Y-56298574D01*
X113822070Y-56559727D01*
X113979113Y-56794759D01*
X114178991Y-56994637D01*
X114414023Y-57151680D01*
X114675176Y-57259853D01*
X114952415Y-57315000D01*
X115235085Y-57315000D01*
X115512324Y-57259853D01*
X115773477Y-57151680D01*
X116008509Y-56994637D01*
X116208387Y-56794759D01*
X116365430Y-56559727D01*
X116473603Y-56298574D01*
X116528750Y-56021335D01*
X116528750Y-55738665D01*
X116473603Y-55461426D01*
X116365430Y-55200273D01*
X116208387Y-54965241D01*
X116008509Y-54765363D01*
X115773477Y-54608320D01*
X115512324Y-54500147D01*
X115235085Y-54445000D01*
X114952415Y-54445000D01*
X114675176Y-54500147D01*
X114414023Y-54608320D01*
X114178991Y-54765363D01*
X113979113Y-54965241D01*
X113822070Y-55200273D01*
X113713897Y-55461426D01*
X113658750Y-55738665D01*
X110598784Y-55738665D01*
X110662500Y-55418345D01*
X110662500Y-55071655D01*
X110594864Y-54731627D01*
X110462192Y-54411327D01*
X110269581Y-54123065D01*
X110024435Y-53877919D01*
X109736173Y-53685308D01*
X109415873Y-53552636D01*
X109075845Y-53485000D01*
X108729155Y-53485000D01*
X108389127Y-53552636D01*
X108068827Y-53685308D01*
X107780565Y-53877919D01*
X107535419Y-54123065D01*
X107342808Y-54411327D01*
X107210136Y-54731627D01*
X107142500Y-55071655D01*
X104437501Y-55071655D01*
X104437501Y-43067827D01*
X104686674Y-43317000D01*
X105117249Y-43604701D01*
X105595678Y-43802873D01*
X106103576Y-43903900D01*
X106621424Y-43903900D01*
X107129322Y-43802873D01*
X107498389Y-43650000D01*
X113655678Y-43650000D01*
X113655678Y-45250000D01*
X113667938Y-45374482D01*
X113704248Y-45494180D01*
X113763213Y-45604494D01*
X113842565Y-45701185D01*
X113939256Y-45780537D01*
X114049570Y-45839502D01*
X114169268Y-45875812D01*
X114293750Y-45888072D01*
X115893750Y-45888072D01*
X116018232Y-45875812D01*
X116137930Y-45839502D01*
X116248244Y-45780537D01*
X116344935Y-45701185D01*
X116424287Y-45604494D01*
X116483252Y-45494180D01*
X116519562Y-45374482D01*
X116531822Y-45250000D01*
X116531822Y-43650000D01*
X116519562Y-43525518D01*
X116483252Y-43405820D01*
X116424287Y-43295506D01*
X116344935Y-43198815D01*
X116248244Y-43119463D01*
X116137930Y-43060498D01*
X116018232Y-43024188D01*
X115893750Y-43011928D01*
X114293750Y-43011928D01*
X114169268Y-43024188D01*
X114049570Y-43060498D01*
X113939256Y-43119463D01*
X113842565Y-43198815D01*
X113763213Y-43295506D01*
X113704248Y-43405820D01*
X113667938Y-43525518D01*
X113655678Y-43650000D01*
X107498389Y-43650000D01*
X107607751Y-43604701D01*
X108038326Y-43317000D01*
X108404500Y-42950826D01*
X108692201Y-42520251D01*
X108890373Y-42041822D01*
X108991400Y-41533924D01*
X108991400Y-41126278D01*
X109932500Y-41126278D01*
X109932500Y-41423722D01*
X109990529Y-41715451D01*
X110104356Y-41990253D01*
X110269607Y-42237569D01*
X110479931Y-42447893D01*
X110727247Y-42613144D01*
X111002049Y-42726971D01*
X111293778Y-42785000D01*
X111591222Y-42785000D01*
X111882951Y-42726971D01*
X112157753Y-42613144D01*
X112405069Y-42447893D01*
X112615393Y-42237569D01*
X112780644Y-41990253D01*
X112894471Y-41715451D01*
X112952500Y-41423722D01*
X112952500Y-41126278D01*
X112894471Y-40834549D01*
X112780644Y-40559747D01*
X112615393Y-40312431D01*
X112405069Y-40102107D01*
X112157753Y-39936856D01*
X111882951Y-39823029D01*
X111591222Y-39765000D01*
X111293778Y-39765000D01*
X111002049Y-39823029D01*
X110727247Y-39936856D01*
X110479931Y-40102107D01*
X110269607Y-40312431D01*
X110104356Y-40559747D01*
X109990529Y-40834549D01*
X109932500Y-41126278D01*
X108991400Y-41126278D01*
X108991400Y-41016076D01*
X108890373Y-40508178D01*
X108692201Y-40029749D01*
X108404500Y-39599174D01*
X108038326Y-39233000D01*
X107607751Y-38945299D01*
X107129322Y-38747127D01*
X106621424Y-38646100D01*
X106103576Y-38646100D01*
X105595678Y-38747127D01*
X105117249Y-38945299D01*
X104686674Y-39233000D01*
X104372205Y-39547469D01*
X104312475Y-39435725D01*
X104217502Y-39320000D01*
X104215780Y-39318587D01*
X104244864Y-39248373D01*
X104312500Y-38908345D01*
X104312500Y-38561655D01*
X104244864Y-38221627D01*
X104112192Y-37901327D01*
X103919581Y-37613065D01*
X103674435Y-37367919D01*
X103386173Y-37175308D01*
X103065873Y-37042636D01*
X102725845Y-36975000D01*
X102379155Y-36975000D01*
X102039127Y-37042636D01*
X101718827Y-37175308D01*
X101430565Y-37367919D01*
X101185419Y-37613065D01*
X100992808Y-37901327D01*
X100860136Y-38221627D01*
X100792500Y-38561655D01*
X100792500Y-38908345D01*
X100860136Y-39248373D01*
X100992808Y-39568673D01*
X101125138Y-39766719D01*
X100842049Y-39823029D01*
X100567247Y-39936856D01*
X100319931Y-40102107D01*
X100109607Y-40312431D01*
X99944356Y-40559747D01*
X99830529Y-40834549D01*
X99772500Y-41126278D01*
X99772500Y-41423722D01*
X99830529Y-41715451D01*
X99944356Y-41990253D01*
X100109607Y-42237569D01*
X100319931Y-42447893D01*
X100567247Y-42613144D01*
X100842049Y-42726971D01*
X101133778Y-42785000D01*
X101431222Y-42785000D01*
X101722951Y-42726971D01*
X101997753Y-42613144D01*
X102245069Y-42447893D01*
X102455393Y-42237569D01*
X102620644Y-41990253D01*
X102734471Y-41715451D01*
X102792500Y-41423722D01*
X102792500Y-41126278D01*
X102734471Y-40834549D01*
X102620644Y-40559747D01*
X102577382Y-40495000D01*
X102725845Y-40495000D01*
X102917502Y-40456877D01*
X102917501Y-51314491D01*
X102693835Y-51270000D01*
X102411165Y-51270000D01*
X102133926Y-51325147D01*
X101872773Y-51433320D01*
X101637741Y-51590363D01*
X101437863Y-51790241D01*
X101282500Y-52022759D01*
X101127137Y-51790241D01*
X100927259Y-51590363D01*
X100692227Y-51433320D01*
X100431074Y-51325147D01*
X100153835Y-51270000D01*
X99871165Y-51270000D01*
X99593926Y-51325147D01*
X99332773Y-51433320D01*
X99097741Y-51590363D01*
X98897863Y-51790241D01*
X98742500Y-52022759D01*
X98587137Y-51790241D01*
X98387259Y-51590363D01*
X98152227Y-51433320D01*
X97891074Y-51325147D01*
X97613835Y-51270000D01*
X97331165Y-51270000D01*
X97053926Y-51325147D01*
X96792773Y-51433320D01*
X96557741Y-51590363D01*
X96357863Y-51790241D01*
X96202500Y-52022759D01*
X96047137Y-51790241D01*
X95847259Y-51590363D01*
X95692500Y-51486957D01*
X95692500Y-46669801D01*
X96474230Y-45888072D01*
X97637500Y-45888072D01*
X97761982Y-45875812D01*
X97881680Y-45839502D01*
X97991994Y-45780537D01*
X98088685Y-45701185D01*
X98168037Y-45604494D01*
X98227002Y-45494180D01*
X98263312Y-45374482D01*
X98275572Y-45250000D01*
X98275572Y-43650000D01*
X98263312Y-43525518D01*
X98227002Y-43405820D01*
X98168037Y-43295506D01*
X98088685Y-43198815D01*
X97991994Y-43119463D01*
X97881680Y-43060498D01*
X97761982Y-43024188D01*
X97637500Y-43011928D01*
X96037500Y-43011928D01*
X95913018Y-43024188D01*
X95793320Y-43060498D01*
X95683006Y-43119463D01*
X95586315Y-43198815D01*
X95506963Y-43295506D01*
X95447998Y-43405820D01*
X95411688Y-43525518D01*
X95399428Y-43650000D01*
X95399428Y-44813270D01*
X94421498Y-45791201D01*
X94392500Y-45814999D01*
X94368702Y-45843997D01*
X94368701Y-45843998D01*
X94297526Y-45930724D01*
X94226954Y-46062754D01*
X94183498Y-46206015D01*
X94168824Y-46355000D01*
X94172501Y-46392332D01*
X94172500Y-51486956D01*
X94017741Y-51590363D01*
X93817863Y-51790241D01*
X93662500Y-52022759D01*
X93507137Y-51790241D01*
X93307259Y-51590363D01*
X93072227Y-51433320D01*
X92811074Y-51325147D01*
X92533835Y-51270000D01*
X92251165Y-51270000D01*
X91973926Y-51325147D01*
X91712773Y-51433320D01*
X91477741Y-51590363D01*
X91277863Y-51790241D01*
X91122500Y-52022759D01*
X90967137Y-51790241D01*
X90767259Y-51590363D01*
X90532227Y-51433320D01*
X90271074Y-51325147D01*
X89993835Y-51270000D01*
X89711165Y-51270000D01*
X89433926Y-51325147D01*
X89172773Y-51433320D01*
X88937741Y-51590363D01*
X88737863Y-51790241D01*
X88582500Y-52022759D01*
X88427137Y-51790241D01*
X88227259Y-51590363D01*
X87992227Y-51433320D01*
X87731074Y-51325147D01*
X87453835Y-51270000D01*
X87171165Y-51270000D01*
X86893926Y-51325147D01*
X86632773Y-51433320D01*
X86397741Y-51590363D01*
X86197863Y-51790241D01*
X86042500Y-52022759D01*
X85887137Y-51790241D01*
X85687259Y-51590363D01*
X85452227Y-51433320D01*
X85191074Y-51325147D01*
X84913835Y-51270000D01*
X84631165Y-51270000D01*
X84353926Y-51325147D01*
X84262500Y-51363017D01*
X84262500Y-41016076D01*
X84683600Y-41016076D01*
X84683600Y-41533924D01*
X84784627Y-42041822D01*
X84982799Y-42520251D01*
X85270500Y-42950826D01*
X85636674Y-43317000D01*
X86067249Y-43604701D01*
X86545678Y-43802873D01*
X87053576Y-43903900D01*
X87571424Y-43903900D01*
X88079322Y-43802873D01*
X88557751Y-43604701D01*
X88988326Y-43317000D01*
X89354500Y-42950826D01*
X89642201Y-42520251D01*
X89840373Y-42041822D01*
X89941400Y-41533924D01*
X89941400Y-41126278D01*
X90882500Y-41126278D01*
X90882500Y-41423722D01*
X90940529Y-41715451D01*
X91054356Y-41990253D01*
X91219607Y-42237569D01*
X91429931Y-42447893D01*
X91677247Y-42613144D01*
X91952049Y-42726971D01*
X92243778Y-42785000D01*
X92541222Y-42785000D01*
X92832951Y-42726971D01*
X93107753Y-42613144D01*
X93355069Y-42447893D01*
X93565393Y-42237569D01*
X93730644Y-41990253D01*
X93844471Y-41715451D01*
X93902500Y-41423722D01*
X93902500Y-41126278D01*
X93844471Y-40834549D01*
X93730644Y-40559747D01*
X93565393Y-40312431D01*
X93355069Y-40102107D01*
X93107753Y-39936856D01*
X92832951Y-39823029D01*
X92541222Y-39765000D01*
X92243778Y-39765000D01*
X91952049Y-39823029D01*
X91677247Y-39936856D01*
X91429931Y-40102107D01*
X91219607Y-40312431D01*
X91054356Y-40559747D01*
X90940529Y-40834549D01*
X90882500Y-41126278D01*
X89941400Y-41126278D01*
X89941400Y-41016076D01*
X89840373Y-40508178D01*
X89642201Y-40029749D01*
X89354500Y-39599174D01*
X88988326Y-39233000D01*
X88557751Y-38945299D01*
X88079322Y-38747127D01*
X87571424Y-38646100D01*
X87053576Y-38646100D01*
X86545678Y-38747127D01*
X86067249Y-38945299D01*
X85636674Y-39233000D01*
X85270500Y-39599174D01*
X84982799Y-40029749D01*
X84784627Y-40508178D01*
X84683600Y-41016076D01*
X84262500Y-41016076D01*
X84262500Y-40325208D01*
X84336173Y-40294692D01*
X84624435Y-40102081D01*
X84869581Y-39856935D01*
X85062192Y-39568673D01*
X85194864Y-39248373D01*
X85262500Y-38908345D01*
X85262500Y-38561655D01*
X85194864Y-38221627D01*
X85062192Y-37901327D01*
X84869581Y-37613065D01*
X84624435Y-37367919D01*
X84336173Y-37175308D01*
X84015873Y-37042636D01*
X83675845Y-36975000D01*
X83329155Y-36975000D01*
X82989127Y-37042636D01*
X82668827Y-37175308D01*
X82380565Y-37367919D01*
X82135419Y-37613065D01*
X81942808Y-37901327D01*
X81810136Y-38221627D01*
X81742500Y-38561655D01*
X81742500Y-38908345D01*
X81810136Y-39248373D01*
X81942808Y-39568673D01*
X82075138Y-39766719D01*
X81792049Y-39823029D01*
X81517247Y-39936856D01*
X81269931Y-40102107D01*
X81059607Y-40312431D01*
X80894356Y-40559747D01*
X80780529Y-40834549D01*
X80722500Y-41126278D01*
X80722500Y-41423722D01*
X80780529Y-41715451D01*
X80894356Y-41990253D01*
X81059607Y-42237569D01*
X81269931Y-42447893D01*
X81517247Y-42613144D01*
X81792049Y-42726971D01*
X82083778Y-42785000D01*
X82381222Y-42785000D01*
X82672951Y-42726971D01*
X82742500Y-42698163D01*
X82742501Y-51358784D01*
X82718504Y-51347429D01*
X82444316Y-51278700D01*
X82161988Y-51264783D01*
X81882370Y-51306213D01*
X81616208Y-51401397D01*
X81490986Y-51468329D01*
X81419403Y-51712298D01*
X82232500Y-52525395D01*
X82246643Y-52511253D01*
X82426248Y-52690858D01*
X82412105Y-52705000D01*
X82426248Y-52719143D01*
X82246643Y-52898748D01*
X82232500Y-52884605D01*
X81419403Y-53697702D01*
X81490986Y-53941671D01*
X81746496Y-54062571D01*
X82020684Y-54131300D01*
X82303012Y-54145217D01*
X82582630Y-54103787D01*
X82742500Y-54046615D01*
X82742501Y-56194791D01*
X82668827Y-56225308D01*
X82380565Y-56417919D01*
X82135419Y-56663065D01*
X81942808Y-56951327D01*
X81810136Y-57271627D01*
X81742500Y-57611655D01*
X81742500Y-57958345D01*
X81810136Y-58298373D01*
X81942808Y-58618673D01*
X82075138Y-58816719D01*
X81792049Y-58873029D01*
X81517247Y-58986856D01*
X81269931Y-59152107D01*
X81059607Y-59362431D01*
X80894356Y-59609747D01*
X80780529Y-59884549D01*
X80722500Y-60176278D01*
X80722500Y-60473722D01*
X80780529Y-60765451D01*
X80894356Y-61040253D01*
X81059607Y-61287569D01*
X81269931Y-61497893D01*
X81517247Y-61663144D01*
X81792049Y-61776971D01*
X82083778Y-61835000D01*
X82381222Y-61835000D01*
X82672951Y-61776971D01*
X82742500Y-61748163D01*
X82742500Y-66603017D01*
X82651074Y-66565147D01*
X82373835Y-66510000D01*
X82091165Y-66510000D01*
X81813926Y-66565147D01*
X81552773Y-66673320D01*
X81317741Y-66830363D01*
X81117863Y-67030241D01*
X80962500Y-67262759D01*
X80807137Y-67030241D01*
X80607259Y-66830363D01*
X80372227Y-66673320D01*
X80111074Y-66565147D01*
X79833835Y-66510000D01*
X79551165Y-66510000D01*
X79273926Y-66565147D01*
X79012773Y-66673320D01*
X78777741Y-66830363D01*
X78577863Y-67030241D01*
X78421585Y-67264128D01*
X78389171Y-67203486D01*
X78145202Y-67131903D01*
X77332105Y-67945000D01*
X76972895Y-67945000D01*
X76159798Y-67131903D01*
X75915829Y-67203486D01*
X75885306Y-67267992D01*
X75884180Y-67265273D01*
X75727137Y-67030241D01*
X75649194Y-66952298D01*
X76339403Y-66952298D01*
X77152500Y-67765395D01*
X77965597Y-66952298D01*
X77894014Y-66708329D01*
X77638504Y-66587429D01*
X77364316Y-66518700D01*
X77081988Y-66504783D01*
X76802370Y-66546213D01*
X76536208Y-66641397D01*
X76410986Y-66708329D01*
X76339403Y-66952298D01*
X75649194Y-66952298D01*
X75527259Y-66830363D01*
X75292227Y-66673320D01*
X75031074Y-66565147D01*
X74753835Y-66510000D01*
X74471165Y-66510000D01*
X74193926Y-66565147D01*
X73932773Y-66673320D01*
X73697741Y-66830363D01*
X73497863Y-67030241D01*
X73340820Y-67265273D01*
X73232647Y-67526426D01*
X73177500Y-67803665D01*
X65212500Y-67803665D01*
X65212500Y-66426211D01*
X65256437Y-66382274D01*
X65369705Y-66212756D01*
X65447726Y-66024398D01*
X65487500Y-65824439D01*
X65487500Y-65620561D01*
X65447726Y-65420602D01*
X65369705Y-65232244D01*
X65256437Y-65062726D01*
X65212500Y-65018789D01*
X65212500Y-60066076D01*
X65633600Y-60066076D01*
X65633600Y-60583924D01*
X65734627Y-61091822D01*
X65932799Y-61570251D01*
X66220500Y-62000826D01*
X66586674Y-62367000D01*
X67017249Y-62654701D01*
X67495678Y-62852873D01*
X68003576Y-62953900D01*
X68521424Y-62953900D01*
X69029322Y-62852873D01*
X69398389Y-62700000D01*
X76349428Y-62700000D01*
X76349428Y-64300000D01*
X76361688Y-64424482D01*
X76397998Y-64544180D01*
X76456963Y-64654494D01*
X76536315Y-64751185D01*
X76633006Y-64830537D01*
X76743320Y-64889502D01*
X76863018Y-64925812D01*
X76987500Y-64938072D01*
X78587500Y-64938072D01*
X78711982Y-64925812D01*
X78831680Y-64889502D01*
X78941994Y-64830537D01*
X79038685Y-64751185D01*
X79118037Y-64654494D01*
X79177002Y-64544180D01*
X79213312Y-64424482D01*
X79225572Y-64300000D01*
X79225572Y-62700000D01*
X79213312Y-62575518D01*
X79177002Y-62455820D01*
X79118037Y-62345506D01*
X79038685Y-62248815D01*
X78941994Y-62169463D01*
X78831680Y-62110498D01*
X78711982Y-62074188D01*
X78587500Y-62061928D01*
X76987500Y-62061928D01*
X76863018Y-62074188D01*
X76743320Y-62110498D01*
X76633006Y-62169463D01*
X76536315Y-62248815D01*
X76456963Y-62345506D01*
X76397998Y-62455820D01*
X76361688Y-62575518D01*
X76349428Y-62700000D01*
X69398389Y-62700000D01*
X69507751Y-62654701D01*
X69938326Y-62367000D01*
X70304500Y-62000826D01*
X70592201Y-61570251D01*
X70790373Y-61091822D01*
X70891400Y-60583924D01*
X70891400Y-60176278D01*
X71832500Y-60176278D01*
X71832500Y-60473722D01*
X71890529Y-60765451D01*
X72004356Y-61040253D01*
X72169607Y-61287569D01*
X72379931Y-61497893D01*
X72627247Y-61663144D01*
X72902049Y-61776971D01*
X73193778Y-61835000D01*
X73491222Y-61835000D01*
X73782951Y-61776971D01*
X74057753Y-61663144D01*
X74305069Y-61497893D01*
X74515393Y-61287569D01*
X74680644Y-61040253D01*
X74794471Y-60765451D01*
X74852500Y-60473722D01*
X74852500Y-60176278D01*
X74794471Y-59884549D01*
X74680644Y-59609747D01*
X74515393Y-59362431D01*
X74305069Y-59152107D01*
X74057753Y-58986856D01*
X73782951Y-58873029D01*
X73491222Y-58815000D01*
X73193778Y-58815000D01*
X72902049Y-58873029D01*
X72627247Y-58986856D01*
X72379931Y-59152107D01*
X72169607Y-59362431D01*
X72004356Y-59609747D01*
X71890529Y-59884549D01*
X71832500Y-60176278D01*
X70891400Y-60176278D01*
X70891400Y-60066076D01*
X70790373Y-59558178D01*
X70592201Y-59079749D01*
X70304500Y-58649174D01*
X69938326Y-58283000D01*
X69507751Y-57995299D01*
X69029322Y-57797127D01*
X68521424Y-57696100D01*
X68003576Y-57696100D01*
X67495678Y-57797127D01*
X67017249Y-57995299D01*
X66586674Y-58283000D01*
X66220500Y-58649174D01*
X65932799Y-59079749D01*
X65734627Y-59558178D01*
X65633600Y-60066076D01*
X65212500Y-60066076D01*
X65212500Y-59375208D01*
X65286173Y-59344692D01*
X65574435Y-59152081D01*
X65819581Y-58906935D01*
X66012192Y-58618673D01*
X66144864Y-58298373D01*
X66212500Y-57958345D01*
X66212500Y-57611655D01*
X66144864Y-57271627D01*
X66012192Y-56951327D01*
X65819581Y-56663065D01*
X65574435Y-56417919D01*
X65286173Y-56225308D01*
X65212500Y-56194792D01*
X65212500Y-55071655D01*
X69042500Y-55071655D01*
X69042500Y-55418345D01*
X69110136Y-55758373D01*
X69242808Y-56078673D01*
X69435419Y-56366935D01*
X69680565Y-56612081D01*
X69968827Y-56804692D01*
X70289127Y-56937364D01*
X70629155Y-57005000D01*
X70975845Y-57005000D01*
X71315873Y-56937364D01*
X71636173Y-56804692D01*
X71924435Y-56612081D01*
X72169581Y-56366935D01*
X72362192Y-56078673D01*
X72494864Y-55758373D01*
X72498784Y-55738665D01*
X76352500Y-55738665D01*
X76352500Y-56021335D01*
X76407647Y-56298574D01*
X76515820Y-56559727D01*
X76672863Y-56794759D01*
X76872741Y-56994637D01*
X77107773Y-57151680D01*
X77368926Y-57259853D01*
X77646165Y-57315000D01*
X77928835Y-57315000D01*
X78206074Y-57259853D01*
X78467227Y-57151680D01*
X78702259Y-56994637D01*
X78902137Y-56794759D01*
X79059180Y-56559727D01*
X79167353Y-56298574D01*
X79222500Y-56021335D01*
X79222500Y-55738665D01*
X79167353Y-55461426D01*
X79059180Y-55200273D01*
X78902137Y-54965241D01*
X78702259Y-54765363D01*
X78467227Y-54608320D01*
X78206074Y-54500147D01*
X77928835Y-54445000D01*
X77646165Y-54445000D01*
X77368926Y-54500147D01*
X77107773Y-54608320D01*
X76872741Y-54765363D01*
X76672863Y-54965241D01*
X76515820Y-55200273D01*
X76407647Y-55461426D01*
X76352500Y-55738665D01*
X72498784Y-55738665D01*
X72562500Y-55418345D01*
X72562500Y-55071655D01*
X72494864Y-54731627D01*
X72362192Y-54411327D01*
X72169581Y-54123065D01*
X71924435Y-53877919D01*
X71636173Y-53685308D01*
X71315873Y-53552636D01*
X70975845Y-53485000D01*
X70629155Y-53485000D01*
X70289127Y-53552636D01*
X69968827Y-53685308D01*
X69680565Y-53877919D01*
X69435419Y-54123065D01*
X69242808Y-54411327D01*
X69110136Y-54731627D01*
X69042500Y-55071655D01*
X65212500Y-55071655D01*
X65212500Y-51905000D01*
X73174428Y-51905000D01*
X73174428Y-53505000D01*
X73186688Y-53629482D01*
X73222998Y-53749180D01*
X73281963Y-53859494D01*
X73361315Y-53956185D01*
X73458006Y-54035537D01*
X73568320Y-54094502D01*
X73688018Y-54130812D01*
X73812500Y-54143072D01*
X75412500Y-54143072D01*
X75536982Y-54130812D01*
X75656680Y-54094502D01*
X75766994Y-54035537D01*
X75863685Y-53956185D01*
X75943037Y-53859494D01*
X76002002Y-53749180D01*
X76038312Y-53629482D01*
X76039143Y-53621039D01*
X76237741Y-53819637D01*
X76472773Y-53976680D01*
X76733926Y-54084853D01*
X77011165Y-54140000D01*
X77293835Y-54140000D01*
X77571074Y-54084853D01*
X77832227Y-53976680D01*
X78067259Y-53819637D01*
X78189194Y-53697702D01*
X78879403Y-53697702D01*
X78950986Y-53941671D01*
X79206496Y-54062571D01*
X79480684Y-54131300D01*
X79763012Y-54145217D01*
X80042630Y-54103787D01*
X80308792Y-54008603D01*
X80434014Y-53941671D01*
X80505597Y-53697702D01*
X79692500Y-52884605D01*
X78879403Y-53697702D01*
X78189194Y-53697702D01*
X78267137Y-53619759D01*
X78423415Y-53385872D01*
X78455829Y-53446514D01*
X78699798Y-53518097D01*
X79512895Y-52705000D01*
X79872105Y-52705000D01*
X80685202Y-53518097D01*
X80929171Y-53446514D01*
X80960471Y-53380364D01*
X80995829Y-53446514D01*
X81239798Y-53518097D01*
X82052895Y-52705000D01*
X81239798Y-51891903D01*
X80995829Y-51963486D01*
X80964529Y-52029636D01*
X80929171Y-51963486D01*
X80685202Y-51891903D01*
X79872105Y-52705000D01*
X79512895Y-52705000D01*
X78699798Y-51891903D01*
X78455829Y-51963486D01*
X78425306Y-52027992D01*
X78424180Y-52025273D01*
X78267137Y-51790241D01*
X78189194Y-51712298D01*
X78879403Y-51712298D01*
X79692500Y-52525395D01*
X80505597Y-51712298D01*
X80434014Y-51468329D01*
X80178504Y-51347429D01*
X79904316Y-51278700D01*
X79621988Y-51264783D01*
X79342370Y-51306213D01*
X79076208Y-51401397D01*
X78950986Y-51468329D01*
X78879403Y-51712298D01*
X78189194Y-51712298D01*
X78067259Y-51590363D01*
X77832227Y-51433320D01*
X77571074Y-51325147D01*
X77293835Y-51270000D01*
X77011165Y-51270000D01*
X76733926Y-51325147D01*
X76472773Y-51433320D01*
X76237741Y-51590363D01*
X76039143Y-51788961D01*
X76038312Y-51780518D01*
X76002002Y-51660820D01*
X75943037Y-51550506D01*
X75863685Y-51453815D01*
X75766994Y-51374463D01*
X75656680Y-51315498D01*
X75536982Y-51279188D01*
X75412500Y-51266928D01*
X73812500Y-51266928D01*
X73688018Y-51279188D01*
X73568320Y-51315498D01*
X73458006Y-51374463D01*
X73361315Y-51453815D01*
X73281963Y-51550506D01*
X73222998Y-51660820D01*
X73186688Y-51780518D01*
X73174428Y-51905000D01*
X65212500Y-51905000D01*
X65212500Y-41016076D01*
X65633600Y-41016076D01*
X65633600Y-41533924D01*
X65734627Y-42041822D01*
X65932799Y-42520251D01*
X66220500Y-42950826D01*
X66586674Y-43317000D01*
X67017249Y-43604701D01*
X67495678Y-43802873D01*
X68003576Y-43903900D01*
X68521424Y-43903900D01*
X69029322Y-43802873D01*
X69398389Y-43650000D01*
X76349428Y-43650000D01*
X76349428Y-45250000D01*
X76361688Y-45374482D01*
X76397998Y-45494180D01*
X76456963Y-45604494D01*
X76536315Y-45701185D01*
X76633006Y-45780537D01*
X76743320Y-45839502D01*
X76863018Y-45875812D01*
X76987500Y-45888072D01*
X78587500Y-45888072D01*
X78711982Y-45875812D01*
X78831680Y-45839502D01*
X78941994Y-45780537D01*
X79038685Y-45701185D01*
X79118037Y-45604494D01*
X79177002Y-45494180D01*
X79213312Y-45374482D01*
X79225572Y-45250000D01*
X79225572Y-43650000D01*
X79213312Y-43525518D01*
X79177002Y-43405820D01*
X79118037Y-43295506D01*
X79038685Y-43198815D01*
X78941994Y-43119463D01*
X78831680Y-43060498D01*
X78711982Y-43024188D01*
X78587500Y-43011928D01*
X76987500Y-43011928D01*
X76863018Y-43024188D01*
X76743320Y-43060498D01*
X76633006Y-43119463D01*
X76536315Y-43198815D01*
X76456963Y-43295506D01*
X76397998Y-43405820D01*
X76361688Y-43525518D01*
X76349428Y-43650000D01*
X69398389Y-43650000D01*
X69507751Y-43604701D01*
X69938326Y-43317000D01*
X70304500Y-42950826D01*
X70592201Y-42520251D01*
X70790373Y-42041822D01*
X70891400Y-41533924D01*
X70891400Y-41126278D01*
X71832500Y-41126278D01*
X71832500Y-41423722D01*
X71890529Y-41715451D01*
X72004356Y-41990253D01*
X72169607Y-42237569D01*
X72379931Y-42447893D01*
X72627247Y-42613144D01*
X72902049Y-42726971D01*
X73193778Y-42785000D01*
X73491222Y-42785000D01*
X73782951Y-42726971D01*
X74057753Y-42613144D01*
X74305069Y-42447893D01*
X74515393Y-42237569D01*
X74680644Y-41990253D01*
X74794471Y-41715451D01*
X74852500Y-41423722D01*
X74852500Y-41126278D01*
X74794471Y-40834549D01*
X74680644Y-40559747D01*
X74515393Y-40312431D01*
X74305069Y-40102107D01*
X74057753Y-39936856D01*
X73782951Y-39823029D01*
X73491222Y-39765000D01*
X73193778Y-39765000D01*
X72902049Y-39823029D01*
X72627247Y-39936856D01*
X72379931Y-40102107D01*
X72169607Y-40312431D01*
X72004356Y-40559747D01*
X71890529Y-40834549D01*
X71832500Y-41126278D01*
X70891400Y-41126278D01*
X70891400Y-41016076D01*
X70790373Y-40508178D01*
X70592201Y-40029749D01*
X70304500Y-39599174D01*
X69938326Y-39233000D01*
X69507751Y-38945299D01*
X69029322Y-38747127D01*
X68521424Y-38646100D01*
X68003576Y-38646100D01*
X67495678Y-38747127D01*
X67017249Y-38945299D01*
X66586674Y-39233000D01*
X66220500Y-39599174D01*
X65932799Y-40029749D01*
X65734627Y-40508178D01*
X65633600Y-41016076D01*
X65212500Y-41016076D01*
X65212500Y-40325208D01*
X65286173Y-40294692D01*
X65574435Y-40102081D01*
X65819581Y-39856935D01*
X66012192Y-39568673D01*
X66144864Y-39248373D01*
X66212500Y-38908345D01*
X66212500Y-38561655D01*
X66144864Y-38221627D01*
X66012192Y-37901327D01*
X65819581Y-37613065D01*
X65574435Y-37367919D01*
X65286173Y-37175308D01*
X64965873Y-37042636D01*
X64625845Y-36975000D01*
X64279155Y-36975000D01*
X63939127Y-37042636D01*
X63618827Y-37175308D01*
X63330565Y-37367919D01*
X63085419Y-37613065D01*
X62892808Y-37901327D01*
X62760136Y-38221627D01*
X62692500Y-38561655D01*
X62692500Y-38908345D01*
X62760136Y-39248373D01*
X62892808Y-39568673D01*
X63025138Y-39766719D01*
X62742049Y-39823029D01*
X62467247Y-39936856D01*
X62219931Y-40102107D01*
X62009607Y-40312431D01*
X61844356Y-40559747D01*
X61730529Y-40834549D01*
X61672500Y-41126278D01*
X55802500Y-41126278D01*
X55744471Y-40834549D01*
X55630644Y-40559747D01*
X55465393Y-40312431D01*
X55255069Y-40102107D01*
X55007753Y-39936856D01*
X54732951Y-39823029D01*
X54441222Y-39765000D01*
X54143778Y-39765000D01*
X53852049Y-39823029D01*
X53577247Y-39936856D01*
X53329931Y-40102107D01*
X53119607Y-40312431D01*
X52954356Y-40559747D01*
X52840529Y-40834549D01*
X52782500Y-41126278D01*
X51841400Y-41126278D01*
X51841400Y-41016076D01*
X51740373Y-40508178D01*
X51542201Y-40029749D01*
X51254500Y-39599174D01*
X50888326Y-39233000D01*
X50457751Y-38945299D01*
X49979322Y-38747127D01*
X49471424Y-38646100D01*
X48953576Y-38646100D01*
X48445678Y-38747127D01*
X47967249Y-38945299D01*
X47536674Y-39233000D01*
X47170500Y-39599174D01*
X46882799Y-40029749D01*
X46684627Y-40508178D01*
X46583600Y-41016076D01*
X46162500Y-41016076D01*
X46162500Y-40325208D01*
X46236173Y-40294692D01*
X46524435Y-40102081D01*
X46769581Y-39856935D01*
X46962192Y-39568673D01*
X47094864Y-39248373D01*
X47162500Y-38908345D01*
X47162500Y-38561655D01*
X47094864Y-38221627D01*
X46962192Y-37901327D01*
X46769581Y-37613065D01*
X46524435Y-37367919D01*
X46236173Y-37175308D01*
X45915873Y-37042636D01*
X45575845Y-36975000D01*
X45229155Y-36975000D01*
X44889127Y-37042636D01*
X44568827Y-37175308D01*
X44280565Y-37367919D01*
X44035419Y-37613065D01*
X43842808Y-37901327D01*
X43710136Y-38221627D01*
X43642500Y-38561655D01*
X43642500Y-38908345D01*
X43710136Y-39248373D01*
X43842808Y-39568673D01*
X43975138Y-39766719D01*
X43692049Y-39823029D01*
X43417247Y-39936856D01*
X43169931Y-40102107D01*
X42959607Y-40312431D01*
X42794356Y-40559747D01*
X42680529Y-40834549D01*
X42622500Y-41126278D01*
X38760000Y-41126278D01*
X38760000Y-36021655D01*
X49992500Y-36021655D01*
X49992500Y-36368345D01*
X50060136Y-36708373D01*
X50192808Y-37028673D01*
X50385419Y-37316935D01*
X50630565Y-37562081D01*
X50918827Y-37754692D01*
X51239127Y-37887364D01*
X51579155Y-37955000D01*
X51925845Y-37955000D01*
X52265873Y-37887364D01*
X52586173Y-37754692D01*
X52874435Y-37562081D01*
X53119581Y-37316935D01*
X53312192Y-37028673D01*
X53444864Y-36708373D01*
X53448784Y-36688665D01*
X57302500Y-36688665D01*
X57302500Y-36971335D01*
X57357647Y-37248574D01*
X57465820Y-37509727D01*
X57622863Y-37744759D01*
X57822741Y-37944637D01*
X58057773Y-38101680D01*
X58318926Y-38209853D01*
X58596165Y-38265000D01*
X58878835Y-38265000D01*
X59156074Y-38209853D01*
X59417227Y-38101680D01*
X59652259Y-37944637D01*
X59852137Y-37744759D01*
X60009180Y-37509727D01*
X60117353Y-37248574D01*
X60172500Y-36971335D01*
X60172500Y-36688665D01*
X60117353Y-36411426D01*
X60009180Y-36150273D01*
X59923241Y-36021655D01*
X69042500Y-36021655D01*
X69042500Y-36368345D01*
X69110136Y-36708373D01*
X69242808Y-37028673D01*
X69435419Y-37316935D01*
X69680565Y-37562081D01*
X69968827Y-37754692D01*
X70289127Y-37887364D01*
X70629155Y-37955000D01*
X70975845Y-37955000D01*
X71315873Y-37887364D01*
X71636173Y-37754692D01*
X71924435Y-37562081D01*
X72169581Y-37316935D01*
X72362192Y-37028673D01*
X72494864Y-36708373D01*
X72498784Y-36688665D01*
X76352500Y-36688665D01*
X76352500Y-36971335D01*
X76407647Y-37248574D01*
X76515820Y-37509727D01*
X76672863Y-37744759D01*
X76872741Y-37944637D01*
X77107773Y-38101680D01*
X77368926Y-38209853D01*
X77646165Y-38265000D01*
X77928835Y-38265000D01*
X78206074Y-38209853D01*
X78467227Y-38101680D01*
X78702259Y-37944637D01*
X78902137Y-37744759D01*
X79059180Y-37509727D01*
X79167353Y-37248574D01*
X79222500Y-36971335D01*
X79222500Y-36688665D01*
X79167353Y-36411426D01*
X79059180Y-36150273D01*
X78973241Y-36021655D01*
X88092500Y-36021655D01*
X88092500Y-36368345D01*
X88160136Y-36708373D01*
X88292808Y-37028673D01*
X88485419Y-37316935D01*
X88730565Y-37562081D01*
X89018827Y-37754692D01*
X89339127Y-37887364D01*
X89679155Y-37955000D01*
X90025845Y-37955000D01*
X90365873Y-37887364D01*
X90686173Y-37754692D01*
X90974435Y-37562081D01*
X91219581Y-37316935D01*
X91412192Y-37028673D01*
X91544864Y-36708373D01*
X91548784Y-36688665D01*
X95402500Y-36688665D01*
X95402500Y-36971335D01*
X95457647Y-37248574D01*
X95565820Y-37509727D01*
X95722863Y-37744759D01*
X95922741Y-37944637D01*
X96157773Y-38101680D01*
X96418926Y-38209853D01*
X96696165Y-38265000D01*
X96978835Y-38265000D01*
X97256074Y-38209853D01*
X97517227Y-38101680D01*
X97752259Y-37944637D01*
X97952137Y-37744759D01*
X98109180Y-37509727D01*
X98217353Y-37248574D01*
X98272500Y-36971335D01*
X98272500Y-36688665D01*
X98217353Y-36411426D01*
X98109180Y-36150273D01*
X98023241Y-36021655D01*
X107142500Y-36021655D01*
X107142500Y-36368345D01*
X107210136Y-36708373D01*
X107342808Y-37028673D01*
X107535419Y-37316935D01*
X107780565Y-37562081D01*
X108068827Y-37754692D01*
X108389127Y-37887364D01*
X108729155Y-37955000D01*
X109075845Y-37955000D01*
X109415873Y-37887364D01*
X109736173Y-37754692D01*
X110024435Y-37562081D01*
X110269581Y-37316935D01*
X110462192Y-37028673D01*
X110594864Y-36708373D01*
X110598784Y-36688665D01*
X113658750Y-36688665D01*
X113658750Y-36971335D01*
X113713897Y-37248574D01*
X113822070Y-37509727D01*
X113979113Y-37744759D01*
X114178991Y-37944637D01*
X114414023Y-38101680D01*
X114675176Y-38209853D01*
X114952415Y-38265000D01*
X115235085Y-38265000D01*
X115512324Y-38209853D01*
X115773477Y-38101680D01*
X116008509Y-37944637D01*
X116208387Y-37744759D01*
X116365430Y-37509727D01*
X116473603Y-37248574D01*
X116528750Y-36971335D01*
X116528750Y-36688665D01*
X116473603Y-36411426D01*
X116365430Y-36150273D01*
X116208387Y-35915241D01*
X116008509Y-35715363D01*
X115773477Y-35558320D01*
X115512324Y-35450147D01*
X115235085Y-35395000D01*
X114952415Y-35395000D01*
X114675176Y-35450147D01*
X114414023Y-35558320D01*
X114178991Y-35715363D01*
X113979113Y-35915241D01*
X113822070Y-36150273D01*
X113713897Y-36411426D01*
X113658750Y-36688665D01*
X110598784Y-36688665D01*
X110662500Y-36368345D01*
X110662500Y-36021655D01*
X110594864Y-35681627D01*
X110462192Y-35361327D01*
X110269581Y-35073065D01*
X110024435Y-34827919D01*
X109736173Y-34635308D01*
X109415873Y-34502636D01*
X109075845Y-34435000D01*
X108729155Y-34435000D01*
X108389127Y-34502636D01*
X108068827Y-34635308D01*
X107780565Y-34827919D01*
X107535419Y-35073065D01*
X107342808Y-35361327D01*
X107210136Y-35681627D01*
X107142500Y-36021655D01*
X98023241Y-36021655D01*
X97952137Y-35915241D01*
X97752259Y-35715363D01*
X97517227Y-35558320D01*
X97256074Y-35450147D01*
X96978835Y-35395000D01*
X96696165Y-35395000D01*
X96418926Y-35450147D01*
X96157773Y-35558320D01*
X95922741Y-35715363D01*
X95722863Y-35915241D01*
X95565820Y-36150273D01*
X95457647Y-36411426D01*
X95402500Y-36688665D01*
X91548784Y-36688665D01*
X91612500Y-36368345D01*
X91612500Y-36021655D01*
X91544864Y-35681627D01*
X91412192Y-35361327D01*
X91219581Y-35073065D01*
X90974435Y-34827919D01*
X90686173Y-34635308D01*
X90365873Y-34502636D01*
X90025845Y-34435000D01*
X89679155Y-34435000D01*
X89339127Y-34502636D01*
X89018827Y-34635308D01*
X88730565Y-34827919D01*
X88485419Y-35073065D01*
X88292808Y-35361327D01*
X88160136Y-35681627D01*
X88092500Y-36021655D01*
X78973241Y-36021655D01*
X78902137Y-35915241D01*
X78702259Y-35715363D01*
X78467227Y-35558320D01*
X78206074Y-35450147D01*
X77928835Y-35395000D01*
X77646165Y-35395000D01*
X77368926Y-35450147D01*
X77107773Y-35558320D01*
X76872741Y-35715363D01*
X76672863Y-35915241D01*
X76515820Y-36150273D01*
X76407647Y-36411426D01*
X76352500Y-36688665D01*
X72498784Y-36688665D01*
X72562500Y-36368345D01*
X72562500Y-36021655D01*
X72494864Y-35681627D01*
X72362192Y-35361327D01*
X72169581Y-35073065D01*
X71924435Y-34827919D01*
X71636173Y-34635308D01*
X71315873Y-34502636D01*
X70975845Y-34435000D01*
X70629155Y-34435000D01*
X70289127Y-34502636D01*
X69968827Y-34635308D01*
X69680565Y-34827919D01*
X69435419Y-35073065D01*
X69242808Y-35361327D01*
X69110136Y-35681627D01*
X69042500Y-36021655D01*
X59923241Y-36021655D01*
X59852137Y-35915241D01*
X59652259Y-35715363D01*
X59417227Y-35558320D01*
X59156074Y-35450147D01*
X58878835Y-35395000D01*
X58596165Y-35395000D01*
X58318926Y-35450147D01*
X58057773Y-35558320D01*
X57822741Y-35715363D01*
X57622863Y-35915241D01*
X57465820Y-36150273D01*
X57357647Y-36411426D01*
X57302500Y-36688665D01*
X53448784Y-36688665D01*
X53512500Y-36368345D01*
X53512500Y-36021655D01*
X53444864Y-35681627D01*
X53312192Y-35361327D01*
X53119581Y-35073065D01*
X52874435Y-34827919D01*
X52586173Y-34635308D01*
X52265873Y-34502636D01*
X51925845Y-34435000D01*
X51579155Y-34435000D01*
X51239127Y-34502636D01*
X50918827Y-34635308D01*
X50630565Y-34827919D01*
X50385419Y-35073065D01*
X50192808Y-35361327D01*
X50060136Y-35681627D01*
X49992500Y-36021655D01*
X38760000Y-36021655D01*
X38760000Y-33369778D01*
X38811002Y-32849616D01*
X38952694Y-32380312D01*
X39182837Y-31947475D01*
X39492678Y-31567573D01*
X39870397Y-31255097D01*
X40301627Y-31021931D01*
X40769928Y-30876968D01*
X41288153Y-30822500D01*
X114267722Y-30822500D01*
X114787884Y-30873502D01*
G37*
X114787884Y-30873502D02*
X115257188Y-31015194D01*
X115690025Y-31245337D01*
X116069927Y-31555178D01*
X116382403Y-31932897D01*
X116615569Y-32364127D01*
X116760532Y-32832428D01*
X116815018Y-33350825D01*
X116912671Y-106330662D01*
X116859851Y-106869361D01*
X116712649Y-107356919D01*
X116473549Y-107806602D01*
X116151658Y-108201279D01*
X115759245Y-108525911D01*
X115311241Y-108768147D01*
X114824721Y-108918750D01*
X114318223Y-108971985D01*
X113788026Y-108923733D01*
X113673253Y-108898461D01*
X113635633Y-108887049D01*
X113538669Y-108877499D01*
X41307288Y-108877501D01*
X40787117Y-108826498D01*
X40317814Y-108684807D01*
X39884972Y-108454661D01*
X39505073Y-108144823D01*
X39192594Y-107767100D01*
X38959431Y-107335873D01*
X38814468Y-106867573D01*
X38760000Y-106349347D01*
X38760000Y-41126278D01*
X42622500Y-41126278D01*
X42622500Y-41423722D01*
X42680529Y-41715451D01*
X42794356Y-41990253D01*
X42959607Y-42237569D01*
X43169931Y-42447893D01*
X43417247Y-42613144D01*
X43692049Y-42726971D01*
X43983778Y-42785000D01*
X44281222Y-42785000D01*
X44572951Y-42726971D01*
X44642500Y-42698163D01*
X44642501Y-56194791D01*
X44568827Y-56225308D01*
X44280565Y-56417919D01*
X44035419Y-56663065D01*
X43842808Y-56951327D01*
X43710136Y-57271627D01*
X43642500Y-57611655D01*
X43642500Y-57958345D01*
X43710136Y-58298373D01*
X43842808Y-58618673D01*
X43975138Y-58816719D01*
X43692049Y-58873029D01*
X43417247Y-58986856D01*
X43169931Y-59152107D01*
X42959607Y-59362431D01*
X42794356Y-59609747D01*
X42680529Y-59884549D01*
X42622500Y-60176278D01*
X42622500Y-60473722D01*
X42680529Y-60765451D01*
X42794356Y-61040253D01*
X42959607Y-61287569D01*
X43169931Y-61497893D01*
X43417247Y-61663144D01*
X43692049Y-61776971D01*
X43983778Y-61835000D01*
X44281222Y-61835000D01*
X44572951Y-61776971D01*
X44642501Y-61748163D01*
X44642501Y-64383788D01*
X44598563Y-64427726D01*
X44485295Y-64597244D01*
X44407274Y-64785602D01*
X44367500Y-64985561D01*
X44367500Y-65189439D01*
X44407274Y-65389398D01*
X44485295Y-65577756D01*
X44598563Y-65747274D01*
X44642500Y-65791211D01*
X44642501Y-68733158D01*
X44642500Y-68733168D01*
X44642501Y-75244791D01*
X44568827Y-75275308D01*
X44280565Y-75467919D01*
X44035419Y-75713065D01*
X43842808Y-76001327D01*
X43710136Y-76321627D01*
X43642500Y-76661655D01*
X43642500Y-77008345D01*
X43710136Y-77348373D01*
X43842808Y-77668673D01*
X43975138Y-77866719D01*
X43692049Y-77923029D01*
X43417247Y-78036856D01*
X43169931Y-78202107D01*
X42959607Y-78412431D01*
X42794356Y-78659747D01*
X42680529Y-78934549D01*
X42622500Y-79226278D01*
X42622500Y-79523722D01*
X42680529Y-79815451D01*
X42794356Y-80090253D01*
X42959607Y-80337569D01*
X43169931Y-80547893D01*
X43417247Y-80713144D01*
X43692049Y-80826971D01*
X43983778Y-80885000D01*
X44281222Y-80885000D01*
X44572951Y-80826971D01*
X44642500Y-80798163D01*
X44642501Y-94294791D01*
X44568827Y-94325308D01*
X44280565Y-94517919D01*
X44035419Y-94763065D01*
X43842808Y-95051327D01*
X43710136Y-95371627D01*
X43642500Y-95711655D01*
X43642500Y-96058345D01*
X43710136Y-96398373D01*
X43842808Y-96718673D01*
X43975138Y-96916719D01*
X43692049Y-96973029D01*
X43417247Y-97086856D01*
X43169931Y-97252107D01*
X42959607Y-97462431D01*
X42794356Y-97709747D01*
X42680529Y-97984549D01*
X42622500Y-98276278D01*
X42622500Y-98573722D01*
X42680529Y-98865451D01*
X42794356Y-99140253D01*
X42959607Y-99387569D01*
X43169931Y-99597893D01*
X43417247Y-99763144D01*
X43692049Y-99876971D01*
X43983778Y-99935000D01*
X44281222Y-99935000D01*
X44572951Y-99876971D01*
X44847753Y-99763144D01*
X45095069Y-99597893D01*
X45305393Y-99387569D01*
X45470644Y-99140253D01*
X45584471Y-98865451D01*
X45642500Y-98573722D01*
X45642500Y-98276278D01*
X45620580Y-98166076D01*
X46583600Y-98166076D01*
X46583600Y-98683924D01*
X46684627Y-99191822D01*
X46882799Y-99670251D01*
X47170500Y-100100826D01*
X47536674Y-100467000D01*
X47967249Y-100754701D01*
X48445678Y-100952873D01*
X48953576Y-101053900D01*
X49471424Y-101053900D01*
X49979322Y-100952873D01*
X50348389Y-100800000D01*
X57299428Y-100800000D01*
X57299428Y-102400000D01*
X57311688Y-102524482D01*
X57347998Y-102644180D01*
X57406963Y-102754494D01*
X57486315Y-102851185D01*
X57583006Y-102930537D01*
X57693320Y-102989502D01*
X57813018Y-103025812D01*
X57937500Y-103038072D01*
X59537500Y-103038072D01*
X59661982Y-103025812D01*
X59781680Y-102989502D01*
X59891994Y-102930537D01*
X59988685Y-102851185D01*
X60068037Y-102754494D01*
X60127002Y-102644180D01*
X60163312Y-102524482D01*
X60175572Y-102400000D01*
X60175572Y-100800000D01*
X60163312Y-100675518D01*
X60127002Y-100555820D01*
X60068037Y-100445506D01*
X59988685Y-100348815D01*
X59891994Y-100269463D01*
X59781680Y-100210498D01*
X59661982Y-100174188D01*
X59537500Y-100161928D01*
X57937500Y-100161928D01*
X57813018Y-100174188D01*
X57693320Y-100210498D01*
X57583006Y-100269463D01*
X57486315Y-100348815D01*
X57406963Y-100445506D01*
X57347998Y-100555820D01*
X57311688Y-100675518D01*
X57299428Y-100800000D01*
X50348389Y-100800000D01*
X50457751Y-100754701D01*
X50888326Y-100467000D01*
X51254500Y-100100826D01*
X51542201Y-99670251D01*
X51740373Y-99191822D01*
X51841400Y-98683924D01*
X51841400Y-98276278D01*
X52782500Y-98276278D01*
X52782500Y-98573722D01*
X52840529Y-98865451D01*
X52954356Y-99140253D01*
X53119607Y-99387569D01*
X53329931Y-99597893D01*
X53577247Y-99763144D01*
X53852049Y-99876971D01*
X54143778Y-99935000D01*
X54441222Y-99935000D01*
X54732951Y-99876971D01*
X55007753Y-99763144D01*
X55255069Y-99597893D01*
X55465393Y-99387569D01*
X55630644Y-99140253D01*
X55744471Y-98865451D01*
X55802500Y-98573722D01*
X55802500Y-98276278D01*
X55744471Y-97984549D01*
X55630644Y-97709747D01*
X55465393Y-97462431D01*
X55255069Y-97252107D01*
X55007753Y-97086856D01*
X54732951Y-96973029D01*
X54441222Y-96915000D01*
X54143778Y-96915000D01*
X53852049Y-96973029D01*
X53577247Y-97086856D01*
X53329931Y-97252107D01*
X53119607Y-97462431D01*
X52954356Y-97709747D01*
X52840529Y-97984549D01*
X52782500Y-98276278D01*
X51841400Y-98276278D01*
X51841400Y-98166076D01*
X51740373Y-97658178D01*
X51542201Y-97179749D01*
X51254500Y-96749174D01*
X50888326Y-96383000D01*
X50457751Y-96095299D01*
X49979322Y-95897127D01*
X49471424Y-95796100D01*
X48953576Y-95796100D01*
X48445678Y-95897127D01*
X47967249Y-96095299D01*
X47536674Y-96383000D01*
X47170500Y-96749174D01*
X46882799Y-97179749D01*
X46684627Y-97658178D01*
X46583600Y-98166076D01*
X45620580Y-98166076D01*
X45584471Y-97984549D01*
X45470644Y-97709747D01*
X45427382Y-97645000D01*
X45575845Y-97645000D01*
X45915873Y-97577364D01*
X46236173Y-97444692D01*
X46524435Y-97252081D01*
X46769581Y-97006935D01*
X46962192Y-96718673D01*
X47094864Y-96398373D01*
X47162500Y-96058345D01*
X47162500Y-95711655D01*
X47094864Y-95371627D01*
X46962192Y-95051327D01*
X46769581Y-94763065D01*
X46524435Y-94517919D01*
X46236173Y-94325308D01*
X46162500Y-94294792D01*
X46162500Y-93171655D01*
X49992500Y-93171655D01*
X49992500Y-93518345D01*
X50060136Y-93858373D01*
X50192808Y-94178673D01*
X50385419Y-94466935D01*
X50630565Y-94712081D01*
X50918827Y-94904692D01*
X51239127Y-95037364D01*
X51579155Y-95105000D01*
X51925845Y-95105000D01*
X52265873Y-95037364D01*
X52586173Y-94904692D01*
X52874435Y-94712081D01*
X53119581Y-94466935D01*
X53312192Y-94178673D01*
X53444864Y-93858373D01*
X53448784Y-93838665D01*
X57302500Y-93838665D01*
X57302500Y-94121335D01*
X57357647Y-94398574D01*
X57465820Y-94659727D01*
X57622863Y-94894759D01*
X57822741Y-95094637D01*
X58057773Y-95251680D01*
X58318926Y-95359853D01*
X58596165Y-95415000D01*
X58878835Y-95415000D01*
X59156074Y-95359853D01*
X59417227Y-95251680D01*
X59652259Y-95094637D01*
X59852137Y-94894759D01*
X60009180Y-94659727D01*
X60117353Y-94398574D01*
X60172500Y-94121335D01*
X60172500Y-93838665D01*
X60117353Y-93561426D01*
X60009180Y-93300273D01*
X59852137Y-93065241D01*
X59652259Y-92865363D01*
X59417227Y-92708320D01*
X59156074Y-92600147D01*
X58878835Y-92545000D01*
X58596165Y-92545000D01*
X58318926Y-92600147D01*
X58057773Y-92708320D01*
X57822741Y-92865363D01*
X57622863Y-93065241D01*
X57465820Y-93300273D01*
X57357647Y-93561426D01*
X57302500Y-93838665D01*
X53448784Y-93838665D01*
X53512500Y-93518345D01*
X53512500Y-93171655D01*
X53444864Y-92831627D01*
X53312192Y-92511327D01*
X53119581Y-92223065D01*
X52874435Y-91977919D01*
X52586173Y-91785308D01*
X52265873Y-91652636D01*
X51925845Y-91585000D01*
X51579155Y-91585000D01*
X51239127Y-91652636D01*
X50918827Y-91785308D01*
X50630565Y-91977919D01*
X50385419Y-92223065D01*
X50192808Y-92511327D01*
X50060136Y-92831627D01*
X49992500Y-93171655D01*
X46162500Y-93171655D01*
X46162500Y-79116076D01*
X46583600Y-79116076D01*
X46583600Y-79633924D01*
X46684627Y-80141822D01*
X46882799Y-80620251D01*
X47170500Y-81050826D01*
X47536674Y-81417000D01*
X47967249Y-81704701D01*
X48445678Y-81902873D01*
X48953576Y-82003900D01*
X49471424Y-82003900D01*
X49979322Y-81902873D01*
X50348389Y-81750000D01*
X57299428Y-81750000D01*
X57299428Y-83350000D01*
X57311688Y-83474482D01*
X57347998Y-83594180D01*
X57406963Y-83704494D01*
X57486315Y-83801185D01*
X57583006Y-83880537D01*
X57693320Y-83939502D01*
X57813018Y-83975812D01*
X57937500Y-83988072D01*
X59537500Y-83988072D01*
X59661982Y-83975812D01*
X59781680Y-83939502D01*
X59891994Y-83880537D01*
X59988685Y-83801185D01*
X60068037Y-83704494D01*
X60127002Y-83594180D01*
X60163312Y-83474482D01*
X60175572Y-83350000D01*
X60175572Y-81750000D01*
X60163312Y-81625518D01*
X60127002Y-81505820D01*
X60068037Y-81395506D01*
X59988685Y-81298815D01*
X59891994Y-81219463D01*
X59781680Y-81160498D01*
X59661982Y-81124188D01*
X59537500Y-81111928D01*
X57937500Y-81111928D01*
X57813018Y-81124188D01*
X57693320Y-81160498D01*
X57583006Y-81219463D01*
X57486315Y-81298815D01*
X57406963Y-81395506D01*
X57347998Y-81505820D01*
X57311688Y-81625518D01*
X57299428Y-81750000D01*
X50348389Y-81750000D01*
X50457751Y-81704701D01*
X50888326Y-81417000D01*
X51254500Y-81050826D01*
X51542201Y-80620251D01*
X51740373Y-80141822D01*
X51841400Y-79633924D01*
X51841400Y-79226278D01*
X52782500Y-79226278D01*
X52782500Y-79523722D01*
X52840529Y-79815451D01*
X52954356Y-80090253D01*
X53119607Y-80337569D01*
X53329931Y-80547893D01*
X53577247Y-80713144D01*
X53852049Y-80826971D01*
X54143778Y-80885000D01*
X54441222Y-80885000D01*
X54732951Y-80826971D01*
X55007753Y-80713144D01*
X55255069Y-80547893D01*
X55465393Y-80337569D01*
X55630644Y-80090253D01*
X55744471Y-79815451D01*
X55802500Y-79523722D01*
X55802500Y-79226278D01*
X55744471Y-78934549D01*
X55630644Y-78659747D01*
X55465393Y-78412431D01*
X55255069Y-78202107D01*
X55007753Y-78036856D01*
X54732951Y-77923029D01*
X54441222Y-77865000D01*
X54143778Y-77865000D01*
X53852049Y-77923029D01*
X53577247Y-78036856D01*
X53329931Y-78202107D01*
X53119607Y-78412431D01*
X52954356Y-78659747D01*
X52840529Y-78934549D01*
X52782500Y-79226278D01*
X51841400Y-79226278D01*
X51841400Y-79116076D01*
X51740373Y-78608178D01*
X51542201Y-78129749D01*
X51254500Y-77699174D01*
X50888326Y-77333000D01*
X50457751Y-77045299D01*
X49979322Y-76847127D01*
X49471424Y-76746100D01*
X48953576Y-76746100D01*
X48445678Y-76847127D01*
X47967249Y-77045299D01*
X47536674Y-77333000D01*
X47170500Y-77699174D01*
X46882799Y-78129749D01*
X46684627Y-78608178D01*
X46583600Y-79116076D01*
X46162500Y-79116076D01*
X46162500Y-78425208D01*
X46236173Y-78394692D01*
X46524435Y-78202081D01*
X46769581Y-77956935D01*
X46962192Y-77668673D01*
X47094864Y-77348373D01*
X47162500Y-77008345D01*
X47162500Y-76661655D01*
X47094864Y-76321627D01*
X46962192Y-76001327D01*
X46769581Y-75713065D01*
X46524435Y-75467919D01*
X46236173Y-75275308D01*
X46162500Y-75244792D01*
X46162500Y-74121655D01*
X49992500Y-74121655D01*
X49992500Y-74468345D01*
X50060136Y-74808373D01*
X50192808Y-75128673D01*
X50385419Y-75416935D01*
X50630565Y-75662081D01*
X50918827Y-75854692D01*
X51239127Y-75987364D01*
X51579155Y-76055000D01*
X51925845Y-76055000D01*
X52265873Y-75987364D01*
X52586173Y-75854692D01*
X52874435Y-75662081D01*
X53119581Y-75416935D01*
X53312192Y-75128673D01*
X53444864Y-74808373D01*
X53448784Y-74788665D01*
X57302500Y-74788665D01*
X57302500Y-75071335D01*
X57357647Y-75348574D01*
X57465820Y-75609727D01*
X57622863Y-75844759D01*
X57822741Y-76044637D01*
X58057773Y-76201680D01*
X58318926Y-76309853D01*
X58596165Y-76365000D01*
X58878835Y-76365000D01*
X59156074Y-76309853D01*
X59417227Y-76201680D01*
X59652259Y-76044637D01*
X59852137Y-75844759D01*
X60009180Y-75609727D01*
X60117353Y-75348574D01*
X60172500Y-75071335D01*
X60172500Y-74788665D01*
X60117353Y-74511426D01*
X60009180Y-74250273D01*
X59852137Y-74015241D01*
X59652259Y-73815363D01*
X59417227Y-73658320D01*
X59156074Y-73550147D01*
X58878835Y-73495000D01*
X58596165Y-73495000D01*
X58318926Y-73550147D01*
X58057773Y-73658320D01*
X57822741Y-73815363D01*
X57622863Y-74015241D01*
X57465820Y-74250273D01*
X57357647Y-74511426D01*
X57302500Y-74788665D01*
X53448784Y-74788665D01*
X53512500Y-74468345D01*
X53512500Y-74121655D01*
X53444864Y-73781627D01*
X53312192Y-73461327D01*
X53119581Y-73173065D01*
X52874435Y-72927919D01*
X52586173Y-72735308D01*
X52265873Y-72602636D01*
X51925845Y-72535000D01*
X51579155Y-72535000D01*
X51239127Y-72602636D01*
X50918827Y-72735308D01*
X50630565Y-72927919D01*
X50385419Y-73173065D01*
X50192808Y-73461327D01*
X50060136Y-73781627D01*
X49992500Y-74121655D01*
X46162500Y-74121655D01*
X46162500Y-65791211D01*
X46206437Y-65747274D01*
X46319705Y-65577756D01*
X46397726Y-65389398D01*
X46437500Y-65189439D01*
X46437500Y-64985561D01*
X46397726Y-64785602D01*
X46319705Y-64597244D01*
X46206437Y-64427726D01*
X46162500Y-64383789D01*
X46162500Y-60066076D01*
X46583600Y-60066076D01*
X46583600Y-60583924D01*
X46684627Y-61091822D01*
X46882799Y-61570251D01*
X47170500Y-62000826D01*
X47536674Y-62367000D01*
X47967249Y-62654701D01*
X48445678Y-62852873D01*
X48953576Y-62953900D01*
X49471424Y-62953900D01*
X49979322Y-62852873D01*
X50348389Y-62700000D01*
X57299428Y-62700000D01*
X57299428Y-64300000D01*
X57311688Y-64424482D01*
X57347998Y-64544180D01*
X57406963Y-64654494D01*
X57486315Y-64751185D01*
X57583006Y-64830537D01*
X57693320Y-64889502D01*
X57813018Y-64925812D01*
X57937500Y-64938072D01*
X59537500Y-64938072D01*
X59661982Y-64925812D01*
X59781680Y-64889502D01*
X59891994Y-64830537D01*
X59988685Y-64751185D01*
X60068037Y-64654494D01*
X60127002Y-64544180D01*
X60163312Y-64424482D01*
X60175572Y-64300000D01*
X60175572Y-62700000D01*
X60163312Y-62575518D01*
X60127002Y-62455820D01*
X60068037Y-62345506D01*
X59988685Y-62248815D01*
X59891994Y-62169463D01*
X59781680Y-62110498D01*
X59661982Y-62074188D01*
X59537500Y-62061928D01*
X57937500Y-62061928D01*
X57813018Y-62074188D01*
X57693320Y-62110498D01*
X57583006Y-62169463D01*
X57486315Y-62248815D01*
X57406963Y-62345506D01*
X57347998Y-62455820D01*
X57311688Y-62575518D01*
X57299428Y-62700000D01*
X50348389Y-62700000D01*
X50457751Y-62654701D01*
X50888326Y-62367000D01*
X51254500Y-62000826D01*
X51542201Y-61570251D01*
X51740373Y-61091822D01*
X51841400Y-60583924D01*
X51841400Y-60176278D01*
X52782500Y-60176278D01*
X52782500Y-60473722D01*
X52840529Y-60765451D01*
X52954356Y-61040253D01*
X53119607Y-61287569D01*
X53329931Y-61497893D01*
X53577247Y-61663144D01*
X53852049Y-61776971D01*
X54143778Y-61835000D01*
X54441222Y-61835000D01*
X54732951Y-61776971D01*
X55007753Y-61663144D01*
X55255069Y-61497893D01*
X55465393Y-61287569D01*
X55630644Y-61040253D01*
X55744471Y-60765451D01*
X55802500Y-60473722D01*
X55802500Y-60176278D01*
X55744471Y-59884549D01*
X55630644Y-59609747D01*
X55465393Y-59362431D01*
X55255069Y-59152107D01*
X55007753Y-58986856D01*
X54732951Y-58873029D01*
X54441222Y-58815000D01*
X54143778Y-58815000D01*
X53852049Y-58873029D01*
X53577247Y-58986856D01*
X53329931Y-59152107D01*
X53119607Y-59362431D01*
X52954356Y-59609747D01*
X52840529Y-59884549D01*
X52782500Y-60176278D01*
X51841400Y-60176278D01*
X51841400Y-60066076D01*
X51740373Y-59558178D01*
X51542201Y-59079749D01*
X51254500Y-58649174D01*
X50888326Y-58283000D01*
X50457751Y-57995299D01*
X49979322Y-57797127D01*
X49471424Y-57696100D01*
X48953576Y-57696100D01*
X48445678Y-57797127D01*
X47967249Y-57995299D01*
X47536674Y-58283000D01*
X47170500Y-58649174D01*
X46882799Y-59079749D01*
X46684627Y-59558178D01*
X46583600Y-60066076D01*
X46162500Y-60066076D01*
X46162500Y-59375208D01*
X46236173Y-59344692D01*
X46524435Y-59152081D01*
X46769581Y-58906935D01*
X46962192Y-58618673D01*
X47094864Y-58298373D01*
X47162500Y-57958345D01*
X47162500Y-57611655D01*
X47094864Y-57271627D01*
X46962192Y-56951327D01*
X46769581Y-56663065D01*
X46524435Y-56417919D01*
X46236173Y-56225308D01*
X46162500Y-56194792D01*
X46162500Y-55071655D01*
X49992500Y-55071655D01*
X49992500Y-55418345D01*
X50060136Y-55758373D01*
X50192808Y-56078673D01*
X50385419Y-56366935D01*
X50630565Y-56612081D01*
X50918827Y-56804692D01*
X51239127Y-56937364D01*
X51579155Y-57005000D01*
X51925845Y-57005000D01*
X52265873Y-56937364D01*
X52586173Y-56804692D01*
X52874435Y-56612081D01*
X53119581Y-56366935D01*
X53312192Y-56078673D01*
X53444864Y-55758373D01*
X53448784Y-55738665D01*
X57302500Y-55738665D01*
X57302500Y-56021335D01*
X57357647Y-56298574D01*
X57465820Y-56559727D01*
X57622863Y-56794759D01*
X57822741Y-56994637D01*
X58057773Y-57151680D01*
X58318926Y-57259853D01*
X58596165Y-57315000D01*
X58878835Y-57315000D01*
X59156074Y-57259853D01*
X59417227Y-57151680D01*
X59652259Y-56994637D01*
X59852137Y-56794759D01*
X60009180Y-56559727D01*
X60117353Y-56298574D01*
X60172500Y-56021335D01*
X60172500Y-55738665D01*
X60117353Y-55461426D01*
X60009180Y-55200273D01*
X59852137Y-54965241D01*
X59652259Y-54765363D01*
X59417227Y-54608320D01*
X59156074Y-54500147D01*
X58878835Y-54445000D01*
X58596165Y-54445000D01*
X58318926Y-54500147D01*
X58057773Y-54608320D01*
X57822741Y-54765363D01*
X57622863Y-54965241D01*
X57465820Y-55200273D01*
X57357647Y-55461426D01*
X57302500Y-55738665D01*
X53448784Y-55738665D01*
X53512500Y-55418345D01*
X53512500Y-55071655D01*
X53444864Y-54731627D01*
X53312192Y-54411327D01*
X53119581Y-54123065D01*
X52874435Y-53877919D01*
X52586173Y-53685308D01*
X52265873Y-53552636D01*
X51925845Y-53485000D01*
X51579155Y-53485000D01*
X51239127Y-53552636D01*
X50918827Y-53685308D01*
X50630565Y-53877919D01*
X50385419Y-54123065D01*
X50192808Y-54411327D01*
X50060136Y-54731627D01*
X49992500Y-55071655D01*
X46162500Y-55071655D01*
X46162500Y-41016076D01*
X46583600Y-41016076D01*
X46583600Y-41533924D01*
X46684627Y-42041822D01*
X46882799Y-42520251D01*
X47170500Y-42950826D01*
X47536674Y-43317000D01*
X47967249Y-43604701D01*
X48445678Y-43802873D01*
X48953576Y-43903900D01*
X49471424Y-43903900D01*
X49979322Y-43802873D01*
X50348389Y-43650000D01*
X57299428Y-43650000D01*
X57299428Y-45250000D01*
X57311688Y-45374482D01*
X57347998Y-45494180D01*
X57406963Y-45604494D01*
X57486315Y-45701185D01*
X57583006Y-45780537D01*
X57693320Y-45839502D01*
X57813018Y-45875812D01*
X57937500Y-45888072D01*
X59537500Y-45888072D01*
X59661982Y-45875812D01*
X59781680Y-45839502D01*
X59891994Y-45780537D01*
X59988685Y-45701185D01*
X60068037Y-45604494D01*
X60127002Y-45494180D01*
X60163312Y-45374482D01*
X60175572Y-45250000D01*
X60175572Y-43650000D01*
X60163312Y-43525518D01*
X60127002Y-43405820D01*
X60068037Y-43295506D01*
X59988685Y-43198815D01*
X59891994Y-43119463D01*
X59781680Y-43060498D01*
X59661982Y-43024188D01*
X59537500Y-43011928D01*
X57937500Y-43011928D01*
X57813018Y-43024188D01*
X57693320Y-43060498D01*
X57583006Y-43119463D01*
X57486315Y-43198815D01*
X57406963Y-43295506D01*
X57347998Y-43405820D01*
X57311688Y-43525518D01*
X57299428Y-43650000D01*
X50348389Y-43650000D01*
X50457751Y-43604701D01*
X50888326Y-43317000D01*
X51254500Y-42950826D01*
X51542201Y-42520251D01*
X51740373Y-42041822D01*
X51841400Y-41533924D01*
X51841400Y-41126278D01*
X52782500Y-41126278D01*
X52782500Y-41423722D01*
X52840529Y-41715451D01*
X52954356Y-41990253D01*
X53119607Y-42237569D01*
X53329931Y-42447893D01*
X53577247Y-42613144D01*
X53852049Y-42726971D01*
X54143778Y-42785000D01*
X54441222Y-42785000D01*
X54732951Y-42726971D01*
X55007753Y-42613144D01*
X55255069Y-42447893D01*
X55465393Y-42237569D01*
X55630644Y-41990253D01*
X55744471Y-41715451D01*
X55802500Y-41423722D01*
X55802500Y-41126278D01*
X61672500Y-41126278D01*
X61672500Y-41423722D01*
X61730529Y-41715451D01*
X61844356Y-41990253D01*
X62009607Y-42237569D01*
X62219931Y-42447893D01*
X62467247Y-42613144D01*
X62742049Y-42726971D01*
X63033778Y-42785000D01*
X63331222Y-42785000D01*
X63622951Y-42726971D01*
X63692501Y-42698162D01*
X63692500Y-56194792D01*
X63618827Y-56225308D01*
X63330565Y-56417919D01*
X63085419Y-56663065D01*
X62892808Y-56951327D01*
X62760136Y-57271627D01*
X62692500Y-57611655D01*
X62692500Y-57958345D01*
X62760136Y-58298373D01*
X62892808Y-58618673D01*
X63025138Y-58816719D01*
X62742049Y-58873029D01*
X62467247Y-58986856D01*
X62219931Y-59152107D01*
X62009607Y-59362431D01*
X61844356Y-59609747D01*
X61730529Y-59884549D01*
X61672500Y-60176278D01*
X61672500Y-60473722D01*
X61730529Y-60765451D01*
X61844356Y-61040253D01*
X62009607Y-61287569D01*
X62219931Y-61497893D01*
X62467247Y-61663144D01*
X62742049Y-61776971D01*
X63033778Y-61835000D01*
X63331222Y-61835000D01*
X63622951Y-61776971D01*
X63692501Y-61748163D01*
X63692500Y-65018789D01*
X63648563Y-65062726D01*
X63535295Y-65232244D01*
X63457274Y-65420602D01*
X63417500Y-65620561D01*
X63417500Y-65824439D01*
X63457274Y-66024398D01*
X63535295Y-66212756D01*
X63648563Y-66382274D01*
X63692501Y-66426212D01*
X63692500Y-70077832D01*
X63692501Y-70077842D01*
X63692500Y-75244792D01*
X63618827Y-75275308D01*
X63330565Y-75467919D01*
X63085419Y-75713065D01*
X62892808Y-76001327D01*
X62760136Y-76321627D01*
X62692500Y-76661655D01*
X62692500Y-77008345D01*
X62760136Y-77348373D01*
X62892808Y-77668673D01*
X63025138Y-77866719D01*
X62742049Y-77923029D01*
X62467247Y-78036856D01*
X62219931Y-78202107D01*
X62009607Y-78412431D01*
X61844356Y-78659747D01*
X61730529Y-78934549D01*
X61672500Y-79226278D01*
X61672500Y-79523722D01*
X61730529Y-79815451D01*
X61844356Y-80090253D01*
X62009607Y-80337569D01*
X62219931Y-80547893D01*
X62467247Y-80713144D01*
X62742049Y-80826971D01*
X63033778Y-80885000D01*
X63331222Y-80885000D01*
X63622951Y-80826971D01*
X63692501Y-80798162D01*
X63692500Y-94294792D01*
X63618827Y-94325308D01*
X63330565Y-94517919D01*
X63085419Y-94763065D01*
X62892808Y-95051327D01*
X62760136Y-95371627D01*
X62692500Y-95711655D01*
X62692500Y-96058345D01*
X62760136Y-96398373D01*
X62892808Y-96718673D01*
X63025138Y-96916719D01*
X62742049Y-96973029D01*
X62467247Y-97086856D01*
X62219931Y-97252107D01*
X62009607Y-97462431D01*
X61844356Y-97709747D01*
X61730529Y-97984549D01*
X61672500Y-98276278D01*
X61672500Y-98573722D01*
X61730529Y-98865451D01*
X61844356Y-99140253D01*
X62009607Y-99387569D01*
X62219931Y-99597893D01*
X62467247Y-99763144D01*
X62742049Y-99876971D01*
X63033778Y-99935000D01*
X63331222Y-99935000D01*
X63622951Y-99876971D01*
X63897753Y-99763144D01*
X64145069Y-99597893D01*
X64355393Y-99387569D01*
X64520644Y-99140253D01*
X64634471Y-98865451D01*
X64692500Y-98573722D01*
X64692500Y-98276278D01*
X64670580Y-98166076D01*
X65633600Y-98166076D01*
X65633600Y-98683924D01*
X65734627Y-99191822D01*
X65932799Y-99670251D01*
X66220500Y-100100826D01*
X66586674Y-100467000D01*
X67017249Y-100754701D01*
X67495678Y-100952873D01*
X68003576Y-101053900D01*
X68521424Y-101053900D01*
X69029322Y-100952873D01*
X69398389Y-100800000D01*
X76349428Y-100800000D01*
X76349428Y-102400000D01*
X76361688Y-102524482D01*
X76397998Y-102644180D01*
X76456963Y-102754494D01*
X76536315Y-102851185D01*
X76633006Y-102930537D01*
X76743320Y-102989502D01*
X76863018Y-103025812D01*
X76987500Y-103038072D01*
X78587500Y-103038072D01*
X78711982Y-103025812D01*
X78831680Y-102989502D01*
X78941994Y-102930537D01*
X79038685Y-102851185D01*
X79118037Y-102754494D01*
X79177002Y-102644180D01*
X79213312Y-102524482D01*
X79225572Y-102400000D01*
X79225572Y-100800000D01*
X79213312Y-100675518D01*
X79177002Y-100555820D01*
X79118037Y-100445506D01*
X79038685Y-100348815D01*
X78941994Y-100269463D01*
X78831680Y-100210498D01*
X78711982Y-100174188D01*
X78587500Y-100161928D01*
X76987500Y-100161928D01*
X76863018Y-100174188D01*
X76743320Y-100210498D01*
X76633006Y-100269463D01*
X76536315Y-100348815D01*
X76456963Y-100445506D01*
X76397998Y-100555820D01*
X76361688Y-100675518D01*
X76349428Y-100800000D01*
X69398389Y-100800000D01*
X69507751Y-100754701D01*
X69938326Y-100467000D01*
X70304500Y-100100826D01*
X70592201Y-99670251D01*
X70790373Y-99191822D01*
X70891400Y-98683924D01*
X70891400Y-98276278D01*
X71832500Y-98276278D01*
X71832500Y-98573722D01*
X71890529Y-98865451D01*
X72004356Y-99140253D01*
X72169607Y-99387569D01*
X72379931Y-99597893D01*
X72627247Y-99763144D01*
X72902049Y-99876971D01*
X73193778Y-99935000D01*
X73491222Y-99935000D01*
X73782951Y-99876971D01*
X74057753Y-99763144D01*
X74305069Y-99597893D01*
X74515393Y-99387569D01*
X74680644Y-99140253D01*
X74794471Y-98865451D01*
X74852500Y-98573722D01*
X74852500Y-98276278D01*
X74794471Y-97984549D01*
X74680644Y-97709747D01*
X74515393Y-97462431D01*
X74305069Y-97252107D01*
X74057753Y-97086856D01*
X73782951Y-96973029D01*
X73491222Y-96915000D01*
X73193778Y-96915000D01*
X72902049Y-96973029D01*
X72627247Y-97086856D01*
X72379931Y-97252107D01*
X72169607Y-97462431D01*
X72004356Y-97709747D01*
X71890529Y-97984549D01*
X71832500Y-98276278D01*
X70891400Y-98276278D01*
X70891400Y-98166076D01*
X70790373Y-97658178D01*
X70592201Y-97179749D01*
X70304500Y-96749174D01*
X69938326Y-96383000D01*
X69507751Y-96095299D01*
X69029322Y-95897127D01*
X68521424Y-95796100D01*
X68003576Y-95796100D01*
X67495678Y-95897127D01*
X67017249Y-96095299D01*
X66586674Y-96383000D01*
X66220500Y-96749174D01*
X65932799Y-97179749D01*
X65734627Y-97658178D01*
X65633600Y-98166076D01*
X64670580Y-98166076D01*
X64634471Y-97984549D01*
X64520644Y-97709747D01*
X64477382Y-97645000D01*
X64625845Y-97645000D01*
X64965873Y-97577364D01*
X65286173Y-97444692D01*
X65574435Y-97252081D01*
X65819581Y-97006935D01*
X66012192Y-96718673D01*
X66144864Y-96398373D01*
X66212500Y-96058345D01*
X66212500Y-95711655D01*
X66144864Y-95371627D01*
X66012192Y-95051327D01*
X65819581Y-94763065D01*
X65574435Y-94517919D01*
X65286173Y-94325308D01*
X65212500Y-94294792D01*
X65212500Y-93171655D01*
X69042500Y-93171655D01*
X69042500Y-93518345D01*
X69110136Y-93858373D01*
X69242808Y-94178673D01*
X69435419Y-94466935D01*
X69680565Y-94712081D01*
X69968827Y-94904692D01*
X70289127Y-95037364D01*
X70629155Y-95105000D01*
X70975845Y-95105000D01*
X71315873Y-95037364D01*
X71636173Y-94904692D01*
X71924435Y-94712081D01*
X72169581Y-94466935D01*
X72362192Y-94178673D01*
X72494864Y-93858373D01*
X72498784Y-93838665D01*
X76352500Y-93838665D01*
X76352500Y-94121335D01*
X76407647Y-94398574D01*
X76515820Y-94659727D01*
X76672863Y-94894759D01*
X76872741Y-95094637D01*
X77107773Y-95251680D01*
X77368926Y-95359853D01*
X77646165Y-95415000D01*
X77928835Y-95415000D01*
X78206074Y-95359853D01*
X78467227Y-95251680D01*
X78702259Y-95094637D01*
X78902137Y-94894759D01*
X79059180Y-94659727D01*
X79167353Y-94398574D01*
X79222500Y-94121335D01*
X79222500Y-93838665D01*
X79167353Y-93561426D01*
X79059180Y-93300273D01*
X78902137Y-93065241D01*
X78702259Y-92865363D01*
X78467227Y-92708320D01*
X78206074Y-92600147D01*
X77928835Y-92545000D01*
X77646165Y-92545000D01*
X77368926Y-92600147D01*
X77107773Y-92708320D01*
X76872741Y-92865363D01*
X76672863Y-93065241D01*
X76515820Y-93300273D01*
X76407647Y-93561426D01*
X76352500Y-93838665D01*
X72498784Y-93838665D01*
X72562500Y-93518345D01*
X72562500Y-93171655D01*
X72494864Y-92831627D01*
X72362192Y-92511327D01*
X72169581Y-92223065D01*
X71924435Y-91977919D01*
X71636173Y-91785308D01*
X71315873Y-91652636D01*
X70975845Y-91585000D01*
X70629155Y-91585000D01*
X70289127Y-91652636D01*
X69968827Y-91785308D01*
X69680565Y-91977919D01*
X69435419Y-92223065D01*
X69242808Y-92511327D01*
X69110136Y-92831627D01*
X69042500Y-93171655D01*
X65212500Y-93171655D01*
X65212500Y-79116076D01*
X65633600Y-79116076D01*
X65633600Y-79633924D01*
X65734627Y-80141822D01*
X65932799Y-80620251D01*
X66220500Y-81050826D01*
X66586674Y-81417000D01*
X67017249Y-81704701D01*
X67495678Y-81902873D01*
X68003576Y-82003900D01*
X68521424Y-82003900D01*
X69029322Y-81902873D01*
X69398389Y-81750000D01*
X76349428Y-81750000D01*
X76349428Y-83350000D01*
X76361688Y-83474482D01*
X76397998Y-83594180D01*
X76456963Y-83704494D01*
X76536315Y-83801185D01*
X76633006Y-83880537D01*
X76743320Y-83939502D01*
X76863018Y-83975812D01*
X76987500Y-83988072D01*
X78587500Y-83988072D01*
X78711982Y-83975812D01*
X78831680Y-83939502D01*
X78941994Y-83880537D01*
X79038685Y-83801185D01*
X79118037Y-83704494D01*
X79177002Y-83594180D01*
X79213312Y-83474482D01*
X79225572Y-83350000D01*
X79225572Y-81750000D01*
X79213312Y-81625518D01*
X79177002Y-81505820D01*
X79118037Y-81395506D01*
X79038685Y-81298815D01*
X78941994Y-81219463D01*
X78831680Y-81160498D01*
X78711982Y-81124188D01*
X78587500Y-81111928D01*
X76987500Y-81111928D01*
X76863018Y-81124188D01*
X76743320Y-81160498D01*
X76633006Y-81219463D01*
X76536315Y-81298815D01*
X76456963Y-81395506D01*
X76397998Y-81505820D01*
X76361688Y-81625518D01*
X76349428Y-81750000D01*
X69398389Y-81750000D01*
X69507751Y-81704701D01*
X69938326Y-81417000D01*
X70304500Y-81050826D01*
X70592201Y-80620251D01*
X70790373Y-80141822D01*
X70891400Y-79633924D01*
X70891400Y-79226278D01*
X71832500Y-79226278D01*
X71832500Y-79523722D01*
X71890529Y-79815451D01*
X72004356Y-80090253D01*
X72169607Y-80337569D01*
X72379931Y-80547893D01*
X72627247Y-80713144D01*
X72902049Y-80826971D01*
X73193778Y-80885000D01*
X73491222Y-80885000D01*
X73782951Y-80826971D01*
X74057753Y-80713144D01*
X74305069Y-80547893D01*
X74515393Y-80337569D01*
X74680644Y-80090253D01*
X74794471Y-79815451D01*
X74852500Y-79523722D01*
X74852500Y-79226278D01*
X74794471Y-78934549D01*
X74680644Y-78659747D01*
X74515393Y-78412431D01*
X74305069Y-78202107D01*
X74057753Y-78036856D01*
X73782951Y-77923029D01*
X73491222Y-77865000D01*
X73193778Y-77865000D01*
X72902049Y-77923029D01*
X72627247Y-78036856D01*
X72379931Y-78202107D01*
X72169607Y-78412431D01*
X72004356Y-78659747D01*
X71890529Y-78934549D01*
X71832500Y-79226278D01*
X70891400Y-79226278D01*
X70891400Y-79116076D01*
X70790373Y-78608178D01*
X70592201Y-78129749D01*
X70304500Y-77699174D01*
X69938326Y-77333000D01*
X69507751Y-77045299D01*
X69029322Y-76847127D01*
X68521424Y-76746100D01*
X68003576Y-76746100D01*
X67495678Y-76847127D01*
X67017249Y-77045299D01*
X66586674Y-77333000D01*
X66220500Y-77699174D01*
X65932799Y-78129749D01*
X65734627Y-78608178D01*
X65633600Y-79116076D01*
X65212500Y-79116076D01*
X65212500Y-78425208D01*
X65286173Y-78394692D01*
X65574435Y-78202081D01*
X65819581Y-77956935D01*
X66012192Y-77668673D01*
X66144864Y-77348373D01*
X66212500Y-77008345D01*
X66212500Y-76661655D01*
X66144864Y-76321627D01*
X66012192Y-76001327D01*
X65819581Y-75713065D01*
X65574435Y-75467919D01*
X65286173Y-75275308D01*
X65212500Y-75244792D01*
X65212500Y-74121655D01*
X69042500Y-74121655D01*
X69042500Y-74468345D01*
X69110136Y-74808373D01*
X69242808Y-75128673D01*
X69435419Y-75416935D01*
X69680565Y-75662081D01*
X69968827Y-75854692D01*
X70289127Y-75987364D01*
X70629155Y-76055000D01*
X70975845Y-76055000D01*
X71315873Y-75987364D01*
X71636173Y-75854692D01*
X71924435Y-75662081D01*
X72169581Y-75416935D01*
X72362192Y-75128673D01*
X72494864Y-74808373D01*
X72498784Y-74788665D01*
X76352500Y-74788665D01*
X76352500Y-75071335D01*
X76407647Y-75348574D01*
X76515820Y-75609727D01*
X76672863Y-75844759D01*
X76872741Y-76044637D01*
X77107773Y-76201680D01*
X77368926Y-76309853D01*
X77646165Y-76365000D01*
X77928835Y-76365000D01*
X78206074Y-76309853D01*
X78467227Y-76201680D01*
X78702259Y-76044637D01*
X78902137Y-75844759D01*
X79059180Y-75609727D01*
X79167353Y-75348574D01*
X79222500Y-75071335D01*
X79222500Y-74788665D01*
X79167353Y-74511426D01*
X79059180Y-74250273D01*
X78902137Y-74015241D01*
X78702259Y-73815363D01*
X78467227Y-73658320D01*
X78206074Y-73550147D01*
X77928835Y-73495000D01*
X77646165Y-73495000D01*
X77368926Y-73550147D01*
X77107773Y-73658320D01*
X76872741Y-73815363D01*
X76672863Y-74015241D01*
X76515820Y-74250273D01*
X76407647Y-74511426D01*
X76352500Y-74788665D01*
X72498784Y-74788665D01*
X72562500Y-74468345D01*
X72562500Y-74121655D01*
X72494864Y-73781627D01*
X72362192Y-73461327D01*
X72169581Y-73173065D01*
X71924435Y-72927919D01*
X71636173Y-72735308D01*
X71315873Y-72602636D01*
X70975845Y-72535000D01*
X70629155Y-72535000D01*
X70289127Y-72602636D01*
X69968827Y-72735308D01*
X69680565Y-72927919D01*
X69435419Y-73173065D01*
X69242808Y-73461327D01*
X69110136Y-73781627D01*
X69042500Y-74121655D01*
X65212500Y-74121655D01*
X65212500Y-71393750D01*
X74018178Y-71393750D01*
X74030438Y-71518232D01*
X74066748Y-71637930D01*
X74125713Y-71748244D01*
X74205065Y-71844935D01*
X74301756Y-71924287D01*
X74412070Y-71983252D01*
X74531768Y-72019562D01*
X74656250Y-72031822D01*
X75120500Y-72028750D01*
X75279250Y-71870000D01*
X75279250Y-70770750D01*
X75533250Y-70770750D01*
X75533250Y-71870000D01*
X75692000Y-72028750D01*
X76156250Y-72031822D01*
X76280732Y-72019562D01*
X76400430Y-71983252D01*
X76510744Y-71924287D01*
X76607435Y-71844935D01*
X76686787Y-71748244D01*
X76745752Y-71637930D01*
X76782062Y-71518232D01*
X76794322Y-71393750D01*
X76791250Y-70929500D01*
X76632500Y-70770750D01*
X75533250Y-70770750D01*
X75279250Y-70770750D01*
X74180000Y-70770750D01*
X74021250Y-70929500D01*
X74018178Y-71393750D01*
X65212500Y-71393750D01*
X65212500Y-67803665D01*
X73177500Y-67803665D01*
X73177500Y-68086335D01*
X73232647Y-68363574D01*
X73340820Y-68624727D01*
X73497863Y-68859759D01*
X73697741Y-69059637D01*
X73932773Y-69216680D01*
X74193926Y-69324853D01*
X74324813Y-69350888D01*
X74301756Y-69363213D01*
X74205065Y-69442565D01*
X74125713Y-69539256D01*
X74066748Y-69649570D01*
X74030438Y-69769268D01*
X74018178Y-69893750D01*
X74021250Y-70358000D01*
X74180000Y-70516750D01*
X75279250Y-70516750D01*
X75279250Y-69417500D01*
X75533250Y-69417500D01*
X75533250Y-70516750D01*
X76632500Y-70516750D01*
X76791250Y-70358000D01*
X76794322Y-69893750D01*
X76782062Y-69769268D01*
X76745752Y-69649570D01*
X76686787Y-69539256D01*
X76607435Y-69442565D01*
X76510744Y-69363213D01*
X76400430Y-69304248D01*
X76280732Y-69267938D01*
X76156250Y-69255678D01*
X75692000Y-69258750D01*
X75533250Y-69417500D01*
X75279250Y-69417500D01*
X75141050Y-69279300D01*
X75292227Y-69216680D01*
X75527259Y-69059637D01*
X75649194Y-68937702D01*
X76339403Y-68937702D01*
X76410986Y-69181671D01*
X76666496Y-69302571D01*
X76940684Y-69371300D01*
X77223012Y-69385217D01*
X77502630Y-69343787D01*
X77768792Y-69248603D01*
X77894014Y-69181671D01*
X77965597Y-68937702D01*
X77152500Y-68124605D01*
X76339403Y-68937702D01*
X75649194Y-68937702D01*
X75727137Y-68859759D01*
X75883415Y-68625872D01*
X75915829Y-68686514D01*
X76159798Y-68758097D01*
X76972895Y-67945000D01*
X77332105Y-67945000D01*
X78145202Y-68758097D01*
X78389171Y-68686514D01*
X78419694Y-68622008D01*
X78420820Y-68624727D01*
X78577863Y-68859759D01*
X78777741Y-69059637D01*
X78932501Y-69163044D01*
X78932501Y-69255678D01*
X78625000Y-69255678D01*
X78500518Y-69267938D01*
X78380820Y-69304248D01*
X78270506Y-69363213D01*
X78173815Y-69442565D01*
X78094463Y-69539256D01*
X78035498Y-69649570D01*
X77999188Y-69769268D01*
X77986928Y-69893750D01*
X77986928Y-71393750D01*
X77999188Y-71518232D01*
X78035498Y-71637930D01*
X78094463Y-71748244D01*
X78173815Y-71844935D01*
X78270506Y-71924287D01*
X78380820Y-71983252D01*
X78500518Y-72019562D01*
X78625000Y-72031822D01*
X80125000Y-72031822D01*
X80249482Y-72019562D01*
X80369180Y-71983252D01*
X80479494Y-71924287D01*
X80576185Y-71844935D01*
X80655537Y-71748244D01*
X80714502Y-71637930D01*
X80750812Y-71518232D01*
X80763072Y-71393750D01*
X80763072Y-69893750D01*
X80750812Y-69769268D01*
X80714502Y-69649570D01*
X80655537Y-69539256D01*
X80576185Y-69442565D01*
X80479494Y-69363213D01*
X80452500Y-69348784D01*
X80452500Y-69163043D01*
X80607259Y-69059637D01*
X80807137Y-68859759D01*
X80962500Y-68627241D01*
X81117863Y-68859759D01*
X81317741Y-69059637D01*
X81552773Y-69216680D01*
X81813926Y-69324853D01*
X82091165Y-69380000D01*
X82373835Y-69380000D01*
X82651074Y-69324853D01*
X82742501Y-69286983D01*
X82742501Y-75244791D01*
X82668827Y-75275308D01*
X82380565Y-75467919D01*
X82135419Y-75713065D01*
X81942808Y-76001327D01*
X81810136Y-76321627D01*
X81742500Y-76661655D01*
X81742500Y-77008345D01*
X81810136Y-77348373D01*
X81942808Y-77668673D01*
X82075138Y-77866719D01*
X81792049Y-77923029D01*
X81517247Y-78036856D01*
X81269931Y-78202107D01*
X81059607Y-78412431D01*
X80894356Y-78659747D01*
X80780529Y-78934549D01*
X80722500Y-79226278D01*
X80722500Y-79523722D01*
X80780529Y-79815451D01*
X80894356Y-80090253D01*
X81059607Y-80337569D01*
X81269931Y-80547893D01*
X81517247Y-80713144D01*
X81792049Y-80826971D01*
X82083778Y-80885000D01*
X82381222Y-80885000D01*
X82672951Y-80826971D01*
X82742500Y-80798163D01*
X82742501Y-94294791D01*
X82668827Y-94325308D01*
X82380565Y-94517919D01*
X82135419Y-94763065D01*
X81942808Y-95051327D01*
X81810136Y-95371627D01*
X81742500Y-95711655D01*
X81742500Y-96058345D01*
X81810136Y-96398373D01*
X81942808Y-96718673D01*
X82075138Y-96916719D01*
X81792049Y-96973029D01*
X81517247Y-97086856D01*
X81269931Y-97252107D01*
X81059607Y-97462431D01*
X80894356Y-97709747D01*
X80780529Y-97984549D01*
X80722500Y-98276278D01*
X80722500Y-98573722D01*
X80780529Y-98865451D01*
X80894356Y-99140253D01*
X81059607Y-99387569D01*
X81269931Y-99597893D01*
X81517247Y-99763144D01*
X81792049Y-99876971D01*
X82083778Y-99935000D01*
X82381222Y-99935000D01*
X82672951Y-99876971D01*
X82947753Y-99763144D01*
X83195069Y-99597893D01*
X83405393Y-99387569D01*
X83570644Y-99140253D01*
X83684471Y-98865451D01*
X83742500Y-98573722D01*
X83742500Y-98276278D01*
X83720580Y-98166076D01*
X84683600Y-98166076D01*
X84683600Y-98683924D01*
X84784627Y-99191822D01*
X84982799Y-99670251D01*
X85270500Y-100100826D01*
X85636674Y-100467000D01*
X86067249Y-100754701D01*
X86545678Y-100952873D01*
X87053576Y-101053900D01*
X87571424Y-101053900D01*
X88079322Y-100952873D01*
X88557751Y-100754701D01*
X88988326Y-100467000D01*
X89354500Y-100100826D01*
X89642201Y-99670251D01*
X89840373Y-99191822D01*
X89941400Y-98683924D01*
X89941400Y-98276278D01*
X90882500Y-98276278D01*
X90882500Y-98573722D01*
X90940529Y-98865451D01*
X91054356Y-99140253D01*
X91219607Y-99387569D01*
X91429931Y-99597893D01*
X91677247Y-99763144D01*
X91952049Y-99876971D01*
X92243778Y-99935000D01*
X92541222Y-99935000D01*
X92832951Y-99876971D01*
X93107753Y-99763144D01*
X93355069Y-99597893D01*
X93565393Y-99387569D01*
X93730644Y-99140253D01*
X93844471Y-98865451D01*
X93902500Y-98573722D01*
X93902500Y-98276278D01*
X93844471Y-97984549D01*
X93730644Y-97709747D01*
X93565393Y-97462431D01*
X93355069Y-97252107D01*
X93107753Y-97086856D01*
X92832951Y-96973029D01*
X92541222Y-96915000D01*
X92243778Y-96915000D01*
X91952049Y-96973029D01*
X91677247Y-97086856D01*
X91429931Y-97252107D01*
X91219607Y-97462431D01*
X91054356Y-97709747D01*
X90940529Y-97984549D01*
X90882500Y-98276278D01*
X89941400Y-98276278D01*
X89941400Y-98166076D01*
X89840373Y-97658178D01*
X89642201Y-97179749D01*
X89354500Y-96749174D01*
X88988326Y-96383000D01*
X88557751Y-96095299D01*
X88079322Y-95897127D01*
X87571424Y-95796100D01*
X87053576Y-95796100D01*
X86545678Y-95897127D01*
X86067249Y-96095299D01*
X85636674Y-96383000D01*
X85270500Y-96749174D01*
X84982799Y-97179749D01*
X84784627Y-97658178D01*
X84683600Y-98166076D01*
X83720580Y-98166076D01*
X83684471Y-97984549D01*
X83570644Y-97709747D01*
X83527382Y-97645000D01*
X83675845Y-97645000D01*
X84015873Y-97577364D01*
X84336173Y-97444692D01*
X84624435Y-97252081D01*
X84869581Y-97006935D01*
X85062192Y-96718673D01*
X85194864Y-96398373D01*
X85262500Y-96058345D01*
X85262500Y-95711655D01*
X85194864Y-95371627D01*
X85062192Y-95051327D01*
X84869581Y-94763065D01*
X84624435Y-94517919D01*
X84336173Y-94325308D01*
X84262500Y-94294792D01*
X84262500Y-93171655D01*
X88092500Y-93171655D01*
X88092500Y-93518345D01*
X88160136Y-93858373D01*
X88292808Y-94178673D01*
X88485419Y-94466935D01*
X88730565Y-94712081D01*
X89018827Y-94904692D01*
X89339127Y-95037364D01*
X89679155Y-95105000D01*
X90025845Y-95105000D01*
X90365873Y-95037364D01*
X90686173Y-94904692D01*
X90974435Y-94712081D01*
X91219581Y-94466935D01*
X91412192Y-94178673D01*
X91544864Y-93858373D01*
X91548784Y-93838665D01*
X95402500Y-93838665D01*
X95402500Y-94121335D01*
X95457647Y-94398574D01*
X95565820Y-94659727D01*
X95722863Y-94894759D01*
X95922741Y-95094637D01*
X96157773Y-95251680D01*
X96418926Y-95359853D01*
X96696165Y-95415000D01*
X96978835Y-95415000D01*
X97256074Y-95359853D01*
X97517227Y-95251680D01*
X97752259Y-95094637D01*
X97952137Y-94894759D01*
X98109180Y-94659727D01*
X98217353Y-94398574D01*
X98272500Y-94121335D01*
X98272500Y-93838665D01*
X98217353Y-93561426D01*
X98109180Y-93300273D01*
X97952137Y-93065241D01*
X97752259Y-92865363D01*
X97517227Y-92708320D01*
X97256074Y-92600147D01*
X96978835Y-92545000D01*
X96696165Y-92545000D01*
X96418926Y-92600147D01*
X96157773Y-92708320D01*
X95922741Y-92865363D01*
X95722863Y-93065241D01*
X95565820Y-93300273D01*
X95457647Y-93561426D01*
X95402500Y-93838665D01*
X91548784Y-93838665D01*
X91612500Y-93518345D01*
X91612500Y-93171655D01*
X91544864Y-92831627D01*
X91412192Y-92511327D01*
X91219581Y-92223065D01*
X90974435Y-91977919D01*
X90686173Y-91785308D01*
X90365873Y-91652636D01*
X90025845Y-91585000D01*
X89679155Y-91585000D01*
X89339127Y-91652636D01*
X89018827Y-91785308D01*
X88730565Y-91977919D01*
X88485419Y-92223065D01*
X88292808Y-92511327D01*
X88160136Y-92831627D01*
X88092500Y-93171655D01*
X84262500Y-93171655D01*
X84262500Y-79116076D01*
X84683600Y-79116076D01*
X84683600Y-79633924D01*
X84784627Y-80141822D01*
X84982799Y-80620251D01*
X85270500Y-81050826D01*
X85636674Y-81417000D01*
X86067249Y-81704701D01*
X86545678Y-81902873D01*
X87053576Y-82003900D01*
X87571424Y-82003900D01*
X88079322Y-81902873D01*
X88557751Y-81704701D01*
X88988326Y-81417000D01*
X89354500Y-81050826D01*
X89642201Y-80620251D01*
X89840373Y-80141822D01*
X89941400Y-79633924D01*
X89941400Y-79226278D01*
X90882500Y-79226278D01*
X90882500Y-79523722D01*
X90940529Y-79815451D01*
X91054356Y-80090253D01*
X91219607Y-80337569D01*
X91429931Y-80547893D01*
X91677247Y-80713144D01*
X91952049Y-80826971D01*
X92243778Y-80885000D01*
X92541222Y-80885000D01*
X92832951Y-80826971D01*
X93107753Y-80713144D01*
X93355069Y-80547893D01*
X93565393Y-80337569D01*
X93730644Y-80090253D01*
X93844471Y-79815451D01*
X93902500Y-79523722D01*
X93902500Y-79226278D01*
X93844471Y-78934549D01*
X93730644Y-78659747D01*
X93565393Y-78412431D01*
X93355069Y-78202107D01*
X93107753Y-78036856D01*
X92832951Y-77923029D01*
X92541222Y-77865000D01*
X92243778Y-77865000D01*
X91952049Y-77923029D01*
X91677247Y-78036856D01*
X91429931Y-78202107D01*
X91219607Y-78412431D01*
X91054356Y-78659747D01*
X90940529Y-78934549D01*
X90882500Y-79226278D01*
X89941400Y-79226278D01*
X89941400Y-79116076D01*
X89840373Y-78608178D01*
X89642201Y-78129749D01*
X89354500Y-77699174D01*
X88988326Y-77333000D01*
X88557751Y-77045299D01*
X88079322Y-76847127D01*
X87571424Y-76746100D01*
X87053576Y-76746100D01*
X86545678Y-76847127D01*
X86067249Y-77045299D01*
X85636674Y-77333000D01*
X85270500Y-77699174D01*
X84982799Y-78129749D01*
X84784627Y-78608178D01*
X84683600Y-79116076D01*
X84262500Y-79116076D01*
X84262500Y-78425208D01*
X84336173Y-78394692D01*
X84624435Y-78202081D01*
X84869581Y-77956935D01*
X85062192Y-77668673D01*
X85194864Y-77348373D01*
X85262500Y-77008345D01*
X85262500Y-76661655D01*
X85194864Y-76321627D01*
X85062192Y-76001327D01*
X84869581Y-75713065D01*
X84624435Y-75467919D01*
X84336173Y-75275308D01*
X84262500Y-75244792D01*
X84262500Y-74121655D01*
X88092500Y-74121655D01*
X88092500Y-74468345D01*
X88160136Y-74808373D01*
X88292808Y-75128673D01*
X88485419Y-75416935D01*
X88730565Y-75662081D01*
X89018827Y-75854692D01*
X89339127Y-75987364D01*
X89679155Y-76055000D01*
X90025845Y-76055000D01*
X90365873Y-75987364D01*
X90686173Y-75854692D01*
X90974435Y-75662081D01*
X91219581Y-75416935D01*
X91412192Y-75128673D01*
X91544864Y-74808373D01*
X91612500Y-74468345D01*
X91612500Y-74121655D01*
X91544864Y-73781627D01*
X91412192Y-73461327D01*
X91219581Y-73173065D01*
X90974435Y-72927919D01*
X90686173Y-72735308D01*
X90365873Y-72602636D01*
X90025845Y-72535000D01*
X89679155Y-72535000D01*
X89339127Y-72602636D01*
X89018827Y-72735308D01*
X88730565Y-72927919D01*
X88485419Y-73173065D01*
X88292808Y-73461327D01*
X88160136Y-73781627D01*
X88092500Y-74121655D01*
X84262500Y-74121655D01*
X84262500Y-69286983D01*
X84353926Y-69324853D01*
X84631165Y-69380000D01*
X84913835Y-69380000D01*
X85191074Y-69324853D01*
X85452227Y-69216680D01*
X85687259Y-69059637D01*
X85887137Y-68859759D01*
X86042500Y-68627241D01*
X86197863Y-68859759D01*
X86397741Y-69059637D01*
X86632773Y-69216680D01*
X86893926Y-69324853D01*
X87171165Y-69380000D01*
X87453835Y-69380000D01*
X87731074Y-69324853D01*
X87992227Y-69216680D01*
X88227259Y-69059637D01*
X88427137Y-68859759D01*
X88582500Y-68627241D01*
X88737863Y-68859759D01*
X88937741Y-69059637D01*
X89172773Y-69216680D01*
X89433926Y-69324853D01*
X89711165Y-69380000D01*
X89993835Y-69380000D01*
X90271074Y-69324853D01*
X90532227Y-69216680D01*
X90767259Y-69059637D01*
X90967137Y-68859759D01*
X91122500Y-68627241D01*
X91277863Y-68859759D01*
X91477741Y-69059637D01*
X91712773Y-69216680D01*
X91973926Y-69324853D01*
X92251165Y-69380000D01*
X92533835Y-69380000D01*
X92811074Y-69324853D01*
X93072227Y-69216680D01*
X93307259Y-69059637D01*
X93507137Y-68859759D01*
X93662500Y-68627241D01*
X93817863Y-68859759D01*
X94017741Y-69059637D01*
X94252773Y-69216680D01*
X94513926Y-69324853D01*
X94791165Y-69380000D01*
X95073835Y-69380000D01*
X95351074Y-69324853D01*
X95612227Y-69216680D01*
X95847259Y-69059637D01*
X96047137Y-68859759D01*
X96202500Y-68627241D01*
X96357863Y-68859759D01*
X96557741Y-69059637D01*
X96792773Y-69216680D01*
X97053926Y-69324853D01*
X97331165Y-69380000D01*
X97613835Y-69380000D01*
X97837501Y-69335509D01*
X97837501Y-73900605D01*
X97752259Y-73815363D01*
X97517227Y-73658320D01*
X97256074Y-73550147D01*
X96978835Y-73495000D01*
X96696165Y-73495000D01*
X96418926Y-73550147D01*
X96157773Y-73658320D01*
X95922741Y-73815363D01*
X95722863Y-74015241D01*
X95565820Y-74250273D01*
X95457647Y-74511426D01*
X95402500Y-74788665D01*
X95402500Y-75071335D01*
X95457647Y-75348574D01*
X95565820Y-75609727D01*
X95722863Y-75844759D01*
X95922741Y-76044637D01*
X96157773Y-76201680D01*
X96418926Y-76309853D01*
X96696165Y-76365000D01*
X96978835Y-76365000D01*
X97256074Y-76309853D01*
X97517227Y-76201680D01*
X97752259Y-76044637D01*
X97837501Y-75959395D01*
X97837501Y-80475197D01*
X97200770Y-81111928D01*
X96037500Y-81111928D01*
X95913018Y-81124188D01*
X95793320Y-81160498D01*
X95683006Y-81219463D01*
X95586315Y-81298815D01*
X95506963Y-81395506D01*
X95447998Y-81505820D01*
X95411688Y-81625518D01*
X95399428Y-81750000D01*
X95399428Y-83350000D01*
X95411688Y-83474482D01*
X95447998Y-83594180D01*
X95506963Y-83704494D01*
X95586315Y-83801185D01*
X95683006Y-83880537D01*
X95793320Y-83939502D01*
X95913018Y-83975812D01*
X96037500Y-83988072D01*
X97637500Y-83988072D01*
X97761982Y-83975812D01*
X97881680Y-83939502D01*
X97991994Y-83880537D01*
X98088685Y-83801185D01*
X98168037Y-83704494D01*
X98227002Y-83594180D01*
X98263312Y-83474482D01*
X98275572Y-83350000D01*
X98275572Y-82186730D01*
X98287511Y-82174790D01*
X98287512Y-99075186D01*
X97200771Y-100161928D01*
X96037500Y-100161928D01*
X95913018Y-100174188D01*
X95793320Y-100210498D01*
X95683006Y-100269463D01*
X95586315Y-100348815D01*
X95506963Y-100445506D01*
X95447998Y-100555820D01*
X95411688Y-100675518D01*
X95399428Y-100800000D01*
X95399428Y-102400000D01*
X95411688Y-102524482D01*
X95447998Y-102644180D01*
X95506963Y-102754494D01*
X95586315Y-102851185D01*
X95683006Y-102930537D01*
X95793320Y-102989502D01*
X95913018Y-103025812D01*
X96037500Y-103038072D01*
X97637500Y-103038072D01*
X97761982Y-103025812D01*
X97881680Y-102989502D01*
X97991994Y-102930537D01*
X98088685Y-102851185D01*
X98168037Y-102754494D01*
X98227002Y-102644180D01*
X98263312Y-102524482D01*
X98275572Y-102400000D01*
X98275572Y-101236729D01*
X99558514Y-99953788D01*
X99587512Y-99929990D01*
X99682485Y-99814265D01*
X99753057Y-99682236D01*
X99796514Y-99538975D01*
X99807511Y-99427322D01*
X99811188Y-99389989D01*
X99807511Y-99352656D01*
X99807511Y-98749733D01*
X99830529Y-98865451D01*
X99944356Y-99140253D01*
X100109607Y-99387569D01*
X100319931Y-99597893D01*
X100567247Y-99763144D01*
X100842049Y-99876971D01*
X101133778Y-99935000D01*
X101431222Y-99935000D01*
X101722951Y-99876971D01*
X101997753Y-99763144D01*
X102245069Y-99597893D01*
X102455393Y-99387569D01*
X102620644Y-99140253D01*
X102734471Y-98865451D01*
X102792500Y-98573722D01*
X102792500Y-98276278D01*
X102770580Y-98166076D01*
X103733600Y-98166076D01*
X103733600Y-98683924D01*
X103834627Y-99191822D01*
X104032799Y-99670251D01*
X104320500Y-100100826D01*
X104686674Y-100467000D01*
X105117249Y-100754701D01*
X105595678Y-100952873D01*
X106103576Y-101053900D01*
X106621424Y-101053900D01*
X107129322Y-100952873D01*
X107498389Y-100800000D01*
X113655678Y-100800000D01*
X113655678Y-102400000D01*
X113667938Y-102524482D01*
X113704248Y-102644180D01*
X113763213Y-102754494D01*
X113842565Y-102851185D01*
X113939256Y-102930537D01*
X114049570Y-102989502D01*
X114169268Y-103025812D01*
X114293750Y-103038072D01*
X115893750Y-103038072D01*
X116018232Y-103025812D01*
X116137930Y-102989502D01*
X116248244Y-102930537D01*
X116344935Y-102851185D01*
X116424287Y-102754494D01*
X116483252Y-102644180D01*
X116519562Y-102524482D01*
X116531822Y-102400000D01*
X116531822Y-100800000D01*
X116519562Y-100675518D01*
X116483252Y-100555820D01*
X116424287Y-100445506D01*
X116344935Y-100348815D01*
X116248244Y-100269463D01*
X116137930Y-100210498D01*
X116018232Y-100174188D01*
X115893750Y-100161928D01*
X114293750Y-100161928D01*
X114169268Y-100174188D01*
X114049570Y-100210498D01*
X113939256Y-100269463D01*
X113842565Y-100348815D01*
X113763213Y-100445506D01*
X113704248Y-100555820D01*
X113667938Y-100675518D01*
X113655678Y-100800000D01*
X107498389Y-100800000D01*
X107607751Y-100754701D01*
X108038326Y-100467000D01*
X108404500Y-100100826D01*
X108692201Y-99670251D01*
X108890373Y-99191822D01*
X108991400Y-98683924D01*
X108991400Y-98276278D01*
X109932500Y-98276278D01*
X109932500Y-98573722D01*
X109990529Y-98865451D01*
X110104356Y-99140253D01*
X110269607Y-99387569D01*
X110479931Y-99597893D01*
X110727247Y-99763144D01*
X111002049Y-99876971D01*
X111293778Y-99935000D01*
X111591222Y-99935000D01*
X111882951Y-99876971D01*
X112157753Y-99763144D01*
X112405069Y-99597893D01*
X112615393Y-99387569D01*
X112780644Y-99140253D01*
X112894471Y-98865451D01*
X112952500Y-98573722D01*
X112952500Y-98276278D01*
X112894471Y-97984549D01*
X112780644Y-97709747D01*
X112615393Y-97462431D01*
X112405069Y-97252107D01*
X112157753Y-97086856D01*
X111882951Y-96973029D01*
X111591222Y-96915000D01*
X111293778Y-96915000D01*
X111002049Y-96973029D01*
X110727247Y-97086856D01*
X110479931Y-97252107D01*
X110269607Y-97462431D01*
X110104356Y-97709747D01*
X109990529Y-97984549D01*
X109932500Y-98276278D01*
X108991400Y-98276278D01*
X108991400Y-98166076D01*
X108890373Y-97658178D01*
X108692201Y-97179749D01*
X108404500Y-96749174D01*
X108038326Y-96383000D01*
X107607751Y-96095299D01*
X107129322Y-95897127D01*
X106621424Y-95796100D01*
X106103576Y-95796100D01*
X105595678Y-95897127D01*
X105117249Y-96095299D01*
X104686674Y-96383000D01*
X104320500Y-96749174D01*
X104032799Y-97179749D01*
X103834627Y-97658178D01*
X103733600Y-98166076D01*
X102770580Y-98166076D01*
X102734471Y-97984549D01*
X102620644Y-97709747D01*
X102577382Y-97645000D01*
X102725845Y-97645000D01*
X103065873Y-97577364D01*
X103386173Y-97444692D01*
X103674435Y-97252081D01*
X103919581Y-97006935D01*
X104112192Y-96718673D01*
X104244864Y-96398373D01*
X104312500Y-96058345D01*
X104312500Y-95711655D01*
X104244864Y-95371627D01*
X104112192Y-95051327D01*
X103919581Y-94763065D01*
X103674435Y-94517919D01*
X103386173Y-94325308D01*
X103312500Y-94294792D01*
X103312500Y-93171655D01*
X107142500Y-93171655D01*
X107142500Y-93518345D01*
X107210136Y-93858373D01*
X107342808Y-94178673D01*
X107535419Y-94466935D01*
X107780565Y-94712081D01*
X108068827Y-94904692D01*
X108389127Y-95037364D01*
X108729155Y-95105000D01*
X109075845Y-95105000D01*
X109415873Y-95037364D01*
X109736173Y-94904692D01*
X110024435Y-94712081D01*
X110269581Y-94466935D01*
X110462192Y-94178673D01*
X110594864Y-93858373D01*
X110598784Y-93838665D01*
X113658750Y-93838665D01*
X113658750Y-94121335D01*
X113713897Y-94398574D01*
X113822070Y-94659727D01*
X113979113Y-94894759D01*
X114178991Y-95094637D01*
X114414023Y-95251680D01*
X114675176Y-95359853D01*
X114952415Y-95415000D01*
X115235085Y-95415000D01*
X115512324Y-95359853D01*
X115773477Y-95251680D01*
X116008509Y-95094637D01*
X116208387Y-94894759D01*
X116365430Y-94659727D01*
X116473603Y-94398574D01*
X116528750Y-94121335D01*
X116528750Y-93838665D01*
X116473603Y-93561426D01*
X116365430Y-93300273D01*
X116208387Y-93065241D01*
X116008509Y-92865363D01*
X115773477Y-92708320D01*
X115512324Y-92600147D01*
X115235085Y-92545000D01*
X114952415Y-92545000D01*
X114675176Y-92600147D01*
X114414023Y-92708320D01*
X114178991Y-92865363D01*
X113979113Y-93065241D01*
X113822070Y-93300273D01*
X113713897Y-93561426D01*
X113658750Y-93838665D01*
X110598784Y-93838665D01*
X110662500Y-93518345D01*
X110662500Y-93171655D01*
X110594864Y-92831627D01*
X110462192Y-92511327D01*
X110269581Y-92223065D01*
X110024435Y-91977919D01*
X109736173Y-91785308D01*
X109415873Y-91652636D01*
X109075845Y-91585000D01*
X108729155Y-91585000D01*
X108389127Y-91652636D01*
X108068827Y-91785308D01*
X107780565Y-91977919D01*
X107535419Y-92223065D01*
X107342808Y-92511327D01*
X107210136Y-92831627D01*
X107142500Y-93171655D01*
X103312500Y-93171655D01*
X103312500Y-79116076D01*
X103733600Y-79116076D01*
X103733600Y-79633924D01*
X103834627Y-80141822D01*
X104032799Y-80620251D01*
X104320500Y-81050826D01*
X104686674Y-81417000D01*
X105117249Y-81704701D01*
X105595678Y-81902873D01*
X106103576Y-82003900D01*
X106621424Y-82003900D01*
X107129322Y-81902873D01*
X107498389Y-81750000D01*
X113655678Y-81750000D01*
X113655678Y-83350000D01*
X113667938Y-83474482D01*
X113704248Y-83594180D01*
X113763213Y-83704494D01*
X113842565Y-83801185D01*
X113939256Y-83880537D01*
X114049570Y-83939502D01*
X114169268Y-83975812D01*
X114293750Y-83988072D01*
X115893750Y-83988072D01*
X116018232Y-83975812D01*
X116137930Y-83939502D01*
X116248244Y-83880537D01*
X116344935Y-83801185D01*
X116424287Y-83704494D01*
X116483252Y-83594180D01*
X116519562Y-83474482D01*
X116531822Y-83350000D01*
X116531822Y-81750000D01*
X116519562Y-81625518D01*
X116483252Y-81505820D01*
X116424287Y-81395506D01*
X116344935Y-81298815D01*
X116248244Y-81219463D01*
X116137930Y-81160498D01*
X116018232Y-81124188D01*
X115893750Y-81111928D01*
X114293750Y-81111928D01*
X114169268Y-81124188D01*
X114049570Y-81160498D01*
X113939256Y-81219463D01*
X113842565Y-81298815D01*
X113763213Y-81395506D01*
X113704248Y-81505820D01*
X113667938Y-81625518D01*
X113655678Y-81750000D01*
X107498389Y-81750000D01*
X107607751Y-81704701D01*
X108038326Y-81417000D01*
X108404500Y-81050826D01*
X108692201Y-80620251D01*
X108890373Y-80141822D01*
X108991400Y-79633924D01*
X108991400Y-79226278D01*
X109932500Y-79226278D01*
X109932500Y-79523722D01*
X109990529Y-79815451D01*
X110104356Y-80090253D01*
X110269607Y-80337569D01*
X110479931Y-80547893D01*
X110727247Y-80713144D01*
X111002049Y-80826971D01*
X111293778Y-80885000D01*
X111591222Y-80885000D01*
X111882951Y-80826971D01*
X112157753Y-80713144D01*
X112405069Y-80547893D01*
X112615393Y-80337569D01*
X112780644Y-80090253D01*
X112894471Y-79815451D01*
X112952500Y-79523722D01*
X112952500Y-79226278D01*
X112894471Y-78934549D01*
X112780644Y-78659747D01*
X112615393Y-78412431D01*
X112405069Y-78202107D01*
X112157753Y-78036856D01*
X111882951Y-77923029D01*
X111591222Y-77865000D01*
X111293778Y-77865000D01*
X111002049Y-77923029D01*
X110727247Y-78036856D01*
X110479931Y-78202107D01*
X110269607Y-78412431D01*
X110104356Y-78659747D01*
X109990529Y-78934549D01*
X109932500Y-79226278D01*
X108991400Y-79226278D01*
X108991400Y-79116076D01*
X108890373Y-78608178D01*
X108692201Y-78129749D01*
X108404500Y-77699174D01*
X108038326Y-77333000D01*
X107607751Y-77045299D01*
X107129322Y-76847127D01*
X106621424Y-76746100D01*
X106103576Y-76746100D01*
X105595678Y-76847127D01*
X105117249Y-77045299D01*
X104686674Y-77333000D01*
X104320500Y-77699174D01*
X104032799Y-78129749D01*
X103834627Y-78608178D01*
X103733600Y-79116076D01*
X103312500Y-79116076D01*
X103312500Y-78425208D01*
X103386173Y-78394692D01*
X103674435Y-78202081D01*
X103919581Y-77956935D01*
X104112192Y-77668673D01*
X104244864Y-77348373D01*
X104312500Y-77008345D01*
X104312500Y-76661655D01*
X104244864Y-76321627D01*
X104112192Y-76001327D01*
X103919581Y-75713065D01*
X103674435Y-75467919D01*
X103386173Y-75275308D01*
X103312500Y-75244792D01*
X103312500Y-74121655D01*
X107142500Y-74121655D01*
X107142500Y-74468345D01*
X107210136Y-74808373D01*
X107342808Y-75128673D01*
X107535419Y-75416935D01*
X107780565Y-75662081D01*
X108068827Y-75854692D01*
X108389127Y-75987364D01*
X108729155Y-76055000D01*
X109075845Y-76055000D01*
X109415873Y-75987364D01*
X109736173Y-75854692D01*
X110024435Y-75662081D01*
X110269581Y-75416935D01*
X110462192Y-75128673D01*
X110594864Y-74808373D01*
X110598784Y-74788665D01*
X113658750Y-74788665D01*
X113658750Y-75071335D01*
X113713897Y-75348574D01*
X113822070Y-75609727D01*
X113979113Y-75844759D01*
X114178991Y-76044637D01*
X114414023Y-76201680D01*
X114675176Y-76309853D01*
X114952415Y-76365000D01*
X115235085Y-76365000D01*
X115512324Y-76309853D01*
X115773477Y-76201680D01*
X116008509Y-76044637D01*
X116208387Y-75844759D01*
X116365430Y-75609727D01*
X116473603Y-75348574D01*
X116528750Y-75071335D01*
X116528750Y-74788665D01*
X116473603Y-74511426D01*
X116365430Y-74250273D01*
X116208387Y-74015241D01*
X116008509Y-73815363D01*
X115773477Y-73658320D01*
X115512324Y-73550147D01*
X115235085Y-73495000D01*
X114952415Y-73495000D01*
X114675176Y-73550147D01*
X114414023Y-73658320D01*
X114178991Y-73815363D01*
X113979113Y-74015241D01*
X113822070Y-74250273D01*
X113713897Y-74511426D01*
X113658750Y-74788665D01*
X110598784Y-74788665D01*
X110662500Y-74468345D01*
X110662500Y-74121655D01*
X110594864Y-73781627D01*
X110462192Y-73461327D01*
X110269581Y-73173065D01*
X110024435Y-72927919D01*
X109736173Y-72735308D01*
X109415873Y-72602636D01*
X109075845Y-72535000D01*
X108729155Y-72535000D01*
X108389127Y-72602636D01*
X108068827Y-72735308D01*
X107780565Y-72927919D01*
X107535419Y-73173065D01*
X107342808Y-73461327D01*
X107210136Y-73781627D01*
X107142500Y-74121655D01*
X103312500Y-74121655D01*
X103312500Y-69163043D01*
X103467259Y-69059637D01*
X103667137Y-68859759D01*
X103824180Y-68624727D01*
X103932353Y-68363574D01*
X103987500Y-68086335D01*
X103987500Y-67803665D01*
X103932353Y-67526426D01*
X103824180Y-67265273D01*
X103667137Y-67030241D01*
X103467259Y-66830363D01*
X103312500Y-66726957D01*
X103312500Y-60066076D01*
X103733600Y-60066076D01*
X103733600Y-60583924D01*
X103834627Y-61091822D01*
X104032799Y-61570251D01*
X104320500Y-62000826D01*
X104686674Y-62367000D01*
X105117249Y-62654701D01*
X105595678Y-62852873D01*
X106103576Y-62953900D01*
X106621424Y-62953900D01*
X107129322Y-62852873D01*
X107498389Y-62700000D01*
X113655678Y-62700000D01*
X113655678Y-64300000D01*
X113667938Y-64424482D01*
X113704248Y-64544180D01*
X113763213Y-64654494D01*
X113842565Y-64751185D01*
X113939256Y-64830537D01*
X114049570Y-64889502D01*
X114169268Y-64925812D01*
X114293750Y-64938072D01*
X115893750Y-64938072D01*
X116018232Y-64925812D01*
X116137930Y-64889502D01*
X116248244Y-64830537D01*
X116344935Y-64751185D01*
X116424287Y-64654494D01*
X116483252Y-64544180D01*
X116519562Y-64424482D01*
X116531822Y-64300000D01*
X116531822Y-62700000D01*
X116519562Y-62575518D01*
X116483252Y-62455820D01*
X116424287Y-62345506D01*
X116344935Y-62248815D01*
X116248244Y-62169463D01*
X116137930Y-62110498D01*
X116018232Y-62074188D01*
X115893750Y-62061928D01*
X114293750Y-62061928D01*
X114169268Y-62074188D01*
X114049570Y-62110498D01*
X113939256Y-62169463D01*
X113842565Y-62248815D01*
X113763213Y-62345506D01*
X113704248Y-62455820D01*
X113667938Y-62575518D01*
X113655678Y-62700000D01*
X107498389Y-62700000D01*
X107607751Y-62654701D01*
X108038326Y-62367000D01*
X108404500Y-62000826D01*
X108692201Y-61570251D01*
X108890373Y-61091822D01*
X108991400Y-60583924D01*
X108991400Y-60176278D01*
X109932500Y-60176278D01*
X109932500Y-60473722D01*
X109990529Y-60765451D01*
X110104356Y-61040253D01*
X110269607Y-61287569D01*
X110479931Y-61497893D01*
X110727247Y-61663144D01*
X111002049Y-61776971D01*
X111293778Y-61835000D01*
X111591222Y-61835000D01*
X111882951Y-61776971D01*
X112157753Y-61663144D01*
X112405069Y-61497893D01*
X112615393Y-61287569D01*
X112780644Y-61040253D01*
X112894471Y-60765451D01*
X112952500Y-60473722D01*
X112952500Y-60176278D01*
X112894471Y-59884549D01*
X112780644Y-59609747D01*
X112615393Y-59362431D01*
X112405069Y-59152107D01*
X112157753Y-58986856D01*
X111882951Y-58873029D01*
X111591222Y-58815000D01*
X111293778Y-58815000D01*
X111002049Y-58873029D01*
X110727247Y-58986856D01*
X110479931Y-59152107D01*
X110269607Y-59362431D01*
X110104356Y-59609747D01*
X109990529Y-59884549D01*
X109932500Y-60176278D01*
X108991400Y-60176278D01*
X108991400Y-60066076D01*
X108890373Y-59558178D01*
X108692201Y-59079749D01*
X108404500Y-58649174D01*
X108038326Y-58283000D01*
X107607751Y-57995299D01*
X107129322Y-57797127D01*
X106621424Y-57696100D01*
X106103576Y-57696100D01*
X105595678Y-57797127D01*
X105117249Y-57995299D01*
X104686674Y-58283000D01*
X104320500Y-58649174D01*
X104032799Y-59079749D01*
X103834627Y-59558178D01*
X103733600Y-60066076D01*
X103312500Y-60066076D01*
X103312500Y-59375208D01*
X103386173Y-59344692D01*
X103674435Y-59152081D01*
X103919581Y-58906935D01*
X104112192Y-58618673D01*
X104244864Y-58298373D01*
X104312500Y-57958345D01*
X104312500Y-57611655D01*
X104244864Y-57271627D01*
X104215780Y-57201413D01*
X104217502Y-57200000D01*
X104312475Y-57084275D01*
X104383047Y-56952246D01*
X104426504Y-56808985D01*
X104437501Y-56697332D01*
X104437501Y-56697324D01*
X104441177Y-56659999D01*
X104437501Y-56622674D01*
X104437501Y-55071655D01*
X107142500Y-55071655D01*
X107142500Y-55418345D01*
X107210136Y-55758373D01*
X107342808Y-56078673D01*
X107535419Y-56366935D01*
X107780565Y-56612081D01*
X108068827Y-56804692D01*
X108389127Y-56937364D01*
X108729155Y-57005000D01*
X109075845Y-57005000D01*
X109415873Y-56937364D01*
X109736173Y-56804692D01*
X110024435Y-56612081D01*
X110269581Y-56366935D01*
X110462192Y-56078673D01*
X110594864Y-55758373D01*
X110598784Y-55738665D01*
X113658750Y-55738665D01*
X113658750Y-56021335D01*
X113713897Y-56298574D01*
X113822070Y-56559727D01*
X113979113Y-56794759D01*
X114178991Y-56994637D01*
X114414023Y-57151680D01*
X114675176Y-57259853D01*
X114952415Y-57315000D01*
X115235085Y-57315000D01*
X115512324Y-57259853D01*
X115773477Y-57151680D01*
X116008509Y-56994637D01*
X116208387Y-56794759D01*
X116365430Y-56559727D01*
X116473603Y-56298574D01*
X116528750Y-56021335D01*
X116528750Y-55738665D01*
X116473603Y-55461426D01*
X116365430Y-55200273D01*
X116208387Y-54965241D01*
X116008509Y-54765363D01*
X115773477Y-54608320D01*
X115512324Y-54500147D01*
X115235085Y-54445000D01*
X114952415Y-54445000D01*
X114675176Y-54500147D01*
X114414023Y-54608320D01*
X114178991Y-54765363D01*
X113979113Y-54965241D01*
X113822070Y-55200273D01*
X113713897Y-55461426D01*
X113658750Y-55738665D01*
X110598784Y-55738665D01*
X110662500Y-55418345D01*
X110662500Y-55071655D01*
X110594864Y-54731627D01*
X110462192Y-54411327D01*
X110269581Y-54123065D01*
X110024435Y-53877919D01*
X109736173Y-53685308D01*
X109415873Y-53552636D01*
X109075845Y-53485000D01*
X108729155Y-53485000D01*
X108389127Y-53552636D01*
X108068827Y-53685308D01*
X107780565Y-53877919D01*
X107535419Y-54123065D01*
X107342808Y-54411327D01*
X107210136Y-54731627D01*
X107142500Y-55071655D01*
X104437501Y-55071655D01*
X104437501Y-43067827D01*
X104686674Y-43317000D01*
X105117249Y-43604701D01*
X105595678Y-43802873D01*
X106103576Y-43903900D01*
X106621424Y-43903900D01*
X107129322Y-43802873D01*
X107498389Y-43650000D01*
X113655678Y-43650000D01*
X113655678Y-45250000D01*
X113667938Y-45374482D01*
X113704248Y-45494180D01*
X113763213Y-45604494D01*
X113842565Y-45701185D01*
X113939256Y-45780537D01*
X114049570Y-45839502D01*
X114169268Y-45875812D01*
X114293750Y-45888072D01*
X115893750Y-45888072D01*
X116018232Y-45875812D01*
X116137930Y-45839502D01*
X116248244Y-45780537D01*
X116344935Y-45701185D01*
X116424287Y-45604494D01*
X116483252Y-45494180D01*
X116519562Y-45374482D01*
X116531822Y-45250000D01*
X116531822Y-43650000D01*
X116519562Y-43525518D01*
X116483252Y-43405820D01*
X116424287Y-43295506D01*
X116344935Y-43198815D01*
X116248244Y-43119463D01*
X116137930Y-43060498D01*
X116018232Y-43024188D01*
X115893750Y-43011928D01*
X114293750Y-43011928D01*
X114169268Y-43024188D01*
X114049570Y-43060498D01*
X113939256Y-43119463D01*
X113842565Y-43198815D01*
X113763213Y-43295506D01*
X113704248Y-43405820D01*
X113667938Y-43525518D01*
X113655678Y-43650000D01*
X107498389Y-43650000D01*
X107607751Y-43604701D01*
X108038326Y-43317000D01*
X108404500Y-42950826D01*
X108692201Y-42520251D01*
X108890373Y-42041822D01*
X108991400Y-41533924D01*
X108991400Y-41126278D01*
X109932500Y-41126278D01*
X109932500Y-41423722D01*
X109990529Y-41715451D01*
X110104356Y-41990253D01*
X110269607Y-42237569D01*
X110479931Y-42447893D01*
X110727247Y-42613144D01*
X111002049Y-42726971D01*
X111293778Y-42785000D01*
X111591222Y-42785000D01*
X111882951Y-42726971D01*
X112157753Y-42613144D01*
X112405069Y-42447893D01*
X112615393Y-42237569D01*
X112780644Y-41990253D01*
X112894471Y-41715451D01*
X112952500Y-41423722D01*
X112952500Y-41126278D01*
X112894471Y-40834549D01*
X112780644Y-40559747D01*
X112615393Y-40312431D01*
X112405069Y-40102107D01*
X112157753Y-39936856D01*
X111882951Y-39823029D01*
X111591222Y-39765000D01*
X111293778Y-39765000D01*
X111002049Y-39823029D01*
X110727247Y-39936856D01*
X110479931Y-40102107D01*
X110269607Y-40312431D01*
X110104356Y-40559747D01*
X109990529Y-40834549D01*
X109932500Y-41126278D01*
X108991400Y-41126278D01*
X108991400Y-41016076D01*
X108890373Y-40508178D01*
X108692201Y-40029749D01*
X108404500Y-39599174D01*
X108038326Y-39233000D01*
X107607751Y-38945299D01*
X107129322Y-38747127D01*
X106621424Y-38646100D01*
X106103576Y-38646100D01*
X105595678Y-38747127D01*
X105117249Y-38945299D01*
X104686674Y-39233000D01*
X104372205Y-39547469D01*
X104312475Y-39435725D01*
X104217502Y-39320000D01*
X104215780Y-39318587D01*
X104244864Y-39248373D01*
X104312500Y-38908345D01*
X104312500Y-38561655D01*
X104244864Y-38221627D01*
X104112192Y-37901327D01*
X103919581Y-37613065D01*
X103674435Y-37367919D01*
X103386173Y-37175308D01*
X103065873Y-37042636D01*
X102725845Y-36975000D01*
X102379155Y-36975000D01*
X102039127Y-37042636D01*
X101718827Y-37175308D01*
X101430565Y-37367919D01*
X101185419Y-37613065D01*
X100992808Y-37901327D01*
X100860136Y-38221627D01*
X100792500Y-38561655D01*
X100792500Y-38908345D01*
X100860136Y-39248373D01*
X100992808Y-39568673D01*
X101125138Y-39766719D01*
X100842049Y-39823029D01*
X100567247Y-39936856D01*
X100319931Y-40102107D01*
X100109607Y-40312431D01*
X99944356Y-40559747D01*
X99830529Y-40834549D01*
X99772500Y-41126278D01*
X99772500Y-41423722D01*
X99830529Y-41715451D01*
X99944356Y-41990253D01*
X100109607Y-42237569D01*
X100319931Y-42447893D01*
X100567247Y-42613144D01*
X100842049Y-42726971D01*
X101133778Y-42785000D01*
X101431222Y-42785000D01*
X101722951Y-42726971D01*
X101997753Y-42613144D01*
X102245069Y-42447893D01*
X102455393Y-42237569D01*
X102620644Y-41990253D01*
X102734471Y-41715451D01*
X102792500Y-41423722D01*
X102792500Y-41126278D01*
X102734471Y-40834549D01*
X102620644Y-40559747D01*
X102577382Y-40495000D01*
X102725845Y-40495000D01*
X102917502Y-40456877D01*
X102917501Y-51314491D01*
X102693835Y-51270000D01*
X102411165Y-51270000D01*
X102133926Y-51325147D01*
X101872773Y-51433320D01*
X101637741Y-51590363D01*
X101437863Y-51790241D01*
X101282500Y-52022759D01*
X101127137Y-51790241D01*
X100927259Y-51590363D01*
X100692227Y-51433320D01*
X100431074Y-51325147D01*
X100153835Y-51270000D01*
X99871165Y-51270000D01*
X99593926Y-51325147D01*
X99332773Y-51433320D01*
X99097741Y-51590363D01*
X98897863Y-51790241D01*
X98742500Y-52022759D01*
X98587137Y-51790241D01*
X98387259Y-51590363D01*
X98152227Y-51433320D01*
X97891074Y-51325147D01*
X97613835Y-51270000D01*
X97331165Y-51270000D01*
X97053926Y-51325147D01*
X96792773Y-51433320D01*
X96557741Y-51590363D01*
X96357863Y-51790241D01*
X96202500Y-52022759D01*
X96047137Y-51790241D01*
X95847259Y-51590363D01*
X95692500Y-51486957D01*
X95692500Y-46669801D01*
X96474230Y-45888072D01*
X97637500Y-45888072D01*
X97761982Y-45875812D01*
X97881680Y-45839502D01*
X97991994Y-45780537D01*
X98088685Y-45701185D01*
X98168037Y-45604494D01*
X98227002Y-45494180D01*
X98263312Y-45374482D01*
X98275572Y-45250000D01*
X98275572Y-43650000D01*
X98263312Y-43525518D01*
X98227002Y-43405820D01*
X98168037Y-43295506D01*
X98088685Y-43198815D01*
X97991994Y-43119463D01*
X97881680Y-43060498D01*
X97761982Y-43024188D01*
X97637500Y-43011928D01*
X96037500Y-43011928D01*
X95913018Y-43024188D01*
X95793320Y-43060498D01*
X95683006Y-43119463D01*
X95586315Y-43198815D01*
X95506963Y-43295506D01*
X95447998Y-43405820D01*
X95411688Y-43525518D01*
X95399428Y-43650000D01*
X95399428Y-44813270D01*
X94421498Y-45791201D01*
X94392500Y-45814999D01*
X94368702Y-45843997D01*
X94368701Y-45843998D01*
X94297526Y-45930724D01*
X94226954Y-46062754D01*
X94183498Y-46206015D01*
X94168824Y-46355000D01*
X94172501Y-46392332D01*
X94172500Y-51486956D01*
X94017741Y-51590363D01*
X93817863Y-51790241D01*
X93662500Y-52022759D01*
X93507137Y-51790241D01*
X93307259Y-51590363D01*
X93072227Y-51433320D01*
X92811074Y-51325147D01*
X92533835Y-51270000D01*
X92251165Y-51270000D01*
X91973926Y-51325147D01*
X91712773Y-51433320D01*
X91477741Y-51590363D01*
X91277863Y-51790241D01*
X91122500Y-52022759D01*
X90967137Y-51790241D01*
X90767259Y-51590363D01*
X90532227Y-51433320D01*
X90271074Y-51325147D01*
X89993835Y-51270000D01*
X89711165Y-51270000D01*
X89433926Y-51325147D01*
X89172773Y-51433320D01*
X88937741Y-51590363D01*
X88737863Y-51790241D01*
X88582500Y-52022759D01*
X88427137Y-51790241D01*
X88227259Y-51590363D01*
X87992227Y-51433320D01*
X87731074Y-51325147D01*
X87453835Y-51270000D01*
X87171165Y-51270000D01*
X86893926Y-51325147D01*
X86632773Y-51433320D01*
X86397741Y-51590363D01*
X86197863Y-51790241D01*
X86042500Y-52022759D01*
X85887137Y-51790241D01*
X85687259Y-51590363D01*
X85452227Y-51433320D01*
X85191074Y-51325147D01*
X84913835Y-51270000D01*
X84631165Y-51270000D01*
X84353926Y-51325147D01*
X84262500Y-51363017D01*
X84262500Y-41016076D01*
X84683600Y-41016076D01*
X84683600Y-41533924D01*
X84784627Y-42041822D01*
X84982799Y-42520251D01*
X85270500Y-42950826D01*
X85636674Y-43317000D01*
X86067249Y-43604701D01*
X86545678Y-43802873D01*
X87053576Y-43903900D01*
X87571424Y-43903900D01*
X88079322Y-43802873D01*
X88557751Y-43604701D01*
X88988326Y-43317000D01*
X89354500Y-42950826D01*
X89642201Y-42520251D01*
X89840373Y-42041822D01*
X89941400Y-41533924D01*
X89941400Y-41126278D01*
X90882500Y-41126278D01*
X90882500Y-41423722D01*
X90940529Y-41715451D01*
X91054356Y-41990253D01*
X91219607Y-42237569D01*
X91429931Y-42447893D01*
X91677247Y-42613144D01*
X91952049Y-42726971D01*
X92243778Y-42785000D01*
X92541222Y-42785000D01*
X92832951Y-42726971D01*
X93107753Y-42613144D01*
X93355069Y-42447893D01*
X93565393Y-42237569D01*
X93730644Y-41990253D01*
X93844471Y-41715451D01*
X93902500Y-41423722D01*
X93902500Y-41126278D01*
X93844471Y-40834549D01*
X93730644Y-40559747D01*
X93565393Y-40312431D01*
X93355069Y-40102107D01*
X93107753Y-39936856D01*
X92832951Y-39823029D01*
X92541222Y-39765000D01*
X92243778Y-39765000D01*
X91952049Y-39823029D01*
X91677247Y-39936856D01*
X91429931Y-40102107D01*
X91219607Y-40312431D01*
X91054356Y-40559747D01*
X90940529Y-40834549D01*
X90882500Y-41126278D01*
X89941400Y-41126278D01*
X89941400Y-41016076D01*
X89840373Y-40508178D01*
X89642201Y-40029749D01*
X89354500Y-39599174D01*
X88988326Y-39233000D01*
X88557751Y-38945299D01*
X88079322Y-38747127D01*
X87571424Y-38646100D01*
X87053576Y-38646100D01*
X86545678Y-38747127D01*
X86067249Y-38945299D01*
X85636674Y-39233000D01*
X85270500Y-39599174D01*
X84982799Y-40029749D01*
X84784627Y-40508178D01*
X84683600Y-41016076D01*
X84262500Y-41016076D01*
X84262500Y-40325208D01*
X84336173Y-40294692D01*
X84624435Y-40102081D01*
X84869581Y-39856935D01*
X85062192Y-39568673D01*
X85194864Y-39248373D01*
X85262500Y-38908345D01*
X85262500Y-38561655D01*
X85194864Y-38221627D01*
X85062192Y-37901327D01*
X84869581Y-37613065D01*
X84624435Y-37367919D01*
X84336173Y-37175308D01*
X84015873Y-37042636D01*
X83675845Y-36975000D01*
X83329155Y-36975000D01*
X82989127Y-37042636D01*
X82668827Y-37175308D01*
X82380565Y-37367919D01*
X82135419Y-37613065D01*
X81942808Y-37901327D01*
X81810136Y-38221627D01*
X81742500Y-38561655D01*
X81742500Y-38908345D01*
X81810136Y-39248373D01*
X81942808Y-39568673D01*
X82075138Y-39766719D01*
X81792049Y-39823029D01*
X81517247Y-39936856D01*
X81269931Y-40102107D01*
X81059607Y-40312431D01*
X80894356Y-40559747D01*
X80780529Y-40834549D01*
X80722500Y-41126278D01*
X80722500Y-41423722D01*
X80780529Y-41715451D01*
X80894356Y-41990253D01*
X81059607Y-42237569D01*
X81269931Y-42447893D01*
X81517247Y-42613144D01*
X81792049Y-42726971D01*
X82083778Y-42785000D01*
X82381222Y-42785000D01*
X82672951Y-42726971D01*
X82742500Y-42698163D01*
X82742501Y-51358784D01*
X82718504Y-51347429D01*
X82444316Y-51278700D01*
X82161988Y-51264783D01*
X81882370Y-51306213D01*
X81616208Y-51401397D01*
X81490986Y-51468329D01*
X81419403Y-51712298D01*
X82232500Y-52525395D01*
X82246643Y-52511253D01*
X82426248Y-52690858D01*
X82412105Y-52705000D01*
X82426248Y-52719143D01*
X82246643Y-52898748D01*
X82232500Y-52884605D01*
X81419403Y-53697702D01*
X81490986Y-53941671D01*
X81746496Y-54062571D01*
X82020684Y-54131300D01*
X82303012Y-54145217D01*
X82582630Y-54103787D01*
X82742500Y-54046615D01*
X82742501Y-56194791D01*
X82668827Y-56225308D01*
X82380565Y-56417919D01*
X82135419Y-56663065D01*
X81942808Y-56951327D01*
X81810136Y-57271627D01*
X81742500Y-57611655D01*
X81742500Y-57958345D01*
X81810136Y-58298373D01*
X81942808Y-58618673D01*
X82075138Y-58816719D01*
X81792049Y-58873029D01*
X81517247Y-58986856D01*
X81269931Y-59152107D01*
X81059607Y-59362431D01*
X80894356Y-59609747D01*
X80780529Y-59884549D01*
X80722500Y-60176278D01*
X80722500Y-60473722D01*
X80780529Y-60765451D01*
X80894356Y-61040253D01*
X81059607Y-61287569D01*
X81269931Y-61497893D01*
X81517247Y-61663144D01*
X81792049Y-61776971D01*
X82083778Y-61835000D01*
X82381222Y-61835000D01*
X82672951Y-61776971D01*
X82742500Y-61748163D01*
X82742500Y-66603017D01*
X82651074Y-66565147D01*
X82373835Y-66510000D01*
X82091165Y-66510000D01*
X81813926Y-66565147D01*
X81552773Y-66673320D01*
X81317741Y-66830363D01*
X81117863Y-67030241D01*
X80962500Y-67262759D01*
X80807137Y-67030241D01*
X80607259Y-66830363D01*
X80372227Y-66673320D01*
X80111074Y-66565147D01*
X79833835Y-66510000D01*
X79551165Y-66510000D01*
X79273926Y-66565147D01*
X79012773Y-66673320D01*
X78777741Y-66830363D01*
X78577863Y-67030241D01*
X78421585Y-67264128D01*
X78389171Y-67203486D01*
X78145202Y-67131903D01*
X77332105Y-67945000D01*
X76972895Y-67945000D01*
X76159798Y-67131903D01*
X75915829Y-67203486D01*
X75885306Y-67267992D01*
X75884180Y-67265273D01*
X75727137Y-67030241D01*
X75649194Y-66952298D01*
X76339403Y-66952298D01*
X77152500Y-67765395D01*
X77965597Y-66952298D01*
X77894014Y-66708329D01*
X77638504Y-66587429D01*
X77364316Y-66518700D01*
X77081988Y-66504783D01*
X76802370Y-66546213D01*
X76536208Y-66641397D01*
X76410986Y-66708329D01*
X76339403Y-66952298D01*
X75649194Y-66952298D01*
X75527259Y-66830363D01*
X75292227Y-66673320D01*
X75031074Y-66565147D01*
X74753835Y-66510000D01*
X74471165Y-66510000D01*
X74193926Y-66565147D01*
X73932773Y-66673320D01*
X73697741Y-66830363D01*
X73497863Y-67030241D01*
X73340820Y-67265273D01*
X73232647Y-67526426D01*
X73177500Y-67803665D01*
X65212500Y-67803665D01*
X65212500Y-66426211D01*
X65256437Y-66382274D01*
X65369705Y-66212756D01*
X65447726Y-66024398D01*
X65487500Y-65824439D01*
X65487500Y-65620561D01*
X65447726Y-65420602D01*
X65369705Y-65232244D01*
X65256437Y-65062726D01*
X65212500Y-65018789D01*
X65212500Y-60066076D01*
X65633600Y-60066076D01*
X65633600Y-60583924D01*
X65734627Y-61091822D01*
X65932799Y-61570251D01*
X66220500Y-62000826D01*
X66586674Y-62367000D01*
X67017249Y-62654701D01*
X67495678Y-62852873D01*
X68003576Y-62953900D01*
X68521424Y-62953900D01*
X69029322Y-62852873D01*
X69398389Y-62700000D01*
X76349428Y-62700000D01*
X76349428Y-64300000D01*
X76361688Y-64424482D01*
X76397998Y-64544180D01*
X76456963Y-64654494D01*
X76536315Y-64751185D01*
X76633006Y-64830537D01*
X76743320Y-64889502D01*
X76863018Y-64925812D01*
X76987500Y-64938072D01*
X78587500Y-64938072D01*
X78711982Y-64925812D01*
X78831680Y-64889502D01*
X78941994Y-64830537D01*
X79038685Y-64751185D01*
X79118037Y-64654494D01*
X79177002Y-64544180D01*
X79213312Y-64424482D01*
X79225572Y-64300000D01*
X79225572Y-62700000D01*
X79213312Y-62575518D01*
X79177002Y-62455820D01*
X79118037Y-62345506D01*
X79038685Y-62248815D01*
X78941994Y-62169463D01*
X78831680Y-62110498D01*
X78711982Y-62074188D01*
X78587500Y-62061928D01*
X76987500Y-62061928D01*
X76863018Y-62074188D01*
X76743320Y-62110498D01*
X76633006Y-62169463D01*
X76536315Y-62248815D01*
X76456963Y-62345506D01*
X76397998Y-62455820D01*
X76361688Y-62575518D01*
X76349428Y-62700000D01*
X69398389Y-62700000D01*
X69507751Y-62654701D01*
X69938326Y-62367000D01*
X70304500Y-62000826D01*
X70592201Y-61570251D01*
X70790373Y-61091822D01*
X70891400Y-60583924D01*
X70891400Y-60176278D01*
X71832500Y-60176278D01*
X71832500Y-60473722D01*
X71890529Y-60765451D01*
X72004356Y-61040253D01*
X72169607Y-61287569D01*
X72379931Y-61497893D01*
X72627247Y-61663144D01*
X72902049Y-61776971D01*
X73193778Y-61835000D01*
X73491222Y-61835000D01*
X73782951Y-61776971D01*
X74057753Y-61663144D01*
X74305069Y-61497893D01*
X74515393Y-61287569D01*
X74680644Y-61040253D01*
X74794471Y-60765451D01*
X74852500Y-60473722D01*
X74852500Y-60176278D01*
X74794471Y-59884549D01*
X74680644Y-59609747D01*
X74515393Y-59362431D01*
X74305069Y-59152107D01*
X74057753Y-58986856D01*
X73782951Y-58873029D01*
X73491222Y-58815000D01*
X73193778Y-58815000D01*
X72902049Y-58873029D01*
X72627247Y-58986856D01*
X72379931Y-59152107D01*
X72169607Y-59362431D01*
X72004356Y-59609747D01*
X71890529Y-59884549D01*
X71832500Y-60176278D01*
X70891400Y-60176278D01*
X70891400Y-60066076D01*
X70790373Y-59558178D01*
X70592201Y-59079749D01*
X70304500Y-58649174D01*
X69938326Y-58283000D01*
X69507751Y-57995299D01*
X69029322Y-57797127D01*
X68521424Y-57696100D01*
X68003576Y-57696100D01*
X67495678Y-57797127D01*
X67017249Y-57995299D01*
X66586674Y-58283000D01*
X66220500Y-58649174D01*
X65932799Y-59079749D01*
X65734627Y-59558178D01*
X65633600Y-60066076D01*
X65212500Y-60066076D01*
X65212500Y-59375208D01*
X65286173Y-59344692D01*
X65574435Y-59152081D01*
X65819581Y-58906935D01*
X66012192Y-58618673D01*
X66144864Y-58298373D01*
X66212500Y-57958345D01*
X66212500Y-57611655D01*
X66144864Y-57271627D01*
X66012192Y-56951327D01*
X65819581Y-56663065D01*
X65574435Y-56417919D01*
X65286173Y-56225308D01*
X65212500Y-56194792D01*
X65212500Y-55071655D01*
X69042500Y-55071655D01*
X69042500Y-55418345D01*
X69110136Y-55758373D01*
X69242808Y-56078673D01*
X69435419Y-56366935D01*
X69680565Y-56612081D01*
X69968827Y-56804692D01*
X70289127Y-56937364D01*
X70629155Y-57005000D01*
X70975845Y-57005000D01*
X71315873Y-56937364D01*
X71636173Y-56804692D01*
X71924435Y-56612081D01*
X72169581Y-56366935D01*
X72362192Y-56078673D01*
X72494864Y-55758373D01*
X72498784Y-55738665D01*
X76352500Y-55738665D01*
X76352500Y-56021335D01*
X76407647Y-56298574D01*
X76515820Y-56559727D01*
X76672863Y-56794759D01*
X76872741Y-56994637D01*
X77107773Y-57151680D01*
X77368926Y-57259853D01*
X77646165Y-57315000D01*
X77928835Y-57315000D01*
X78206074Y-57259853D01*
X78467227Y-57151680D01*
X78702259Y-56994637D01*
X78902137Y-56794759D01*
X79059180Y-56559727D01*
X79167353Y-56298574D01*
X79222500Y-56021335D01*
X79222500Y-55738665D01*
X79167353Y-55461426D01*
X79059180Y-55200273D01*
X78902137Y-54965241D01*
X78702259Y-54765363D01*
X78467227Y-54608320D01*
X78206074Y-54500147D01*
X77928835Y-54445000D01*
X77646165Y-54445000D01*
X77368926Y-54500147D01*
X77107773Y-54608320D01*
X76872741Y-54765363D01*
X76672863Y-54965241D01*
X76515820Y-55200273D01*
X76407647Y-55461426D01*
X76352500Y-55738665D01*
X72498784Y-55738665D01*
X72562500Y-55418345D01*
X72562500Y-55071655D01*
X72494864Y-54731627D01*
X72362192Y-54411327D01*
X72169581Y-54123065D01*
X71924435Y-53877919D01*
X71636173Y-53685308D01*
X71315873Y-53552636D01*
X70975845Y-53485000D01*
X70629155Y-53485000D01*
X70289127Y-53552636D01*
X69968827Y-53685308D01*
X69680565Y-53877919D01*
X69435419Y-54123065D01*
X69242808Y-54411327D01*
X69110136Y-54731627D01*
X69042500Y-55071655D01*
X65212500Y-55071655D01*
X65212500Y-51905000D01*
X73174428Y-51905000D01*
X73174428Y-53505000D01*
X73186688Y-53629482D01*
X73222998Y-53749180D01*
X73281963Y-53859494D01*
X73361315Y-53956185D01*
X73458006Y-54035537D01*
X73568320Y-54094502D01*
X73688018Y-54130812D01*
X73812500Y-54143072D01*
X75412500Y-54143072D01*
X75536982Y-54130812D01*
X75656680Y-54094502D01*
X75766994Y-54035537D01*
X75863685Y-53956185D01*
X75943037Y-53859494D01*
X76002002Y-53749180D01*
X76038312Y-53629482D01*
X76039143Y-53621039D01*
X76237741Y-53819637D01*
X76472773Y-53976680D01*
X76733926Y-54084853D01*
X77011165Y-54140000D01*
X77293835Y-54140000D01*
X77571074Y-54084853D01*
X77832227Y-53976680D01*
X78067259Y-53819637D01*
X78189194Y-53697702D01*
X78879403Y-53697702D01*
X78950986Y-53941671D01*
X79206496Y-54062571D01*
X79480684Y-54131300D01*
X79763012Y-54145217D01*
X80042630Y-54103787D01*
X80308792Y-54008603D01*
X80434014Y-53941671D01*
X80505597Y-53697702D01*
X79692500Y-52884605D01*
X78879403Y-53697702D01*
X78189194Y-53697702D01*
X78267137Y-53619759D01*
X78423415Y-53385872D01*
X78455829Y-53446514D01*
X78699798Y-53518097D01*
X79512895Y-52705000D01*
X79872105Y-52705000D01*
X80685202Y-53518097D01*
X80929171Y-53446514D01*
X80960471Y-53380364D01*
X80995829Y-53446514D01*
X81239798Y-53518097D01*
X82052895Y-52705000D01*
X81239798Y-51891903D01*
X80995829Y-51963486D01*
X80964529Y-52029636D01*
X80929171Y-51963486D01*
X80685202Y-51891903D01*
X79872105Y-52705000D01*
X79512895Y-52705000D01*
X78699798Y-51891903D01*
X78455829Y-51963486D01*
X78425306Y-52027992D01*
X78424180Y-52025273D01*
X78267137Y-51790241D01*
X78189194Y-51712298D01*
X78879403Y-51712298D01*
X79692500Y-52525395D01*
X80505597Y-51712298D01*
X80434014Y-51468329D01*
X80178504Y-51347429D01*
X79904316Y-51278700D01*
X79621988Y-51264783D01*
X79342370Y-51306213D01*
X79076208Y-51401397D01*
X78950986Y-51468329D01*
X78879403Y-51712298D01*
X78189194Y-51712298D01*
X78067259Y-51590363D01*
X77832227Y-51433320D01*
X77571074Y-51325147D01*
X77293835Y-51270000D01*
X77011165Y-51270000D01*
X76733926Y-51325147D01*
X76472773Y-51433320D01*
X76237741Y-51590363D01*
X76039143Y-51788961D01*
X76038312Y-51780518D01*
X76002002Y-51660820D01*
X75943037Y-51550506D01*
X75863685Y-51453815D01*
X75766994Y-51374463D01*
X75656680Y-51315498D01*
X75536982Y-51279188D01*
X75412500Y-51266928D01*
X73812500Y-51266928D01*
X73688018Y-51279188D01*
X73568320Y-51315498D01*
X73458006Y-51374463D01*
X73361315Y-51453815D01*
X73281963Y-51550506D01*
X73222998Y-51660820D01*
X73186688Y-51780518D01*
X73174428Y-51905000D01*
X65212500Y-51905000D01*
X65212500Y-41016076D01*
X65633600Y-41016076D01*
X65633600Y-41533924D01*
X65734627Y-42041822D01*
X65932799Y-42520251D01*
X66220500Y-42950826D01*
X66586674Y-43317000D01*
X67017249Y-43604701D01*
X67495678Y-43802873D01*
X68003576Y-43903900D01*
X68521424Y-43903900D01*
X69029322Y-43802873D01*
X69398389Y-43650000D01*
X76349428Y-43650000D01*
X76349428Y-45250000D01*
X76361688Y-45374482D01*
X76397998Y-45494180D01*
X76456963Y-45604494D01*
X76536315Y-45701185D01*
X76633006Y-45780537D01*
X76743320Y-45839502D01*
X76863018Y-45875812D01*
X76987500Y-45888072D01*
X78587500Y-45888072D01*
X78711982Y-45875812D01*
X78831680Y-45839502D01*
X78941994Y-45780537D01*
X79038685Y-45701185D01*
X79118037Y-45604494D01*
X79177002Y-45494180D01*
X79213312Y-45374482D01*
X79225572Y-45250000D01*
X79225572Y-43650000D01*
X79213312Y-43525518D01*
X79177002Y-43405820D01*
X79118037Y-43295506D01*
X79038685Y-43198815D01*
X78941994Y-43119463D01*
X78831680Y-43060498D01*
X78711982Y-43024188D01*
X78587500Y-43011928D01*
X76987500Y-43011928D01*
X76863018Y-43024188D01*
X76743320Y-43060498D01*
X76633006Y-43119463D01*
X76536315Y-43198815D01*
X76456963Y-43295506D01*
X76397998Y-43405820D01*
X76361688Y-43525518D01*
X76349428Y-43650000D01*
X69398389Y-43650000D01*
X69507751Y-43604701D01*
X69938326Y-43317000D01*
X70304500Y-42950826D01*
X70592201Y-42520251D01*
X70790373Y-42041822D01*
X70891400Y-41533924D01*
X70891400Y-41126278D01*
X71832500Y-41126278D01*
X71832500Y-41423722D01*
X71890529Y-41715451D01*
X72004356Y-41990253D01*
X72169607Y-42237569D01*
X72379931Y-42447893D01*
X72627247Y-42613144D01*
X72902049Y-42726971D01*
X73193778Y-42785000D01*
X73491222Y-42785000D01*
X73782951Y-42726971D01*
X74057753Y-42613144D01*
X74305069Y-42447893D01*
X74515393Y-42237569D01*
X74680644Y-41990253D01*
X74794471Y-41715451D01*
X74852500Y-41423722D01*
X74852500Y-41126278D01*
X74794471Y-40834549D01*
X74680644Y-40559747D01*
X74515393Y-40312431D01*
X74305069Y-40102107D01*
X74057753Y-39936856D01*
X73782951Y-39823029D01*
X73491222Y-39765000D01*
X73193778Y-39765000D01*
X72902049Y-39823029D01*
X72627247Y-39936856D01*
X72379931Y-40102107D01*
X72169607Y-40312431D01*
X72004356Y-40559747D01*
X71890529Y-40834549D01*
X71832500Y-41126278D01*
X70891400Y-41126278D01*
X70891400Y-41016076D01*
X70790373Y-40508178D01*
X70592201Y-40029749D01*
X70304500Y-39599174D01*
X69938326Y-39233000D01*
X69507751Y-38945299D01*
X69029322Y-38747127D01*
X68521424Y-38646100D01*
X68003576Y-38646100D01*
X67495678Y-38747127D01*
X67017249Y-38945299D01*
X66586674Y-39233000D01*
X66220500Y-39599174D01*
X65932799Y-40029749D01*
X65734627Y-40508178D01*
X65633600Y-41016076D01*
X65212500Y-41016076D01*
X65212500Y-40325208D01*
X65286173Y-40294692D01*
X65574435Y-40102081D01*
X65819581Y-39856935D01*
X66012192Y-39568673D01*
X66144864Y-39248373D01*
X66212500Y-38908345D01*
X66212500Y-38561655D01*
X66144864Y-38221627D01*
X66012192Y-37901327D01*
X65819581Y-37613065D01*
X65574435Y-37367919D01*
X65286173Y-37175308D01*
X64965873Y-37042636D01*
X64625845Y-36975000D01*
X64279155Y-36975000D01*
X63939127Y-37042636D01*
X63618827Y-37175308D01*
X63330565Y-37367919D01*
X63085419Y-37613065D01*
X62892808Y-37901327D01*
X62760136Y-38221627D01*
X62692500Y-38561655D01*
X62692500Y-38908345D01*
X62760136Y-39248373D01*
X62892808Y-39568673D01*
X63025138Y-39766719D01*
X62742049Y-39823029D01*
X62467247Y-39936856D01*
X62219931Y-40102107D01*
X62009607Y-40312431D01*
X61844356Y-40559747D01*
X61730529Y-40834549D01*
X61672500Y-41126278D01*
X55802500Y-41126278D01*
X55744471Y-40834549D01*
X55630644Y-40559747D01*
X55465393Y-40312431D01*
X55255069Y-40102107D01*
X55007753Y-39936856D01*
X54732951Y-39823029D01*
X54441222Y-39765000D01*
X54143778Y-39765000D01*
X53852049Y-39823029D01*
X53577247Y-39936856D01*
X53329931Y-40102107D01*
X53119607Y-40312431D01*
X52954356Y-40559747D01*
X52840529Y-40834549D01*
X52782500Y-41126278D01*
X51841400Y-41126278D01*
X51841400Y-41016076D01*
X51740373Y-40508178D01*
X51542201Y-40029749D01*
X51254500Y-39599174D01*
X50888326Y-39233000D01*
X50457751Y-38945299D01*
X49979322Y-38747127D01*
X49471424Y-38646100D01*
X48953576Y-38646100D01*
X48445678Y-38747127D01*
X47967249Y-38945299D01*
X47536674Y-39233000D01*
X47170500Y-39599174D01*
X46882799Y-40029749D01*
X46684627Y-40508178D01*
X46583600Y-41016076D01*
X46162500Y-41016076D01*
X46162500Y-40325208D01*
X46236173Y-40294692D01*
X46524435Y-40102081D01*
X46769581Y-39856935D01*
X46962192Y-39568673D01*
X47094864Y-39248373D01*
X47162500Y-38908345D01*
X47162500Y-38561655D01*
X47094864Y-38221627D01*
X46962192Y-37901327D01*
X46769581Y-37613065D01*
X46524435Y-37367919D01*
X46236173Y-37175308D01*
X45915873Y-37042636D01*
X45575845Y-36975000D01*
X45229155Y-36975000D01*
X44889127Y-37042636D01*
X44568827Y-37175308D01*
X44280565Y-37367919D01*
X44035419Y-37613065D01*
X43842808Y-37901327D01*
X43710136Y-38221627D01*
X43642500Y-38561655D01*
X43642500Y-38908345D01*
X43710136Y-39248373D01*
X43842808Y-39568673D01*
X43975138Y-39766719D01*
X43692049Y-39823029D01*
X43417247Y-39936856D01*
X43169931Y-40102107D01*
X42959607Y-40312431D01*
X42794356Y-40559747D01*
X42680529Y-40834549D01*
X42622500Y-41126278D01*
X38760000Y-41126278D01*
X38760000Y-36021655D01*
X49992500Y-36021655D01*
X49992500Y-36368345D01*
X50060136Y-36708373D01*
X50192808Y-37028673D01*
X50385419Y-37316935D01*
X50630565Y-37562081D01*
X50918827Y-37754692D01*
X51239127Y-37887364D01*
X51579155Y-37955000D01*
X51925845Y-37955000D01*
X52265873Y-37887364D01*
X52586173Y-37754692D01*
X52874435Y-37562081D01*
X53119581Y-37316935D01*
X53312192Y-37028673D01*
X53444864Y-36708373D01*
X53448784Y-36688665D01*
X57302500Y-36688665D01*
X57302500Y-36971335D01*
X57357647Y-37248574D01*
X57465820Y-37509727D01*
X57622863Y-37744759D01*
X57822741Y-37944637D01*
X58057773Y-38101680D01*
X58318926Y-38209853D01*
X58596165Y-38265000D01*
X58878835Y-38265000D01*
X59156074Y-38209853D01*
X59417227Y-38101680D01*
X59652259Y-37944637D01*
X59852137Y-37744759D01*
X60009180Y-37509727D01*
X60117353Y-37248574D01*
X60172500Y-36971335D01*
X60172500Y-36688665D01*
X60117353Y-36411426D01*
X60009180Y-36150273D01*
X59923241Y-36021655D01*
X69042500Y-36021655D01*
X69042500Y-36368345D01*
X69110136Y-36708373D01*
X69242808Y-37028673D01*
X69435419Y-37316935D01*
X69680565Y-37562081D01*
X69968827Y-37754692D01*
X70289127Y-37887364D01*
X70629155Y-37955000D01*
X70975845Y-37955000D01*
X71315873Y-37887364D01*
X71636173Y-37754692D01*
X71924435Y-37562081D01*
X72169581Y-37316935D01*
X72362192Y-37028673D01*
X72494864Y-36708373D01*
X72498784Y-36688665D01*
X76352500Y-36688665D01*
X76352500Y-36971335D01*
X76407647Y-37248574D01*
X76515820Y-37509727D01*
X76672863Y-37744759D01*
X76872741Y-37944637D01*
X77107773Y-38101680D01*
X77368926Y-38209853D01*
X77646165Y-38265000D01*
X77928835Y-38265000D01*
X78206074Y-38209853D01*
X78467227Y-38101680D01*
X78702259Y-37944637D01*
X78902137Y-37744759D01*
X79059180Y-37509727D01*
X79167353Y-37248574D01*
X79222500Y-36971335D01*
X79222500Y-36688665D01*
X79167353Y-36411426D01*
X79059180Y-36150273D01*
X78973241Y-36021655D01*
X88092500Y-36021655D01*
X88092500Y-36368345D01*
X88160136Y-36708373D01*
X88292808Y-37028673D01*
X88485419Y-37316935D01*
X88730565Y-37562081D01*
X89018827Y-37754692D01*
X89339127Y-37887364D01*
X89679155Y-37955000D01*
X90025845Y-37955000D01*
X90365873Y-37887364D01*
X90686173Y-37754692D01*
X90974435Y-37562081D01*
X91219581Y-37316935D01*
X91412192Y-37028673D01*
X91544864Y-36708373D01*
X91548784Y-36688665D01*
X95402500Y-36688665D01*
X95402500Y-36971335D01*
X95457647Y-37248574D01*
X95565820Y-37509727D01*
X95722863Y-37744759D01*
X95922741Y-37944637D01*
X96157773Y-38101680D01*
X96418926Y-38209853D01*
X96696165Y-38265000D01*
X96978835Y-38265000D01*
X97256074Y-38209853D01*
X97517227Y-38101680D01*
X97752259Y-37944637D01*
X97952137Y-37744759D01*
X98109180Y-37509727D01*
X98217353Y-37248574D01*
X98272500Y-36971335D01*
X98272500Y-36688665D01*
X98217353Y-36411426D01*
X98109180Y-36150273D01*
X98023241Y-36021655D01*
X107142500Y-36021655D01*
X107142500Y-36368345D01*
X107210136Y-36708373D01*
X107342808Y-37028673D01*
X107535419Y-37316935D01*
X107780565Y-37562081D01*
X108068827Y-37754692D01*
X108389127Y-37887364D01*
X108729155Y-37955000D01*
X109075845Y-37955000D01*
X109415873Y-37887364D01*
X109736173Y-37754692D01*
X110024435Y-37562081D01*
X110269581Y-37316935D01*
X110462192Y-37028673D01*
X110594864Y-36708373D01*
X110598784Y-36688665D01*
X113658750Y-36688665D01*
X113658750Y-36971335D01*
X113713897Y-37248574D01*
X113822070Y-37509727D01*
X113979113Y-37744759D01*
X114178991Y-37944637D01*
X114414023Y-38101680D01*
X114675176Y-38209853D01*
X114952415Y-38265000D01*
X115235085Y-38265000D01*
X115512324Y-38209853D01*
X115773477Y-38101680D01*
X116008509Y-37944637D01*
X116208387Y-37744759D01*
X116365430Y-37509727D01*
X116473603Y-37248574D01*
X116528750Y-36971335D01*
X116528750Y-36688665D01*
X116473603Y-36411426D01*
X116365430Y-36150273D01*
X116208387Y-35915241D01*
X116008509Y-35715363D01*
X115773477Y-35558320D01*
X115512324Y-35450147D01*
X115235085Y-35395000D01*
X114952415Y-35395000D01*
X114675176Y-35450147D01*
X114414023Y-35558320D01*
X114178991Y-35715363D01*
X113979113Y-35915241D01*
X113822070Y-36150273D01*
X113713897Y-36411426D01*
X113658750Y-36688665D01*
X110598784Y-36688665D01*
X110662500Y-36368345D01*
X110662500Y-36021655D01*
X110594864Y-35681627D01*
X110462192Y-35361327D01*
X110269581Y-35073065D01*
X110024435Y-34827919D01*
X109736173Y-34635308D01*
X109415873Y-34502636D01*
X109075845Y-34435000D01*
X108729155Y-34435000D01*
X108389127Y-34502636D01*
X108068827Y-34635308D01*
X107780565Y-34827919D01*
X107535419Y-35073065D01*
X107342808Y-35361327D01*
X107210136Y-35681627D01*
X107142500Y-36021655D01*
X98023241Y-36021655D01*
X97952137Y-35915241D01*
X97752259Y-35715363D01*
X97517227Y-35558320D01*
X97256074Y-35450147D01*
X96978835Y-35395000D01*
X96696165Y-35395000D01*
X96418926Y-35450147D01*
X96157773Y-35558320D01*
X95922741Y-35715363D01*
X95722863Y-35915241D01*
X95565820Y-36150273D01*
X95457647Y-36411426D01*
X95402500Y-36688665D01*
X91548784Y-36688665D01*
X91612500Y-36368345D01*
X91612500Y-36021655D01*
X91544864Y-35681627D01*
X91412192Y-35361327D01*
X91219581Y-35073065D01*
X90974435Y-34827919D01*
X90686173Y-34635308D01*
X90365873Y-34502636D01*
X90025845Y-34435000D01*
X89679155Y-34435000D01*
X89339127Y-34502636D01*
X89018827Y-34635308D01*
X88730565Y-34827919D01*
X88485419Y-35073065D01*
X88292808Y-35361327D01*
X88160136Y-35681627D01*
X88092500Y-36021655D01*
X78973241Y-36021655D01*
X78902137Y-35915241D01*
X78702259Y-35715363D01*
X78467227Y-35558320D01*
X78206074Y-35450147D01*
X77928835Y-35395000D01*
X77646165Y-35395000D01*
X77368926Y-35450147D01*
X77107773Y-35558320D01*
X76872741Y-35715363D01*
X76672863Y-35915241D01*
X76515820Y-36150273D01*
X76407647Y-36411426D01*
X76352500Y-36688665D01*
X72498784Y-36688665D01*
X72562500Y-36368345D01*
X72562500Y-36021655D01*
X72494864Y-35681627D01*
X72362192Y-35361327D01*
X72169581Y-35073065D01*
X71924435Y-34827919D01*
X71636173Y-34635308D01*
X71315873Y-34502636D01*
X70975845Y-34435000D01*
X70629155Y-34435000D01*
X70289127Y-34502636D01*
X69968827Y-34635308D01*
X69680565Y-34827919D01*
X69435419Y-35073065D01*
X69242808Y-35361327D01*
X69110136Y-35681627D01*
X69042500Y-36021655D01*
X59923241Y-36021655D01*
X59852137Y-35915241D01*
X59652259Y-35715363D01*
X59417227Y-35558320D01*
X59156074Y-35450147D01*
X58878835Y-35395000D01*
X58596165Y-35395000D01*
X58318926Y-35450147D01*
X58057773Y-35558320D01*
X57822741Y-35715363D01*
X57622863Y-35915241D01*
X57465820Y-36150273D01*
X57357647Y-36411426D01*
X57302500Y-36688665D01*
X53448784Y-36688665D01*
X53512500Y-36368345D01*
X53512500Y-36021655D01*
X53444864Y-35681627D01*
X53312192Y-35361327D01*
X53119581Y-35073065D01*
X52874435Y-34827919D01*
X52586173Y-34635308D01*
X52265873Y-34502636D01*
X51925845Y-34435000D01*
X51579155Y-34435000D01*
X51239127Y-34502636D01*
X50918827Y-34635308D01*
X50630565Y-34827919D01*
X50385419Y-35073065D01*
X50192808Y-35361327D01*
X50060136Y-35681627D01*
X49992500Y-36021655D01*
X38760000Y-36021655D01*
X38760000Y-33369778D01*
X38811002Y-32849616D01*
X38952694Y-32380312D01*
X39182837Y-31947475D01*
X39492678Y-31567573D01*
X39870397Y-31255097D01*
X40301627Y-31021931D01*
X40769928Y-30876968D01*
X41288153Y-30822500D01*
X114267722Y-30822500D01*
X114787884Y-30873502D01*
%TD*%
M02*
