M48
; DRILL file {KiCad (5.1.6)-1} date 06/06/20 20:33:58
; FORMAT={-:-/ absolute / inch / decimal}
; #@! TF.CreationDate,2020-06-06T20:33:58-05:00
; #@! TF.GenerationSoftware,Kicad,Pcbnew,(5.1.6)-1
; #@! TF.FileFunction,Plated,1,2,PTH
FMAT,2
INCH
T1C0.0157
T2C0.0315
T3C0.0433
T4C0.0579
%
G90
G05
T1
X3.1562Y-1.25
X3.1562Y-2.5
X3.1875Y-3.25
X3.2188Y-1.2188
X3.3438Y-1.4062
X3.3438Y-4.0
T2
X4.5625Y-2.95
X4.5625Y-3.25
X4.5625Y-3.7
X4.5625Y-4.0
X4.5625Y-1.45
X4.5625Y-1.75
X3.8125Y-1.45
X3.8125Y-1.75
X3.8125Y-3.7
X3.8125Y-4.0
X4.5625Y-2.2
X4.5625Y-2.5
X2.3125Y-2.2
X2.3125Y-2.5
X2.3125Y-2.95
X2.3125Y-3.25
X2.3125Y-1.45
X2.3125Y-1.75
X3.0625Y-2.2
X3.0625Y-2.5
X3.8125Y-2.95
X3.8125Y-3.25
X3.0625Y-2.95
X3.0625Y-3.25
X3.0625Y-3.7
X3.0625Y-4.0
X3.8125Y-2.2
X3.8125Y-2.5
X2.3125Y-3.7
X2.3125Y-4.0
X3.0625Y-1.45
X3.0625Y-1.75
T3
X2.575Y-0.4813
X2.575Y-1.0813
X2.675Y-0.4813
X2.675Y-1.0813
X2.775Y-0.4813
X2.775Y-1.0813
X2.875Y-0.4813
X2.875Y-1.0813
X2.975Y-0.4813
X2.975Y-1.0813
X3.075Y-0.4813
X3.075Y-1.0813
X3.175Y-0.4813
X3.175Y-1.0813
X3.275Y-0.4813
X3.275Y-1.0813
X3.375Y-0.4813
X3.375Y-1.0813
X3.475Y-0.4813
X3.475Y-1.0813
X3.575Y-0.4813
X3.575Y-1.0813
X3.675Y-0.4813
X3.675Y-1.0813
T4
X2.5375Y-3.775
X2.7875Y-3.675
X3.2875Y-1.525
X3.5375Y-1.425
X4.0375Y-2.275
X4.2875Y-2.175
X1.7875Y-3.775
X2.0375Y-3.675
X4.0375Y-3.025
X4.2875Y-2.925
X2.5375Y-2.275
X2.7875Y-2.175
X4.0375Y-3.775
X4.2875Y-3.675
X3.2875Y-3.775
X3.5375Y-3.675
X4.0375Y-1.525
X4.2875Y-1.425
X1.7875Y-2.275
X2.0375Y-2.175
X1.7875Y-1.525
X2.0375Y-1.425
X3.2875Y-3.025
X3.5375Y-2.925
X1.7875Y-3.025
X2.0375Y-2.925
X2.5375Y-1.525
X2.7875Y-1.425
X3.2875Y-2.275
X3.5375Y-2.175
X2.5375Y-3.025
X2.7875Y-2.925
T0
M30
