%TF.GenerationSoftware,KiCad,Pcbnew,(5.1.6)-1*%
%TF.CreationDate,2020-05-27T10:41:01-05:00*%
%TF.ProjectId,cerkit16,6365726b-6974-4313-962e-6b696361645f,rev?*%
%TF.SameCoordinates,Original*%
%TF.FileFunction,Legend,Top*%
%TF.FilePolarity,Positive*%
%FSLAX46Y46*%
G04 Gerber Fmt 4.6, Leading zero omitted, Abs format (unit mm)*
G04 Created by KiCad (PCBNEW (5.1.6)-1) date 2020-05-27 10:41:01*
%MOMM*%
%LPD*%
G01*
G04 APERTURE LIST*
%ADD10C,0.150000*%
%ADD11C,0.120000*%
%ADD12C,4.087800*%
%ADD13C,1.850000*%
%ADD14C,1.700000*%
%ADD15R,1.700000X1.700000*%
%ADD16O,1.700000X1.700000*%
G04 APERTURE END LIST*
D10*
%TO.C,U1*%
X73342500Y-69215000D02*
X103822500Y-69215000D01*
X73342500Y-64135000D02*
X73342500Y-69215000D01*
X70802500Y-64135000D02*
X73342500Y-64135000D01*
X70802500Y-56515000D02*
X70802500Y-64135000D01*
X73342500Y-56515000D02*
X70802500Y-56515000D01*
X73342500Y-51435000D02*
X73342500Y-56515000D01*
X103822500Y-51435000D02*
X73342500Y-51435000D01*
X103822500Y-69215000D02*
X103822500Y-51435000D01*
D11*
%TO.C,D16*%
X113973750Y-99310000D02*
X116213750Y-99310000D01*
X113973750Y-99070000D02*
X116213750Y-99070000D01*
X113973750Y-99190000D02*
X116213750Y-99190000D01*
X115093750Y-95020000D02*
X115093750Y-95670000D01*
X115093750Y-100560000D02*
X115093750Y-99910000D01*
X113973750Y-95670000D02*
X113973750Y-99910000D01*
X116213750Y-95670000D02*
X113973750Y-95670000D01*
X116213750Y-99910000D02*
X116213750Y-95670000D01*
X113973750Y-99910000D02*
X116213750Y-99910000D01*
%TO.C,D15*%
X95717500Y-99310000D02*
X97957500Y-99310000D01*
X95717500Y-99070000D02*
X97957500Y-99070000D01*
X95717500Y-99190000D02*
X97957500Y-99190000D01*
X96837500Y-95020000D02*
X96837500Y-95670000D01*
X96837500Y-100560000D02*
X96837500Y-99910000D01*
X95717500Y-95670000D02*
X95717500Y-99910000D01*
X97957500Y-95670000D02*
X95717500Y-95670000D01*
X97957500Y-99910000D02*
X97957500Y-95670000D01*
X95717500Y-99910000D02*
X97957500Y-99910000D01*
%TO.C,D14*%
X76667500Y-99310000D02*
X78907500Y-99310000D01*
X76667500Y-99070000D02*
X78907500Y-99070000D01*
X76667500Y-99190000D02*
X78907500Y-99190000D01*
X77787500Y-95020000D02*
X77787500Y-95670000D01*
X77787500Y-100560000D02*
X77787500Y-99910000D01*
X76667500Y-95670000D02*
X76667500Y-99910000D01*
X78907500Y-95670000D02*
X76667500Y-95670000D01*
X78907500Y-99910000D02*
X78907500Y-95670000D01*
X76667500Y-99910000D02*
X78907500Y-99910000D01*
%TO.C,D13*%
X57617500Y-99310000D02*
X59857500Y-99310000D01*
X57617500Y-99070000D02*
X59857500Y-99070000D01*
X57617500Y-99190000D02*
X59857500Y-99190000D01*
X58737500Y-95020000D02*
X58737500Y-95670000D01*
X58737500Y-100560000D02*
X58737500Y-99910000D01*
X57617500Y-95670000D02*
X57617500Y-99910000D01*
X59857500Y-95670000D02*
X57617500Y-95670000D01*
X59857500Y-99910000D02*
X59857500Y-95670000D01*
X57617500Y-99910000D02*
X59857500Y-99910000D01*
%TO.C,D12*%
X113973750Y-80260000D02*
X116213750Y-80260000D01*
X113973750Y-80020000D02*
X116213750Y-80020000D01*
X113973750Y-80140000D02*
X116213750Y-80140000D01*
X115093750Y-75970000D02*
X115093750Y-76620000D01*
X115093750Y-81510000D02*
X115093750Y-80860000D01*
X113973750Y-76620000D02*
X113973750Y-80860000D01*
X116213750Y-76620000D02*
X113973750Y-76620000D01*
X116213750Y-80860000D02*
X116213750Y-76620000D01*
X113973750Y-80860000D02*
X116213750Y-80860000D01*
%TO.C,D11*%
X95717500Y-80260000D02*
X97957500Y-80260000D01*
X95717500Y-80020000D02*
X97957500Y-80020000D01*
X95717500Y-80140000D02*
X97957500Y-80140000D01*
X96837500Y-75970000D02*
X96837500Y-76620000D01*
X96837500Y-81510000D02*
X96837500Y-80860000D01*
X95717500Y-76620000D02*
X95717500Y-80860000D01*
X97957500Y-76620000D02*
X95717500Y-76620000D01*
X97957500Y-80860000D02*
X97957500Y-76620000D01*
X95717500Y-80860000D02*
X97957500Y-80860000D01*
%TO.C,D10*%
X76667500Y-80260000D02*
X78907500Y-80260000D01*
X76667500Y-80020000D02*
X78907500Y-80020000D01*
X76667500Y-80140000D02*
X78907500Y-80140000D01*
X77787500Y-75970000D02*
X77787500Y-76620000D01*
X77787500Y-81510000D02*
X77787500Y-80860000D01*
X76667500Y-76620000D02*
X76667500Y-80860000D01*
X78907500Y-76620000D02*
X76667500Y-76620000D01*
X78907500Y-80860000D02*
X78907500Y-76620000D01*
X76667500Y-80860000D02*
X78907500Y-80860000D01*
%TO.C,D9*%
X57617500Y-80260000D02*
X59857500Y-80260000D01*
X57617500Y-80020000D02*
X59857500Y-80020000D01*
X57617500Y-80140000D02*
X59857500Y-80140000D01*
X58737500Y-75970000D02*
X58737500Y-76620000D01*
X58737500Y-81510000D02*
X58737500Y-80860000D01*
X57617500Y-76620000D02*
X57617500Y-80860000D01*
X59857500Y-76620000D02*
X57617500Y-76620000D01*
X59857500Y-80860000D02*
X59857500Y-76620000D01*
X57617500Y-80860000D02*
X59857500Y-80860000D01*
%TO.C,D8*%
X113973750Y-61210000D02*
X116213750Y-61210000D01*
X113973750Y-60970000D02*
X116213750Y-60970000D01*
X113973750Y-61090000D02*
X116213750Y-61090000D01*
X115093750Y-56920000D02*
X115093750Y-57570000D01*
X115093750Y-62460000D02*
X115093750Y-61810000D01*
X113973750Y-57570000D02*
X113973750Y-61810000D01*
X116213750Y-57570000D02*
X113973750Y-57570000D01*
X116213750Y-61810000D02*
X116213750Y-57570000D01*
X113973750Y-61810000D02*
X116213750Y-61810000D01*
%TO.C,D7*%
X95717500Y-61210000D02*
X97957500Y-61210000D01*
X95717500Y-60970000D02*
X97957500Y-60970000D01*
X95717500Y-61090000D02*
X97957500Y-61090000D01*
X96837500Y-56920000D02*
X96837500Y-57570000D01*
X96837500Y-62460000D02*
X96837500Y-61810000D01*
X95717500Y-57570000D02*
X95717500Y-61810000D01*
X97957500Y-57570000D02*
X95717500Y-57570000D01*
X97957500Y-61810000D02*
X97957500Y-57570000D01*
X95717500Y-61810000D02*
X97957500Y-61810000D01*
%TO.C,D6*%
X76667500Y-61210000D02*
X78907500Y-61210000D01*
X76667500Y-60970000D02*
X78907500Y-60970000D01*
X76667500Y-61090000D02*
X78907500Y-61090000D01*
X77787500Y-56920000D02*
X77787500Y-57570000D01*
X77787500Y-62460000D02*
X77787500Y-61810000D01*
X76667500Y-57570000D02*
X76667500Y-61810000D01*
X78907500Y-57570000D02*
X76667500Y-57570000D01*
X78907500Y-61810000D02*
X78907500Y-57570000D01*
X76667500Y-61810000D02*
X78907500Y-61810000D01*
%TO.C,D5*%
X57617500Y-61210000D02*
X59857500Y-61210000D01*
X57617500Y-60970000D02*
X59857500Y-60970000D01*
X57617500Y-61090000D02*
X59857500Y-61090000D01*
X58737500Y-56920000D02*
X58737500Y-57570000D01*
X58737500Y-62460000D02*
X58737500Y-61810000D01*
X57617500Y-57570000D02*
X57617500Y-61810000D01*
X59857500Y-57570000D02*
X57617500Y-57570000D01*
X59857500Y-61810000D02*
X59857500Y-57570000D01*
X57617500Y-61810000D02*
X59857500Y-61810000D01*
%TO.C,D4*%
X113973750Y-42160000D02*
X116213750Y-42160000D01*
X113973750Y-41920000D02*
X116213750Y-41920000D01*
X113973750Y-42040000D02*
X116213750Y-42040000D01*
X115093750Y-37870000D02*
X115093750Y-38520000D01*
X115093750Y-43410000D02*
X115093750Y-42760000D01*
X113973750Y-38520000D02*
X113973750Y-42760000D01*
X116213750Y-38520000D02*
X113973750Y-38520000D01*
X116213750Y-42760000D02*
X116213750Y-38520000D01*
X113973750Y-42760000D02*
X116213750Y-42760000D01*
%TO.C,D3*%
X95717500Y-42160000D02*
X97957500Y-42160000D01*
X95717500Y-41920000D02*
X97957500Y-41920000D01*
X95717500Y-42040000D02*
X97957500Y-42040000D01*
X96837500Y-37870000D02*
X96837500Y-38520000D01*
X96837500Y-43410000D02*
X96837500Y-42760000D01*
X95717500Y-38520000D02*
X95717500Y-42760000D01*
X97957500Y-38520000D02*
X95717500Y-38520000D01*
X97957500Y-42760000D02*
X97957500Y-38520000D01*
X95717500Y-42760000D02*
X97957500Y-42760000D01*
%TO.C,D2*%
X76667500Y-42160000D02*
X78907500Y-42160000D01*
X76667500Y-41920000D02*
X78907500Y-41920000D01*
X76667500Y-42040000D02*
X78907500Y-42040000D01*
X77787500Y-37870000D02*
X77787500Y-38520000D01*
X77787500Y-43410000D02*
X77787500Y-42760000D01*
X76667500Y-38520000D02*
X76667500Y-42760000D01*
X78907500Y-38520000D02*
X76667500Y-38520000D01*
X78907500Y-42760000D02*
X78907500Y-38520000D01*
X76667500Y-42760000D02*
X78907500Y-42760000D01*
%TO.C,D1*%
X57617500Y-42160000D02*
X59857500Y-42160000D01*
X57617500Y-41920000D02*
X59857500Y-41920000D01*
X57617500Y-42040000D02*
X59857500Y-42040000D01*
X58737500Y-37870000D02*
X58737500Y-38520000D01*
X58737500Y-43410000D02*
X58737500Y-42760000D01*
X57617500Y-38520000D02*
X57617500Y-42760000D01*
X59857500Y-38520000D02*
X57617500Y-38520000D01*
X59857500Y-42760000D02*
X59857500Y-38520000D01*
X57617500Y-42760000D02*
X59857500Y-42760000D01*
%TO.C,D16*%
D10*
X113426130Y-99004285D02*
X112426130Y-99004285D01*
X112426130Y-98766190D01*
X112473750Y-98623333D01*
X112568988Y-98528095D01*
X112664226Y-98480476D01*
X112854702Y-98432857D01*
X112997559Y-98432857D01*
X113188035Y-98480476D01*
X113283273Y-98528095D01*
X113378511Y-98623333D01*
X113426130Y-98766190D01*
X113426130Y-99004285D01*
X113426130Y-97480476D02*
X113426130Y-98051904D01*
X113426130Y-97766190D02*
X112426130Y-97766190D01*
X112568988Y-97861428D01*
X112664226Y-97956666D01*
X112711845Y-98051904D01*
X112426130Y-96623333D02*
X112426130Y-96813809D01*
X112473750Y-96909047D01*
X112521369Y-96956666D01*
X112664226Y-97051904D01*
X112854702Y-97099523D01*
X113235654Y-97099523D01*
X113330892Y-97051904D01*
X113378511Y-97004285D01*
X113426130Y-96909047D01*
X113426130Y-96718571D01*
X113378511Y-96623333D01*
X113330892Y-96575714D01*
X113235654Y-96528095D01*
X112997559Y-96528095D01*
X112902321Y-96575714D01*
X112854702Y-96623333D01*
X112807083Y-96718571D01*
X112807083Y-96909047D01*
X112854702Y-97004285D01*
X112902321Y-97051904D01*
X112997559Y-97099523D01*
X113746130Y-101861904D02*
X112746130Y-101861904D01*
X113746130Y-101290476D02*
X113174702Y-101719047D01*
X112746130Y-101290476D02*
X113317559Y-101861904D01*
%TO.C,D15*%
X95169880Y-99004285D02*
X94169880Y-99004285D01*
X94169880Y-98766190D01*
X94217500Y-98623333D01*
X94312738Y-98528095D01*
X94407976Y-98480476D01*
X94598452Y-98432857D01*
X94741309Y-98432857D01*
X94931785Y-98480476D01*
X95027023Y-98528095D01*
X95122261Y-98623333D01*
X95169880Y-98766190D01*
X95169880Y-99004285D01*
X95169880Y-97480476D02*
X95169880Y-98051904D01*
X95169880Y-97766190D02*
X94169880Y-97766190D01*
X94312738Y-97861428D01*
X94407976Y-97956666D01*
X94455595Y-98051904D01*
X94169880Y-96575714D02*
X94169880Y-97051904D01*
X94646071Y-97099523D01*
X94598452Y-97051904D01*
X94550833Y-96956666D01*
X94550833Y-96718571D01*
X94598452Y-96623333D01*
X94646071Y-96575714D01*
X94741309Y-96528095D01*
X94979404Y-96528095D01*
X95074642Y-96575714D01*
X95122261Y-96623333D01*
X95169880Y-96718571D01*
X95169880Y-96956666D01*
X95122261Y-97051904D01*
X95074642Y-97099523D01*
X95489880Y-101861904D02*
X94489880Y-101861904D01*
X95489880Y-101290476D02*
X94918452Y-101719047D01*
X94489880Y-101290476D02*
X95061309Y-101861904D01*
%TO.C,D14*%
X76119880Y-99004285D02*
X75119880Y-99004285D01*
X75119880Y-98766190D01*
X75167500Y-98623333D01*
X75262738Y-98528095D01*
X75357976Y-98480476D01*
X75548452Y-98432857D01*
X75691309Y-98432857D01*
X75881785Y-98480476D01*
X75977023Y-98528095D01*
X76072261Y-98623333D01*
X76119880Y-98766190D01*
X76119880Y-99004285D01*
X76119880Y-97480476D02*
X76119880Y-98051904D01*
X76119880Y-97766190D02*
X75119880Y-97766190D01*
X75262738Y-97861428D01*
X75357976Y-97956666D01*
X75405595Y-98051904D01*
X75453214Y-96623333D02*
X76119880Y-96623333D01*
X75072261Y-96861428D02*
X75786547Y-97099523D01*
X75786547Y-96480476D01*
X76439880Y-101861904D02*
X75439880Y-101861904D01*
X76439880Y-101290476D02*
X75868452Y-101719047D01*
X75439880Y-101290476D02*
X76011309Y-101861904D01*
%TO.C,D13*%
X57069880Y-99004285D02*
X56069880Y-99004285D01*
X56069880Y-98766190D01*
X56117500Y-98623333D01*
X56212738Y-98528095D01*
X56307976Y-98480476D01*
X56498452Y-98432857D01*
X56641309Y-98432857D01*
X56831785Y-98480476D01*
X56927023Y-98528095D01*
X57022261Y-98623333D01*
X57069880Y-98766190D01*
X57069880Y-99004285D01*
X57069880Y-97480476D02*
X57069880Y-98051904D01*
X57069880Y-97766190D02*
X56069880Y-97766190D01*
X56212738Y-97861428D01*
X56307976Y-97956666D01*
X56355595Y-98051904D01*
X56069880Y-97147142D02*
X56069880Y-96528095D01*
X56450833Y-96861428D01*
X56450833Y-96718571D01*
X56498452Y-96623333D01*
X56546071Y-96575714D01*
X56641309Y-96528095D01*
X56879404Y-96528095D01*
X56974642Y-96575714D01*
X57022261Y-96623333D01*
X57069880Y-96718571D01*
X57069880Y-97004285D01*
X57022261Y-97099523D01*
X56974642Y-97147142D01*
X57389880Y-101861904D02*
X56389880Y-101861904D01*
X57389880Y-101290476D02*
X56818452Y-101719047D01*
X56389880Y-101290476D02*
X56961309Y-101861904D01*
%TO.C,D12*%
X113426130Y-79954285D02*
X112426130Y-79954285D01*
X112426130Y-79716190D01*
X112473750Y-79573333D01*
X112568988Y-79478095D01*
X112664226Y-79430476D01*
X112854702Y-79382857D01*
X112997559Y-79382857D01*
X113188035Y-79430476D01*
X113283273Y-79478095D01*
X113378511Y-79573333D01*
X113426130Y-79716190D01*
X113426130Y-79954285D01*
X113426130Y-78430476D02*
X113426130Y-79001904D01*
X113426130Y-78716190D02*
X112426130Y-78716190D01*
X112568988Y-78811428D01*
X112664226Y-78906666D01*
X112711845Y-79001904D01*
X112521369Y-78049523D02*
X112473750Y-78001904D01*
X112426130Y-77906666D01*
X112426130Y-77668571D01*
X112473750Y-77573333D01*
X112521369Y-77525714D01*
X112616607Y-77478095D01*
X112711845Y-77478095D01*
X112854702Y-77525714D01*
X113426130Y-78097142D01*
X113426130Y-77478095D01*
X113746130Y-82811904D02*
X112746130Y-82811904D01*
X113746130Y-82240476D02*
X113174702Y-82669047D01*
X112746130Y-82240476D02*
X113317559Y-82811904D01*
%TO.C,D11*%
X95169880Y-79954285D02*
X94169880Y-79954285D01*
X94169880Y-79716190D01*
X94217500Y-79573333D01*
X94312738Y-79478095D01*
X94407976Y-79430476D01*
X94598452Y-79382857D01*
X94741309Y-79382857D01*
X94931785Y-79430476D01*
X95027023Y-79478095D01*
X95122261Y-79573333D01*
X95169880Y-79716190D01*
X95169880Y-79954285D01*
X95169880Y-78430476D02*
X95169880Y-79001904D01*
X95169880Y-78716190D02*
X94169880Y-78716190D01*
X94312738Y-78811428D01*
X94407976Y-78906666D01*
X94455595Y-79001904D01*
X95169880Y-77478095D02*
X95169880Y-78049523D01*
X95169880Y-77763809D02*
X94169880Y-77763809D01*
X94312738Y-77859047D01*
X94407976Y-77954285D01*
X94455595Y-78049523D01*
X95489880Y-82811904D02*
X94489880Y-82811904D01*
X95489880Y-82240476D02*
X94918452Y-82669047D01*
X94489880Y-82240476D02*
X95061309Y-82811904D01*
%TO.C,D10*%
X76119880Y-79954285D02*
X75119880Y-79954285D01*
X75119880Y-79716190D01*
X75167500Y-79573333D01*
X75262738Y-79478095D01*
X75357976Y-79430476D01*
X75548452Y-79382857D01*
X75691309Y-79382857D01*
X75881785Y-79430476D01*
X75977023Y-79478095D01*
X76072261Y-79573333D01*
X76119880Y-79716190D01*
X76119880Y-79954285D01*
X76119880Y-78430476D02*
X76119880Y-79001904D01*
X76119880Y-78716190D02*
X75119880Y-78716190D01*
X75262738Y-78811428D01*
X75357976Y-78906666D01*
X75405595Y-79001904D01*
X75119880Y-77811428D02*
X75119880Y-77716190D01*
X75167500Y-77620952D01*
X75215119Y-77573333D01*
X75310357Y-77525714D01*
X75500833Y-77478095D01*
X75738928Y-77478095D01*
X75929404Y-77525714D01*
X76024642Y-77573333D01*
X76072261Y-77620952D01*
X76119880Y-77716190D01*
X76119880Y-77811428D01*
X76072261Y-77906666D01*
X76024642Y-77954285D01*
X75929404Y-78001904D01*
X75738928Y-78049523D01*
X75500833Y-78049523D01*
X75310357Y-78001904D01*
X75215119Y-77954285D01*
X75167500Y-77906666D01*
X75119880Y-77811428D01*
X76439880Y-82811904D02*
X75439880Y-82811904D01*
X76439880Y-82240476D02*
X75868452Y-82669047D01*
X75439880Y-82240476D02*
X76011309Y-82811904D01*
%TO.C,D9*%
X57069880Y-79478095D02*
X56069880Y-79478095D01*
X56069880Y-79240000D01*
X56117500Y-79097142D01*
X56212738Y-79001904D01*
X56307976Y-78954285D01*
X56498452Y-78906666D01*
X56641309Y-78906666D01*
X56831785Y-78954285D01*
X56927023Y-79001904D01*
X57022261Y-79097142D01*
X57069880Y-79240000D01*
X57069880Y-79478095D01*
X57069880Y-78430476D02*
X57069880Y-78240000D01*
X57022261Y-78144761D01*
X56974642Y-78097142D01*
X56831785Y-78001904D01*
X56641309Y-77954285D01*
X56260357Y-77954285D01*
X56165119Y-78001904D01*
X56117500Y-78049523D01*
X56069880Y-78144761D01*
X56069880Y-78335238D01*
X56117500Y-78430476D01*
X56165119Y-78478095D01*
X56260357Y-78525714D01*
X56498452Y-78525714D01*
X56593690Y-78478095D01*
X56641309Y-78430476D01*
X56688928Y-78335238D01*
X56688928Y-78144761D01*
X56641309Y-78049523D01*
X56593690Y-78001904D01*
X56498452Y-77954285D01*
X57389880Y-82811904D02*
X56389880Y-82811904D01*
X57389880Y-82240476D02*
X56818452Y-82669047D01*
X56389880Y-82240476D02*
X56961309Y-82811904D01*
%TO.C,D8*%
X113426130Y-60428095D02*
X112426130Y-60428095D01*
X112426130Y-60190000D01*
X112473750Y-60047142D01*
X112568988Y-59951904D01*
X112664226Y-59904285D01*
X112854702Y-59856666D01*
X112997559Y-59856666D01*
X113188035Y-59904285D01*
X113283273Y-59951904D01*
X113378511Y-60047142D01*
X113426130Y-60190000D01*
X113426130Y-60428095D01*
X112854702Y-59285238D02*
X112807083Y-59380476D01*
X112759464Y-59428095D01*
X112664226Y-59475714D01*
X112616607Y-59475714D01*
X112521369Y-59428095D01*
X112473750Y-59380476D01*
X112426130Y-59285238D01*
X112426130Y-59094761D01*
X112473750Y-58999523D01*
X112521369Y-58951904D01*
X112616607Y-58904285D01*
X112664226Y-58904285D01*
X112759464Y-58951904D01*
X112807083Y-58999523D01*
X112854702Y-59094761D01*
X112854702Y-59285238D01*
X112902321Y-59380476D01*
X112949940Y-59428095D01*
X113045178Y-59475714D01*
X113235654Y-59475714D01*
X113330892Y-59428095D01*
X113378511Y-59380476D01*
X113426130Y-59285238D01*
X113426130Y-59094761D01*
X113378511Y-58999523D01*
X113330892Y-58951904D01*
X113235654Y-58904285D01*
X113045178Y-58904285D01*
X112949940Y-58951904D01*
X112902321Y-58999523D01*
X112854702Y-59094761D01*
X113746130Y-63761904D02*
X112746130Y-63761904D01*
X113746130Y-63190476D02*
X113174702Y-63619047D01*
X112746130Y-63190476D02*
X113317559Y-63761904D01*
%TO.C,D7*%
X95169880Y-60428095D02*
X94169880Y-60428095D01*
X94169880Y-60190000D01*
X94217500Y-60047142D01*
X94312738Y-59951904D01*
X94407976Y-59904285D01*
X94598452Y-59856666D01*
X94741309Y-59856666D01*
X94931785Y-59904285D01*
X95027023Y-59951904D01*
X95122261Y-60047142D01*
X95169880Y-60190000D01*
X95169880Y-60428095D01*
X94169880Y-59523333D02*
X94169880Y-58856666D01*
X95169880Y-59285238D01*
X95489880Y-63761904D02*
X94489880Y-63761904D01*
X95489880Y-63190476D02*
X94918452Y-63619047D01*
X94489880Y-63190476D02*
X95061309Y-63761904D01*
%TO.C,D6*%
X76119880Y-60428095D02*
X75119880Y-60428095D01*
X75119880Y-60190000D01*
X75167500Y-60047142D01*
X75262738Y-59951904D01*
X75357976Y-59904285D01*
X75548452Y-59856666D01*
X75691309Y-59856666D01*
X75881785Y-59904285D01*
X75977023Y-59951904D01*
X76072261Y-60047142D01*
X76119880Y-60190000D01*
X76119880Y-60428095D01*
X75119880Y-58999523D02*
X75119880Y-59190000D01*
X75167500Y-59285238D01*
X75215119Y-59332857D01*
X75357976Y-59428095D01*
X75548452Y-59475714D01*
X75929404Y-59475714D01*
X76024642Y-59428095D01*
X76072261Y-59380476D01*
X76119880Y-59285238D01*
X76119880Y-59094761D01*
X76072261Y-58999523D01*
X76024642Y-58951904D01*
X75929404Y-58904285D01*
X75691309Y-58904285D01*
X75596071Y-58951904D01*
X75548452Y-58999523D01*
X75500833Y-59094761D01*
X75500833Y-59285238D01*
X75548452Y-59380476D01*
X75596071Y-59428095D01*
X75691309Y-59475714D01*
X76439880Y-63761904D02*
X75439880Y-63761904D01*
X76439880Y-63190476D02*
X75868452Y-63619047D01*
X75439880Y-63190476D02*
X76011309Y-63761904D01*
%TO.C,D5*%
X57069880Y-60428095D02*
X56069880Y-60428095D01*
X56069880Y-60190000D01*
X56117500Y-60047142D01*
X56212738Y-59951904D01*
X56307976Y-59904285D01*
X56498452Y-59856666D01*
X56641309Y-59856666D01*
X56831785Y-59904285D01*
X56927023Y-59951904D01*
X57022261Y-60047142D01*
X57069880Y-60190000D01*
X57069880Y-60428095D01*
X56069880Y-58951904D02*
X56069880Y-59428095D01*
X56546071Y-59475714D01*
X56498452Y-59428095D01*
X56450833Y-59332857D01*
X56450833Y-59094761D01*
X56498452Y-58999523D01*
X56546071Y-58951904D01*
X56641309Y-58904285D01*
X56879404Y-58904285D01*
X56974642Y-58951904D01*
X57022261Y-58999523D01*
X57069880Y-59094761D01*
X57069880Y-59332857D01*
X57022261Y-59428095D01*
X56974642Y-59475714D01*
X57389880Y-63761904D02*
X56389880Y-63761904D01*
X57389880Y-63190476D02*
X56818452Y-63619047D01*
X56389880Y-63190476D02*
X56961309Y-63761904D01*
%TO.C,D4*%
X113426130Y-41378095D02*
X112426130Y-41378095D01*
X112426130Y-41140000D01*
X112473750Y-40997142D01*
X112568988Y-40901904D01*
X112664226Y-40854285D01*
X112854702Y-40806666D01*
X112997559Y-40806666D01*
X113188035Y-40854285D01*
X113283273Y-40901904D01*
X113378511Y-40997142D01*
X113426130Y-41140000D01*
X113426130Y-41378095D01*
X112759464Y-39949523D02*
X113426130Y-39949523D01*
X112378511Y-40187619D02*
X113092797Y-40425714D01*
X113092797Y-39806666D01*
X113746130Y-44711904D02*
X112746130Y-44711904D01*
X113746130Y-44140476D02*
X113174702Y-44569047D01*
X112746130Y-44140476D02*
X113317559Y-44711904D01*
%TO.C,D3*%
X95169880Y-41378095D02*
X94169880Y-41378095D01*
X94169880Y-41140000D01*
X94217500Y-40997142D01*
X94312738Y-40901904D01*
X94407976Y-40854285D01*
X94598452Y-40806666D01*
X94741309Y-40806666D01*
X94931785Y-40854285D01*
X95027023Y-40901904D01*
X95122261Y-40997142D01*
X95169880Y-41140000D01*
X95169880Y-41378095D01*
X94169880Y-40473333D02*
X94169880Y-39854285D01*
X94550833Y-40187619D01*
X94550833Y-40044761D01*
X94598452Y-39949523D01*
X94646071Y-39901904D01*
X94741309Y-39854285D01*
X94979404Y-39854285D01*
X95074642Y-39901904D01*
X95122261Y-39949523D01*
X95169880Y-40044761D01*
X95169880Y-40330476D01*
X95122261Y-40425714D01*
X95074642Y-40473333D01*
X95489880Y-44711904D02*
X94489880Y-44711904D01*
X95489880Y-44140476D02*
X94918452Y-44569047D01*
X94489880Y-44140476D02*
X95061309Y-44711904D01*
%TO.C,D2*%
X76119880Y-41378095D02*
X75119880Y-41378095D01*
X75119880Y-41140000D01*
X75167500Y-40997142D01*
X75262738Y-40901904D01*
X75357976Y-40854285D01*
X75548452Y-40806666D01*
X75691309Y-40806666D01*
X75881785Y-40854285D01*
X75977023Y-40901904D01*
X76072261Y-40997142D01*
X76119880Y-41140000D01*
X76119880Y-41378095D01*
X75215119Y-40425714D02*
X75167500Y-40378095D01*
X75119880Y-40282857D01*
X75119880Y-40044761D01*
X75167500Y-39949523D01*
X75215119Y-39901904D01*
X75310357Y-39854285D01*
X75405595Y-39854285D01*
X75548452Y-39901904D01*
X76119880Y-40473333D01*
X76119880Y-39854285D01*
X76439880Y-44711904D02*
X75439880Y-44711904D01*
X76439880Y-44140476D02*
X75868452Y-44569047D01*
X75439880Y-44140476D02*
X76011309Y-44711904D01*
%TO.C,D1*%
X57069880Y-41378095D02*
X56069880Y-41378095D01*
X56069880Y-41140000D01*
X56117500Y-40997142D01*
X56212738Y-40901904D01*
X56307976Y-40854285D01*
X56498452Y-40806666D01*
X56641309Y-40806666D01*
X56831785Y-40854285D01*
X56927023Y-40901904D01*
X57022261Y-40997142D01*
X57069880Y-41140000D01*
X57069880Y-41378095D01*
X57069880Y-39854285D02*
X57069880Y-40425714D01*
X57069880Y-40140000D02*
X56069880Y-40140000D01*
X56212738Y-40235238D01*
X56307976Y-40330476D01*
X56355595Y-40425714D01*
X57389880Y-44711904D02*
X56389880Y-44711904D01*
X57389880Y-44140476D02*
X56818452Y-44569047D01*
X56389880Y-44140476D02*
X56961309Y-44711904D01*
%TD*%
%LPC*%
D12*
%TO.C,MX8*%
X106362500Y-60325000D03*
D13*
X101282500Y-60325000D03*
X111442500Y-60325000D03*
%TD*%
D12*
%TO.C,MX11*%
X87312500Y-79375000D03*
D13*
X82232500Y-79375000D03*
X92392500Y-79375000D03*
%TD*%
D14*
%TO.C,U1*%
X74612500Y-67945000D03*
X77152500Y-67945000D03*
X79692500Y-67945000D03*
X82232500Y-67945000D03*
X84772500Y-67945000D03*
X87312500Y-67945000D03*
X89852500Y-67945000D03*
X92392500Y-67945000D03*
X94932500Y-67945000D03*
X97472500Y-67945000D03*
X100012500Y-67945000D03*
X102552500Y-67945000D03*
X102552500Y-52705000D03*
X100012500Y-52705000D03*
X97472500Y-52705000D03*
X94932500Y-52705000D03*
X92392500Y-52705000D03*
X89852500Y-52705000D03*
X87312500Y-52705000D03*
X84772500Y-52705000D03*
X82232500Y-52705000D03*
X79692500Y-52705000D03*
X77152500Y-52705000D03*
D15*
X74612500Y-52705000D03*
%TD*%
D12*
%TO.C,MX16*%
X106362500Y-98425000D03*
D13*
X101282500Y-98425000D03*
X111442500Y-98425000D03*
%TD*%
D12*
%TO.C,MX15*%
X87312500Y-98425000D03*
D13*
X82232500Y-98425000D03*
X92392500Y-98425000D03*
%TD*%
D12*
%TO.C,MX14*%
X68262500Y-98425000D03*
D13*
X63182500Y-98425000D03*
X73342500Y-98425000D03*
%TD*%
D12*
%TO.C,MX13*%
X49212500Y-98425000D03*
D13*
X44132500Y-98425000D03*
X54292500Y-98425000D03*
%TD*%
D12*
%TO.C,MX12*%
X106362500Y-79375000D03*
D13*
X101282500Y-79375000D03*
X111442500Y-79375000D03*
%TD*%
D12*
%TO.C,MX10*%
X68262500Y-79375000D03*
D13*
X63182500Y-79375000D03*
X73342500Y-79375000D03*
%TD*%
D12*
%TO.C,MX9*%
X49212500Y-79375000D03*
D13*
X44132500Y-79375000D03*
X54292500Y-79375000D03*
%TD*%
D12*
%TO.C,MX7*%
X87312500Y-60325000D03*
D13*
X82232500Y-60325000D03*
X92392500Y-60325000D03*
%TD*%
D12*
%TO.C,MX6*%
X68262500Y-60325000D03*
D13*
X63182500Y-60325000D03*
X73342500Y-60325000D03*
%TD*%
D12*
%TO.C,MX5*%
X49212500Y-60325000D03*
D13*
X44132500Y-60325000D03*
X54292500Y-60325000D03*
%TD*%
D12*
%TO.C,MX4*%
X106362500Y-41275000D03*
D13*
X101282500Y-41275000D03*
X111442500Y-41275000D03*
%TD*%
D12*
%TO.C,MX3*%
X87312500Y-41275000D03*
D13*
X82232500Y-41275000D03*
X92392500Y-41275000D03*
%TD*%
D12*
%TO.C,MX2*%
X68262500Y-41275000D03*
D13*
X63182500Y-41275000D03*
X73342500Y-41275000D03*
%TD*%
D12*
%TO.C,MX1*%
X49212500Y-41275000D03*
D13*
X44132500Y-41275000D03*
X54292500Y-41275000D03*
%TD*%
D16*
%TO.C,D16*%
X115093750Y-93980000D03*
D15*
X115093750Y-101600000D03*
%TD*%
D16*
%TO.C,D15*%
X96837500Y-93980000D03*
D15*
X96837500Y-101600000D03*
%TD*%
D16*
%TO.C,D14*%
X77787500Y-93980000D03*
D15*
X77787500Y-101600000D03*
%TD*%
D16*
%TO.C,D13*%
X58737500Y-93980000D03*
D15*
X58737500Y-101600000D03*
%TD*%
D16*
%TO.C,D12*%
X115093750Y-74930000D03*
D15*
X115093750Y-82550000D03*
%TD*%
D16*
%TO.C,D11*%
X96837500Y-74930000D03*
D15*
X96837500Y-82550000D03*
%TD*%
D16*
%TO.C,D10*%
X77787500Y-74930000D03*
D15*
X77787500Y-82550000D03*
%TD*%
D16*
%TO.C,D9*%
X58737500Y-74930000D03*
D15*
X58737500Y-82550000D03*
%TD*%
D16*
%TO.C,D8*%
X115093750Y-55880000D03*
D15*
X115093750Y-63500000D03*
%TD*%
D16*
%TO.C,D7*%
X96837500Y-55880000D03*
D15*
X96837500Y-63500000D03*
%TD*%
D16*
%TO.C,D6*%
X77787500Y-55880000D03*
D15*
X77787500Y-63500000D03*
%TD*%
D16*
%TO.C,D5*%
X58737500Y-55880000D03*
D15*
X58737500Y-63500000D03*
%TD*%
D16*
%TO.C,D4*%
X115093750Y-36830000D03*
D15*
X115093750Y-44450000D03*
%TD*%
D16*
%TO.C,D3*%
X96837500Y-36830000D03*
D15*
X96837500Y-44450000D03*
%TD*%
D16*
%TO.C,D2*%
X77787500Y-36830000D03*
D15*
X77787500Y-44450000D03*
%TD*%
D16*
%TO.C,D1*%
X58737500Y-36830000D03*
D15*
X58737500Y-44450000D03*
%TD*%
M02*
