%TF.GenerationSoftware,KiCad,Pcbnew,(5.1.6)-1*%
%TF.CreationDate,2020-06-06T20:34:11-05:00*%
%TF.ProjectId,cerkit16,6365726b-6974-4313-962e-6b696361645f,rev?*%
%TF.SameCoordinates,Original*%
%TF.FileFunction,Soldermask,Top*%
%TF.FilePolarity,Negative*%
%FSLAX46Y46*%
G04 Gerber Fmt 4.6, Leading zero omitted, Abs format (unit mm)*
G04 Created by KiCad (PCBNEW (5.1.6)-1) date 2020-06-06 20:34:11*
%MOMM*%
%LPD*%
G01*
G04 APERTURE LIST*
%ADD10C,4.087800*%
%ADD11C,1.850000*%
%ADD12C,1.700000*%
%ADD13R,1.700000X1.700000*%
%ADD14O,1.700000X1.700000*%
G04 APERTURE END LIST*
D10*
%TO.C,MX11*%
X87312500Y-79375000D03*
D11*
X82232500Y-79375000D03*
X92392500Y-79375000D03*
%TD*%
D12*
%TO.C,U1*%
X65405000Y-12223750D03*
X67945000Y-12223750D03*
X70485000Y-12223750D03*
X73025000Y-12223750D03*
X75565000Y-12223750D03*
X78105000Y-12223750D03*
X80645000Y-12223750D03*
X83185000Y-12223750D03*
X85725000Y-12223750D03*
X88265000Y-12223750D03*
X90805000Y-12223750D03*
X93345000Y-12223750D03*
X93345000Y-27463750D03*
X90805000Y-27463750D03*
X88265000Y-27463750D03*
X85725000Y-27463750D03*
X83185000Y-27463750D03*
X80645000Y-27463750D03*
X78105000Y-27463750D03*
X75565000Y-27463750D03*
X73025000Y-27463750D03*
X70485000Y-27463750D03*
X67945000Y-27463750D03*
D13*
X65405000Y-27463750D03*
%TD*%
D10*
%TO.C,MX16*%
X106362500Y-98425000D03*
D11*
X101282500Y-98425000D03*
X111442500Y-98425000D03*
%TD*%
D10*
%TO.C,MX15*%
X87312500Y-98425000D03*
D11*
X82232500Y-98425000D03*
X92392500Y-98425000D03*
%TD*%
D10*
%TO.C,MX14*%
X68262500Y-98425000D03*
D11*
X63182500Y-98425000D03*
X73342500Y-98425000D03*
%TD*%
D10*
%TO.C,MX13*%
X49212500Y-98425000D03*
D11*
X44132500Y-98425000D03*
X54292500Y-98425000D03*
%TD*%
D10*
%TO.C,MX12*%
X106362500Y-79375000D03*
D11*
X101282500Y-79375000D03*
X111442500Y-79375000D03*
%TD*%
D10*
%TO.C,MX10*%
X68262500Y-79375000D03*
D11*
X63182500Y-79375000D03*
X73342500Y-79375000D03*
%TD*%
D10*
%TO.C,MX9*%
X49212500Y-79375000D03*
D11*
X44132500Y-79375000D03*
X54292500Y-79375000D03*
%TD*%
D10*
%TO.C,MX8*%
X106362500Y-60325000D03*
D11*
X101282500Y-60325000D03*
X111442500Y-60325000D03*
%TD*%
D10*
%TO.C,MX7*%
X87312500Y-60325000D03*
D11*
X82232500Y-60325000D03*
X92392500Y-60325000D03*
%TD*%
D10*
%TO.C,MX6*%
X68262500Y-60325000D03*
D11*
X63182500Y-60325000D03*
X73342500Y-60325000D03*
%TD*%
D10*
%TO.C,MX5*%
X49212500Y-60325000D03*
D11*
X44132500Y-60325000D03*
X54292500Y-60325000D03*
%TD*%
D10*
%TO.C,MX4*%
X106362500Y-41275000D03*
D11*
X101282500Y-41275000D03*
X111442500Y-41275000D03*
%TD*%
D10*
%TO.C,MX3*%
X87312500Y-41275000D03*
D11*
X82232500Y-41275000D03*
X92392500Y-41275000D03*
%TD*%
D10*
%TO.C,MX2*%
X68262500Y-41275000D03*
D11*
X63182500Y-41275000D03*
X73342500Y-41275000D03*
%TD*%
D10*
%TO.C,MX1*%
X49212500Y-41275000D03*
D11*
X44132500Y-41275000D03*
X54292500Y-41275000D03*
%TD*%
D14*
%TO.C,D16*%
X115887500Y-93980000D03*
D13*
X115887500Y-101600000D03*
%TD*%
D14*
%TO.C,D15*%
X96837500Y-93980000D03*
D13*
X96837500Y-101600000D03*
%TD*%
D14*
%TO.C,D14*%
X77787500Y-93980000D03*
D13*
X77787500Y-101600000D03*
%TD*%
D14*
%TO.C,D13*%
X58737500Y-93980000D03*
D13*
X58737500Y-101600000D03*
%TD*%
D14*
%TO.C,D12*%
X115887500Y-74930000D03*
D13*
X115887500Y-82550000D03*
%TD*%
D14*
%TO.C,D11*%
X96837500Y-74930000D03*
D13*
X96837500Y-82550000D03*
%TD*%
D14*
%TO.C,D10*%
X77787500Y-74930000D03*
D13*
X77787500Y-82550000D03*
%TD*%
D14*
%TO.C,D9*%
X58737500Y-74930000D03*
D13*
X58737500Y-82550000D03*
%TD*%
D14*
%TO.C,D8*%
X115887500Y-55880000D03*
D13*
X115887500Y-63500000D03*
%TD*%
D14*
%TO.C,D7*%
X96837500Y-55880000D03*
D13*
X96837500Y-63500000D03*
%TD*%
D14*
%TO.C,D6*%
X77787500Y-55880000D03*
D13*
X77787500Y-63500000D03*
%TD*%
D14*
%TO.C,D5*%
X58737500Y-55880000D03*
D13*
X58737500Y-63500000D03*
%TD*%
D14*
%TO.C,D4*%
X115887500Y-36830000D03*
D13*
X115887500Y-44450000D03*
%TD*%
D14*
%TO.C,D3*%
X96837500Y-36830000D03*
D13*
X96837500Y-44450000D03*
%TD*%
D14*
%TO.C,D2*%
X77787500Y-36830000D03*
D13*
X77787500Y-44450000D03*
%TD*%
D14*
%TO.C,D1*%
X58737500Y-36830000D03*
D13*
X58737500Y-44450000D03*
%TD*%
M02*
